<?xml version="1.0" encoding="utf-8" standalone="no"?>
<!DOCTYPE svg PUBLIC "-//W3C//DTD SVG 1.1//EN"
  "http://www.w3.org/Graphics/SVG/1.1/DTD/svg11.dtd">
<!-- Created with matplotlib (https://matplotlib.org/) -->
<svg height="288pt" version="1.1" viewBox="0 0 432 288" width="432pt" xmlns="http://www.w3.org/2000/svg" xmlns:xlink="http://www.w3.org/1999/xlink">
 <defs>
  <style type="text/css">
*{stroke-linecap:butt;stroke-linejoin:round;}
  </style>
 </defs>
 <g id="figure_1">
  <g id="patch_1">
   <path d="M 0 288 
L 432 288 
L 432 0 
L 0 0 
z
" style="fill:#ffffff;"/>
  </g>
  <g id="axes_1">
   <g id="patch_2">
    <path d="M 54 252 
L 388.8 252 
L 388.8 34.56 
L 54 34.56 
z
" style="fill:#ffffff;"/>
   </g>
   <g id="PathCollection_1">
    <defs>
     <path d="M 0 3 
C 0.795609 3 1.55874 2.683901 2.12132 2.12132 
C 2.683901 1.55874 3 0.795609 3 0 
C 3 -0.795609 2.683901 -1.55874 2.12132 -2.12132 
C 1.55874 -2.683901 0.795609 -3 0 -3 
C -0.795609 -3 -1.55874 -2.683901 -2.12132 -2.12132 
C -2.683901 -1.55874 -3 -0.795609 -3 0 
C -3 0.795609 -2.683901 1.55874 -2.12132 2.12132 
C -1.55874 2.683901 -0.795609 3 0 3 
z
" id="mbbe8687734" style="stroke:#1f77b4;"/>
    </defs>
    <g clip-path="url(#p6a6ce73613)">
     <use style="fill:#1f77b4;stroke:#1f77b4;" x="309.47574" xlink:href="#mbbe8687734" y="109.751271"/>
     <use style="fill:#1f77b4;stroke:#1f77b4;" x="202.974107" xlink:href="#mbbe8687734" y="177.740144"/>
     <use style="fill:#1f77b4;stroke:#1f77b4;" x="172.19955" xlink:href="#mbbe8687734" y="176.378744"/>
     <use style="fill:#1f77b4;stroke:#1f77b4;" x="258.051471" xlink:href="#mbbe8687734" y="161.15712"/>
     <use style="fill:#1f77b4;stroke:#1f77b4;" x="193.829196" xlink:href="#mbbe8687734" y="113.989856"/>
     <use style="fill:#1f77b4;stroke:#1f77b4;" x="298.740586" xlink:href="#mbbe8687734" y="123.005224"/>
     <use style="fill:#1f77b4;stroke:#1f77b4;" x="135.299041" xlink:href="#mbbe8687734" y="191.596008"/>
     <use style="fill:#1f77b4;stroke:#1f77b4;" x="144.678027" xlink:href="#mbbe8687734" y="127.437643"/>
     <use style="fill:#1f77b4;stroke:#1f77b4;" x="157.649337" xlink:href="#mbbe8687734" y="155.721814"/>
     <use style="fill:#1f77b4;stroke:#1f77b4;" x="136.595589" xlink:href="#mbbe8687734" y="196.449131"/>
     <use style="fill:#1f77b4;stroke:#1f77b4;" x="218.724839" xlink:href="#mbbe8687734" y="178.773275"/>
     <use style="fill:#1f77b4;stroke:#1f77b4;" x="183.59505" xlink:href="#mbbe8687734" y="174.525285"/>
     <use style="fill:#1f77b4;stroke:#1f77b4;" x="202.264427" xlink:href="#mbbe8687734" y="183.894217"/>
     <use style="fill:#1f77b4;stroke:#1f77b4;" x="141.207708" xlink:href="#mbbe8687734" y="156.581236"/>
     <use style="fill:#1f77b4;stroke:#1f77b4;" x="151.680923" xlink:href="#mbbe8687734" y="193.023638"/>
     <use style="fill:#1f77b4;stroke:#1f77b4;" x="177.662851" xlink:href="#mbbe8687734" y="173.260887"/>
     <use style="fill:#1f77b4;stroke:#1f77b4;" x="207.329029" xlink:href="#mbbe8687734" y="150.953539"/>
     <use style="fill:#1f77b4;stroke:#1f77b4;" x="151.517622" xlink:href="#mbbe8687734" y="184.088169"/>
     <use style="fill:#1f77b4;stroke:#1f77b4;" x="202.942871" xlink:href="#mbbe8687734" y="129.921649"/>
     <use style="fill:#1f77b4;stroke:#1f77b4;" x="200.86002" xlink:href="#mbbe8687734" y="187.471413"/>
     <use style="fill:#1f77b4;stroke:#1f77b4;" x="142.340891" xlink:href="#mbbe8687734" y="219.894004"/>
     <use style="fill:#1f77b4;stroke:#1f77b4;" x="149.873117" xlink:href="#mbbe8687734" y="154.116765"/>
     <use style="fill:#1f77b4;stroke:#1f77b4;" x="99.27084" xlink:href="#mbbe8687734" y="153.420855"/>
     <use style="fill:#1f77b4;stroke:#1f77b4;" x="198.364855" xlink:href="#mbbe8687734" y="152.556907"/>
     <use style="fill:#1f77b4;stroke:#1f77b4;" x="192.879942" xlink:href="#mbbe8687734" y="164.026734"/>
     <use style="fill:#1f77b4;stroke:#1f77b4;" x="210.596507" xlink:href="#mbbe8687734" y="209.844092"/>
     <use style="fill:#1f77b4;stroke:#1f77b4;" x="141.819848" xlink:href="#mbbe8687734" y="87.155454"/>
     <use style="fill:#1f77b4;stroke:#1f77b4;" x="192.82476" xlink:href="#mbbe8687734" y="170.415996"/>
     <use style="fill:#1f77b4;stroke:#1f77b4;" x="294.436233" xlink:href="#mbbe8687734" y="163.604216"/>
     <use style="fill:#1f77b4;stroke:#1f77b4;" x="232.40979" xlink:href="#mbbe8687734" y="216.811031"/>
     <use style="fill:#1f77b4;stroke:#1f77b4;" x="175.538043" xlink:href="#mbbe8687734" y="178.602637"/>
     <use style="fill:#1f77b4;stroke:#1f77b4;" x="199.210151" xlink:href="#mbbe8687734" y="195.067336"/>
     <use style="fill:#1f77b4;stroke:#1f77b4;" x="314.444164" xlink:href="#mbbe8687734" y="205.620397"/>
     <use style="fill:#1f77b4;stroke:#1f77b4;" x="79.050808" xlink:href="#mbbe8687734" y="189.329507"/>
     <use style="fill:#1f77b4;stroke:#1f77b4;" x="161.293053" xlink:href="#mbbe8687734" y="143.670854"/>
     <use style="fill:#1f77b4;stroke:#1f77b4;" x="149.897912" xlink:href="#mbbe8687734" y="79.966354"/>
     <use style="fill:#1f77b4;stroke:#1f77b4;" x="90.741391" xlink:href="#mbbe8687734" y="208.275687"/>
     <use style="fill:#1f77b4;stroke:#1f77b4;" x="191.313977" xlink:href="#mbbe8687734" y="194.050797"/>
     <use style="fill:#1f77b4;stroke:#1f77b4;" x="211.439265" xlink:href="#mbbe8687734" y="228.057143"/>
     <use style="fill:#1f77b4;stroke:#1f77b4;" x="93.33461" xlink:href="#mbbe8687734" y="194.257523"/>
     <use style="fill:#1f77b4;stroke:#1f77b4;" x="268.348955" xlink:href="#mbbe8687734" y="186.03692"/>
     <use style="fill:#1f77b4;stroke:#1f77b4;" x="94.650158" xlink:href="#mbbe8687734" y="241.698641"/>
     <use style="fill:#1f77b4;stroke:#1f77b4;" x="124.80031" xlink:href="#mbbe8687734" y="141.922267"/>
     <use style="fill:#1f77b4;stroke:#1f77b4;" x="238.416545" xlink:href="#mbbe8687734" y="181.35014"/>
     <use style="fill:#1f77b4;stroke:#1f77b4;" x="213.98807" xlink:href="#mbbe8687734" y="204.038351"/>
     <use style="fill:#1f77b4;stroke:#1f77b4;" x="157.114216" xlink:href="#mbbe8687734" y="166.981073"/>
     <use style="fill:#1f77b4;stroke:#1f77b4;" x="194.710362" xlink:href="#mbbe8687734" y="164.703152"/>
     <use style="fill:#1f77b4;stroke:#1f77b4;" x="262.628242" xlink:href="#mbbe8687734" y="93.110718"/>
     <use style="fill:#1f77b4;stroke:#1f77b4;" x="160.665537" xlink:href="#mbbe8687734" y="44.675834"/>
     <use style="fill:#1f77b4;stroke:#1f77b4;" x="195.116103" xlink:href="#mbbe8687734" y="186.537134"/>
     <use style="fill:#1f77b4;stroke:#1f77b4;" x="246.113436" xlink:href="#mbbe8687734" y="194.212711"/>
     <use style="fill:#1f77b4;stroke:#1f77b4;" x="149.632351" xlink:href="#mbbe8687734" y="144.067045"/>
     <use style="fill:#1f77b4;stroke:#1f77b4;" x="373.385205" xlink:href="#mbbe8687734" y="241.884166"/>
     <use style="fill:#1f77b4;stroke:#1f77b4;" x="192.458028" xlink:href="#mbbe8687734" y="193.446873"/>
     <use style="fill:#1f77b4;stroke:#1f77b4;" x="153.865729" xlink:href="#mbbe8687734" y="160.814193"/>
     <use style="fill:#1f77b4;stroke:#1f77b4;" x="207.02529" xlink:href="#mbbe8687734" y="195.942428"/>
     <use style="fill:#1f77b4;stroke:#1f77b4;" x="180.516195" xlink:href="#mbbe8687734" y="151.708863"/>
     <use style="fill:#1f77b4;stroke:#1f77b4;" x="187.853941" xlink:href="#mbbe8687734" y="185.939794"/>
     <use style="fill:#1f77b4;stroke:#1f77b4;" x="127.681499" xlink:href="#mbbe8687734" y="177.484952"/>
     <use style="fill:#1f77b4;stroke:#1f77b4;" x="260.114534" xlink:href="#mbbe8687734" y="201.850264"/>
     <use style="fill:#1f77b4;stroke:#1f77b4;" x="158.384953" xlink:href="#mbbe8687734" y="150.816354"/>
     <use style="fill:#1f77b4;stroke:#1f77b4;" x="267.147211" xlink:href="#mbbe8687734" y="136.827735"/>
     <use style="fill:#1f77b4;stroke:#1f77b4;" x="173.417527" xlink:href="#mbbe8687734" y="202.298644"/>
     <use style="fill:#1f77b4;stroke:#1f77b4;" x="210.524803" xlink:href="#mbbe8687734" y="133.546923"/>
     <use style="fill:#1f77b4;stroke:#1f77b4;" x="141.776178" xlink:href="#mbbe8687734" y="216.851977"/>
     <use style="fill:#1f77b4;stroke:#1f77b4;" x="226.941478" xlink:href="#mbbe8687734" y="159.579272"/>
     <use style="fill:#1f77b4;stroke:#1f77b4;" x="105.819859" xlink:href="#mbbe8687734" y="185.519944"/>
     <use style="fill:#1f77b4;stroke:#1f77b4;" x="129.721494" xlink:href="#mbbe8687734" y="141.353325"/>
     <use style="fill:#1f77b4;stroke:#1f77b4;" x="149.800186" xlink:href="#mbbe8687734" y="128.69671"/>
     <use style="fill:#1f77b4;stroke:#1f77b4;" x="255.984503" xlink:href="#mbbe8687734" y="123.972075"/>
     <use style="fill:#1f77b4;stroke:#1f77b4;" x="149.359304" xlink:href="#mbbe8687734" y="129.267984"/>
     <use style="fill:#1f77b4;stroke:#1f77b4;" x="198.586511" xlink:href="#mbbe8687734" y="172.41767"/>
     <use style="fill:#1f77b4;stroke:#1f77b4;" x="132.060395" xlink:href="#mbbe8687734" y="198.313779"/>
     <use style="fill:#1f77b4;stroke:#1f77b4;" x="148.391966" xlink:href="#mbbe8687734" y="146.324896"/>
     <use style="fill:#1f77b4;stroke:#1f77b4;" x="69.414795" xlink:href="#mbbe8687734" y="180.833769"/>
     <use style="fill:#1f77b4;stroke:#1f77b4;" x="197.348927" xlink:href="#mbbe8687734" y="191.122444"/>
     <use style="fill:#1f77b4;stroke:#1f77b4;" x="149.310073" xlink:href="#mbbe8687734" y="151.761839"/>
     <use style="fill:#1f77b4;stroke:#1f77b4;" x="214.725647" xlink:href="#mbbe8687734" y="146.298452"/>
     <use style="fill:#1f77b4;stroke:#1f77b4;" x="118.004662" xlink:href="#mbbe8687734" y="181.263616"/>
     <use style="fill:#1f77b4;stroke:#1f77b4;" x="213.987203" xlink:href="#mbbe8687734" y="203.269669"/>
    </g>
   </g>
   <g id="PathCollection_2">
    <defs>
     <path d="M 0 3 
C 0.795609 3 1.55874 2.683901 2.12132 2.12132 
C 2.683901 1.55874 3 0.795609 3 0 
C 3 -0.795609 2.683901 -1.55874 2.12132 -2.12132 
C 1.55874 -2.683901 0.795609 -3 0 -3 
C -0.795609 -3 -1.55874 -2.683901 -2.12132 -2.12132 
C -2.683901 -1.55874 -3 -0.795609 -3 0 
C -3 0.795609 -2.683901 1.55874 -2.12132 2.12132 
C -1.55874 2.683901 -0.795609 3 0 3 
z
" id="m68f6a04c56" style="stroke:#ff7f0e;"/>
    </defs>
    <g clip-path="url(#p6a6ce73613)">
     <use style="fill:#ff7f0e;stroke:#ff7f0e;" x="294.436233" xlink:href="#m68f6a04c56" y="163.604216"/>
     <use style="fill:#ff7f0e;stroke:#ff7f0e;" x="193.829196" xlink:href="#m68f6a04c56" y="113.989856"/>
     <use style="fill:#ff7f0e;stroke:#ff7f0e;" x="79.050808" xlink:href="#m68f6a04c56" y="189.329507"/>
     <use style="fill:#ff7f0e;stroke:#ff7f0e;" x="124.80031" xlink:href="#m68f6a04c56" y="141.922267"/>
     <use style="fill:#ff7f0e;stroke:#ff7f0e;" x="193.829196" xlink:href="#m68f6a04c56" y="113.989856"/>
     <use style="fill:#ff7f0e;stroke:#ff7f0e;" x="232.40979" xlink:href="#m68f6a04c56" y="216.811031"/>
     <use style="fill:#ff7f0e;stroke:#ff7f0e;" x="255.984503" xlink:href="#m68f6a04c56" y="123.972075"/>
     <use style="fill:#ff7f0e;stroke:#ff7f0e;" x="262.628242" xlink:href="#m68f6a04c56" y="93.110718"/>
     <use style="fill:#ff7f0e;stroke:#ff7f0e;" x="141.776178" xlink:href="#m68f6a04c56" y="216.851977"/>
     <use style="fill:#ff7f0e;stroke:#ff7f0e;" x="309.47574" xlink:href="#m68f6a04c56" y="109.751271"/>
    </g>
   </g>
   <g id="matplotlib.axis_1">
    <g id="xtick_1">
     <g id="line2d_1">
      <defs>
       <path d="M 0 0 
L 0 3.5 
" id="mc05faab4ec" style="stroke:#000000;stroke-width:0.8;"/>
      </defs>
      <g>
       <use style="stroke:#000000;stroke-width:0.8;" x="96.833725" xlink:href="#mc05faab4ec" y="168.665089"/>
      </g>
     </g>
     <g id="text_1">
      <!-- −4 -->
      <defs>
       <path d="M 10.59375 35.5 
L 73.1875 35.5 
L 73.1875 27.203125 
L 10.59375 27.203125 
z
" id="DejaVuSans-8722"/>
       <path d="M 37.796875 64.3125 
L 12.890625 25.390625 
L 37.796875 25.390625 
z
M 35.203125 72.90625 
L 47.609375 72.90625 
L 47.609375 25.390625 
L 58.015625 25.390625 
L 58.015625 17.1875 
L 47.609375 17.1875 
L 47.609375 0 
L 37.796875 0 
L 37.796875 17.1875 
L 4.890625 17.1875 
L 4.890625 26.703125 
z
" id="DejaVuSans-52"/>
      </defs>
      <g transform="translate(89.462631 183.263527)scale(0.1 -0.1)">
       <use xlink:href="#DejaVuSans-8722"/>
       <use x="83.789062" xlink:href="#DejaVuSans-52"/>
      </g>
     </g>
    </g>
    <g id="xtick_2">
     <g id="line2d_2">
      <g>
       <use style="stroke:#000000;stroke-width:0.8;" x="140.717803" xlink:href="#mc05faab4ec" y="168.665089"/>
      </g>
     </g>
     <g id="text_2">
      <!-- −2 -->
      <defs>
       <path d="M 19.1875 8.296875 
L 53.609375 8.296875 
L 53.609375 0 
L 7.328125 0 
L 7.328125 8.296875 
Q 12.9375 14.109375 22.625 23.890625 
Q 32.328125 33.6875 34.8125 36.53125 
Q 39.546875 41.84375 41.421875 45.53125 
Q 43.3125 49.21875 43.3125 52.78125 
Q 43.3125 58.59375 39.234375 62.25 
Q 35.15625 65.921875 28.609375 65.921875 
Q 23.96875 65.921875 18.8125 64.3125 
Q 13.671875 62.703125 7.8125 59.421875 
L 7.8125 69.390625 
Q 13.765625 71.78125 18.9375 73 
Q 24.125 74.21875 28.421875 74.21875 
Q 39.75 74.21875 46.484375 68.546875 
Q 53.21875 62.890625 53.21875 53.421875 
Q 53.21875 48.921875 51.53125 44.890625 
Q 49.859375 40.875 45.40625 35.40625 
Q 44.1875 33.984375 37.640625 27.21875 
Q 31.109375 20.453125 19.1875 8.296875 
z
" id="DejaVuSans-50"/>
      </defs>
      <g transform="translate(133.346709 183.263527)scale(0.1 -0.1)">
       <use xlink:href="#DejaVuSans-8722"/>
       <use x="83.789062" xlink:href="#DejaVuSans-50"/>
      </g>
     </g>
    </g>
    <g id="xtick_3">
     <g id="line2d_3">
      <g>
       <use style="stroke:#000000;stroke-width:0.8;" x="184.601882" xlink:href="#mc05faab4ec" y="168.665089"/>
      </g>
     </g>
     <g id="text_3">
      <!-- 0 -->
      <defs>
       <path d="M 31.78125 66.40625 
Q 24.171875 66.40625 20.328125 58.90625 
Q 16.5 51.421875 16.5 36.375 
Q 16.5 21.390625 20.328125 13.890625 
Q 24.171875 6.390625 31.78125 6.390625 
Q 39.453125 6.390625 43.28125 13.890625 
Q 47.125 21.390625 47.125 36.375 
Q 47.125 51.421875 43.28125 58.90625 
Q 39.453125 66.40625 31.78125 66.40625 
z
M 31.78125 74.21875 
Q 44.046875 74.21875 50.515625 64.515625 
Q 56.984375 54.828125 56.984375 36.375 
Q 56.984375 17.96875 50.515625 8.265625 
Q 44.046875 -1.421875 31.78125 -1.421875 
Q 19.53125 -1.421875 13.0625 8.265625 
Q 6.59375 17.96875 6.59375 36.375 
Q 6.59375 54.828125 13.0625 64.515625 
Q 19.53125 74.21875 31.78125 74.21875 
z
" id="DejaVuSans-48"/>
      </defs>
      <g transform="translate(181.420632 183.263527)scale(0.1 -0.1)">
       <use xlink:href="#DejaVuSans-48"/>
      </g>
     </g>
    </g>
    <g id="xtick_4">
     <g id="line2d_4">
      <g>
       <use style="stroke:#000000;stroke-width:0.8;" x="228.48596" xlink:href="#mc05faab4ec" y="168.665089"/>
      </g>
     </g>
     <g id="text_4">
      <!-- 2 -->
      <g transform="translate(225.30471 183.263527)scale(0.1 -0.1)">
       <use xlink:href="#DejaVuSans-50"/>
      </g>
     </g>
    </g>
    <g id="xtick_5">
     <g id="line2d_5">
      <g>
       <use style="stroke:#000000;stroke-width:0.8;" x="272.370038" xlink:href="#mc05faab4ec" y="168.665089"/>
      </g>
     </g>
     <g id="text_5">
      <!-- 4 -->
      <g transform="translate(269.188788 183.263527)scale(0.1 -0.1)">
       <use xlink:href="#DejaVuSans-52"/>
      </g>
     </g>
    </g>
    <g id="xtick_6">
     <g id="line2d_6">
      <g>
       <use style="stroke:#000000;stroke-width:0.8;" x="316.254116" xlink:href="#mc05faab4ec" y="168.665089"/>
      </g>
     </g>
     <g id="text_6">
      <!-- 6 -->
      <defs>
       <path d="M 33.015625 40.375 
Q 26.375 40.375 22.484375 35.828125 
Q 18.609375 31.296875 18.609375 23.390625 
Q 18.609375 15.53125 22.484375 10.953125 
Q 26.375 6.390625 33.015625 6.390625 
Q 39.65625 6.390625 43.53125 10.953125 
Q 47.40625 15.53125 47.40625 23.390625 
Q 47.40625 31.296875 43.53125 35.828125 
Q 39.65625 40.375 33.015625 40.375 
z
M 52.59375 71.296875 
L 52.59375 62.3125 
Q 48.875 64.0625 45.09375 64.984375 
Q 41.3125 65.921875 37.59375 65.921875 
Q 27.828125 65.921875 22.671875 59.328125 
Q 17.53125 52.734375 16.796875 39.40625 
Q 19.671875 43.65625 24.015625 45.921875 
Q 28.375 48.1875 33.59375 48.1875 
Q 44.578125 48.1875 50.953125 41.515625 
Q 57.328125 34.859375 57.328125 23.390625 
Q 57.328125 12.15625 50.6875 5.359375 
Q 44.046875 -1.421875 33.015625 -1.421875 
Q 20.359375 -1.421875 13.671875 8.265625 
Q 6.984375 17.96875 6.984375 36.375 
Q 6.984375 53.65625 15.1875 63.9375 
Q 23.390625 74.21875 37.203125 74.21875 
Q 40.921875 74.21875 44.703125 73.484375 
Q 48.484375 72.75 52.59375 71.296875 
z
" id="DejaVuSans-54"/>
      </defs>
      <g transform="translate(313.072866 183.263527)scale(0.1 -0.1)">
       <use xlink:href="#DejaVuSans-54"/>
      </g>
     </g>
    </g>
    <g id="xtick_7">
     <g id="line2d_7">
      <g>
       <use style="stroke:#000000;stroke-width:0.8;" x="360.138195" xlink:href="#mc05faab4ec" y="168.665089"/>
      </g>
     </g>
     <g id="text_7">
      <!-- 8 -->
      <defs>
       <path d="M 31.78125 34.625 
Q 24.75 34.625 20.71875 30.859375 
Q 16.703125 27.09375 16.703125 20.515625 
Q 16.703125 13.921875 20.71875 10.15625 
Q 24.75 6.390625 31.78125 6.390625 
Q 38.8125 6.390625 42.859375 10.171875 
Q 46.921875 13.96875 46.921875 20.515625 
Q 46.921875 27.09375 42.890625 30.859375 
Q 38.875 34.625 31.78125 34.625 
z
M 21.921875 38.8125 
Q 15.578125 40.375 12.03125 44.71875 
Q 8.5 49.078125 8.5 55.328125 
Q 8.5 64.0625 14.71875 69.140625 
Q 20.953125 74.21875 31.78125 74.21875 
Q 42.671875 74.21875 48.875 69.140625 
Q 55.078125 64.0625 55.078125 55.328125 
Q 55.078125 49.078125 51.53125 44.71875 
Q 48 40.375 41.703125 38.8125 
Q 48.828125 37.15625 52.796875 32.3125 
Q 56.78125 27.484375 56.78125 20.515625 
Q 56.78125 9.90625 50.3125 4.234375 
Q 43.84375 -1.421875 31.78125 -1.421875 
Q 19.734375 -1.421875 13.25 4.234375 
Q 6.78125 9.90625 6.78125 20.515625 
Q 6.78125 27.484375 10.78125 32.3125 
Q 14.796875 37.15625 21.921875 38.8125 
z
M 18.3125 54.390625 
Q 18.3125 48.734375 21.84375 45.5625 
Q 25.390625 42.390625 31.78125 42.390625 
Q 38.140625 42.390625 41.71875 45.5625 
Q 45.3125 48.734375 45.3125 54.390625 
Q 45.3125 60.0625 41.71875 63.234375 
Q 38.140625 66.40625 31.78125 66.40625 
Q 25.390625 66.40625 21.84375 63.234375 
Q 18.3125 60.0625 18.3125 54.390625 
z
" id="DejaVuSans-56"/>
      </defs>
      <g transform="translate(356.956945 183.263527)scale(0.1 -0.1)">
       <use xlink:href="#DejaVuSans-56"/>
      </g>
     </g>
    </g>
   </g>
   <g id="matplotlib.axis_2">
    <g id="ytick_1">
     <g id="line2d_8">
      <defs>
       <path d="M 0 0 
L -3.5 0 
" id="medcc8749f3" style="stroke:#000000;stroke-width:0.8;"/>
      </defs>
      <g>
       <use style="stroke:#000000;stroke-width:0.8;" x="184.601882" xlink:href="#medcc8749f3" y="235.983696"/>
      </g>
     </g>
     <g id="text_8">
      <!-- −4 -->
      <g transform="translate(162.859694 239.782914)scale(0.1 -0.1)">
       <use xlink:href="#DejaVuSans-8722"/>
       <use x="83.789062" xlink:href="#DejaVuSans-52"/>
      </g>
     </g>
    </g>
    <g id="ytick_2">
     <g id="line2d_9">
      <g>
       <use style="stroke:#000000;stroke-width:0.8;" x="184.601882" xlink:href="#medcc8749f3" y="202.324392"/>
      </g>
     </g>
     <g id="text_9">
      <!-- −2 -->
      <g transform="translate(162.859694 206.123611)scale(0.1 -0.1)">
       <use xlink:href="#DejaVuSans-8722"/>
       <use x="83.789062" xlink:href="#DejaVuSans-50"/>
      </g>
     </g>
    </g>
    <g id="ytick_3">
     <g id="line2d_10">
      <g>
       <use style="stroke:#000000;stroke-width:0.8;" x="184.601882" xlink:href="#medcc8749f3" y="168.665089"/>
      </g>
     </g>
     <g id="text_10">
      <!-- 0 -->
      <g transform="translate(171.239382 172.464308)scale(0.1 -0.1)">
       <use xlink:href="#DejaVuSans-48"/>
      </g>
     </g>
    </g>
    <g id="ytick_4">
     <g id="line2d_11">
      <g>
       <use style="stroke:#000000;stroke-width:0.8;" x="184.601882" xlink:href="#medcc8749f3" y="135.005786"/>
      </g>
     </g>
     <g id="text_11">
      <!-- 2 -->
      <g transform="translate(171.239382 138.805005)scale(0.1 -0.1)">
       <use xlink:href="#DejaVuSans-50"/>
      </g>
     </g>
    </g>
    <g id="ytick_5">
     <g id="line2d_12">
      <g>
       <use style="stroke:#000000;stroke-width:0.8;" x="184.601882" xlink:href="#medcc8749f3" y="101.346483"/>
      </g>
     </g>
     <g id="text_12">
      <!-- 4 -->
      <g transform="translate(171.239382 105.145702)scale(0.1 -0.1)">
       <use xlink:href="#DejaVuSans-52"/>
      </g>
     </g>
    </g>
    <g id="ytick_6">
     <g id="line2d_13">
      <g>
       <use style="stroke:#000000;stroke-width:0.8;" x="184.601882" xlink:href="#medcc8749f3" y="67.68718"/>
      </g>
     </g>
     <g id="text_13">
      <!-- 6 -->
      <g transform="translate(171.239382 71.486399)scale(0.1 -0.1)">
       <use xlink:href="#DejaVuSans-54"/>
      </g>
     </g>
    </g>
   </g>
   <g id="patch_3">
    <path d="M 184.601882 252 
L 184.601882 34.56 
" style="fill:none;stroke:#000000;stroke-linecap:square;stroke-linejoin:miter;stroke-width:0.8;"/>
   </g>
   <g id="patch_4">
    <path d="M 388.8 252 
L 388.8 34.56 
" style="fill:none;"/>
   </g>
   <g id="patch_5">
    <path d="M 54 168.665089 
L 388.8 168.665089 
" style="fill:none;stroke:#000000;stroke-linecap:square;stroke-linejoin:miter;stroke-width:0.8;"/>
   </g>
   <g id="patch_6">
    <path d="M 54 34.56 
L 388.8 34.56 
" style="fill:none;"/>
   </g>
   <g id="legend_1">
    <g id="patch_7">
     <path d="M 282.675 71.91625 
L 381.8 71.91625 
Q 383.8 71.91625 383.8 69.91625 
L 383.8 41.56 
Q 383.8 39.56 381.8 39.56 
L 282.675 39.56 
Q 280.675 39.56 280.675 41.56 
L 280.675 69.91625 
Q 280.675 71.91625 282.675 71.91625 
z
" style="fill:#ffffff;opacity:0.8;stroke:#cccccc;stroke-linejoin:miter;"/>
    </g>
    <g id="PathCollection_3">
     <g>
      <use style="fill:#1f77b4;stroke:#1f77b4;" x="294.675" xlink:href="#mbbe8687734" y="48.533437"/>
     </g>
    </g>
    <g id="text_14">
     <!-- UCB Solvents -->
     <defs>
      <path d="M 8.6875 72.90625 
L 18.609375 72.90625 
L 18.609375 28.609375 
Q 18.609375 16.890625 22.84375 11.734375 
Q 27.09375 6.59375 36.625 6.59375 
Q 46.09375 6.59375 50.34375 11.734375 
Q 54.59375 16.890625 54.59375 28.609375 
L 54.59375 72.90625 
L 64.5 72.90625 
L 64.5 27.390625 
Q 64.5 13.140625 57.4375 5.859375 
Q 50.390625 -1.421875 36.625 -1.421875 
Q 22.796875 -1.421875 15.734375 5.859375 
Q 8.6875 13.140625 8.6875 27.390625 
z
" id="DejaVuSans-85"/>
      <path d="M 64.40625 67.28125 
L 64.40625 56.890625 
Q 59.421875 61.53125 53.78125 63.8125 
Q 48.140625 66.109375 41.796875 66.109375 
Q 29.296875 66.109375 22.65625 58.46875 
Q 16.015625 50.828125 16.015625 36.375 
Q 16.015625 21.96875 22.65625 14.328125 
Q 29.296875 6.6875 41.796875 6.6875 
Q 48.140625 6.6875 53.78125 8.984375 
Q 59.421875 11.28125 64.40625 15.921875 
L 64.40625 5.609375 
Q 59.234375 2.09375 53.4375 0.328125 
Q 47.65625 -1.421875 41.21875 -1.421875 
Q 24.65625 -1.421875 15.125 8.703125 
Q 5.609375 18.84375 5.609375 36.375 
Q 5.609375 53.953125 15.125 64.078125 
Q 24.65625 74.21875 41.21875 74.21875 
Q 47.75 74.21875 53.53125 72.484375 
Q 59.328125 70.75 64.40625 67.28125 
z
" id="DejaVuSans-67"/>
      <path d="M 19.671875 34.8125 
L 19.671875 8.109375 
L 35.5 8.109375 
Q 43.453125 8.109375 47.28125 11.40625 
Q 51.125 14.703125 51.125 21.484375 
Q 51.125 28.328125 47.28125 31.5625 
Q 43.453125 34.8125 35.5 34.8125 
z
M 19.671875 64.796875 
L 19.671875 42.828125 
L 34.28125 42.828125 
Q 41.5 42.828125 45.03125 45.53125 
Q 48.578125 48.25 48.578125 53.8125 
Q 48.578125 59.328125 45.03125 62.0625 
Q 41.5 64.796875 34.28125 64.796875 
z
M 9.8125 72.90625 
L 35.015625 72.90625 
Q 46.296875 72.90625 52.390625 68.21875 
Q 58.5 63.53125 58.5 54.890625 
Q 58.5 48.1875 55.375 44.234375 
Q 52.25 40.28125 46.1875 39.3125 
Q 53.46875 37.75 57.5 32.78125 
Q 61.53125 27.828125 61.53125 20.40625 
Q 61.53125 10.640625 54.890625 5.3125 
Q 48.25 0 35.984375 0 
L 9.8125 0 
z
" id="DejaVuSans-66"/>
      <path id="DejaVuSans-32"/>
      <path d="M 53.515625 70.515625 
L 53.515625 60.890625 
Q 47.90625 63.578125 42.921875 64.890625 
Q 37.9375 66.21875 33.296875 66.21875 
Q 25.25 66.21875 20.875 63.09375 
Q 16.5 59.96875 16.5 54.203125 
Q 16.5 49.359375 19.40625 46.890625 
Q 22.3125 44.4375 30.421875 42.921875 
L 36.375 41.703125 
Q 47.40625 39.59375 52.65625 34.296875 
Q 57.90625 29 57.90625 20.125 
Q 57.90625 9.515625 50.796875 4.046875 
Q 43.703125 -1.421875 29.984375 -1.421875 
Q 24.8125 -1.421875 18.96875 -0.25 
Q 13.140625 0.921875 6.890625 3.21875 
L 6.890625 13.375 
Q 12.890625 10.015625 18.65625 8.296875 
Q 24.421875 6.59375 29.984375 6.59375 
Q 38.421875 6.59375 43.015625 9.90625 
Q 47.609375 13.234375 47.609375 19.390625 
Q 47.609375 24.75 44.3125 27.78125 
Q 41.015625 30.8125 33.5 32.328125 
L 27.484375 33.5 
Q 16.453125 35.6875 11.515625 40.375 
Q 6.59375 45.0625 6.59375 53.421875 
Q 6.59375 63.09375 13.40625 68.65625 
Q 20.21875 74.21875 32.171875 74.21875 
Q 37.3125 74.21875 42.625 73.28125 
Q 47.953125 72.359375 53.515625 70.515625 
z
" id="DejaVuSans-83"/>
      <path d="M 30.609375 48.390625 
Q 23.390625 48.390625 19.1875 42.75 
Q 14.984375 37.109375 14.984375 27.296875 
Q 14.984375 17.484375 19.15625 11.84375 
Q 23.34375 6.203125 30.609375 6.203125 
Q 37.796875 6.203125 41.984375 11.859375 
Q 46.1875 17.53125 46.1875 27.296875 
Q 46.1875 37.015625 41.984375 42.703125 
Q 37.796875 48.390625 30.609375 48.390625 
z
M 30.609375 56 
Q 42.328125 56 49.015625 48.375 
Q 55.71875 40.765625 55.71875 27.296875 
Q 55.71875 13.875 49.015625 6.21875 
Q 42.328125 -1.421875 30.609375 -1.421875 
Q 18.84375 -1.421875 12.171875 6.21875 
Q 5.515625 13.875 5.515625 27.296875 
Q 5.515625 40.765625 12.171875 48.375 
Q 18.84375 56 30.609375 56 
z
" id="DejaVuSans-111"/>
      <path d="M 9.421875 75.984375 
L 18.40625 75.984375 
L 18.40625 0 
L 9.421875 0 
z
" id="DejaVuSans-108"/>
      <path d="M 2.984375 54.6875 
L 12.5 54.6875 
L 29.59375 8.796875 
L 46.6875 54.6875 
L 56.203125 54.6875 
L 35.6875 0 
L 23.484375 0 
z
" id="DejaVuSans-118"/>
      <path d="M 56.203125 29.59375 
L 56.203125 25.203125 
L 14.890625 25.203125 
Q 15.484375 15.921875 20.484375 11.0625 
Q 25.484375 6.203125 34.421875 6.203125 
Q 39.59375 6.203125 44.453125 7.46875 
Q 49.3125 8.734375 54.109375 11.28125 
L 54.109375 2.78125 
Q 49.265625 0.734375 44.1875 -0.34375 
Q 39.109375 -1.421875 33.890625 -1.421875 
Q 20.796875 -1.421875 13.15625 6.1875 
Q 5.515625 13.8125 5.515625 26.8125 
Q 5.515625 40.234375 12.765625 48.109375 
Q 20.015625 56 32.328125 56 
Q 43.359375 56 49.78125 48.890625 
Q 56.203125 41.796875 56.203125 29.59375 
z
M 47.21875 32.234375 
Q 47.125 39.59375 43.09375 43.984375 
Q 39.0625 48.390625 32.421875 48.390625 
Q 24.90625 48.390625 20.390625 44.140625 
Q 15.875 39.890625 15.1875 32.171875 
z
" id="DejaVuSans-101"/>
      <path d="M 54.890625 33.015625 
L 54.890625 0 
L 45.90625 0 
L 45.90625 32.71875 
Q 45.90625 40.484375 42.875 44.328125 
Q 39.84375 48.1875 33.796875 48.1875 
Q 26.515625 48.1875 22.3125 43.546875 
Q 18.109375 38.921875 18.109375 30.90625 
L 18.109375 0 
L 9.078125 0 
L 9.078125 54.6875 
L 18.109375 54.6875 
L 18.109375 46.1875 
Q 21.34375 51.125 25.703125 53.5625 
Q 30.078125 56 35.796875 56 
Q 45.21875 56 50.046875 50.171875 
Q 54.890625 44.34375 54.890625 33.015625 
z
" id="DejaVuSans-110"/>
      <path d="M 18.3125 70.21875 
L 18.3125 54.6875 
L 36.8125 54.6875 
L 36.8125 47.703125 
L 18.3125 47.703125 
L 18.3125 18.015625 
Q 18.3125 11.328125 20.140625 9.421875 
Q 21.96875 7.515625 27.59375 7.515625 
L 36.8125 7.515625 
L 36.8125 0 
L 27.59375 0 
Q 17.1875 0 13.234375 3.875 
Q 9.28125 7.765625 9.28125 18.015625 
L 9.28125 47.703125 
L 2.6875 47.703125 
L 2.6875 54.6875 
L 9.28125 54.6875 
L 9.28125 70.21875 
z
" id="DejaVuSans-116"/>
      <path d="M 44.28125 53.078125 
L 44.28125 44.578125 
Q 40.484375 46.53125 36.375 47.5 
Q 32.28125 48.484375 27.875 48.484375 
Q 21.1875 48.484375 17.84375 46.4375 
Q 14.5 44.390625 14.5 40.28125 
Q 14.5 37.15625 16.890625 35.375 
Q 19.28125 33.59375 26.515625 31.984375 
L 29.59375 31.296875 
Q 39.15625 29.25 43.1875 25.515625 
Q 47.21875 21.78125 47.21875 15.09375 
Q 47.21875 7.46875 41.1875 3.015625 
Q 35.15625 -1.421875 24.609375 -1.421875 
Q 20.21875 -1.421875 15.453125 -0.5625 
Q 10.6875 0.296875 5.421875 2 
L 5.421875 11.28125 
Q 10.40625 8.6875 15.234375 7.390625 
Q 20.0625 6.109375 24.8125 6.109375 
Q 31.15625 6.109375 34.5625 8.28125 
Q 37.984375 10.453125 37.984375 14.40625 
Q 37.984375 18.0625 35.515625 20.015625 
Q 33.0625 21.96875 24.703125 23.78125 
L 21.578125 24.515625 
Q 13.234375 26.265625 9.515625 29.90625 
Q 5.8125 33.546875 5.8125 39.890625 
Q 5.8125 47.609375 11.28125 51.796875 
Q 16.75 56 26.8125 56 
Q 31.78125 56 36.171875 55.265625 
Q 40.578125 54.546875 44.28125 53.078125 
z
" id="DejaVuSans-115"/>
     </defs>
     <g transform="translate(312.675 51.158437)scale(0.1 -0.1)">
      <use xlink:href="#DejaVuSans-85"/>
      <use x="73.193359" xlink:href="#DejaVuSans-67"/>
      <use x="143.017578" xlink:href="#DejaVuSans-66"/>
      <use x="211.621094" xlink:href="#DejaVuSans-32"/>
      <use x="243.408203" xlink:href="#DejaVuSans-83"/>
      <use x="306.884766" xlink:href="#DejaVuSans-111"/>
      <use x="368.066406" xlink:href="#DejaVuSans-108"/>
      <use x="395.849609" xlink:href="#DejaVuSans-118"/>
      <use x="455.029297" xlink:href="#DejaVuSans-101"/>
      <use x="516.552734" xlink:href="#DejaVuSans-110"/>
      <use x="579.931641" xlink:href="#DejaVuSans-116"/>
      <use x="619.140625" xlink:href="#DejaVuSans-115"/>
     </g>
    </g>
    <g id="PathCollection_4">
     <g>
      <use style="fill:#ff7f0e;stroke:#ff7f0e;" x="294.675" xlink:href="#m68f6a04c56" y="63.211562"/>
     </g>
    </g>
    <g id="text_15">
     <!-- Initial Design -->
     <defs>
      <path d="M 9.8125 72.90625 
L 19.671875 72.90625 
L 19.671875 0 
L 9.8125 0 
z
" id="DejaVuSans-73"/>
      <path d="M 9.421875 54.6875 
L 18.40625 54.6875 
L 18.40625 0 
L 9.421875 0 
z
M 9.421875 75.984375 
L 18.40625 75.984375 
L 18.40625 64.59375 
L 9.421875 64.59375 
z
" id="DejaVuSans-105"/>
      <path d="M 34.28125 27.484375 
Q 23.390625 27.484375 19.1875 25 
Q 14.984375 22.515625 14.984375 16.5 
Q 14.984375 11.71875 18.140625 8.90625 
Q 21.296875 6.109375 26.703125 6.109375 
Q 34.1875 6.109375 38.703125 11.40625 
Q 43.21875 16.703125 43.21875 25.484375 
L 43.21875 27.484375 
z
M 52.203125 31.203125 
L 52.203125 0 
L 43.21875 0 
L 43.21875 8.296875 
Q 40.140625 3.328125 35.546875 0.953125 
Q 30.953125 -1.421875 24.3125 -1.421875 
Q 15.921875 -1.421875 10.953125 3.296875 
Q 6 8.015625 6 15.921875 
Q 6 25.140625 12.171875 29.828125 
Q 18.359375 34.515625 30.609375 34.515625 
L 43.21875 34.515625 
L 43.21875 35.40625 
Q 43.21875 41.609375 39.140625 45 
Q 35.0625 48.390625 27.6875 48.390625 
Q 23 48.390625 18.546875 47.265625 
Q 14.109375 46.140625 10.015625 43.890625 
L 10.015625 52.203125 
Q 14.9375 54.109375 19.578125 55.046875 
Q 24.21875 56 28.609375 56 
Q 40.484375 56 46.34375 49.84375 
Q 52.203125 43.703125 52.203125 31.203125 
z
" id="DejaVuSans-97"/>
      <path d="M 19.671875 64.796875 
L 19.671875 8.109375 
L 31.59375 8.109375 
Q 46.6875 8.109375 53.6875 14.9375 
Q 60.6875 21.78125 60.6875 36.53125 
Q 60.6875 51.171875 53.6875 57.984375 
Q 46.6875 64.796875 31.59375 64.796875 
z
M 9.8125 72.90625 
L 30.078125 72.90625 
Q 51.265625 72.90625 61.171875 64.09375 
Q 71.09375 55.28125 71.09375 36.53125 
Q 71.09375 17.671875 61.125 8.828125 
Q 51.171875 0 30.078125 0 
L 9.8125 0 
z
" id="DejaVuSans-68"/>
      <path d="M 45.40625 27.984375 
Q 45.40625 37.75 41.375 43.109375 
Q 37.359375 48.484375 30.078125 48.484375 
Q 22.859375 48.484375 18.828125 43.109375 
Q 14.796875 37.75 14.796875 27.984375 
Q 14.796875 18.265625 18.828125 12.890625 
Q 22.859375 7.515625 30.078125 7.515625 
Q 37.359375 7.515625 41.375 12.890625 
Q 45.40625 18.265625 45.40625 27.984375 
z
M 54.390625 6.78125 
Q 54.390625 -7.171875 48.1875 -13.984375 
Q 42 -20.796875 29.203125 -20.796875 
Q 24.46875 -20.796875 20.265625 -20.09375 
Q 16.0625 -19.390625 12.109375 -17.921875 
L 12.109375 -9.1875 
Q 16.0625 -11.328125 19.921875 -12.34375 
Q 23.78125 -13.375 27.78125 -13.375 
Q 36.625 -13.375 41.015625 -8.765625 
Q 45.40625 -4.15625 45.40625 5.171875 
L 45.40625 9.625 
Q 42.625 4.78125 38.28125 2.390625 
Q 33.9375 0 27.875 0 
Q 17.828125 0 11.671875 7.65625 
Q 5.515625 15.328125 5.515625 27.984375 
Q 5.515625 40.671875 11.671875 48.328125 
Q 17.828125 56 27.875 56 
Q 33.9375 56 38.28125 53.609375 
Q 42.625 51.21875 45.40625 46.390625 
L 45.40625 54.6875 
L 54.390625 54.6875 
z
" id="DejaVuSans-103"/>
     </defs>
     <g transform="translate(312.675 65.836562)scale(0.1 -0.1)">
      <use xlink:href="#DejaVuSans-73"/>
      <use x="29.492188" xlink:href="#DejaVuSans-110"/>
      <use x="92.871094" xlink:href="#DejaVuSans-105"/>
      <use x="120.654297" xlink:href="#DejaVuSans-116"/>
      <use x="159.863281" xlink:href="#DejaVuSans-105"/>
      <use x="187.646484" xlink:href="#DejaVuSans-97"/>
      <use x="248.925781" xlink:href="#DejaVuSans-108"/>
      <use x="276.708984" xlink:href="#DejaVuSans-32"/>
      <use x="308.496094" xlink:href="#DejaVuSans-68"/>
      <use x="385.498047" xlink:href="#DejaVuSans-101"/>
      <use x="447.021484" xlink:href="#DejaVuSans-115"/>
      <use x="499.121094" xlink:href="#DejaVuSans-105"/>
      <use x="526.904297" xlink:href="#DejaVuSans-103"/>
      <use x="590.380859" xlink:href="#DejaVuSans-110"/>
     </g>
    </g>
   </g>
  </g>
 </g>
 <defs>
  <clipPath id="p6a6ce73613">
   <rect height="217.44" width="334.8" x="54" y="34.56"/>
  </clipPath>
 </defs>
</svg>
