<?xml version="1.0" encoding="utf-8" standalone="no"?>
<!DOCTYPE svg PUBLIC "-//W3C//DTD SVG 1.1//EN"
  "http://www.w3.org/Graphics/SVG/1.1/DTD/svg11.dtd">
<!-- Created with matplotlib (https://matplotlib.org/) -->
<svg height="288pt" version="1.1" viewBox="0 0 432 288" width="432pt" xmlns="http://www.w3.org/2000/svg" xmlns:xlink="http://www.w3.org/1999/xlink">
 <defs>
  <style type="text/css">
*{stroke-linecap:butt;stroke-linejoin:round;}
  </style>
 </defs>
 <g id="figure_1">
  <g id="patch_1">
   <path d="M 0 288 
L 432 288 
L 432 0 
L 0 0 
z
" style="fill:#ffffff;"/>
  </g>
  <g id="patch_2">
   <path d="M 54 252 
L 388.8 252 
L 388.8 34.56 
L 54 34.56 
z
" style="fill:#ffffff;"/>
  </g>
  <g id="pane3d_1">
   <g id="patch_3">
    <path d="M 98.382914 203.953423 
L 194.204425 150.642062 
L 192.609099 48.772801 
L 91.44491 96.671962 
" style="fill:#f2f2f2;opacity:0.5;stroke:#f2f2f2;stroke-linejoin:miter;"/>
   </g>
  </g>
  <g id="pane3d_2">
   <g id="patch_4">
    <path d="M 194.204425 150.642062 
L 349.426265 180.446553 
L 355.920561 75.505466 
L 192.609099 48.772801 
" style="fill:#e6e6e6;opacity:0.5;stroke:#e6e6e6;stroke-linejoin:miter;"/>
   </g>
  </g>
  <g id="pane3d_3">
   <g id="patch_5">
    <path d="M 98.382914 203.953423 
L 261.697263 238.665609 
L 349.426265 180.446553 
L 194.204425 150.642062 
" style="fill:#ececec;opacity:0.5;stroke:#ececec;stroke-linejoin:miter;"/>
   </g>
  </g>
  <g id="axis3d_1">
   <g id="line2d_1">
    <path d="M 98.382914 203.953423 
L 261.697263 238.665609 
" style="fill:none;stroke:#000000;stroke-linecap:square;stroke-width:0.8;"/>
   </g>
   <g id="Line3DCollection_1">
    <path d="M 108.339611 206.069702 
L 203.697598 152.464867 
L 202.576615 50.404396 
" style="fill:none;stroke:#b0b0b0;stroke-width:0.8;"/>
    <path d="M 125.984268 209.820044 
L 220.511278 155.693299 
L 220.236936 53.295237 
" style="fill:none;stroke:#b0b0b0;stroke-width:0.8;"/>
    <path d="M 143.807636 213.60837 
L 237.482872 158.952053 
L 238.071569 56.214611 
" style="fill:none;stroke:#b0b0b0;stroke-width:0.8;"/>
    <path d="M 161.812443 217.435261 
L 254.614616 162.241557 
L 256.083111 59.162944 
" style="fill:none;stroke:#b0b0b0;stroke-width:0.8;"/>
    <path d="M 180.001473 221.301309 
L 271.908787 165.562249 
L 274.274205 62.140668 
" style="fill:none;stroke:#b0b0b0;stroke-width:0.8;"/>
    <path d="M 198.37757 225.207117 
L 289.367706 168.914575 
L 292.647551 65.148225 
" style="fill:none;stroke:#b0b0b0;stroke-width:0.8;"/>
    <path d="M 216.943633 229.153302 
L 306.993739 172.298989 
L 311.2059 68.186065 
" style="fill:none;stroke:#b0b0b0;stroke-width:0.8;"/>
    <path d="M 235.702624 233.140493 
L 324.789296 175.715954 
L 329.952062 71.254648 
" style="fill:none;stroke:#b0b0b0;stroke-width:0.8;"/>
    <path d="M 254.657565 237.169333 
L 342.756836 179.165941 
L 348.888901 74.354444 
" style="fill:none;stroke:#b0b0b0;stroke-width:0.8;"/>
   </g>
   <g id="xtick_1">
    <g id="line2d_2">
     <path d="M 109.161169 205.607869 
L 106.693431 206.995091 
" style="fill:none;stroke:#000000;stroke-linecap:square;stroke-width:0.8;"/>
    </g>
    <g id="text_1">
     <!-- −2.0 -->
     <defs>
      <path d="M 10.59375 35.5 
L 73.1875 35.5 
L 73.1875 27.203125 
L 10.59375 27.203125 
z
" id="DejaVuSans-8722"/>
      <path d="M 19.1875 8.296875 
L 53.609375 8.296875 
L 53.609375 0 
L 7.328125 0 
L 7.328125 8.296875 
Q 12.9375 14.109375 22.625 23.890625 
Q 32.328125 33.6875 34.8125 36.53125 
Q 39.546875 41.84375 41.421875 45.53125 
Q 43.3125 49.21875 43.3125 52.78125 
Q 43.3125 58.59375 39.234375 62.25 
Q 35.15625 65.921875 28.609375 65.921875 
Q 23.96875 65.921875 18.8125 64.3125 
Q 13.671875 62.703125 7.8125 59.421875 
L 7.8125 69.390625 
Q 13.765625 71.78125 18.9375 73 
Q 24.125 74.21875 28.421875 74.21875 
Q 39.75 74.21875 46.484375 68.546875 
Q 53.21875 62.890625 53.21875 53.421875 
Q 53.21875 48.921875 51.53125 44.890625 
Q 49.859375 40.875 45.40625 35.40625 
Q 44.1875 33.984375 37.640625 27.21875 
Q 31.109375 20.453125 19.1875 8.296875 
z
" id="DejaVuSans-50"/>
      <path d="M 10.6875 12.40625 
L 21 12.40625 
L 21 0 
L 10.6875 0 
z
" id="DejaVuSans-46"/>
      <path d="M 31.78125 66.40625 
Q 24.171875 66.40625 20.328125 58.90625 
Q 16.5 51.421875 16.5 36.375 
Q 16.5 21.390625 20.328125 13.890625 
Q 24.171875 6.390625 31.78125 6.390625 
Q 39.453125 6.390625 43.28125 13.890625 
Q 47.125 21.390625 47.125 36.375 
Q 47.125 51.421875 43.28125 58.90625 
Q 39.453125 66.40625 31.78125 66.40625 
z
M 31.78125 74.21875 
Q 44.046875 74.21875 50.515625 64.515625 
Q 56.984375 54.828125 56.984375 36.375 
Q 56.984375 17.96875 50.515625 8.265625 
Q 44.046875 -1.421875 31.78125 -1.421875 
Q 19.53125 -1.421875 13.0625 8.265625 
Q 6.59375 17.96875 6.59375 36.375 
Q 6.59375 54.828125 13.0625 64.515625 
Q 19.53125 74.21875 31.78125 74.21875 
z
" id="DejaVuSans-48"/>
     </defs>
     <g transform="translate(88.451553 226.46444)scale(0.1 -0.1)">
      <use xlink:href="#DejaVuSans-8722"/>
      <use x="83.789062" xlink:href="#DejaVuSans-50"/>
      <use x="147.412109" xlink:href="#DejaVuSans-46"/>
      <use x="179.199219" xlink:href="#DejaVuSans-48"/>
     </g>
    </g>
   </g>
   <g id="xtick_2">
    <g id="line2d_3">
     <path d="M 126.79896 209.353546 
L 124.351831 210.754788 
" style="fill:none;stroke:#000000;stroke-linecap:square;stroke-width:0.8;"/>
    </g>
    <g id="text_2">
     <!-- −1.5 -->
     <defs>
      <path d="M 12.40625 8.296875 
L 28.515625 8.296875 
L 28.515625 63.921875 
L 10.984375 60.40625 
L 10.984375 69.390625 
L 28.421875 72.90625 
L 38.28125 72.90625 
L 38.28125 8.296875 
L 54.390625 8.296875 
L 54.390625 0 
L 12.40625 0 
z
" id="DejaVuSans-49"/>
      <path d="M 10.796875 72.90625 
L 49.515625 72.90625 
L 49.515625 64.59375 
L 19.828125 64.59375 
L 19.828125 46.734375 
Q 21.96875 47.46875 24.109375 47.828125 
Q 26.265625 48.1875 28.421875 48.1875 
Q 40.625 48.1875 47.75 41.5 
Q 54.890625 34.8125 54.890625 23.390625 
Q 54.890625 11.625 47.5625 5.09375 
Q 40.234375 -1.421875 26.90625 -1.421875 
Q 22.3125 -1.421875 17.546875 -0.640625 
Q 12.796875 0.140625 7.71875 1.703125 
L 7.71875 11.625 
Q 12.109375 9.234375 16.796875 8.0625 
Q 21.484375 6.890625 26.703125 6.890625 
Q 35.15625 6.890625 40.078125 11.328125 
Q 45.015625 15.765625 45.015625 23.390625 
Q 45.015625 31 40.078125 35.4375 
Q 35.15625 39.890625 26.703125 39.890625 
Q 22.75 39.890625 18.8125 39.015625 
Q 14.890625 38.140625 10.796875 36.28125 
z
" id="DejaVuSans-53"/>
     </defs>
     <g transform="translate(106.093857 230.287205)scale(0.1 -0.1)">
      <use xlink:href="#DejaVuSans-8722"/>
      <use x="83.789062" xlink:href="#DejaVuSans-49"/>
      <use x="147.412109" xlink:href="#DejaVuSans-46"/>
      <use x="179.199219" xlink:href="#DejaVuSans-53"/>
     </g>
    </g>
   </g>
   <g id="xtick_3">
    <g id="line2d_4">
     <path d="M 144.61528 213.137137 
L 142.189305 214.552611 
" style="fill:none;stroke:#000000;stroke-linecap:square;stroke-width:0.8;"/>
    </g>
    <g id="text_3">
     <!-- −1.0 -->
     <g transform="translate(123.915222 234.14877)scale(0.1 -0.1)">
      <use xlink:href="#DejaVuSans-8722"/>
      <use x="83.789062" xlink:href="#DejaVuSans-49"/>
      <use x="147.412109" xlink:href="#DejaVuSans-46"/>
      <use x="179.199219" xlink:href="#DejaVuSans-48"/>
     </g>
    </g>
   </g>
   <g id="xtick_4">
    <g id="line2d_5">
     <path d="M 162.612853 216.959221 
L 160.208591 218.389145 
" style="fill:none;stroke:#000000;stroke-linecap:square;stroke-width:0.8;"/>
    </g>
    <g id="text_4">
     <!-- −0.5 -->
     <g transform="translate(141.918387 238.049727)scale(0.1 -0.1)">
      <use xlink:href="#DejaVuSans-8722"/>
      <use x="83.789062" xlink:href="#DejaVuSans-48"/>
      <use x="147.412109" xlink:href="#DejaVuSans-46"/>
      <use x="179.199219" xlink:href="#DejaVuSans-53"/>
     </g>
    </g>
   </g>
   <g id="xtick_5">
    <g id="line2d_6">
     <path d="M 180.794459 220.820386 
L 178.412483 222.264984 
" style="fill:none;stroke:#000000;stroke-linecap:square;stroke-width:0.8;"/>
    </g>
    <g id="text_5">
     <!-- 0.0 -->
     <g transform="translate(164.295994 241.990683)scale(0.1 -0.1)">
      <use xlink:href="#DejaVuSans-48"/>
      <use x="63.623047" xlink:href="#DejaVuSans-46"/>
      <use x="95.410156" xlink:href="#DejaVuSans-48"/>
     </g>
    </g>
   </g>
   <g id="xtick_6">
    <g id="line2d_7">
     <path d="M 199.162936 224.721237 
L 196.803833 226.180734 
" style="fill:none;stroke:#000000;stroke-linecap:square;stroke-width:0.8;"/>
    </g>
    <g id="text_6">
     <!-- 0.5 -->
     <g transform="translate(182.671206 245.972257)scale(0.1 -0.1)">
      <use xlink:href="#DejaVuSans-48"/>
      <use x="63.623047" xlink:href="#DejaVuSans-46"/>
      <use x="95.410156" xlink:href="#DejaVuSans-53"/>
     </g>
    </g>
   </g>
   <g id="xtick_7">
    <g id="line2d_8">
     <path d="M 217.721179 228.662388 
L 215.385551 230.137017 
" style="fill:none;stroke:#000000;stroke-linecap:square;stroke-width:0.8;"/>
    </g>
    <g id="text_7">
     <!-- 1.0 -->
     <g transform="translate(201.236783 249.995078)scale(0.1 -0.1)">
      <use xlink:href="#DejaVuSans-49"/>
      <use x="63.623047" xlink:href="#DejaVuSans-46"/>
      <use x="95.410156" xlink:href="#DejaVuSans-48"/>
     </g>
    </g>
   </g>
   <g id="xtick_8">
    <g id="line2d_9">
     <path d="M 236.472144 232.644466 
L 234.160608 234.134464 
" style="fill:none;stroke:#000000;stroke-linecap:square;stroke-width:0.8;"/>
    </g>
    <g id="text_8">
     <!-- 1.5 -->
     <g transform="translate(219.995696 254.059793)scale(0.1 -0.1)">
      <use xlink:href="#DejaVuSans-49"/>
      <use x="63.623047" xlink:href="#DejaVuSans-46"/>
      <use x="95.410156" xlink:href="#DejaVuSans-53"/>
     </g>
    </g>
   </g>
   <g id="xtick_9">
    <g id="line2d_10">
     <path d="M 255.41885 236.668114 
L 253.132037 238.173721 
" style="fill:none;stroke:#000000;stroke-linecap:square;stroke-width:0.8;"/>
    </g>
    <g id="text_9">
     <!-- 2.0 -->
     <g transform="translate(238.950983 258.167057)scale(0.1 -0.1)">
      <use xlink:href="#DejaVuSans-50"/>
      <use x="63.623047" xlink:href="#DejaVuSans-46"/>
      <use x="95.410156" xlink:href="#DejaVuSans-48"/>
     </g>
    </g>
   </g>
  </g>
  <g id="axis3d_2">
   <g id="line2d_11">
    <path d="M 349.426265 180.446553 
L 261.697263 238.665609 
" style="fill:none;stroke:#000000;stroke-linecap:square;stroke-width:0.8;"/>
   </g>
   <g id="Line3DCollection_2">
    <path d="M 98.371961 93.392146 
L 104.920339 200.316254 
L 267.701308 234.681182 
" style="fill:none;stroke:#b0b0b0;stroke-width:0.8;"/>
    <path d="M 110.692485 87.558631 
L 116.556487 193.842354 
L 278.381272 227.593704 
" style="fill:none;stroke:#b0b0b0;stroke-width:0.8;"/>
    <path d="M 122.787519 81.831882 
L 127.990414 187.480962 
L 288.867152 220.635023 
" style="fill:none;stroke:#b0b0b0;stroke-width:0.8;"/>
    <path d="M 134.663197 76.208992 
L 139.227346 181.22917 
L 299.164193 213.801662 
" style="fill:none;stroke:#b0b0b0;stroke-width:0.8;"/>
    <path d="M 146.325434 70.687164 
L 150.27233 175.08417 
L 309.277449 207.090264 
" style="fill:none;stroke:#b0b0b0;stroke-width:0.8;"/>
    <path d="M 157.779931 65.263695 
L 161.130244 169.04325 
L 319.211797 200.497594 
" style="fill:none;stroke:#b0b0b0;stroke-width:0.8;"/>
    <path d="M 169.032191 59.935981 
L 171.805798 163.103786 
L 328.971944 194.020528 
" style="fill:none;stroke:#b0b0b0;stroke-width:0.8;"/>
    <path d="M 180.087522 54.701509 
L 182.303551 157.263245 
L 338.56243 187.656053 
" style="fill:none;stroke:#b0b0b0;stroke-width:0.8;"/>
   </g>
   <g id="xtick_10">
    <g id="line2d_12">
     <path d="M 266.338974 234.393578 
L 270.42902 235.257033 
" style="fill:none;stroke:#000000;stroke-linecap:square;stroke-width:0.8;"/>
    </g>
    <g id="text_10">
     <!-- −1.00 -->
     <g transform="translate(265.813913 253.490052)scale(0.1 -0.1)">
      <use xlink:href="#DejaVuSans-8722"/>
      <use x="83.789062" xlink:href="#DejaVuSans-49"/>
      <use x="147.412109" xlink:href="#DejaVuSans-46"/>
      <use x="179.199219" xlink:href="#DejaVuSans-48"/>
      <use x="242.822266" xlink:href="#DejaVuSans-48"/>
     </g>
    </g>
   </g>
   <g id="xtick_11">
    <g id="line2d_13">
     <path d="M 277.027488 227.311349 
L 281.091837 228.159039 
" style="fill:none;stroke:#000000;stroke-linecap:square;stroke-width:0.8;"/>
    </g>
    <g id="text_11">
     <!-- −0.75 -->
     <defs>
      <path d="M 8.203125 72.90625 
L 55.078125 72.90625 
L 55.078125 68.703125 
L 28.609375 0 
L 18.3125 0 
L 43.21875 64.59375 
L 8.203125 64.59375 
z
" id="DejaVuSans-55"/>
     </defs>
     <g transform="translate(276.364663 246.303876)scale(0.1 -0.1)">
      <use xlink:href="#DejaVuSans-8722"/>
      <use x="83.789062" xlink:href="#DejaVuSans-48"/>
      <use x="147.412109" xlink:href="#DejaVuSans-46"/>
      <use x="179.199219" xlink:href="#DejaVuSans-55"/>
      <use x="242.822266" xlink:href="#DejaVuSans-53"/>
     </g>
    </g>
   </g>
   <g id="xtick_12">
    <g id="line2d_14">
     <path d="M 287.521835 220.357775 
L 291.560741 221.190128 
" style="fill:none;stroke:#000000;stroke-linecap:square;stroke-width:0.8;"/>
    </g>
    <g id="text_12">
     <!-- −0.50 -->
     <g transform="translate(286.723786 239.248218)scale(0.1 -0.1)">
      <use xlink:href="#DejaVuSans-8722"/>
      <use x="83.789062" xlink:href="#DejaVuSans-48"/>
      <use x="147.412109" xlink:href="#DejaVuSans-46"/>
      <use x="179.199219" xlink:href="#DejaVuSans-53"/>
      <use x="242.822266" xlink:href="#DejaVuSans-48"/>
     </g>
    </g>
   </g>
   <g id="xtick_13">
    <g id="line2d_15">
     <path d="M 297.827257 213.529383 
L 301.840973 214.346811 
" style="fill:none;stroke:#000000;stroke-linecap:square;stroke-width:0.8;"/>
    </g>
    <g id="text_13">
     <!-- −0.25 -->
     <g transform="translate(296.896457 232.319555)scale(0.1 -0.1)">
      <use xlink:href="#DejaVuSans-8722"/>
      <use x="83.789062" xlink:href="#DejaVuSans-48"/>
      <use x="147.412109" xlink:href="#DejaVuSans-46"/>
      <use x="179.199219" xlink:href="#DejaVuSans-50"/>
      <use x="242.822266" xlink:href="#DejaVuSans-53"/>
     </g>
    </g>
   </g>
   <g id="xtick_14">
    <g id="line2d_16">
     <path d="M 307.948811 206.822823 
L 311.93759 207.625723 
" style="fill:none;stroke:#000000;stroke-linecap:square;stroke-width:0.8;"/>
    </g>
    <g id="text_14">
     <!-- 0.00 -->
     <g transform="translate(311.077507 225.514488)scale(0.1 -0.1)">
      <use xlink:href="#DejaVuSans-48"/>
      <use x="63.623047" xlink:href="#DejaVuSans-46"/>
      <use x="95.410156" xlink:href="#DejaVuSans-48"/>
      <use x="159.033203" xlink:href="#DejaVuSans-48"/>
     </g>
    </g>
   </g>
   <g id="xtick_15">
    <g id="line2d_17">
     <path d="M 317.891374 200.234862 
L 321.855465 201.023619 
" style="fill:none;stroke:#000000;stroke-linecap:square;stroke-width:0.8;"/>
    </g>
    <g id="text_15">
     <!-- 0.25 -->
     <g transform="translate(320.892062 218.829739)scale(0.1 -0.1)">
      <use xlink:href="#DejaVuSans-48"/>
      <use x="63.623047" xlink:href="#DejaVuSans-46"/>
      <use x="95.410156" xlink:href="#DejaVuSans-50"/>
      <use x="159.033203" xlink:href="#DejaVuSans-53"/>
     </g>
    </g>
   </g>
   <g id="xtick_16">
    <g id="line2d_18">
     <path d="M 327.659652 193.762382 
L 331.599305 194.537366 
" style="fill:none;stroke:#000000;stroke-linecap:square;stroke-width:0.8;"/>
    </g>
    <g id="text_16">
     <!-- 0.50 -->
     <g transform="translate(330.534609 212.262145)scale(0.1 -0.1)">
      <use xlink:href="#DejaVuSans-48"/>
      <use x="63.623047" xlink:href="#DejaVuSans-46"/>
      <use x="95.410156" xlink:href="#DejaVuSans-53"/>
      <use x="159.033203" xlink:href="#DejaVuSans-48"/>
     </g>
    </g>
   </g>
   <g id="xtick_17">
    <g id="line2d_19">
     <path d="M 337.258189 187.402374 
L 341.173651 188.163943 
" style="fill:none;stroke:#000000;stroke-linecap:square;stroke-width:0.8;"/>
    </g>
    <g id="text_17">
     <!-- 0.75 -->
     <g transform="translate(340.009632 205.808653)scale(0.1 -0.1)">
      <use xlink:href="#DejaVuSans-48"/>
      <use x="63.623047" xlink:href="#DejaVuSans-46"/>
      <use x="95.410156" xlink:href="#DejaVuSans-55"/>
      <use x="159.033203" xlink:href="#DejaVuSans-53"/>
     </g>
    </g>
   </g>
  </g>
  <g id="axis3d_3">
   <g id="line2d_20">
    <path d="M 349.426265 180.446553 
L 355.920561 75.505466 
" style="fill:none;stroke:#000000;stroke-linecap:square;stroke-width:0.8;"/>
   </g>
   <g id="Line3DCollection_3">
    <path d="M 349.759907 175.055251 
L 194.122297 145.397749 
L 98.027058 198.450879 
" style="fill:none;stroke:#b0b0b0;stroke-width:0.8;"/>
    <path d="M 350.923876 156.246712 
L 193.83592 127.111202 
L 96.7851 179.246633 
" style="fill:none;stroke:#b0b0b0;stroke-width:0.8;"/>
    <path d="M 352.109934 137.081242 
L 193.544338 108.492321 
L 95.518784 159.66576 
" style="fill:none;stroke:#b0b0b0;stroke-width:0.8;"/>
    <path d="M 353.318716 117.548586 
L 193.247409 89.531965 
L 94.227388 139.697072 
" style="fill:none;stroke:#b0b0b0;stroke-width:0.8;"/>
    <path d="M 354.55088 97.638088 
L 192.944983 70.220652 
L 92.91016 119.328931 
" style="fill:none;stroke:#b0b0b0;stroke-width:0.8;"/>
   </g>
   <g id="xtick_18">
    <g id="line2d_21">
     <path d="M 348.461242 174.807785 
L 352.359942 175.550701 
" style="fill:none;stroke:#000000;stroke-linecap:square;stroke-width:0.8;"/>
    </g>
    <g id="text_18">
     <!-- −2 -->
     <g transform="translate(361.830046 180.846854)scale(0.1 -0.1)">
      <use xlink:href="#DejaVuSans-8722"/>
      <use x="83.789062" xlink:href="#DejaVuSans-50"/>
     </g>
    </g>
   </g>
   <g id="xtick_19">
    <g id="line2d_22">
     <path d="M 349.612602 156.003506 
L 353.549183 156.733634 
" style="fill:none;stroke:#000000;stroke-linecap:square;stroke-width:0.8;"/>
    </g>
    <g id="text_19">
     <!-- 0 -->
     <g transform="translate(367.36315 162.069464)scale(0.1 -0.1)">
      <use xlink:href="#DejaVuSans-48"/>
     </g>
    </g>
   </g>
   <g id="xtick_20">
    <g id="line2d_23">
     <path d="M 350.785803 136.842505 
L 354.761008 137.559223 
" style="fill:none;stroke:#000000;stroke-linecap:square;stroke-width:0.8;"/>
    </g>
    <g id="text_20">
     <!-- 2 -->
     <g transform="translate(368.731836 142.936656)scale(0.1 -0.1)">
      <use xlink:href="#DejaVuSans-50"/>
     </g>
    </g>
   </g>
   <g id="xtick_21">
    <g id="line2d_24">
     <path d="M 351.981474 117.314534 
L 355.996068 118.017192 
" style="fill:none;stroke:#000000;stroke-linecap:square;stroke-width:0.8;"/>
    </g>
    <g id="text_21">
     <!-- 4 -->
     <defs>
      <path d="M 37.796875 64.3125 
L 12.890625 25.390625 
L 37.796875 25.390625 
z
M 35.203125 72.90625 
L 47.609375 72.90625 
L 47.609375 25.390625 
L 58.015625 25.390625 
L 58.015625 17.1875 
L 47.609375 17.1875 
L 47.609375 0 
L 37.796875 0 
L 37.796875 17.1875 
L 4.890625 17.1875 
L 4.890625 26.703125 
z
" id="DejaVuSans-52"/>
     </defs>
     <g transform="translate(370.126675 123.438241)scale(0.1 -0.1)">
      <use xlink:href="#DejaVuSans-52"/>
     </g>
    </g>
   </g>
   <g id="xtick_22">
    <g id="line2d_25">
     <path d="M 353.200265 97.408948 
L 357.255035 98.096865 
" style="fill:none;stroke:#000000;stroke-linecap:square;stroke-width:0.8;"/>
    </g>
    <g id="text_22">
     <!-- 6 -->
     <defs>
      <path d="M 33.015625 40.375 
Q 26.375 40.375 22.484375 35.828125 
Q 18.609375 31.296875 18.609375 23.390625 
Q 18.609375 15.53125 22.484375 10.953125 
Q 26.375 6.390625 33.015625 6.390625 
Q 39.65625 6.390625 43.53125 10.953125 
Q 47.40625 15.53125 47.40625 23.390625 
Q 47.40625 31.296875 43.53125 35.828125 
Q 39.65625 40.375 33.015625 40.375 
z
M 52.59375 71.296875 
L 52.59375 62.3125 
Q 48.875 64.0625 45.09375 64.984375 
Q 41.3125 65.921875 37.59375 65.921875 
Q 27.828125 65.921875 22.671875 59.328125 
Q 17.53125 52.734375 16.796875 39.40625 
Q 19.671875 43.65625 24.015625 45.921875 
Q 28.375 48.1875 33.59375 48.1875 
Q 44.578125 48.1875 50.953125 41.515625 
Q 57.328125 34.859375 57.328125 23.390625 
Q 57.328125 12.15625 50.6875 5.359375 
Q 44.046875 -1.421875 33.015625 -1.421875 
Q 20.359375 -1.421875 13.671875 8.265625 
Q 6.984375 17.96875 6.984375 36.375 
Q 6.984375 53.65625 15.1875 63.9375 
Q 23.390625 74.21875 37.203125 74.21875 
Q 40.921875 74.21875 44.703125 73.484375 
Q 48.484375 72.75 52.59375 71.296875 
z
" id="DejaVuSans-54"/>
     </defs>
     <g transform="translate(371.548426 103.56364)scale(0.1 -0.1)">
      <use xlink:href="#DejaVuSans-54"/>
     </g>
    </g>
   </g>
  </g>
  <g id="axes_1">
   <g id="Line3DCollection_4">
    <path clip-path="url(#pe0b1cf53b7)" d="M 108.981727 98.200086 
L 113.518385 114.52569 
L 117.753619 126.037396 
L 121.779574 134.046147 
L 125.661905 139.51045 
L 129.449829 143.183599 
L 133.182744 145.7197 
L 136.892338 147.7023 
L 140.600824 149.588332 
L 144.32001 151.65754 
L 148.054748 154.061241 
L 151.80706 156.903496 
L 155.576795 160.248054 
L 159.360841 164.083461 
L 163.153416 168.310735 
L 166.947094 172.751023 
L 170.734103 177.165963 
L 174.507651 181.287585 
L 178.263098 184.855426 
L 181.998757 187.655354 
L 185.716153 189.552663 
L 189.419725 190.515536 
L 193.115985 190.621509 
L 196.812382 190.04961 
L 200.51605 189.056696 
L 204.232731 187.947021 
L 207.965982 187.034703 
L 211.716754 186.600369 
L 215.483395 186.835366 
L 219.262335 187.794971 
L 223.049374 189.408724 
L 226.840839 191.587852 
L 230.633496 194.335331 
L 234.424022 197.665241 
L 238.20993 201.43665 
L 241.991791 205.265022 
L 245.775874 208.494543 
L 249.576796 210.198895 
L 253.420195 209.181252 
L 257.345738 203.954152 
" style="fill:none;stroke:#bfbf00;stroke-width:1.5;"/>
    <path clip-path="url(#pe0b1cf53b7)" d="M 119.260516 102.565125 
L 123.675943 118.625276 
L 127.830039 130.20123 
L 131.80273 138.516544 
L 135.649394 144.433145 
L 139.410471 148.603224 
L 143.117737 151.578242 
L 146.797039 153.856815 
L 150.468259 155.871832 
L 154.144873 157.962373 
L 157.834662 160.370442 
L 161.540917 163.252012 
L 165.263006 166.670535 
L 168.996846 170.584541 
L 172.73593 174.850729 
L 176.472797 179.245781 
L 180.200488 183.498093 
L 183.913825 187.326686 
L 187.610265 190.48064 
L 191.290272 192.774796 
L 194.957154 194.118016 
L 198.616417 194.527448 
L 202.274768 194.129584 
L 205.938992 193.148285 
L 209.614832 191.88066 
L 213.306094 190.664065 
L 217.01406 189.834173 
L 220.737356 189.672629 
L 224.472387 190.342302 
L 228.214518 191.827894 
L 231.959675 193.958099 
L 235.705164 196.540795 
L 239.449129 199.471518 
L 243.190069 202.694593 
L 246.927763 206.073308 
L 250.665392 209.282987 
L 254.412204 211.752674 
L 258.186324 212.639348 
L 262.017775 210.808789 
L 265.951907 204.807877 
" style="fill:none;stroke:#bfbf00;stroke-width:1.5;"/>
    <path clip-path="url(#pe0b1cf53b7)" d="M 128.87508 97.713762 
L 133.184118 113.388158 
L 137.268823 124.908338 
L 141.198272 133.420196 
L 145.018784 139.695581 
L 148.763268 144.293502 
L 152.457376 147.679363 
L 156.122513 150.289128 
L 159.776365 152.538245 
L 163.43231 154.797364 
L 167.098886 157.361069 
L 170.779717 160.421058 
L 174.473856 164.044226 
L 178.176745 168.166382 
L 181.881662 172.604675 
L 185.581441 177.089653 
L 189.270087 181.310182 
L 192.943955 184.961115 
L 196.602381 187.788279 
L 200.247719 189.62678 
L 203.884799 190.423712 
L 207.519995 190.247872 
L 211.160052 189.281595 
L 214.810935 187.802872 
L 218.476825 186.155184 
L 222.159429 184.708979 
L 225.857702 183.815856 
L 229.568111 183.754729 
L 233.285516 184.670251 
L 237.00477 186.509633 
L 240.722382 189.046473 
L 244.436839 192.022307 
L 248.147779 195.248031 
L 251.855516 198.591207 
L 255.561909 201.882887 
L 259.272471 204.814104 
L 262.999171 206.858363 
L 266.76358 207.221358 
L 270.600318 204.803518 
L 274.561064 198.15827 
" style="fill:none;stroke:#bfbf00;stroke-width:1.5;"/>
    <path clip-path="url(#pe0b1cf53b7)" d="M 138.190614 89.112708 
L 142.401843 104.327619 
L 146.422924 115.728536 
L 150.312931 124.384942 
L 154.10987 130.975183 
L 157.839928 135.962725 
L 161.523616 139.732269 
L 165.178849 142.67028 
L 168.821429 145.183409 
L 172.464073 147.669118 
L 176.115183 150.463083 
L 179.778146 153.785332 
L 183.451624 157.70602 
L 187.130731 162.137951 
L 190.808788 166.856582 
L 194.479216 171.542247 
L 198.137177 175.836018 
L 201.780658 179.398679 
L 205.410859 181.964505 
L 209.031895 183.381761 
L 212.64992 183.6352 
L 216.271904 182.848097 
L 219.904322 181.266338 
L 223.551991 179.229335 
L 227.217229 177.131249 
L 230.899443 175.375113 
L 234.595248 174.322483 
L 238.299154 174.241051 
L 242.004869 175.248324 
L 245.707132 177.26646 
L 249.403172 180.05241 
L 253.092639 183.316685 
L 256.776621 186.815481 
L 260.457159 190.354917 
L 264.13806 193.724954 
L 267.827012 196.607273 
L 271.538605 198.489196 
L 275.297878 198.59651 
L 279.144313 195.83848 
L 283.136469 188.753695 
" style="fill:none;stroke:#bfbf00;stroke-width:1.5;"/>
    <path clip-path="url(#pe0b1cf53b7)" d="M 147.406564 80.606867 
L 151.525611 95.369251 
L 155.485282 106.66035 
L 159.335323 115.469467 
L 163.10606 122.371347 
L 166.817678 127.725006 
L 170.486403 131.83342 
L 174.127511 135.043707 
L 177.755445 137.768731 
L 181.382298 140.445075 
L 185.01601 143.45455 
L 188.65944 147.048439 
L 192.310699 151.299726 
L 195.964618 156.095932 
L 199.614732 161.165695 
L 203.255285 166.130861 
L 206.882847 170.574731 
L 210.497229 174.113922 
L 214.101582 176.462561 
L 217.701732 177.478305 
L 221.304946 177.184108 
L 224.918449 175.763258 
L 228.547995 173.533029 
L 232.196786 170.901204 
L 235.864874 168.315494 
L 239.549156 166.208127 
L 243.243955 164.942089 
L 246.942158 164.761341 
L 250.636828 165.74681 
L 254.322965 167.798166 
L 257.998557 170.672311 
L 261.664255 174.076462 
L 265.322366 177.743254 
L 268.976354 181.443546 
L 272.631648 184.937191 
L 276.29784 187.891065 
L 279.991957 189.79126 
L 283.742458 189.865167 
L 287.593801 187.014058 
L 291.61179 179.745953 
" style="fill:none;stroke:#bfbf00;stroke-width:1.5;"/>
    <path clip-path="url(#pe0b1cf53b7)" d="M 156.605205 74.642103 
L 160.635657 89.03453 
L 164.533354 100.283019 
L 168.339503 109.292418 
L 172.07752 116.521639 
L 175.762373 122.21049 
L 179.40691 126.576373 
L 183.024642 129.937938 
L 186.629272 132.737143 
L 190.232458 135.473097 
L 193.841545 138.591458 
L 197.458587 142.38228 
L 201.081 146.924032 
L 204.703344 152.077166 
L 208.319531 157.517296 
L 211.924901 162.798226 
L 215.517743 167.433787 
L 219.099965 170.98445 
L 222.67683 173.135447 
L 226.255851 173.749874 
L 229.845169 172.892019 
L 233.451806 170.812854 
L 237.080211 167.909104 
L 240.73137 164.663275 
L 244.40262 161.577112 
L 248.088169 159.106511 
L 251.780205 157.605609 
L 255.470444 157.282689 
L 259.151846 158.176225 
L 262.820071 160.159736 
L 266.474017 162.990498 
L 270.115231 166.385368 
L 273.746877 170.080077 
L 277.373322 173.839402 
L 281.001015 177.415636 
L 284.640909 180.47084 
L 288.312039 182.489786 
L 292.045989 182.696032 
L 295.892041 179.97579 
L 299.923192 172.80241 
" style="fill:none;stroke:#bfbf00;stroke-width:1.5;"/>
    <path clip-path="url(#pe0b1cf53b7)" d="M 165.788356 72.357847 
L 169.731685 86.498991 
L 173.564357 97.786474 
L 177.320083 107.041352 
L 181.01639 114.595659 
L 184.664037 120.55481 
L 188.273448 125.042849 
L 191.857189 128.361389 
L 195.42877 131.012335 
L 198.999486 133.590258 
L 202.575782 136.625162 
L 206.158577 140.456776 
L 209.744397 145.17267 
L 213.327554 150.606327 
L 216.902542 156.376249 
L 220.466135 161.959573 
L 224.018735 166.787711 
L 227.56472 170.351143 
L 231.111698 172.294861 
L 234.668868 172.484918 
L 238.244934 171.030858 
L 241.846131 168.261153 
L 245.474856 164.661907 
L 249.129178 160.795731 
L 252.803246 157.216984 
L 256.488458 154.397947 
L 260.175132 152.672556 
L 263.854337 152.203985 
L 267.519534 152.979948 
L 271.167546 154.840203 
L 274.7985 157.535071 
L 278.414862 160.794026 
L 282.020294 164.37425 
L 285.619357 168.062249 
L 289.218705 171.627947 
L 292.82982 174.747816 
L 296.473021 176.916096 
L 300.182403 177.358166 
L 304.011557 174.94884 
L 308.040134 168.133195 
" style="fill:none;stroke:#bfbf00;stroke-width:1.5;"/>
    <path clip-path="url(#pe0b1cf53b7)" d="M 174.909013 73.646735 
L 178.764768 87.630526 
L 182.527613 98.990641 
L 186.22511 108.476393 
L 189.870224 116.289984 
L 193.470751 122.390369 
L 197.035662 126.796851 
L 200.57727 129.805665 
L 204.109107 132.013357 
L 207.641803 134.146305 
L 211.180331 136.838074 
L 214.723978 140.484123 
L 218.268166 145.186367 
L 221.806995 150.755337 
L 225.335781 156.753295 
L 228.853116 162.57515 
L 232.36201 167.556453 
L 235.869803 171.100634 
L 239.386794 172.799375 
L 242.923889 172.517144 
L 246.48995 170.416252 
L 250.089658 166.915513 
L 253.722442 162.602132 
L 257.382647 158.123311 
L 261.060772 154.082508 
L 264.745395 150.958014 
L 268.425343 149.051608 
L 272.091665 148.470876 
L 275.739021 149.143385 
L 279.366043 150.864615 
L 282.97458 153.367364 
L 286.568131 156.393432 
L 290.150494 159.733572 
L 293.725689 163.217143 
L 297.299613 166.655541 
L 300.883285 169.760251 
L 304.497378 172.050846 
L 308.177628 172.766893 
L 311.98104 170.784511 
L 315.993015 164.533475 
" style="fill:none;stroke:#bfbf00;stroke-width:1.5;"/>
    <path clip-path="url(#pe0b1cf53b7)" d="M 183.899661 77.205657 
L 187.66688 91.043372 
L 191.355283 102.401275 
L 194.987769 111.981687 
L 198.574398 119.873199 
L 202.121472 125.888227 
L 205.637543 129.933789 
L 209.135034 132.304924 
L 212.627209 133.726818 
L 216.123198 135.087277 
L 219.625631 137.129593 
L 223.131633 140.307395 
L 226.635303 144.744646 
L 230.13053 150.240087 
L 233.613642 156.308348 
L 237.085442 162.259859 
L 240.552122 167.321312 
L 244.024658 170.787697 
L 247.516552 172.179616 
L 251.04047 171.355971 
L 254.604888 168.54258 
L 258.211908 164.266955 
L 261.856854 159.230897 
L 265.529481 154.168703 
L 269.216289 149.723766 
L 272.903207 146.366254 
L 276.578158 144.35086 
L 280.232939 143.717961 
L 283.864192 144.32657 
L 287.473085 145.918574 
L 291.063727 148.201177 
L 294.64083 150.92553 
L 298.207997 153.923733 
L 301.767959 157.08324 
L 305.324947 160.274143 
L 308.888587 163.258541 
L 312.478916 165.597231 
L 316.13232 166.558883 
L 319.908147 165.036647 
L 323.896331 159.46337 
" style="fill:none;stroke:#bfbf00;stroke-width:1.5;"/>
    <path clip-path="url(#pe0b1cf53b7)" d="M 192.697335 80.55532 
L 196.377465 94.146972 
L 199.990289 105.281269 
L 203.555525 114.651806 
L 207.082039 122.269548 
L 210.57634 127.835259 
L 214.047617 131.155527 
L 217.508413 132.521751 
L 220.970752 132.80152 
L 224.44095 133.046604 
L 227.918389 134.10008 
L 231.397573 136.479302 
L 234.871004 140.346479 
L 238.332213 145.507108 
L 241.778581 151.441429 
L 245.21343 157.379133 
L 248.646799 162.425086 
L 252.094214 165.739472 
L 255.573161 166.746825 
L 259.098165 165.297012 
L 262.676508 161.697932 
L 266.306324 156.610428 
L 269.977462 150.865492 
L 273.674283 145.280449 
L 277.379181 140.522771 
L 281.075997 137.031779 
L 284.752617 134.997318 
L 288.402539 134.380687 
L 292.025174 134.96779 
L 295.624821 136.445228 
L 299.208287 138.491326 
L 302.781631 140.864946 
L 306.347908 143.444295 
L 309.907995 146.181337 
L 313.463807 149.011909 
L 317.022859 151.757638 
L 320.603762 154.030931 
L 324.242632 155.142589 
L 328.000111 154.01784 
L 331.969404 149.111016 
" style="fill:none;stroke:#bfbf00;stroke-width:1.5;"/>
    <path clip-path="url(#pe0b1cf53b7)" d="M 197.010838 81.038393 
L 200.649804 94.438957 
L 204.226684 105.333516 
L 207.760089 114.427096 
L 211.258893 121.711866 
L 214.730308 126.858298 
L 218.18422 129.645658 
L 221.633127 130.365103 
L 225.087884 129.942649 
L 228.552878 129.496958 
L 232.025612 129.917849 
L 235.4991 131.761094 
L 238.964877 135.216291 
L 242.416175 140.099304 
L 245.850844 145.879465 
L 249.273546 151.748871 
L 252.696507 156.747391 
L 256.13797 159.956075 
L 259.61783 160.739314 
L 263.151589 158.941619 
L 266.74549 154.922575 
L 270.395004 149.421613 
L 274.086687 143.338323 
L 277.801962 137.527557 
L 281.521301 132.65848 
L 285.227851 129.144865 
L 288.909943 127.135624 
L 292.56232 126.548964 
L 296.186042 127.134576 
L 299.787092 128.554081 
L 303.373672 130.473529 
L 306.952495 132.656289 
L 310.526226 135.004098 
L 314.094727 137.499661 
L 317.658648 140.110891 
L 321.224289 142.690023 
L 324.809354 144.87701 
L 328.449556 146.007098 
L 332.205893 145.0253 
L 336.172807 140.40229 
" style="fill:none;stroke:#bfbf00;stroke-width:1.5;"/>
    <path clip-path="url(#pe0b1cf53b7)" d="M 108.981727 98.200086 
L 114.235246 101.951177 
L 119.260516 102.565125 
L 124.123411 100.907607 
L 128.87508 97.713762 
L 133.554527 93.607156 
L 138.190614 89.112708 
L 142.803621 84.663834 
L 147.406564 80.606867 
L 152.006435 77.205709 
L 156.605205 74.642103 
L 161.200854 73.017953 
L 165.788356 72.357847 
L 170.360543 72.609498 
L 174.909013 73.646735 
L 179.4249 75.269552 
L 183.899661 77.205657 
L 188.32576 79.108764 
L 192.697335 80.55532 
L 197.010838 81.038393 
" style="fill:none;stroke:#bfbf00;stroke-width:1.5;"/>
    <path clip-path="url(#pe0b1cf53b7)" d="M 117.753619 126.037396 
L 122.901464 129.720383 
L 127.830039 130.20123 
L 132.602685 128.348523 
L 137.268823 124.908338 
L 141.866243 120.520318 
L 146.422924 115.728536 
L 150.958459 110.986634 
L 155.485282 106.66035 
L 160.009783 103.028476 
L 164.533354 100.283019 
L 169.0534 98.52912 
L 173.564357 97.786474 
L 178.058636 97.989451 
L 182.527613 98.990641 
L 186.96252 100.562886 
L 191.355283 102.401275 
L 195.699326 104.12577 
L 199.990289 105.281269 
L 204.226684 105.333516 
" style="fill:none;stroke:#bfbf00;stroke-width:1.5;"/>
    <path clip-path="url(#pe0b1cf53b7)" d="M 125.661905 139.51045 
L 130.761817 143.604644 
L 135.649394 144.433145 
L 140.385839 142.877132 
L 145.018784 139.695581 
L 149.584556 135.54239 
L 154.10987 130.975183 
L 158.61322 126.459832 
L 163.10606 122.371347 
L 167.593939 118.994488 
L 172.07752 116.521639 
L 176.553646 115.052751 
L 181.01639 114.595659 
L 185.458056 115.065861 
L 189.870224 116.289984 
L 194.244692 118.007343 
L 198.574398 119.873199 
L 202.854278 121.462137 
L 207.082039 122.269548 
L 211.258893 121.711866 
" style="fill:none;stroke:#bfbf00;stroke-width:1.5;"/>
    <path clip-path="url(#pe0b1cf53b7)" d="M 133.182744 145.7197 
L 138.252256 150.29712 
L 143.117737 151.578242 
L 147.837682 150.450862 
L 152.457376 147.679363 
L 157.011054 143.92034 
L 161.523616 139.732269 
L 166.012007 135.579702 
L 170.486403 131.83342 
L 174.951369 128.771351 
L 179.40691 126.576373 
L 183.849564 125.336232 
L 188.273448 125.042849 
L 192.671334 125.594395 
L 197.035662 126.796851 
L 201.359514 128.366642 
L 205.637543 129.933789 
L 209.866814 131.043135 
L 214.047617 131.155527 
L 218.18422 129.645658 
" style="fill:none;stroke:#bfbf00;stroke-width:1.5;"/>
    <path clip-path="url(#pe0b1cf53b7)" d="M 140.600824 149.588332 
L 145.630133 154.354677 
L 150.468259 155.871832 
L 155.169724 155.016042 
L 159.776365 152.538245 
L 164.319458 149.079924 
L 168.821429 145.183409 
L 173.297209 141.295529 
L 177.755445 137.768731 
L 182.199649 134.861588 
L 186.629272 132.737143 
L 191.040788 131.463001 
L 195.42877 131.012335 
L 199.786927 131.265567 
L 204.109107 132.013357 
L 208.39024 132.960062 
L 212.627209 133.726818 
L 216.819661 133.854217 
L 220.970752 132.80152 
L 225.087884 129.942649 
" style="fill:none;stroke:#bfbf00;stroke-width:1.5;"/>
    <path clip-path="url(#pe0b1cf53b7)" d="M 148.054748 154.061241 
L 153.032684 158.793613 
L 157.834662 160.370442 
L 162.510735 159.649403 
L 167.098886 157.361069 
L 171.627135 154.125823 
L 176.115183 150.463083 
L 180.575795 146.796311 
L 185.01601 143.45455 
L 189.438278 140.672773 
L 193.841545 138.591458 
L 198.222335 137.257587 
L 202.575782 136.625162 
L 206.896664 136.559276 
L 211.180331 136.838074 
L 215.423613 137.156484 
L 219.625631 137.129593 
L 223.788566 136.292768 
L 227.918389 134.10008 
L 232.025612 129.917849 
" style="fill:none;stroke:#bfbf00;stroke-width:1.5;"/>
    <path clip-path="url(#pe0b1cf53b7)" d="M 155.576795 160.248054 
L 160.500951 164.999418 
L 165.263006 166.670535 
L 169.909115 166.111944 
L 174.473856 164.044226 
L 178.982289 161.074302 
L 183.451624 157.70602 
L 187.892592 154.344556 
L 192.310699 151.299726 
L 196.707357 148.786045 
L 201.081 146.924032 
L 205.428138 145.740959 
L 209.744397 145.17267 
L 214.025496 145.067116 
L 218.268166 145.186367 
L 222.471014 145.211821 
L 226.635303 144.744646 
L 230.765702 143.308424 
L 234.871004 140.346479 
L 238.964877 135.216291 
" style="fill:none;stroke:#bfbf00;stroke-width:1.5;"/>
    <path clip-path="url(#pe0b1cf53b7)" d="M 163.153416 168.310735 
L 168.019093 173.085889 
L 172.73593 174.850729 
L 177.346339 174.452019 
L 181.881662 172.604675 
L 186.364187 169.908086 
L 190.808788 166.856582 
L 195.22429 163.843726 
L 199.614732 161.165695 
L 203.980517 159.022046 
L 208.319531 157.517296 
L 212.628205 156.662153 
L 216.902542 156.376249 
L 221.139077 156.490876 
L 225.335781 156.753295 
L 229.492883 156.829652 
L 233.613642 156.308348 
L 237.705059 154.701107 
L 241.778581 151.441429 
L 245.850844 145.879465 
" style="fill:none;stroke:#bfbf00;stroke-width:1.5;"/>
    <path clip-path="url(#pe0b1cf53b7)" d="M 170.734103 177.165963 
L 175.534875 181.800496 
L 180.200488 183.498093 
L 184.76952 183.098396 
L 189.270087 181.310182 
L 193.72177 178.727094 
L 198.137177 175.836018 
L 202.523322 173.023 
L 206.882847 170.574731 
L 211.215201 168.680538 
L 215.517743 167.433787 
L 219.786812 166.833585 
L 224.018735 166.787711 
L 228.210777 167.116484 
L 232.36201 167.556453 
L 236.474116 167.764587 
L 240.552122 167.321312 
L 244.605087 165.731971 
L 248.646799 162.425086 
L 252.696507 156.747391 
" style="fill:none;stroke:#bfbf00;stroke-width:1.5;"/>
    <path clip-path="url(#pe0b1cf53b7)" d="M 178.263098 184.855426 
L 182.997264 189.107589 
L 187.610265 190.48064 
L 192.136964 189.806602 
L 196.602381 187.788279 
L 201.023514 185.013731 
L 205.410859 181.964505 
L 209.769751 179.020653 
L 214.101582 176.462561 
L 218.404962 174.47222 
L 222.67683 173.135447 
L 226.913508 172.443012 
L 231.111698 172.294861 
L 235.269407 172.503668 
L 239.386794 172.799375 
L 243.46694 172.832625 
L 247.516552 172.179616 
L 251.546633 170.34209 
L 255.573161 166.746825 
L 259.61783 160.739314 
" style="fill:none;stroke:#bfbf00;stroke-width:1.5;"/>
    <path clip-path="url(#pe0b1cf53b7)" d="M 185.716153 189.552663 
L 190.390417 193.265997 
L 194.957154 194.118016 
L 199.447874 192.937173 
L 203.884799 190.423712 
L 208.282609 187.163208 
L 212.64992 183.6352 
L 216.990592 180.216602 
L 221.304946 177.184108 
L 225.59092 174.715761 
L 229.845169 172.892019 
L 234.064116 171.699023 
L 238.244934 171.030858 
L 242.386445 170.695119 
L 246.48995 170.416252 
L 250.559961 169.841302 
L 254.604888 168.54258 
L 258.637683 166.01967 
L 262.676508 161.697932 
L 266.74549 154.922575 
" style="fill:none;stroke:#bfbf00;stroke-width:1.5;"/>
    <path clip-path="url(#pe0b1cf53b7)" d="M 193.115985 190.621509 
L 197.742731 193.81973 
L 202.274768 194.129584 
L 206.740633 192.382604 
L 211.160052 189.281595 
L 215.545638 185.415598 
L 219.904322 181.266338 
L 224.23865 177.2128 
L 228.547995 173.533029 
L 232.829707 170.405017 
L 237.080211 167.909104 
L 241.296053 166.030221 
L 245.474856 164.661907 
L 249.616208 163.610844 
L 253.722442 162.602132 
L 257.799358 161.28373 
L 261.856854 159.230897 
L 265.909555 155.94764 
L 269.977462 150.865492 
L 274.086687 143.338323 
" style="fill:none;stroke:#bfbf00;stroke-width:1.5;"/>
    <path clip-path="url(#pe0b1cf53b7)" d="M 200.51605 189.056696 
L 205.106869 191.940612 
L 209.614832 191.88066 
L 214.065687 189.715191 
L 218.476825 186.155184 
L 222.8589 181.797277 
L 227.217229 177.131249 
L 231.55308 172.54285 
L 235.864874 168.315494 
L 240.149342 164.632093 
L 244.40262 161.577112 
L 248.621275 159.139404 
L 252.803246 157.216984 
L 256.948696 155.62116 
L 261.060772 154.082508 
L 265.146275 152.255886 
L 269.216289 149.723766 
L 273.286764 145.999102 
L 277.379181 140.522771 
L 281.521301 132.65848 
" style="fill:none;stroke:#bfbf00;stroke-width:1.5;"/>
    <path clip-path="url(#pe0b1cf53b7)" d="M 207.965982 187.034703 
L 212.52611 189.944406 
L 217.01406 189.834173 
L 221.452882 187.550493 
L 225.857702 183.815856 
L 230.237253 179.239624 
L 234.595248 174.322483 
L 238.931664 169.459599 
L 243.243955 164.942089 
L 247.528205 160.96025 
L 251.780205 157.605609 
L 255.996465 154.874557 
L 260.175132 152.672556 
L 264.316816 150.818937 
L 268.425343 149.051608 
L 272.508398 147.032615 
L 276.578158 144.35086 
L 280.651888 140.52422 
L 284.752617 134.997318 
L 288.909943 127.135624 
" style="fill:none;stroke:#bfbf00;stroke-width:1.5;"/>
    <path clip-path="url(#pe0b1cf53b7)" d="M 215.483395 186.835366 
L 220.009155 190.147472 
L 224.472387 190.342302 
L 228.893529 188.271979 
L 233.285516 184.670251 
L 237.655232 180.158492 
L 242.004869 175.248324 
L 246.33321 170.344134 
L 250.636828 165.74681 
L 254.911215 161.65683 
L 259.151846 158.176225 
L 263.355174 155.311982 
L 267.519534 152.979948 
L 271.645979 151.008529 
L 275.739021 149.143385 
L 279.807293 147.052048 
L 283.864192 144.32657 
L 287.92852 140.484595 
L 292.025174 134.96779 
L 296.186042 127.134576 
" style="fill:none;stroke:#bfbf00;stroke-width:1.5;"/>
    <path clip-path="url(#pe0b1cf53b7)" d="M 223.049374 189.408724 
L 227.530908 193.272408 
L 231.959675 193.958099 
L 236.35328 192.307882 
L 240.722382 189.046473 
L 245.072078 184.790464 
L 249.403172 180.05241 
L 253.713394 175.243085 
L 257.998557 170.672311 
L 262.253676 166.550508 
L 266.474017 162.990498 
L 270.656079 160.010055 
L 274.7985 157.535071 
L 278.902895 155.402928 
L 282.97458 153.367364 
L 287.023271 151.101611 
L 291.063727 148.201177 
L 295.11642 144.18472 
L 299.208287 138.491326 
L 303.373672 130.473529 
" style="fill:none;stroke:#bfbf00;stroke-width:1.5;"/>
    <path clip-path="url(#pe0b1cf53b7)" d="M 230.633496 194.335331 
L 235.062281 198.462298 
L 239.449129 199.471518 
L 243.808278 198.168985 
L 248.147779 195.248031 
L 252.470768 191.298974 
L 256.776621 186.815481 
L 261.062083 182.195806 
L 265.322366 177.743254 
L 269.552203 173.666549 
L 273.746877 170.080077 
L 277.903176 167.005622 
L 282.020294 164.37425 
L 286.100618 162.030247 
L 290.150494 159.733572 
L 294.180875 157.164258 
L 298.207997 153.923733 
L 302.254038 149.535976 
L 306.347908 143.444295 
L 310.526226 135.004098 
" style="fill:none;stroke:#bfbf00;stroke-width:1.5;"/>
    <path clip-path="url(#pe0b1cf53b7)" d="M 238.20993 201.43665 
L 242.583833 205.22806 
L 246.927763 206.073308 
L 251.252111 204.739952 
L 255.561909 201.882887 
L 259.857987 198.05729 
L 264.13806 193.724954 
L 268.397753 189.257742 
L 272.631648 184.937191 
L 276.834257 180.95569 
L 281.001015 177.415636 
L 285.129182 174.330828 
L 289.218705 171.627947 
L 293.272988 169.149346 
L 297.299613 166.655541 
L 301.31097 163.828943 
L 305.324947 160.274143 
L 309.365567 155.519251 
L 313.463807 149.011909 
L 317.658648 140.110891 
" style="fill:none;stroke:#bfbf00;stroke-width:1.5;"/>
    <path clip-path="url(#pe0b1cf53b7)" d="M 245.775874 208.494543 
L 250.102813 211.502472 
L 254.412204 211.752674 
L 258.710413 209.993765 
L 262.999171 206.858363 
L 267.276673 202.87767 
L 271.538605 198.489196 
L 275.779151 194.040539 
L 279.991957 189.79126 
L 284.171107 185.912871 
L 288.312039 182.489786 
L 292.412431 179.519865 
L 296.473021 176.916096 
L 300.498333 174.509421 
L 304.497378 172.050846 
L 308.484284 169.21407 
L 312.478916 165.597231 
L 316.507564 160.722233 
L 320.603762 154.030931 
L 324.809354 144.87701 
" style="fill:none;stroke:#bfbf00;stroke-width:1.5;"/>
    <path clip-path="url(#pe0b1cf53b7)" d="M 253.420195 209.181252 
L 257.72156 211.310462 
L 262.017775 210.808789 
L 266.311256 208.428621 
L 270.600318 204.803518 
L 274.880249 200.462435 
L 279.144313 195.83848 
L 283.384761 191.272237 
L 287.593801 187.014058 
L 291.764567 183.224586 
L 295.892041 179.97579 
L 299.973948 177.251349 
L 304.011557 174.94884 
L 308.010412 172.882403 
L 311.98104 170.784511 
L 315.939521 168.309975 
L 319.908147 165.036647 
L 323.916067 160.465656 
L 328.000111 154.01784 
L 332.205893 145.0253 
" style="fill:none;stroke:#bfbf00;stroke-width:1.5;"/>
    <path clip-path="url(#pe0b1cf53b7)" d="M 257.345738 203.954152 
L 261.648207 205.685675 
L 265.951907 204.807877 
L 270.257336 202.084082 
L 274.561064 198.15827 
L 278.856816 193.568087 
L 283.136469 188.753695 
L 287.391059 184.061625 
L 291.61179 179.745953 
L 295.791015 175.969137 
L 299.923192 172.80241 
L 304.005787 170.226584 
L 308.040134 168.133195 
L 312.032143 166.328097 
L 315.993015 164.533475 
L 319.939867 162.390835 
L 323.896331 159.46337 
L 327.89323 155.235767 
L 331.969404 149.111016 
L 336.172807 140.40229 
" style="fill:none;stroke:#bfbf00;stroke-width:1.5;"/>
   </g>
   <g id="Line3DCollection_5">
    <path clip-path="url(#pe0b1cf53b7)" d="M 110.244613 120.639841 
L 114.488837 132.324296 
L 118.443433 139.110893 
L 122.220617 142.694099 
L 125.901157 144.370297 
L 129.541651 145.118504 
L 133.179825 145.655786 
L 136.838639 146.478887 
L 140.529686 147.898743 
L 144.256079 150.071534 
L 148.014956 153.027959 
L 151.799634 156.701183 
L 155.601405 160.953256 
L 159.410995 165.599467 
L 163.219676 170.430144 
L 167.020058 175.22949 
L 170.806588 179.791298 
L 174.5758 183.931567 
L 178.326354 187.498215 
L 182.058905 190.378158 
L 185.77585 192.502072 
L 189.480975 193.847092 
L 193.179043 194.437637 
L 196.875336 194.344418 
L 200.575188 193.681586 
L 204.283517 192.601842 
L 208.004395 191.289262 
L 211.740671 189.949535 
L 215.493693 188.797366 
L 219.263158 188.040825 
L 223.047137 187.862665 
L 226.842312 188.398757 
L 230.644478 189.714058 
L 234.44932 191.776629 
L 238.253521 194.43025 
L 242.05619 197.365845 
L 245.860656 200.091275 
L 249.676669 201.897833 
L 253.523102 201.819749 
L 257.431363 198.57997 
" style="fill:none;stroke:#1f77b4;stroke-width:1.5;"/>
    <path clip-path="url(#pe0b1cf53b7)" d="M 115.557943 126.514767 
L 119.741634 137.984116 
L 123.650978 144.608329 
L 127.392818 148.062746 
L 131.043911 149.629694 
L 134.657909 150.277908 
L 138.270434 150.717141 
L 141.903043 151.439232 
L 145.56649 152.752186 
L 149.263508 154.810861 
L 152.991213 157.645889 
L 156.743164 161.19131 
L 160.511077 165.310683 
L 164.286209 169.821182 
L 168.060411 174.51516 
L 171.826863 179.178801 
L 175.580537 183.607693 
L 179.318414 187.619346 
L 183.039505 191.06283 
L 186.744706 193.825829 
L 190.436534 195.83938 
L 194.118781 197.08058 
L 197.796096 197.573427 
L 201.473543 197.387857 
L 205.156141 196.636933 
L 208.848414 195.472007 
L 212.553979 194.07561 
L 216.275197 192.651784 
L 220.012926 191.413576 
L 223.766405 190.567522 
L 227.53332 190.295103 
L 231.310091 190.731335 
L 235.092414 191.940893 
L 238.876093 193.892297 
L 242.658195 196.430665 
L 246.438529 199.249265 
L 250.221491 201.85944 
L 254.018317 203.557223 
L 257.849853 203.383027 
L 261.750061 200.06775 
" style="fill:none;stroke:#1f77b4;stroke-width:1.5;"/>
    <path clip-path="url(#pe0b1cf53b7)" d="M 120.630108 129.189991 
L 124.761954 140.478436 
L 128.633507 146.958806 
L 132.346706 150.292805 
L 135.974635 151.752831 
L 139.568231 152.30043 
L 143.161177 152.640305 
L 146.773724 153.260955 
L 150.415842 154.468442 
L 154.089901 156.416788 
L 157.792986 159.136655 
L 161.51887 162.562739 
L 165.259659 166.559669 
L 169.007103 170.945914 
L 172.75359 175.515188 
L 176.492837 180.054981 
L 180.220313 184.362033 
L 183.93343 188.254792 
L 187.631537 191.583017 
L 191.315767 194.23481 
L 194.988768 196.141361 
L 198.654345 197.279659 
L 202.317054 197.673356 
L 205.98176 197.391832 
L 209.653191 196.547411 
L 213.335497 195.290564 
L 217.031864 193.802853 
L 220.744183 192.287307 
L 224.472836 190.955991 
L 228.216611 190.014565 
L 231.972812 189.643814 
L 235.737589 189.978329 
L 239.506528 191.082718 
L 243.275537 192.925858 
L 247.042049 195.353709 
L 250.806557 198.060916 
L 254.574514 200.560751 
L 258.358647 202.151763 
L 262.181801 201.877517 
L 266.080541 198.472813 
" style="fill:none;stroke:#1f77b4;stroke-width:1.5;"/>
    <path clip-path="url(#pe0b1cf53b7)" d="M 125.528648 129.553251 
L 129.615009 140.685029 
L 133.454256 147.034584 
L 137.143758 150.253905 
L 140.753166 151.608415 
L 144.330872 152.054689 
L 147.908733 152.293996 
L 151.505765 152.812622 
L 155.131192 153.915384 
L 158.787033 155.755827 
L 162.470334 158.364707 
L 166.175067 161.677223 
L 169.893699 165.558759 
L 173.618444 169.828656 
L 177.342201 174.281517 
L 181.059201 178.705648 
L 184.765392 182.898481 
L 188.458599 186.678995 
L 192.138507 189.8973 
L 195.806485 192.441669 
L 199.465311 194.243289 
L 203.118818 195.278994 
L 206.771478 195.572143 
L 210.427974 195.191711 
L 214.092757 194.249537 
L 217.769622 192.895551 
L 221.461338 191.310749 
L 225.169338 189.697613 
L 228.893536 188.267709 
L 232.632275 187.226288 
L 236.382478 186.75386 
L 240.140019 186.984905 
L 243.900366 187.98411 
L 247.65952 189.72064 
L 251.415266 192.040946 
L 255.168771 194.640346 
L 258.926542 197.032931 
L 262.702803 198.518161 
L 266.52242 198.140561 
L 270.424608 194.635919 
" style="fill:none;stroke:#1f77b4;stroke-width:1.5;"/>
    <path clip-path="url(#pe0b1cf53b7)" d="M 130.306011 128.358441 
L 134.351352 139.349699 
L 138.162151 145.577062 
L 141.831439 148.685434 
L 145.4256 149.935244 
L 148.990598 150.279581 
L 152.556543 150.417367 
L 156.141268 150.833428 
L 159.753272 151.831811 
L 163.394234 153.565815 
L 167.061158 156.066343 
L 170.748199 159.26899 
L 174.448169 163.03968 
L 178.153726 167.19835 
L 181.858262 171.54017 
L 185.556503 175.853936 
L 189.244863 179.937465 
L 192.921576 183.609988 
L 196.586652 186.721741 
L 200.241699 189.161 
L 203.889629 190.858849 
L 207.534305 191.791931 
L 211.180129 191.983346 
L 214.831609 191.501772 
L 218.492932 190.458726 
L 222.167548 189.003824 
L 225.857819 187.317775 
L 229.564731 185.602819 
L 233.287734 184.070349 
L 237.024731 182.925528 
L 240.772261 182.348868 
L 244.525921 182.474949 
L 248.281055 183.368641 
L 252.033746 184.999349 
L 255.782125 187.213778 
L 259.528028 189.707448 
L 263.279011 191.994517 
L 267.050801 193.374276 
L 270.870299 192.890733 
L 274.779408 189.278696 
" style="fill:none;stroke:#1f77b4;stroke-width:1.5;"/>
    <path clip-path="url(#pe0b1cf53b7)" d="M 135.002104 126.243194 
L 139.009359 137.103532 
L 142.794236 143.213835 
L 146.445584 146.213483 
L 150.026631 147.359084 
L 153.580992 147.601123 
L 157.137083 147.63682 
L 160.711585 147.949982 
L 164.312293 148.844166 
L 167.940549 150.472571 
L 171.593312 152.866265 
L 175.264912 155.961182 
L 178.948495 159.623664 
L 182.637149 163.674071 
L 186.324747 167.907953 
L 190.0065 172.114408 
L 193.679277 176.091448 
L 197.341714 179.658398 
L 200.994146 182.665486 
L 204.638416 185.000892 
L 208.277574 186.595536 
L 211.915518 187.425848 
L 215.556582 187.514693 
L 219.205109 186.930509 
L 222.865028 185.784595 
L 226.539455 184.226385 
L 230.230348 182.436461 
L 233.938253 180.617006 
L 237.662162 178.979432 
L 241.399539 177.729001 
L 245.146542 177.046394 
L 248.898486 177.066414 
L 252.650589 177.854175 
L 256.399011 179.379295 
L 260.142224 181.488593 
L 263.882725 183.877513 
L 267.629118 186.059836 
L 271.398633 187.334042 
L 275.220218 186.742749 
L 279.13848 183.018614 
" style="fill:none;stroke:#1f77b4;stroke-width:1.5;"/>
    <path clip-path="url(#pe0b1cf53b7)" d="M 139.64624 123.73894 
L 143.617122 134.472738 
L 147.377531 140.468402 
L 151.012228 143.36047 
L 154.581359 144.402246 
L 158.126237 144.541992 
L 161.673621 144.475502 
L 165.239058 144.685761 
L 168.829655 145.475954 
L 172.446418 146.999237 
L 176.086261 149.286858 
L 179.743684 152.27506 
L 183.412159 155.830548 
L 187.085197 159.774034 
L 190.75714 163.901367 
L 194.423679 168.001863 
L 198.082133 171.873654 
L 201.731534 175.336088 
L 205.372539 178.239328 
L 209.007224 180.471418 
L 212.63878 181.963087 
L 216.271141 182.690545 
L 219.908577 182.676431 
L 223.55527 181.988969 
L 227.214896 180.739282 
L 230.890239 179.07668 
L 234.582863 177.181687 
L 238.292877 175.256505 
L 242.018818 173.51265 
L 245.757716 172.155557 
L 249.505346 171.36615 
L 253.256745 171.279508 
L 257.007001 171.961014 
L 260.752349 173.380487 
L 264.491596 175.3848 
L 268.227898 177.669202 
L 271.9709 179.746909 
L 275.739333 180.91532 
L 279.564188 180.215289 
L 283.492775 176.376826 
" style="fill:none;stroke:#1f77b4;stroke-width:1.5;"/>
    <path clip-path="url(#pe0b1cf53b7)" d="M 144.258706 121.276031 
L 148.193988 131.883642 
L 151.93054 137.76506 
L 155.549098 140.549973 
L 159.106761 141.488363 
L 162.642578 141.526254 
L 166.181665 141.358004 
L 169.738455 141.465763 
L 173.319369 142.152337 
L 176.925087 143.570833 
L 180.552473 145.752677 
L 184.196198 148.634419 
L 187.850052 152.083129 
L 191.507965 155.919876 
L 195.164745 159.940814 
L 198.816555 163.93548 
L 202.461161 167.702135 
L 206.097984 171.060156 
L 209.728003 173.859647 
L 213.353527 175.98852 
L 216.977884 177.377316 
L 220.605044 178.00203 
L 224.239217 177.885073 
L 227.884425 177.094457 
L 231.544095 175.741122 
L 235.220683 173.97425 
L 238.915363 171.974301 
L 242.627809 169.943492 
L 246.356111 168.093427 
L 250.096864 166.629714 
L 253.845468 165.733508 
L 257.596681 165.540158 
L 261.345462 166.115311 
L 265.088119 167.42899 
L 268.823794 169.328128 
L 272.556291 171.50779 
L 276.296292 173.480645 
L 280.064016 174.543041 
L 283.892485 173.734105 
L 287.831695 169.781254 
" style="fill:none;stroke:#1f77b4;stroke-width:1.5;"/>
    <path clip-path="url(#pe0b1cf53b7)" d="M 148.852106 119.185893 
L 152.751876 129.664737 
L 156.464561 135.430893 
L 160.066902 138.108655 
L 163.612981 138.944268 
L 167.139593 138.881204 
L 170.670233 138.612148 
L 174.218224 138.618252 
L 177.789311 139.201836 
L 181.383847 140.515902 
L 184.998652 142.592039 
L 188.628561 145.367128 
L 192.267685 148.708645 
L 195.910367 152.438079 
L 199.551878 156.351959 
L 203.188848 160.240118 
L 206.819484 163.901016 
L 210.443598 167.154125 
L 214.062483 169.849544 
L 217.678679 171.875092 
L 221.29565 173.161152 
L 224.917403 173.683512 
L 228.548085 173.464349 
L 232.191561 172.571439 
L 235.851011 171.115506 
L 239.528565 169.245549 
L 243.225011 167.141901 
L 246.939594 165.006717 
L 250.669959 163.051619 
L 254.412275 161.482305 
L 258.161567 160.480095 
L 261.912322 160.180556 
L 265.65937 160.649576 
L 269.399093 161.857387 
L 273.130962 163.651038 
L 276.859426 165.725523 
L 280.59619 167.593145 
L 284.362943 168.549461 
L 288.19471 167.632232 
L 292.144143 163.56676 
" style="fill:none;stroke:#1f77b4;stroke-width:1.5;"/>
    <path clip-path="url(#pe0b1cf53b7)" d="M 153.432597 117.701705 
L 157.296493 128.047304 
L 160.984881 133.696325 
L 164.570525 136.266766 
L 168.104506 137.000448 
L 171.621381 136.837766 
L 175.143027 136.469345 
L 178.68167 136.375066 
L 182.242383 136.856586 
L 185.825197 138.066715 
L 189.426885 140.037183 
L 193.042452 142.705232 
L 196.666324 145.938823 
L 200.293258 149.559964 
L 203.918982 153.365675 
L 207.54059 157.146208 
L 211.156727 160.700338 
L 214.767589 163.847736 
L 218.374783 166.438583 
L 221.981074 168.360676 
L 225.590058 169.54428 
L 229.205781 169.964991 
L 232.832324 169.644745 
L 236.473395 168.651046 
L 240.131929 167.094336 
L 243.809734 165.123349 
L 247.507214 162.918186 
L 251.223191 160.680822 
L 254.954873 158.622767 
L 258.698006 156.949688 
L 262.44725 155.842959 
L 266.196822 155.43828 
L 269.941429 155.801736 
L 273.677528 156.903785 
L 277.404915 158.59168 
L 281.128676 160.56053 
L 284.861521 162.322564 
L 288.626585 163.172976 
L 292.460863 162.148748 
L 296.419606 157.97385 
" style="fill:none;stroke:#1f77b4;stroke-width:1.5;"/>
    <path clip-path="url(#pe0b1cf53b7)" d="M 158.001064 116.95874 
L 161.82849 127.165673 
L 165.491923 132.69533 
L 169.060167 135.158307 
L 172.581311 135.791159 
L 176.087686 135.530563 
L 179.599564 135.064613 
L 183.12808 134.871582 
L 186.677639 135.252258 
L 190.247955 136.359143 
L 193.83576 138.224083 
L 197.436226 140.784725 
L 201.044094 143.9096 
L 204.65453 147.421361 
L 208.263718 151.117662 
L 211.869212 154.789322 
L 215.470089 158.235572 
L 219.066924 161.276412 
L 222.661633 163.762214 
L 226.257204 165.580831 
L 229.857362 166.662464 
L 233.466185 166.982538 
L 237.087691 166.562736 
L 240.725429 165.470244 
L 244.382091 163.815151 
L 248.059167 161.745818 
L 251.756682 159.441988 
L 255.47304 157.10531 
L 259.205018 154.947027 
L 262.947948 153.172624 
L 266.696133 151.963391 
L 270.443526 151.455059 
L 274.184717 151.713855 
L 277.916236 152.710484 
L 281.638203 154.292514 
L 285.356329 156.155389 
L 289.084309 157.811629 
L 292.846696 158.556588 
L 296.682406 157.427188 
L 300.649229 153.147035 
" style="fill:none;stroke:#1f77b4;stroke-width:1.5;"/>
    <path clip-path="url(#pe0b1cf53b7)" d="M 162.554269 116.995114 
L 166.344601 127.057917 
L 169.982378 132.466064 
L 173.532461 134.821605 
L 177.039966 135.354951 
L 180.535013 134.998399 
L 184.036281 134.437014 
L 187.553821 134.14712 
L 191.091381 134.428407 
L 194.648361 135.432959 
L 198.221453 137.192708 
L 201.805997 139.645745 
L 205.39705 142.661269 
L 208.990182 146.062705 
L 212.582027 149.648491 
L 216.170596 153.210165 
L 219.755392 156.547566 
L 223.337365 159.481156 
L 226.918732 161.861611 
L 230.502699 163.576927 
L 234.093118 164.557294 
L 237.694097 164.777992 
L 241.309587 164.260436 
L 244.942982 163.07145 
L 248.596729 161.320688 
L 252.272006 159.156035 
L 255.968462 156.756737 
L 259.684093 154.323965 
L 263.415251 152.068537 
L 267.156865 150.195591 
L 270.902887 148.886194 
L 274.647015 148.275993 
L 278.383725 148.431307 
L 282.109624 149.323102 
L 285.825151 150.799378 
L 289.536627 152.556149 
L 293.258714 154.106608 
L 297.017343 154.74682 
L 300.853305 153.514411 
L 304.826856 149.133639 
" style="fill:none;stroke:#1f77b4;stroke-width:1.5;"/>
    <path clip-path="url(#pe0b1cf53b7)" d="M 167.085992 117.753396 
L 170.838762 127.667376 
L 174.450303 132.952331 
L 177.981571 135.200731 
L 181.474733 135.636048 
L 184.957715 135.185592 
L 188.447619 134.530953 
L 191.953427 134.146184 
L 195.478237 134.329679 
L 199.021141 135.232994 
L 202.578793 136.888122 
L 206.146701 139.233637 
L 209.720232 142.139489 
L 213.295362 145.429994 
L 216.869167 148.904507 
L 220.440108 152.355429 
L 224.008109 155.583342 
L 227.574487 158.409297 
L 231.141755 160.684376 
L 234.713333 162.296798 
L 238.293195 163.176796 
L 241.885475 163.299522 
L 245.49406 162.686117 
L 249.122186 161.403 
L 252.77206 159.559318 
L 256.444549 157.302378 
L 260.138938 154.81081 
L 263.852816 152.285166 
L 267.582123 149.935684 
L 271.321393 147.967013 
L 275.064234 146.559859 
L 278.8041 145.849689 
L 282.535357 145.902855 
L 286.254691 146.690604 
L 289.96285 148.061472 
L 293.666758 149.712264 
L 297.382016 151.157195 
L 301.135901 151.693558 
L 304.971022 150.360386 
L 308.95003 145.883541 
" style="fill:none;stroke:#1f77b4;stroke-width:1.5;"/>
    <path clip-path="url(#pe0b1cf53b7)" d="M 171.588141 119.083164 
L 175.303199 128.84513 
L 178.888211 134.005996 
L 182.40027 136.147866 
L 185.878629 136.486667 
L 189.349051 135.944262 
L 192.827082 135.198419 
L 196.320648 134.720679 
L 199.832207 134.807981 
L 203.360548 135.611269 
L 206.902292 137.162576 
L 210.453112 139.400986 
L 214.008683 142.197266 
L 217.565378 145.376712 
L 221.120712 148.739702 
L 224.673587 152.079609 
L 228.224341 155.197867 
L 231.774652 157.916208 
L 235.327324 160.086207 
L 238.885985 161.596368 
L 242.454727 162.377008 
L 246.03771 162.40317 
L 249.638754 161.695711 
L 253.260937 160.320616 
L 256.906235 158.38647 
L 260.575205 156.039925 
L 264.266772 153.458895 
L 267.978132 150.843205 
L 271.704819 148.402396 
L 275.440979 146.340509 
L 279.17989 144.837784 
L 282.914765 144.029426 
L 286.639867 143.98178 
L 290.351957 144.666384 
L 294.052092 145.932393 
L 297.747781 147.477575 
L 301.455544 148.817446 
L 305.203967 149.250933 
L 309.037431 147.819043 
L 313.02091 143.249995 
" style="fill:none;stroke:#1f77b4;stroke-width:1.5;"/>
    <path clip-path="url(#pe0b1cf53b7)" d="M 176.051814 120.744305 
L 179.729481 130.35321 
L 183.288098 135.390129 
L 186.780959 137.426395 
L 190.244451 137.670082 
L 193.702208 137.037359 
L 197.168244 136.201991 
L 200.64945 135.632876 
L 204.147656 135.625412 
L 207.661354 136.329883 
L 211.18713 137.77835 
L 214.720821 139.910418 
L 218.258408 142.597705 
L 221.79665 145.666534 
L 225.333497 148.918366 
L 228.868284 152.147604 
L 232.401753 155.156593 
L 235.935938 157.767805 
L 239.473927 159.83335 
L 243.019553 161.242056 
L 246.577023 161.924349 
L 250.150521 161.855175 
L 253.7438 161.055106 
L 257.359788 159.589674 
L 261.000225 157.566875 
L 264.665369 155.132658 
L 268.353793 152.464172 
L 272.062303 149.76045 
L 275.786038 147.230269 
L 279.518765 145.076992 
L 283.253438 143.480334 
L 286.983036 142.575191 
L 290.70172 142.427872 
L 294.40633 143.010212 
L 298.098222 144.172034 
L 301.785479 145.612164 
L 305.485521 146.847582 
L 309.228213 147.17909 
L 313.059664 145.649995 
L 317.047119 140.991322 
" style="fill:none;stroke:#1f77b4;stroke-width:1.5;"/>
    <path clip-path="url(#pe0b1cf53b7)" d="M 180.468306 122.410569 
L 184.109506 131.86806 
L 187.642427 136.782404 
L 191.11664 138.71427 
L 194.56573 138.863948 
L 198.011244 138.141964 
L 201.465697 137.218111 
L 204.934962 136.558661 
L 208.420254 136.457479 
L 211.919773 137.064195 
L 215.430073 138.410892 
L 218.94715 140.43769 
L 222.467282 143.017052 
L 225.987612 145.976321 
L 229.506512 149.118029 
L 233.023741 152.237608 
L 236.540442 155.138309 
L 240.058996 157.643341 
L 243.582771 159.605351 
L 247.115801 160.913491 
L 250.662407 161.498297 
L 254.226798 161.334623 
L 257.812662 160.442759 
L 261.422776 158.887789 
L 265.058654 156.777119 
L 268.720259 154.256005 
L 272.405816 151.500829 
L 276.111751 148.709832 
L 279.832813 146.09103 
L 283.562399 143.847109 
L 287.293142 142.157254 
L 291.01779 141.156049 
L 294.730407 140.909765 
L 298.427905 141.390533 
L 302.111939 142.448837 
L 305.791154 143.784566 
L 309.483855 144.916164 
L 313.221164 145.146314 
L 317.050895 143.520642 
L 321.042526 138.772996 
" style="fill:none;stroke:#1f77b4;stroke-width:1.5;"/>
    <path clip-path="url(#pe0b1cf53b7)" d="M 184.830031 123.672631 
L 188.436411 132.983523 
L 191.945019 137.778035 
L 195.401808 139.606901 
L 198.837624 139.663169 
L 202.271981 138.852126 
L 205.715928 137.839891 
L 209.174345 137.090312 
L 212.647841 136.89585 
L 216.134331 137.405541 
L 219.630332 138.6515 
L 223.131999 140.574337 
L 226.635897 143.047297 
L 230.139544 145.898668 
L 233.641724 148.93197 
L 237.142616 151.943573 
L 240.643756 154.737554 
L 244.147864 157.137784 
L 247.658589 158.997391 
L 251.180162 160.205805 
L 254.717019 160.693649 
L 258.273395 160.435673 
L 261.852917 159.451897 
L 265.458215 157.806986 
L 269.090582 155.607801 
L 272.749691 152.998963 
L 276.433426 150.156162 
L 280.137838 147.276929 
L 283.85729 144.568601 
L 287.584811 142.233271 
L 291.312717 140.449668 
L 295.033528 139.352117 
L 298.741204 139.006878 
L 302.432733 139.386363 
L 306.110057 140.341657 
L 309.782382 141.573584 
L 313.46889 142.60186 
L 317.201956 142.730768 
L 321.031088 141.007866 
L 325.027994 136.169319 
" style="fill:none;stroke:#1f77b4;stroke-width:1.5;"/>
    <path clip-path="url(#pe0b1cf53b7)" d="M 189.131359 124.039736 
L 192.705393 133.212423 
L 196.191879 137.891312 
L 199.633259 139.618656 
L 203.057724 139.581359 
L 206.482808 138.6803 
L 209.918129 137.578526 
L 213.367599 136.737887 
L 216.831232 136.449702 
L 220.30666 136.862549 
L 223.790363 138.008603 
L 227.278643 139.828906 
L 230.768348 142.197371 
L 234.257359 144.94307 
L 237.744868 147.870333 
L 241.231464 150.776286 
L 244.719068 153.465654 
L 248.210743 155.762816 
L 251.710411 157.521247 
L 255.222505 158.630562 
L 258.751577 159.021407 
L 262.301892 158.668411 
L 265.877021 157.591339 
L 269.479456 155.854492 
L 273.110269 153.564285 
L 276.76885 150.864829 
L 280.452746 147.931277 
L 284.157635 144.960628 
L 287.877496 142.159727 
L 291.604989 139.730254 
L 295.332111 137.850647 
L 299.051148 136.655092 
L 302.755957 136.209901 
L 306.443591 136.48774 
L 310.116281 137.340163 
L 313.783793 138.468657 
L 317.466188 139.393777 
L 321.197107 139.420777 
L 325.027777 137.598288 
L 329.032171 132.663641 
" style="fill:none;stroke:#1f77b4;stroke-width:1.5;"/>
    <path clip-path="url(#pe0b1cf53b7)" d="M 193.369365 122.938759 
L 196.914464 131.985599 
L 200.381941 136.554601 
L 203.810849 138.181827 
L 207.226809 138.049781 
L 210.645434 137.056241 
L 214.074952 135.862151 
L 217.518323 134.928034 
L 220.974978 134.544497 
L 224.442266 134.859878 
L 227.916625 135.906461 
L 231.394497 137.625629 
L 234.873002 139.891778 
L 238.350377 142.534517 
L 241.826212 145.358695 
L 245.301501 148.161898 
L 248.77855 150.749217 
L 252.260762 152.945283 
L 255.752336 154.603709 
L 259.25791 155.614132 
L 262.782159 155.907124 
L 266.329385 155.45715 
L 269.903108 154.283751 
L 273.505686 152.450952 
L 277.13798 150.064871 
L 280.799099 147.269317 
L 284.486252 144.239159 
L 288.194747 141.17115 
L 291.918172 138.271949 
L 295.648813 135.743122 
L 299.378341 133.763081 
L 303.098799 132.466078 
L 306.80393 131.918578 
L 310.490849 132.093463 
L 314.162075 132.842537 
L 317.827939 133.867511 
L 321.509403 134.689064 
L 325.241409 134.612389 
L 329.07696 132.68577 
L 333.092384 127.645802 
" style="fill:none;stroke:#1f77b4;stroke-width:1.5;"/>
    <path clip-path="url(#pe0b1cf53b7)" d="M 197.544525 119.709336 
L 201.06514 128.647044 
L 204.517763 133.113464 
L 207.938188 134.641716 
L 211.349556 134.412372 
L 214.765616 133.321982 
L 218.193241 132.030759 
L 221.634457 130.998866 
L 225.088119 130.516807 
L 228.55129 130.732996 
L 232.020358 131.679895 
L 235.491896 133.299111 
L 238.963286 135.465257 
L 242.433113 138.008118 
L 245.901359 140.732655 
L 249.369422 143.436488 
L 252.839992 145.924663 
L 256.316816 148.0217 
L 259.804377 149.58104 
L 263.307526 150.492113 
L 266.83107 150.685265 
L 270.379356 150.134745 
L 273.955865 148.859897 
L 277.562827 146.924605 
L 281.200896 144.434902 
L 284.868902 141.534593 
L 288.563717 138.398627 
L 292.280268 135.223928 
L 296.011746 132.217406 
L 299.750049 129.580948 
L 303.486505 127.49333 
L 307.212899 126.089166 
L 310.922847 125.435222 
L 314.613519 125.504549 
L 318.287723 126.148882 
L 321.956373 127.069514 
L 325.641372 127.786218 
L 329.379027 127.602618 
L 333.224224 125.564583 
L 337.255796 120.405193 
" style="fill:none;stroke:#1f77b4;stroke-width:1.5;"/>
    <path clip-path="url(#pe0b1cf53b7)" d="M 110.244613 120.639841 
L 115.557943 126.514767 
L 120.630108 129.189991 
L 125.528648 129.553251 
L 130.306011 128.358441 
L 135.002104 126.243194 
L 139.64624 123.73894 
L 144.258706 121.276031 
L 148.852106 119.185893 
L 153.432597 117.701705 
L 158.001064 116.95874 
L 162.554269 116.995114 
L 167.085992 117.753396 
L 171.588141 119.083164 
L 176.051814 120.744305 
L 180.468306 122.410569 
L 184.830031 123.672631 
L 189.131359 124.039736 
L 193.369365 122.938759 
L 197.544525 119.709336 
" style="fill:none;stroke:#1f77b4;stroke-width:1.5;"/>
    <path clip-path="url(#pe0b1cf53b7)" d="M 114.488837 132.324296 
L 119.741634 137.984116 
L 124.761954 140.478436 
L 129.615009 140.685029 
L 134.351352 139.349699 
L 139.009359 137.103532 
L 143.617122 134.472738 
L 148.193988 131.883642 
L 152.751876 129.664737 
L 157.296493 128.047304 
L 161.82849 127.165673 
L 166.344601 127.057917 
L 170.838762 127.667376 
L 175.303199 128.84513 
L 179.729481 130.35321 
L 184.109506 131.86806 
L 188.436411 132.983523 
L 192.705393 133.212423 
L 196.914464 131.985599 
L 201.06514 128.647044 
" style="fill:none;stroke:#1f77b4;stroke-width:1.5;"/>
    <path clip-path="url(#pe0b1cf53b7)" d="M 118.443433 139.110893 
L 123.650978 144.608329 
L 128.633507 146.958806 
L 133.454256 147.034584 
L 138.162151 145.577062 
L 142.794236 143.213835 
L 147.377531 140.468402 
L 151.93054 137.76506 
L 156.464561 135.430893 
L 160.984881 133.696325 
L 165.491923 132.69533 
L 169.982378 132.466064 
L 174.450303 132.952331 
L 178.888211 134.005996 
L 183.288098 135.390129 
L 187.642427 136.782404 
L 191.945019 137.778035 
L 196.191879 137.891312 
L 200.381941 136.554601 
L 204.517763 133.113464 
" style="fill:none;stroke:#1f77b4;stroke-width:1.5;"/>
    <path clip-path="url(#pe0b1cf53b7)" d="M 122.220617 142.694099 
L 127.392818 148.062746 
L 132.346706 150.292805 
L 137.143758 150.253905 
L 141.831439 148.685434 
L 146.445584 146.213483 
L 151.012228 143.36047 
L 155.549098 140.549973 
L 160.066902 138.108655 
L 164.570525 136.266766 
L 169.060167 135.158307 
L 173.532461 134.821605 
L 177.981571 135.200731 
L 182.40027 136.147866 
L 186.780959 137.426395 
L 191.11664 138.71427 
L 195.401808 139.606901 
L 199.633259 139.618656 
L 203.810849 138.181827 
L 207.938188 134.641716 
" style="fill:none;stroke:#1f77b4;stroke-width:1.5;"/>
    <path clip-path="url(#pe0b1cf53b7)" d="M 125.901157 144.370297 
L 131.043911 149.629694 
L 135.974635 151.752831 
L 140.753166 151.608415 
L 145.4256 149.935244 
L 150.026631 147.359084 
L 154.581359 144.402246 
L 159.106761 141.488363 
L 163.612981 138.944268 
L 168.104506 137.000448 
L 172.581311 135.791159 
L 177.039966 135.354951 
L 181.474733 135.636048 
L 185.878629 136.486667 
L 190.244451 137.670082 
L 194.56573 138.863948 
L 198.837624 139.663169 
L 203.057724 139.581359 
L 207.226809 138.049781 
L 211.349556 134.412372 
" style="fill:none;stroke:#1f77b4;stroke-width:1.5;"/>
    <path clip-path="url(#pe0b1cf53b7)" d="M 129.541651 145.118504 
L 134.657909 150.277908 
L 139.568231 152.30043 
L 144.330872 152.054689 
L 148.990598 150.279581 
L 153.580992 147.601123 
L 158.126237 144.541992 
L 162.642578 141.526254 
L 167.139593 138.881204 
L 171.621381 136.837766 
L 176.087686 135.530563 
L 180.535013 134.998399 
L 184.957715 135.185592 
L 189.349051 135.944262 
L 193.702208 137.037359 
L 198.011244 138.141964 
L 202.271981 138.852126 
L 206.482808 138.6803 
L 210.645434 137.056241 
L 214.765616 133.321982 
" style="fill:none;stroke:#1f77b4;stroke-width:1.5;"/>
    <path clip-path="url(#pe0b1cf53b7)" d="M 133.179825 145.655786 
L 138.270434 150.717141 
L 143.161177 152.640305 
L 147.908733 152.293996 
L 152.556543 150.417367 
L 157.137083 147.63682 
L 161.673621 144.475502 
L 166.181665 141.358004 
L 170.670233 138.612148 
L 175.143027 136.469345 
L 179.599564 135.064613 
L 184.036281 134.437014 
L 188.447619 134.530953 
L 192.827082 135.198419 
L 197.168244 136.201991 
L 201.465697 137.218111 
L 205.715928 137.839891 
L 209.918129 137.578526 
L 214.074952 135.862151 
L 218.193241 132.030759 
" style="fill:none;stroke:#1f77b4;stroke-width:1.5;"/>
    <path clip-path="url(#pe0b1cf53b7)" d="M 136.838639 146.478887 
L 141.903043 151.439232 
L 146.773724 153.260955 
L 151.505765 152.812622 
L 156.141268 150.833428 
L 160.711585 147.949982 
L 165.239058 144.685761 
L 169.738455 141.465763 
L 174.218224 138.618252 
L 178.68167 136.375066 
L 183.12808 134.871582 
L 187.553821 134.14712 
L 191.953427 134.146184 
L 196.320648 134.720679 
L 200.64945 135.632876 
L 204.934962 136.558661 
L 209.174345 137.090312 
L 213.367599 136.737887 
L 217.518323 134.928034 
L 221.634457 130.998866 
" style="fill:none;stroke:#1f77b4;stroke-width:1.5;"/>
    <path clip-path="url(#pe0b1cf53b7)" d="M 140.529686 147.898743 
L 145.56649 152.752186 
L 150.415842 154.468442 
L 155.131192 153.915384 
L 159.753272 151.831811 
L 164.312293 148.844166 
L 168.829655 145.475954 
L 173.319369 142.152337 
L 177.789311 139.201836 
L 182.242383 136.856586 
L 186.677639 135.252258 
L 191.091381 134.428407 
L 195.478237 134.329679 
L 199.832207 134.807981 
L 204.147656 135.625412 
L 208.420254 136.457479 
L 212.647841 136.89585 
L 216.831232 136.449702 
L 220.974978 134.544497 
L 225.088119 130.516807 
" style="fill:none;stroke:#1f77b4;stroke-width:1.5;"/>
    <path clip-path="url(#pe0b1cf53b7)" d="M 144.256079 150.071534 
L 149.263508 154.810861 
L 154.089901 156.416788 
L 158.787033 155.755827 
L 163.394234 153.565815 
L 167.940549 150.472571 
L 172.446418 146.999237 
L 176.925087 143.570833 
L 181.383847 140.515902 
L 185.825197 138.066715 
L 190.247955 136.359143 
L 194.648361 135.432959 
L 199.021141 135.232994 
L 203.360548 135.611269 
L 207.661354 136.329883 
L 211.919773 137.064195 
L 216.134331 137.405541 
L 220.30666 136.862549 
L 224.442266 134.859878 
L 228.55129 130.732996 
" style="fill:none;stroke:#1f77b4;stroke-width:1.5;"/>
    <path clip-path="url(#pe0b1cf53b7)" d="M 148.014956 153.027959 
L 152.991213 157.645889 
L 157.792986 159.136655 
L 162.470334 158.364707 
L 167.061158 156.066343 
L 171.593312 152.866265 
L 176.086261 149.286858 
L 180.552473 145.752677 
L 184.998652 142.592039 
L 189.426885 140.037183 
L 193.83576 138.224083 
L 198.221453 137.192708 
L 202.578793 136.888122 
L 206.902292 137.162576 
L 211.18713 137.77835 
L 215.430073 138.410892 
L 219.630332 138.6515 
L 223.790363 138.008603 
L 227.916625 135.906461 
L 232.020358 131.679895 
" style="fill:none;stroke:#1f77b4;stroke-width:1.5;"/>
    <path clip-path="url(#pe0b1cf53b7)" d="M 151.799634 156.701183 
L 156.743164 161.19131 
L 161.51887 162.562739 
L 166.175067 161.677223 
L 170.748199 159.26899 
L 175.264912 155.961182 
L 179.743684 152.27506 
L 184.196198 148.634419 
L 188.628561 145.367128 
L 193.042452 142.705232 
L 197.436226 140.784725 
L 201.805997 139.645745 
L 206.146701 139.233637 
L 210.453112 139.400986 
L 214.720821 139.910418 
L 218.94715 140.43769 
L 223.131999 140.574337 
L 227.278643 139.828906 
L 231.394497 137.625629 
L 235.491896 133.299111 
" style="fill:none;stroke:#1f77b4;stroke-width:1.5;"/>
    <path clip-path="url(#pe0b1cf53b7)" d="M 155.601405 160.953256 
L 160.511077 165.310683 
L 165.259659 166.559669 
L 169.893699 165.558759 
L 174.448169 163.03968 
L 178.948495 159.623664 
L 183.412159 155.830548 
L 187.850052 152.083129 
L 192.267685 148.708645 
L 196.666324 145.938823 
L 201.044094 143.9096 
L 205.39705 142.661269 
L 209.720232 142.139489 
L 214.008683 142.197266 
L 218.258408 142.597705 
L 222.467282 143.017052 
L 226.635897 143.047297 
L 230.768348 142.197371 
L 234.873002 139.891778 
L 238.963286 135.465257 
" style="fill:none;stroke:#1f77b4;stroke-width:1.5;"/>
    <path clip-path="url(#pe0b1cf53b7)" d="M 159.410995 165.599467 
L 164.286209 169.821182 
L 169.007103 170.945914 
L 173.618444 169.828656 
L 178.153726 167.19835 
L 182.637149 163.674071 
L 187.085197 159.774034 
L 191.507965 155.919876 
L 195.910367 152.438079 
L 200.293258 149.559964 
L 204.65453 147.421361 
L 208.990182 146.062705 
L 213.295362 145.429994 
L 217.565378 145.376712 
L 221.79665 145.666534 
L 225.987612 145.976321 
L 230.139544 145.898668 
L 234.257359 144.94307 
L 238.350377 142.534517 
L 242.433113 138.008118 
" style="fill:none;stroke:#1f77b4;stroke-width:1.5;"/>
    <path clip-path="url(#pe0b1cf53b7)" d="M 163.219676 170.430144 
L 168.060411 174.51516 
L 172.75359 175.515188 
L 177.342201 174.281517 
L 181.858262 171.54017 
L 186.324747 167.907953 
L 190.75714 163.901367 
L 195.164745 159.940814 
L 199.551878 156.351959 
L 203.918982 153.365675 
L 208.263718 151.117662 
L 212.582027 149.648491 
L 216.869167 148.904507 
L 221.120712 148.739702 
L 225.333497 148.918366 
L 229.506512 149.118029 
L 233.641724 148.93197 
L 237.744868 147.870333 
L 241.826212 145.358695 
L 245.901359 140.732655 
" style="fill:none;stroke:#1f77b4;stroke-width:1.5;"/>
    <path clip-path="url(#pe0b1cf53b7)" d="M 167.020058 175.22949 
L 171.826863 179.178801 
L 176.492837 180.054981 
L 181.059201 178.705648 
L 185.556503 175.853936 
L 190.0065 172.114408 
L 194.423679 168.001863 
L 198.816555 163.93548 
L 203.188848 160.240118 
L 207.54059 157.146208 
L 211.869212 154.789322 
L 216.170596 153.210165 
L 220.440108 152.355429 
L 224.673587 152.079609 
L 228.868284 152.147604 
L 233.023741 152.237608 
L 237.142616 151.943573 
L 241.231464 150.776286 
L 245.301501 148.161898 
L 249.369422 143.436488 
" style="fill:none;stroke:#1f77b4;stroke-width:1.5;"/>
    <path clip-path="url(#pe0b1cf53b7)" d="M 170.806588 179.791298 
L 175.580537 183.607693 
L 180.220313 184.362033 
L 184.765392 182.898481 
L 189.244863 179.937465 
L 193.679277 176.091448 
L 198.082133 171.873654 
L 202.461161 167.702135 
L 206.819484 163.901016 
L 211.156727 160.700338 
L 215.470089 158.235572 
L 219.755392 156.547566 
L 224.008109 155.583342 
L 228.224341 155.197867 
L 232.401753 155.156593 
L 236.540442 155.138309 
L 240.643756 154.737554 
L 244.719068 153.465654 
L 248.77855 150.749217 
L 252.839992 145.924663 
" style="fill:none;stroke:#1f77b4;stroke-width:1.5;"/>
    <path clip-path="url(#pe0b1cf53b7)" d="M 174.5758 183.931567 
L 179.318414 187.619346 
L 183.93343 188.254792 
L 188.458599 186.678995 
L 192.921576 183.609988 
L 197.341714 179.658398 
L 201.731534 175.336088 
L 206.097984 171.060156 
L 210.443598 167.154125 
L 214.767589 163.847736 
L 219.066924 161.276412 
L 223.337365 159.481156 
L 227.574487 158.409297 
L 231.774652 157.916208 
L 235.935938 157.767805 
L 240.058996 157.643341 
L 244.147864 157.137784 
L 248.210743 155.762816 
L 252.260762 152.945283 
L 256.316816 148.0217 
" style="fill:none;stroke:#1f77b4;stroke-width:1.5;"/>
    <path clip-path="url(#pe0b1cf53b7)" d="M 178.326354 187.498215 
L 183.039505 191.06283 
L 187.631537 191.583017 
L 192.138507 189.8973 
L 196.586652 186.721741 
L 200.994146 182.665486 
L 205.372539 178.239328 
L 209.728003 173.859647 
L 214.062483 169.849544 
L 218.374783 166.438583 
L 222.661633 163.762214 
L 226.918732 161.861611 
L 231.141755 160.684376 
L 235.327324 160.086207 
L 239.473927 159.83335 
L 243.582771 159.605351 
L 247.658589 158.997391 
L 251.710411 157.521247 
L 255.752336 154.603709 
L 259.804377 149.58104 
" style="fill:none;stroke:#1f77b4;stroke-width:1.5;"/>
    <path clip-path="url(#pe0b1cf53b7)" d="M 182.058905 190.378158 
L 186.744706 193.825829 
L 191.315767 194.23481 
L 195.806485 192.441669 
L 200.241699 189.161 
L 204.638416 185.000892 
L 209.007224 180.471418 
L 213.353527 175.98852 
L 217.678679 171.875092 
L 221.981074 168.360676 
L 226.257204 165.580831 
L 230.502699 163.576927 
L 234.713333 162.296798 
L 238.885985 161.596368 
L 243.019553 161.242056 
L 247.115801 160.913491 
L 251.180162 160.205805 
L 255.222505 158.630562 
L 259.25791 155.614132 
L 263.307526 150.492113 
" style="fill:none;stroke:#1f77b4;stroke-width:1.5;"/>
    <path clip-path="url(#pe0b1cf53b7)" d="M 185.77585 192.502072 
L 190.436534 195.83938 
L 194.988768 196.141361 
L 199.465311 194.243289 
L 203.889629 190.858849 
L 208.277574 186.595536 
L 212.63878 181.963087 
L 216.977884 177.377316 
L 221.29565 173.161152 
L 225.590058 169.54428 
L 229.857362 166.662464 
L 234.093118 164.557294 
L 238.293195 163.176796 
L 242.454727 162.377008 
L 246.577023 161.924349 
L 250.662407 161.498297 
L 254.717019 160.693649 
L 258.751577 159.021407 
L 262.782159 155.907124 
L 266.83107 150.685265 
" style="fill:none;stroke:#1f77b4;stroke-width:1.5;"/>
    <path clip-path="url(#pe0b1cf53b7)" d="M 189.480975 193.847092 
L 194.118781 197.08058 
L 198.654345 197.279659 
L 203.118818 195.278994 
L 207.534305 191.791931 
L 211.915518 187.425848 
L 216.271141 182.690545 
L 220.605044 178.00203 
L 224.917403 173.683512 
L 229.205781 169.964991 
L 233.466185 166.982538 
L 237.694097 164.777992 
L 241.885475 163.299522 
L 246.03771 162.40317 
L 250.150521 161.855175 
L 254.226798 161.334623 
L 258.273395 160.435673 
L 262.301892 158.668411 
L 266.329385 155.45715 
L 270.379356 150.134745 
" style="fill:none;stroke:#1f77b4;stroke-width:1.5;"/>
    <path clip-path="url(#pe0b1cf53b7)" d="M 193.179043 194.437637 
L 197.796096 197.573427 
L 202.317054 197.673356 
L 206.771478 195.572143 
L 211.180129 191.983346 
L 215.556582 187.514693 
L 219.908577 182.676431 
L 224.239217 177.885073 
L 228.548085 173.464349 
L 232.832324 169.644745 
L 237.087691 166.562736 
L 241.309587 164.260436 
L 245.49406 162.686117 
L 249.638754 161.695711 
L 253.7438 161.055106 
L 257.812662 160.442759 
L 261.852917 159.451897 
L 265.877021 157.591339 
L 269.903108 154.283751 
L 273.955865 148.859897 
" style="fill:none;stroke:#1f77b4;stroke-width:1.5;"/>
    <path clip-path="url(#pe0b1cf53b7)" d="M 196.875336 194.344418 
L 201.473543 197.387857 
L 205.98176 197.391832 
L 210.427974 195.191711 
L 214.831609 191.501772 
L 219.205109 186.930509 
L 223.55527 181.988969 
L 227.884425 177.094457 
L 232.191561 172.571439 
L 236.473395 168.651046 
L 240.725429 165.470244 
L 244.942982 163.07145 
L 249.122186 161.403 
L 253.260937 160.320616 
L 257.359788 159.589674 
L 261.422776 158.887789 
L 265.458215 157.806986 
L 269.479456 155.854492 
L 273.505686 152.450952 
L 277.562827 146.924605 
" style="fill:none;stroke:#1f77b4;stroke-width:1.5;"/>
    <path clip-path="url(#pe0b1cf53b7)" d="M 200.575188 193.681586 
L 205.156141 196.636933 
L 209.653191 196.547411 
L 214.092757 194.249537 
L 218.492932 190.458726 
L 222.865028 185.784595 
L 227.214896 180.739282 
L 231.544095 175.741122 
L 235.851011 171.115506 
L 240.131929 167.094336 
L 244.382091 163.815151 
L 248.596729 161.320688 
L 252.77206 159.559318 
L 256.906235 158.38647 
L 261.000225 157.566875 
L 265.058654 156.777119 
L 269.090582 155.607801 
L 273.110269 153.564285 
L 277.13798 150.064871 
L 281.200896 144.434902 
" style="fill:none;stroke:#1f77b4;stroke-width:1.5;"/>
    <path clip-path="url(#pe0b1cf53b7)" d="M 204.283517 192.601842 
L 208.848414 195.472007 
L 213.335497 195.290564 
L 217.769622 192.895551 
L 222.167548 189.003824 
L 226.539455 184.226385 
L 230.890239 179.07668 
L 235.220683 173.97425 
L 239.528565 169.245549 
L 243.809734 165.123349 
L 248.059167 161.745818 
L 252.272006 159.156035 
L 256.444549 157.302378 
L 260.575205 156.039925 
L 264.665369 155.132658 
L 268.720259 154.256005 
L 272.749691 152.998963 
L 276.76885 150.864829 
L 280.799099 147.269317 
L 284.868902 141.534593 
" style="fill:none;stroke:#1f77b4;stroke-width:1.5;"/>
    <path clip-path="url(#pe0b1cf53b7)" d="M 208.004395 191.289262 
L 212.553979 194.07561 
L 217.031864 193.802853 
L 221.461338 191.310749 
L 225.857819 187.317775 
L 230.230348 182.436461 
L 234.582863 177.181687 
L 238.915363 171.974301 
L 243.225011 167.141901 
L 247.507214 162.918186 
L 251.756682 159.441988 
L 255.968462 156.756737 
L 260.138938 154.81081 
L 264.266772 153.458895 
L 268.353793 152.464172 
L 272.405816 151.500829 
L 276.433426 150.156162 
L 280.452746 147.931277 
L 284.486252 144.239159 
L 288.563717 138.398627 
" style="fill:none;stroke:#1f77b4;stroke-width:1.5;"/>
    <path clip-path="url(#pe0b1cf53b7)" d="M 211.740671 189.949535 
L 216.275197 192.651784 
L 220.744183 192.287307 
L 225.169338 189.697613 
L 229.564731 185.602819 
L 233.938253 180.617006 
L 238.292877 175.256505 
L 242.627809 169.943492 
L 246.939594 165.006717 
L 251.223191 160.680822 
L 255.47304 157.10531 
L 259.684093 154.323965 
L 263.852816 152.285166 
L 267.978132 150.843205 
L 272.062303 149.76045 
L 276.111751 148.709832 
L 280.137838 147.276929 
L 284.157635 144.960628 
L 288.194747 141.17115 
L 292.280268 135.223928 
" style="fill:none;stroke:#1f77b4;stroke-width:1.5;"/>
    <path clip-path="url(#pe0b1cf53b7)" d="M 215.493693 188.797366 
L 220.012926 191.413576 
L 224.472836 190.955991 
L 228.893536 188.267709 
L 233.287734 184.070349 
L 237.662162 178.979432 
L 242.018818 173.51265 
L 246.356111 168.093427 
L 250.669959 163.051619 
L 254.954873 158.622767 
L 259.205018 154.947027 
L 263.415251 152.068537 
L 267.582123 149.935684 
L 271.704819 148.402396 
L 275.786038 147.230269 
L 279.832813 146.09103 
L 283.85729 144.568601 
L 287.877496 142.159727 
L 291.918172 138.271949 
L 296.011746 132.217406 
" style="fill:none;stroke:#1f77b4;stroke-width:1.5;"/>
    <path clip-path="url(#pe0b1cf53b7)" d="M 219.263158 188.040825 
L 223.766405 190.567522 
L 228.216611 190.014565 
L 232.632275 187.226288 
L 237.024731 182.925528 
L 241.399539 177.729001 
L 245.757716 172.155557 
L 250.096864 166.629714 
L 254.412275 161.482305 
L 258.698006 156.949688 
L 262.947948 153.172624 
L 267.156865 150.195591 
L 271.321393 147.967013 
L 275.440979 146.340509 
L 279.518765 145.076992 
L 283.562399 143.847109 
L 287.584811 142.233271 
L 291.604989 139.730254 
L 295.648813 135.743122 
L 299.750049 129.580948 
" style="fill:none;stroke:#1f77b4;stroke-width:1.5;"/>
    <path clip-path="url(#pe0b1cf53b7)" d="M 223.047137 187.862665 
L 227.53332 190.295103 
L 231.972812 189.643814 
L 236.382478 186.75386 
L 240.772261 182.348868 
L 245.146542 177.046394 
L 249.505346 171.36615 
L 253.845468 165.733508 
L 258.161567 160.480095 
L 262.44725 155.842959 
L 266.696133 151.963391 
L 270.902887 148.886194 
L 275.064234 146.559859 
L 279.17989 144.837784 
L 283.253438 143.480334 
L 287.293142 142.157254 
L 291.312717 140.449668 
L 295.332111 137.850647 
L 299.378341 133.763081 
L 303.486505 127.49333 
" style="fill:none;stroke:#1f77b4;stroke-width:1.5;"/>
    <path clip-path="url(#pe0b1cf53b7)" d="M 226.842312 188.398757 
L 231.310091 190.731335 
L 235.737589 189.978329 
L 240.140019 186.984905 
L 244.525921 182.474949 
L 248.898486 177.066414 
L 253.256745 171.279508 
L 257.596681 165.540158 
L 261.912322 160.180556 
L 266.196822 155.43828 
L 270.443526 151.455059 
L 274.647015 148.275993 
L 278.8041 145.849689 
L 282.914765 144.029426 
L 286.983036 142.575191 
L 291.01779 141.156049 
L 295.033528 139.352117 
L 299.051148 136.655092 
L 303.098799 132.466078 
L 307.212899 126.089166 
" style="fill:none;stroke:#1f77b4;stroke-width:1.5;"/>
    <path clip-path="url(#pe0b1cf53b7)" d="M 230.644478 189.714058 
L 235.092414 191.940893 
L 239.506528 191.082718 
L 243.900366 187.98411 
L 248.281055 183.368641 
L 252.650589 177.854175 
L 257.007001 171.961014 
L 261.345462 166.115311 
L 265.65937 160.649576 
L 269.941429 155.801736 
L 274.184717 151.713855 
L 278.383725 148.431307 
L 282.535357 145.902855 
L 286.639867 143.98178 
L 290.70172 142.427872 
L 294.730407 140.909765 
L 298.741204 139.006878 
L 302.755957 136.209901 
L 306.80393 131.918578 
L 310.922847 125.435222 
" style="fill:none;stroke:#1f77b4;stroke-width:1.5;"/>
    <path clip-path="url(#pe0b1cf53b7)" d="M 234.44932 191.776629 
L 238.876093 193.892297 
L 243.275537 192.925858 
L 247.65952 189.72064 
L 252.033746 184.999349 
L 256.399011 179.379295 
L 260.752349 173.380487 
L 265.088119 167.42899 
L 269.399093 161.857387 
L 273.677528 156.903785 
L 277.916236 152.710484 
L 282.109624 149.323102 
L 286.254691 146.690604 
L 290.351957 144.666384 
L 294.40633 143.010212 
L 298.427905 141.390533 
L 302.432733 139.386363 
L 306.443591 136.48774 
L 310.490849 132.093463 
L 314.613519 125.504549 
" style="fill:none;stroke:#1f77b4;stroke-width:1.5;"/>
    <path clip-path="url(#pe0b1cf53b7)" d="M 238.253521 194.43025 
L 242.658195 196.430665 
L 247.042049 195.353709 
L 251.415266 192.040946 
L 255.782125 187.213778 
L 260.142224 181.488593 
L 264.491596 175.3848 
L 268.823794 169.328128 
L 273.130962 163.651038 
L 277.404915 158.59168 
L 281.638203 154.292514 
L 285.825151 150.799378 
L 289.96285 148.061472 
L 294.052092 145.932393 
L 298.098222 144.172034 
L 302.111939 142.448837 
L 306.110057 140.341657 
L 310.116281 137.340163 
L 314.162075 132.842537 
L 318.287723 126.148882 
" style="fill:none;stroke:#1f77b4;stroke-width:1.5;"/>
    <path clip-path="url(#pe0b1cf53b7)" d="M 242.05619 197.365845 
L 246.438529 199.249265 
L 250.806557 198.060916 
L 255.168771 194.640346 
L 259.528028 189.707448 
L 263.882725 183.877513 
L 268.227898 177.669202 
L 272.556291 171.50779 
L 276.859426 165.725523 
L 281.128676 160.56053 
L 285.356329 156.155389 
L 289.536627 152.556149 
L 293.666758 149.712264 
L 297.747781 147.477575 
L 301.785479 145.612164 
L 305.791154 143.784566 
L 309.782382 141.573584 
L 313.783793 138.468657 
L 317.827939 133.867511 
L 321.956373 127.069514 
" style="fill:none;stroke:#1f77b4;stroke-width:1.5;"/>
    <path clip-path="url(#pe0b1cf53b7)" d="M 245.860656 200.091275 
L 250.221491 201.85944 
L 254.574514 200.560751 
L 258.926542 197.032931 
L 263.279011 191.994517 
L 267.629118 186.059836 
L 271.9709 179.746909 
L 276.296292 173.480645 
L 280.59619 167.593145 
L 284.861521 162.322564 
L 289.084309 157.811629 
L 293.258714 154.106608 
L 297.382016 151.157195 
L 301.455544 148.817446 
L 305.485521 146.847582 
L 309.483855 144.916164 
L 313.46889 142.60186 
L 317.466188 139.393777 
L 321.509403 134.689064 
L 325.641372 127.786218 
" style="fill:none;stroke:#1f77b4;stroke-width:1.5;"/>
    <path clip-path="url(#pe0b1cf53b7)" d="M 249.676669 201.897833 
L 254.018317 203.557223 
L 258.358647 202.151763 
L 262.702803 198.518161 
L 267.050801 193.374276 
L 271.398633 187.334042 
L 275.739333 180.91532 
L 280.064016 174.543041 
L 284.362943 168.549461 
L 288.626585 163.172976 
L 292.846696 158.556588 
L 297.017343 154.74682 
L 301.135901 151.693558 
L 305.203967 149.250933 
L 309.228213 147.17909 
L 313.221164 145.146314 
L 317.201956 142.730768 
L 321.197107 139.420777 
L 325.241409 134.612389 
L 329.379027 127.602618 
" style="fill:none;stroke:#1f77b4;stroke-width:1.5;"/>
    <path clip-path="url(#pe0b1cf53b7)" d="M 253.523102 201.819749 
L 257.849853 203.383027 
L 262.181801 201.877517 
L 266.52242 198.140561 
L 270.870299 192.890733 
L 275.220218 186.742749 
L 279.564188 180.215289 
L 283.892485 173.734105 
L 288.19471 167.632232 
L 292.460863 162.148748 
L 296.682406 157.427188 
L 300.853305 153.514411 
L 304.971022 150.360386 
L 309.037431 147.819043 
L 313.059664 145.649995 
L 317.050895 143.520642 
L 321.031088 141.007866 
L 325.027777 137.598288 
L 329.07696 132.68577 
L 333.224224 125.564583 
" style="fill:none;stroke:#1f77b4;stroke-width:1.5;"/>
    <path clip-path="url(#pe0b1cf53b7)" d="M 257.431363 198.57997 
L 261.750061 200.06775 
L 266.080541 198.472813 
L 270.424608 194.635919 
L 274.779408 189.278696 
L 279.13848 183.018614 
L 283.492775 176.376826 
L 287.831695 169.781254 
L 292.144143 163.56676 
L 296.419606 157.97385 
L 300.649229 153.147035 
L 304.826856 149.133639 
L 308.95003 145.883541 
L 313.02091 143.249995 
L 317.047119 140.991322 
L 321.042526 138.772996 
L 325.027994 136.169319 
L 329.032171 132.663641 
L 333.092384 127.645802 
L 337.255796 120.405193 
" style="fill:none;stroke:#1f77b4;stroke-width:1.5;"/>
   </g>
   <g id="legend_1">
    <g id="patch_6">
     <path d="M 319.773438 71.91625 
L 381.8 71.91625 
Q 383.8 71.91625 383.8 69.91625 
L 383.8 41.56 
Q 383.8 39.56 381.8 39.56 
L 319.773438 39.56 
Q 317.773438 39.56 317.773438 41.56 
L 317.773438 69.91625 
Q 317.773438 71.91625 319.773438 71.91625 
z
" style="fill:#ffffff;opacity:0.8;stroke:#cccccc;stroke-linejoin:miter;"/>
    </g>
    <g id="line2d_26">
     <path d="M 321.773438 47.658437 
L 341.773438 47.658437 
" style="fill:none;stroke:#1f77b4;stroke-width:1.5;"/>
    </g>
    <g id="text_23">
     <!-- Data -->
     <defs>
      <path d="M 19.671875 64.796875 
L 19.671875 8.109375 
L 31.59375 8.109375 
Q 46.6875 8.109375 53.6875 14.9375 
Q 60.6875 21.78125 60.6875 36.53125 
Q 60.6875 51.171875 53.6875 57.984375 
Q 46.6875 64.796875 31.59375 64.796875 
z
M 9.8125 72.90625 
L 30.078125 72.90625 
Q 51.265625 72.90625 61.171875 64.09375 
Q 71.09375 55.28125 71.09375 36.53125 
Q 71.09375 17.671875 61.125 8.828125 
Q 51.171875 0 30.078125 0 
L 9.8125 0 
z
" id="DejaVuSans-68"/>
      <path d="M 34.28125 27.484375 
Q 23.390625 27.484375 19.1875 25 
Q 14.984375 22.515625 14.984375 16.5 
Q 14.984375 11.71875 18.140625 8.90625 
Q 21.296875 6.109375 26.703125 6.109375 
Q 34.1875 6.109375 38.703125 11.40625 
Q 43.21875 16.703125 43.21875 25.484375 
L 43.21875 27.484375 
z
M 52.203125 31.203125 
L 52.203125 0 
L 43.21875 0 
L 43.21875 8.296875 
Q 40.140625 3.328125 35.546875 0.953125 
Q 30.953125 -1.421875 24.3125 -1.421875 
Q 15.921875 -1.421875 10.953125 3.296875 
Q 6 8.015625 6 15.921875 
Q 6 25.140625 12.171875 29.828125 
Q 18.359375 34.515625 30.609375 34.515625 
L 43.21875 34.515625 
L 43.21875 35.40625 
Q 43.21875 41.609375 39.140625 45 
Q 35.0625 48.390625 27.6875 48.390625 
Q 23 48.390625 18.546875 47.265625 
Q 14.109375 46.140625 10.015625 43.890625 
L 10.015625 52.203125 
Q 14.9375 54.109375 19.578125 55.046875 
Q 24.21875 56 28.609375 56 
Q 40.484375 56 46.34375 49.84375 
Q 52.203125 43.703125 52.203125 31.203125 
z
" id="DejaVuSans-97"/>
      <path d="M 18.3125 70.21875 
L 18.3125 54.6875 
L 36.8125 54.6875 
L 36.8125 47.703125 
L 18.3125 47.703125 
L 18.3125 18.015625 
Q 18.3125 11.328125 20.140625 9.421875 
Q 21.96875 7.515625 27.59375 7.515625 
L 36.8125 7.515625 
L 36.8125 0 
L 27.59375 0 
Q 17.1875 0 13.234375 3.875 
Q 9.28125 7.765625 9.28125 18.015625 
L 9.28125 47.703125 
L 2.6875 47.703125 
L 2.6875 54.6875 
L 9.28125 54.6875 
L 9.28125 70.21875 
z
" id="DejaVuSans-116"/>
     </defs>
     <g transform="translate(349.773438 51.158437)scale(0.1 -0.1)">
      <use xlink:href="#DejaVuSans-68"/>
      <use x="77.001953" xlink:href="#DejaVuSans-97"/>
      <use x="138.28125" xlink:href="#DejaVuSans-116"/>
      <use x="177.490234" xlink:href="#DejaVuSans-97"/>
     </g>
    </g>
    <g id="line2d_27">
     <path d="M 321.773438 62.336562 
L 341.773438 62.336562 
" style="fill:none;stroke:#bfbf00;stroke-width:1.5;"/>
    </g>
    <g id="text_24">
     <!-- Model -->
     <defs>
      <path d="M 9.8125 72.90625 
L 24.515625 72.90625 
L 43.109375 23.296875 
L 61.8125 72.90625 
L 76.515625 72.90625 
L 76.515625 0 
L 66.890625 0 
L 66.890625 64.015625 
L 48.09375 14.015625 
L 38.1875 14.015625 
L 19.390625 64.015625 
L 19.390625 0 
L 9.8125 0 
z
" id="DejaVuSans-77"/>
      <path d="M 30.609375 48.390625 
Q 23.390625 48.390625 19.1875 42.75 
Q 14.984375 37.109375 14.984375 27.296875 
Q 14.984375 17.484375 19.15625 11.84375 
Q 23.34375 6.203125 30.609375 6.203125 
Q 37.796875 6.203125 41.984375 11.859375 
Q 46.1875 17.53125 46.1875 27.296875 
Q 46.1875 37.015625 41.984375 42.703125 
Q 37.796875 48.390625 30.609375 48.390625 
z
M 30.609375 56 
Q 42.328125 56 49.015625 48.375 
Q 55.71875 40.765625 55.71875 27.296875 
Q 55.71875 13.875 49.015625 6.21875 
Q 42.328125 -1.421875 30.609375 -1.421875 
Q 18.84375 -1.421875 12.171875 6.21875 
Q 5.515625 13.875 5.515625 27.296875 
Q 5.515625 40.765625 12.171875 48.375 
Q 18.84375 56 30.609375 56 
z
" id="DejaVuSans-111"/>
      <path d="M 45.40625 46.390625 
L 45.40625 75.984375 
L 54.390625 75.984375 
L 54.390625 0 
L 45.40625 0 
L 45.40625 8.203125 
Q 42.578125 3.328125 38.25 0.953125 
Q 33.9375 -1.421875 27.875 -1.421875 
Q 17.96875 -1.421875 11.734375 6.484375 
Q 5.515625 14.40625 5.515625 27.296875 
Q 5.515625 40.1875 11.734375 48.09375 
Q 17.96875 56 27.875 56 
Q 33.9375 56 38.25 53.625 
Q 42.578125 51.265625 45.40625 46.390625 
z
M 14.796875 27.296875 
Q 14.796875 17.390625 18.875 11.75 
Q 22.953125 6.109375 30.078125 6.109375 
Q 37.203125 6.109375 41.296875 11.75 
Q 45.40625 17.390625 45.40625 27.296875 
Q 45.40625 37.203125 41.296875 42.84375 
Q 37.203125 48.484375 30.078125 48.484375 
Q 22.953125 48.484375 18.875 42.84375 
Q 14.796875 37.203125 14.796875 27.296875 
z
" id="DejaVuSans-100"/>
      <path d="M 56.203125 29.59375 
L 56.203125 25.203125 
L 14.890625 25.203125 
Q 15.484375 15.921875 20.484375 11.0625 
Q 25.484375 6.203125 34.421875 6.203125 
Q 39.59375 6.203125 44.453125 7.46875 
Q 49.3125 8.734375 54.109375 11.28125 
L 54.109375 2.78125 
Q 49.265625 0.734375 44.1875 -0.34375 
Q 39.109375 -1.421875 33.890625 -1.421875 
Q 20.796875 -1.421875 13.15625 6.1875 
Q 5.515625 13.8125 5.515625 26.8125 
Q 5.515625 40.234375 12.765625 48.109375 
Q 20.015625 56 32.328125 56 
Q 43.359375 56 49.78125 48.890625 
Q 56.203125 41.796875 56.203125 29.59375 
z
M 47.21875 32.234375 
Q 47.125 39.59375 43.09375 43.984375 
Q 39.0625 48.390625 32.421875 48.390625 
Q 24.90625 48.390625 20.390625 44.140625 
Q 15.875 39.890625 15.1875 32.171875 
z
" id="DejaVuSans-101"/>
      <path d="M 9.421875 75.984375 
L 18.40625 75.984375 
L 18.40625 0 
L 9.421875 0 
z
" id="DejaVuSans-108"/>
     </defs>
     <g transform="translate(349.773438 65.836562)scale(0.1 -0.1)">
      <use xlink:href="#DejaVuSans-77"/>
      <use x="86.279297" xlink:href="#DejaVuSans-111"/>
      <use x="147.460938" xlink:href="#DejaVuSans-100"/>
      <use x="210.9375" xlink:href="#DejaVuSans-101"/>
      <use x="272.460938" xlink:href="#DejaVuSans-108"/>
     </g>
    </g>
   </g>
  </g>
 </g>
 <defs>
  <clipPath id="pe0b1cf53b7">
   <rect height="217.44" width="334.8" x="54" y="34.56"/>
  </clipPath>
 </defs>
</svg>
