<?xml version="1.0" encoding="utf-8" standalone="no"?>
<!DOCTYPE svg PUBLIC "-//W3C//DTD SVG 1.1//EN"
  "http://www.w3.org/Graphics/SVG/1.1/DTD/svg11.dtd">
<!-- Created with matplotlib (https://matplotlib.org/) -->
<svg height="288pt" version="1.1" viewBox="0 0 432 288" width="432pt" xmlns="http://www.w3.org/2000/svg" xmlns:xlink="http://www.w3.org/1999/xlink">
 <defs>
  <style type="text/css">
*{stroke-linecap:butt;stroke-linejoin:round;}
  </style>
 </defs>
 <g id="figure_1">
  <g id="patch_1">
   <path d="M 0 288 
L 432 288 
L 432 0 
L 0 0 
z
" style="fill:#ffffff;"/>
  </g>
  <g id="axes_1">
   <g id="patch_2">
    <path d="M 54 252 
L 388.8 252 
L 388.8 34.56 
L 54 34.56 
z
" style="fill:#ffffff;"/>
   </g>
   <g id="PathCollection_1">
    <defs>
     <path d="M -3 3 
L 3 -3 
M -3 -3 
L 3 3 
" id="me708d48b4f" style="stroke:#1f77b4;stroke-width:1.5;"/>
    </defs>
    <g clip-path="url(#p42bda86736)">
     <use style="fill:#1f77b4;stroke:#1f77b4;stroke-width:1.5;" x="373.533892" xlink:href="#me708d48b4f" y="123.856092"/>
     <use style="fill:#1f77b4;stroke:#1f77b4;stroke-width:1.5;" x="150.481638" xlink:href="#me708d48b4f" y="89.370927"/>
     <use style="fill:#1f77b4;stroke:#1f77b4;stroke-width:1.5;" x="154.897342" xlink:href="#me708d48b4f" y="75.711145"/>
     <use style="fill:#1f77b4;stroke:#1f77b4;stroke-width:1.5;" x="171.646329" xlink:href="#me708d48b4f" y="79.486972"/>
     <use style="fill:#1f77b4;stroke:#1f77b4;stroke-width:1.5;" x="181.893905" xlink:href="#me708d48b4f" y="46.06304"/>
     <use style="fill:#1f77b4;stroke:#1f77b4;stroke-width:1.5;" x="217.922653" xlink:href="#me708d48b4f" y="54.770714"/>
     <use style="fill:#1f77b4;stroke:#1f77b4;stroke-width:1.5;" x="163.765052" xlink:href="#me708d48b4f" y="61.436309"/>
     <use style="fill:#1f77b4;stroke:#1f77b4;stroke-width:1.5;" x="195.343235" xlink:href="#me708d48b4f" y="65.082076"/>
     <use style="fill:#1f77b4;stroke:#1f77b4;stroke-width:1.5;" x="179.998897" xlink:href="#me708d48b4f" y="86.800862"/>
     <use style="fill:#1f77b4;stroke:#1f77b4;stroke-width:1.5;" x="130.296679" xlink:href="#me708d48b4f" y="59.959051"/>
     <use style="fill:#1f77b4;stroke:#1f77b4;stroke-width:1.5;" x="164.698778" xlink:href="#me708d48b4f" y="74.614653"/>
     <use style="fill:#1f77b4;stroke:#1f77b4;stroke-width:1.5;" x="150.412694" xlink:href="#me708d48b4f" y="103.833501"/>
     <use style="fill:#1f77b4;stroke:#1f77b4;stroke-width:1.5;" x="157.986863" xlink:href="#me708d48b4f" y="49.959384"/>
     <use style="fill:#1f77b4;stroke:#1f77b4;stroke-width:1.5;" x="186.72324" xlink:href="#me708d48b4f" y="73.780434"/>
     <use style="fill:#1f77b4;stroke:#1f77b4;stroke-width:1.5;" x="159.837402" xlink:href="#me708d48b4f" y="62.43398"/>
     <use style="fill:#1f77b4;stroke:#1f77b4;stroke-width:1.5;" x="160.058322" xlink:href="#me708d48b4f" y="58.076222"/>
     <use style="fill:#1f77b4;stroke:#1f77b4;stroke-width:1.5;" x="212.544257" xlink:href="#me708d48b4f" y="103.950722"/>
     <use style="fill:#1f77b4;stroke:#1f77b4;stroke-width:1.5;" x="156.830388" xlink:href="#me708d48b4f" y="87.369884"/>
     <use style="fill:#1f77b4;stroke:#1f77b4;stroke-width:1.5;" x="259.205344" xlink:href="#me708d48b4f" y="72.738751"/>
     <use style="fill:#1f77b4;stroke:#1f77b4;stroke-width:1.5;" x="153.39233" xlink:href="#me708d48b4f" y="96.822395"/>
     <use style="fill:#1f77b4;stroke:#1f77b4;stroke-width:1.5;" x="113.955748" xlink:href="#me708d48b4f" y="105.216049"/>
     <use style="fill:#1f77b4;stroke:#1f77b4;stroke-width:1.5;" x="173.724773" xlink:href="#me708d48b4f" y="75.4157"/>
     <use style="fill:#1f77b4;stroke:#1f77b4;stroke-width:1.5;" x="184.700021" xlink:href="#me708d48b4f" y="82.011556"/>
     <use style="fill:#1f77b4;stroke:#1f77b4;stroke-width:1.5;" x="196.029258" xlink:href="#me708d48b4f" y="118.743087"/>
     <use style="fill:#1f77b4;stroke:#1f77b4;stroke-width:1.5;" x="166.277632" xlink:href="#me708d48b4f" y="70.891274"/>
     <use style="fill:#1f77b4;stroke:#1f77b4;stroke-width:1.5;" x="132.685034" xlink:href="#me708d48b4f" y="89.6642"/>
     <use style="fill:#1f77b4;stroke:#1f77b4;stroke-width:1.5;" x="190.584598" xlink:href="#me708d48b4f" y="75.676138"/>
     <use style="fill:#1f77b4;stroke:#1f77b4;stroke-width:1.5;" x="141.845525" xlink:href="#me708d48b4f" y="98.581101"/>
     <use style="fill:#1f77b4;stroke:#1f77b4;stroke-width:1.5;" x="162.680475" xlink:href="#me708d48b4f" y="99.585653"/>
     <use style="fill:#1f77b4;stroke:#1f77b4;stroke-width:1.5;" x="158.012184" xlink:href="#me708d48b4f" y="84.999661"/>
     <use style="fill:#1f77b4;stroke:#1f77b4;stroke-width:1.5;" x="146.47063" xlink:href="#me708d48b4f" y="102.245931"/>
     <use style="fill:#1f77b4;stroke:#1f77b4;stroke-width:1.5;" x="139.508978" xlink:href="#me708d48b4f" y="85.978617"/>
     <use style="fill:#1f77b4;stroke:#1f77b4;stroke-width:1.5;" x="112.586169" xlink:href="#me708d48b4f" y="147.921042"/>
     <use style="fill:#1f77b4;stroke:#1f77b4;stroke-width:1.5;" x="135.477984" xlink:href="#me708d48b4f" y="72.515259"/>
     <use style="fill:#1f77b4;stroke:#1f77b4;stroke-width:1.5;" x="214.189213" xlink:href="#me708d48b4f" y="139.081121"/>
     <use style="fill:#1f77b4;stroke:#1f77b4;stroke-width:1.5;" x="178.831201" xlink:href="#me708d48b4f" y="96.884791"/>
     <use style="fill:#1f77b4;stroke:#1f77b4;stroke-width:1.5;" x="140.528194" xlink:href="#me708d48b4f" y="101.933191"/>
     <use style="fill:#1f77b4;stroke:#1f77b4;stroke-width:1.5;" x="130.189118" xlink:href="#me708d48b4f" y="92.712185"/>
     <use style="fill:#1f77b4;stroke:#1f77b4;stroke-width:1.5;" x="79.207347" xlink:href="#me708d48b4f" y="170.480872"/>
     <use style="fill:#1f77b4;stroke:#1f77b4;stroke-width:1.5;" x="153.186443" xlink:href="#me708d48b4f" y="92.947867"/>
     <use style="fill:#1f77b4;stroke:#1f77b4;stroke-width:1.5;" x="126.749011" xlink:href="#me708d48b4f" y="55.41762"/>
     <use style="fill:#1f77b4;stroke:#1f77b4;stroke-width:1.5;" x="144.966934" xlink:href="#me708d48b4f" y="70.582286"/>
     <use style="fill:#1f77b4;stroke:#1f77b4;stroke-width:1.5;" x="163.239515" xlink:href="#me708d48b4f" y="79.263286"/>
     <use style="fill:#1f77b4;stroke:#1f77b4;stroke-width:1.5;" x="158.539738" xlink:href="#me708d48b4f" y="113.86703"/>
     <use style="fill:#1f77b4;stroke:#1f77b4;stroke-width:1.5;" x="160.093934" xlink:href="#me708d48b4f" y="63.35705"/>
     <use style="fill:#1f77b4;stroke:#1f77b4;stroke-width:1.5;" x="155.296885" xlink:href="#me708d48b4f" y="54.011438"/>
     <use style="fill:#1f77b4;stroke:#1f77b4;stroke-width:1.5;" x="130.458258" xlink:href="#me708d48b4f" y="65.4212"/>
     <use style="fill:#1f77b4;stroke:#1f77b4;stroke-width:1.5;" x="293.399996" xlink:href="#me708d48b4f" y="83.44231"/>
     <use style="fill:#1f77b4;stroke:#1f77b4;stroke-width:1.5;" x="178.906034" xlink:href="#me708d48b4f" y="65.028121"/>
     <use style="fill:#1f77b4;stroke:#1f77b4;stroke-width:1.5;" x="155.990068" xlink:href="#me708d48b4f" y="152.673699"/>
     <use style="fill:#1f77b4;stroke:#1f77b4;stroke-width:1.5;" x="135.058827" xlink:href="#me708d48b4f" y="217.736328"/>
     <use style="fill:#1f77b4;stroke:#1f77b4;stroke-width:1.5;" x="177.005669" xlink:href="#me708d48b4f" y="63.884557"/>
     <use style="fill:#1f77b4;stroke:#1f77b4;stroke-width:1.5;" x="69.266108" xlink:href="#me708d48b4f" y="242.011403"/>
     <use style="fill:#1f77b4;stroke:#1f77b4;stroke-width:1.5;" x="157.197222" xlink:href="#me708d48b4f" y="69.463801"/>
     <use style="fill:#1f77b4;stroke:#1f77b4;stroke-width:1.5;" x="176.971578" xlink:href="#me708d48b4f" y="102.648423"/>
     <use style="fill:#1f77b4;stroke:#1f77b4;stroke-width:1.5;" x="114.430937" xlink:href="#me708d48b4f" y="181.060106"/>
     <use style="fill:#1f77b4;stroke:#1f77b4;stroke-width:1.5;" x="171.776887" xlink:href="#me708d48b4f" y="65.019303"/>
     <use style="fill:#1f77b4;stroke:#1f77b4;stroke-width:1.5;" x="139.065786" xlink:href="#me708d48b4f" y="97.868731"/>
     <use style="fill:#1f77b4;stroke:#1f77b4;stroke-width:1.5;" x="151.16377" xlink:href="#me708d48b4f" y="76.692222"/>
     <use style="fill:#1f77b4;stroke:#1f77b4;stroke-width:1.5;" x="122.337387" xlink:href="#me708d48b4f" y="108.396358"/>
     <use style="fill:#1f77b4;stroke:#1f77b4;stroke-width:1.5;" x="178.105663" xlink:href="#me708d48b4f" y="87.446233"/>
     <use style="fill:#1f77b4;stroke:#1f77b4;stroke-width:1.5;" x="217.066865" xlink:href="#me708d48b4f" y="81.050589"/>
     <use style="fill:#1f77b4;stroke:#1f77b4;stroke-width:1.5;" x="149.084864" xlink:href="#me708d48b4f" y="93.48134"/>
     <use style="fill:#1f77b4;stroke:#1f77b4;stroke-width:1.5;" x="223.195881" xlink:href="#me708d48b4f" y="102.174199"/>
     <use style="fill:#1f77b4;stroke:#1f77b4;stroke-width:1.5;" x="122.297052" xlink:href="#me708d48b4f" y="71.814884"/>
     <use style="fill:#1f77b4;stroke:#1f77b4;stroke-width:1.5;" x="210.202901" xlink:href="#me708d48b4f" y="123.973983"/>
     <use style="fill:#1f77b4;stroke:#1f77b4;stroke-width:1.5;" x="166.829318" xlink:href="#me708d48b4f" y="80.669487"/>
     <use style="fill:#1f77b4;stroke:#1f77b4;stroke-width:1.5;" x="166.965838" xlink:href="#me708d48b4f" y="44.548597"/>
     <use style="fill:#1f77b4;stroke:#1f77b4;stroke-width:1.5;" x="184.727531" xlink:href="#me708d48b4f" y="96.012492"/>
     <use style="fill:#1f77b4;stroke:#1f77b4;stroke-width:1.5;" x="277.19141" xlink:href="#me708d48b4f" y="113.263028"/>
     <use style="fill:#1f77b4;stroke:#1f77b4;stroke-width:1.5;" x="302.634184" xlink:href="#me708d48b4f" y="115.3525"/>
     <use style="fill:#1f77b4;stroke:#1f77b4;stroke-width:1.5;" x="170.091393" xlink:href="#me708d48b4f" y="98.022872"/>
     <use style="fill:#1f77b4;stroke:#1f77b4;stroke-width:1.5;" x="143.703727" xlink:href="#me708d48b4f" y="94.12473"/>
     <use style="fill:#1f77b4;stroke:#1f77b4;stroke-width:1.5;" x="175.187745" xlink:href="#me708d48b4f" y="54.012454"/>
     <use style="fill:#1f77b4;stroke:#1f77b4;stroke-width:1.5;" x="151.632325" xlink:href="#me708d48b4f" y="78.455436"/>
     <use style="fill:#1f77b4;stroke:#1f77b4;stroke-width:1.5;" x="167.644169" xlink:href="#me708d48b4f" y="80.25781"/>
     <use style="fill:#1f77b4;stroke:#1f77b4;stroke-width:1.5;" x="165.943102" xlink:href="#me708d48b4f" y="63.544081"/>
     <use style="fill:#1f77b4;stroke:#1f77b4;stroke-width:1.5;" x="201.824804" xlink:href="#me708d48b4f" y="74.037589"/>
     <use style="fill:#1f77b4;stroke:#1f77b4;stroke-width:1.5;" x="145.605383" xlink:href="#me708d48b4f" y="73.863937"/>
     <use style="fill:#1f77b4;stroke:#1f77b4;stroke-width:1.5;" x="145.790204" xlink:href="#me708d48b4f" y="56.896434"/>
    </g>
   </g>
   <g id="matplotlib.axis_1">
    <g id="xtick_1">
     <g id="line2d_1">
      <defs>
       <path d="M 0 0 
L 0 -3.5 
" id="mdc60fbdf0e" style="stroke:#000000;stroke-width:0.8;"/>
      </defs>
      <g>
       <use style="stroke:#000000;stroke-width:0.8;" x="72.74065" xlink:href="#mdc60fbdf0e" y="252"/>
      </g>
     </g>
     <g id="text_1">
      <!-- 40 -->
      <defs>
       <path d="M 37.796875 64.3125 
L 12.890625 25.390625 
L 37.796875 25.390625 
z
M 35.203125 72.90625 
L 47.609375 72.90625 
L 47.609375 25.390625 
L 58.015625 25.390625 
L 58.015625 17.1875 
L 47.609375 17.1875 
L 47.609375 0 
L 37.796875 0 
L 37.796875 17.1875 
L 4.890625 17.1875 
L 4.890625 26.703125 
z
" id="DejaVuSans-52"/>
       <path d="M 31.78125 66.40625 
Q 24.171875 66.40625 20.328125 58.90625 
Q 16.5 51.421875 16.5 36.375 
Q 16.5 21.390625 20.328125 13.890625 
Q 24.171875 6.390625 31.78125 6.390625 
Q 39.453125 6.390625 43.28125 13.890625 
Q 47.125 21.390625 47.125 36.375 
Q 47.125 51.421875 43.28125 58.90625 
Q 39.453125 66.40625 31.78125 66.40625 
z
M 31.78125 74.21875 
Q 44.046875 74.21875 50.515625 64.515625 
Q 56.984375 54.828125 56.984375 36.375 
Q 56.984375 17.96875 50.515625 8.265625 
Q 44.046875 -1.421875 31.78125 -1.421875 
Q 19.53125 -1.421875 13.0625 8.265625 
Q 6.59375 17.96875 6.59375 36.375 
Q 6.59375 54.828125 13.0625 64.515625 
Q 19.53125 74.21875 31.78125 74.21875 
z
" id="DejaVuSans-48"/>
      </defs>
      <g transform="translate(66.37815 263.098437)scale(0.1 -0.1)">
       <use xlink:href="#DejaVuSans-52"/>
       <use x="63.623047" xlink:href="#DejaVuSans-48"/>
      </g>
     </g>
    </g>
    <g id="xtick_2">
     <g id="line2d_2">
      <g>
       <use style="stroke:#000000;stroke-width:0.8;" x="126.226717" xlink:href="#mdc60fbdf0e" y="252"/>
      </g>
     </g>
     <g id="text_2">
      <!-- 50 -->
      <defs>
       <path d="M 10.796875 72.90625 
L 49.515625 72.90625 
L 49.515625 64.59375 
L 19.828125 64.59375 
L 19.828125 46.734375 
Q 21.96875 47.46875 24.109375 47.828125 
Q 26.265625 48.1875 28.421875 48.1875 
Q 40.625 48.1875 47.75 41.5 
Q 54.890625 34.8125 54.890625 23.390625 
Q 54.890625 11.625 47.5625 5.09375 
Q 40.234375 -1.421875 26.90625 -1.421875 
Q 22.3125 -1.421875 17.546875 -0.640625 
Q 12.796875 0.140625 7.71875 1.703125 
L 7.71875 11.625 
Q 12.109375 9.234375 16.796875 8.0625 
Q 21.484375 6.890625 26.703125 6.890625 
Q 35.15625 6.890625 40.078125 11.328125 
Q 45.015625 15.765625 45.015625 23.390625 
Q 45.015625 31 40.078125 35.4375 
Q 35.15625 39.890625 26.703125 39.890625 
Q 22.75 39.890625 18.8125 39.015625 
Q 14.890625 38.140625 10.796875 36.28125 
z
" id="DejaVuSans-53"/>
      </defs>
      <g transform="translate(119.864217 263.098437)scale(0.1 -0.1)">
       <use xlink:href="#DejaVuSans-53"/>
       <use x="63.623047" xlink:href="#DejaVuSans-48"/>
      </g>
     </g>
    </g>
    <g id="xtick_3">
     <g id="line2d_3">
      <g>
       <use style="stroke:#000000;stroke-width:0.8;" x="179.712784" xlink:href="#mdc60fbdf0e" y="252"/>
      </g>
     </g>
     <g id="text_3">
      <!-- 60 -->
      <defs>
       <path d="M 33.015625 40.375 
Q 26.375 40.375 22.484375 35.828125 
Q 18.609375 31.296875 18.609375 23.390625 
Q 18.609375 15.53125 22.484375 10.953125 
Q 26.375 6.390625 33.015625 6.390625 
Q 39.65625 6.390625 43.53125 10.953125 
Q 47.40625 15.53125 47.40625 23.390625 
Q 47.40625 31.296875 43.53125 35.828125 
Q 39.65625 40.375 33.015625 40.375 
z
M 52.59375 71.296875 
L 52.59375 62.3125 
Q 48.875 64.0625 45.09375 64.984375 
Q 41.3125 65.921875 37.59375 65.921875 
Q 27.828125 65.921875 22.671875 59.328125 
Q 17.53125 52.734375 16.796875 39.40625 
Q 19.671875 43.65625 24.015625 45.921875 
Q 28.375 48.1875 33.59375 48.1875 
Q 44.578125 48.1875 50.953125 41.515625 
Q 57.328125 34.859375 57.328125 23.390625 
Q 57.328125 12.15625 50.6875 5.359375 
Q 44.046875 -1.421875 33.015625 -1.421875 
Q 20.359375 -1.421875 13.671875 8.265625 
Q 6.984375 17.96875 6.984375 36.375 
Q 6.984375 53.65625 15.1875 63.9375 
Q 23.390625 74.21875 37.203125 74.21875 
Q 40.921875 74.21875 44.703125 73.484375 
Q 48.484375 72.75 52.59375 71.296875 
z
" id="DejaVuSans-54"/>
      </defs>
      <g transform="translate(173.350284 263.098437)scale(0.1 -0.1)">
       <use xlink:href="#DejaVuSans-54"/>
       <use x="63.623047" xlink:href="#DejaVuSans-48"/>
      </g>
     </g>
    </g>
    <g id="xtick_4">
     <g id="line2d_4">
      <g>
       <use style="stroke:#000000;stroke-width:0.8;" x="233.198851" xlink:href="#mdc60fbdf0e" y="252"/>
      </g>
     </g>
     <g id="text_4">
      <!-- 70 -->
      <defs>
       <path d="M 8.203125 72.90625 
L 55.078125 72.90625 
L 55.078125 68.703125 
L 28.609375 0 
L 18.3125 0 
L 43.21875 64.59375 
L 8.203125 64.59375 
z
" id="DejaVuSans-55"/>
      </defs>
      <g transform="translate(226.836351 263.098437)scale(0.1 -0.1)">
       <use xlink:href="#DejaVuSans-55"/>
       <use x="63.623047" xlink:href="#DejaVuSans-48"/>
      </g>
     </g>
    </g>
    <g id="xtick_5">
     <g id="line2d_5">
      <g>
       <use style="stroke:#000000;stroke-width:0.8;" x="286.684918" xlink:href="#mdc60fbdf0e" y="252"/>
      </g>
     </g>
     <g id="text_5">
      <!-- 80 -->
      <defs>
       <path d="M 31.78125 34.625 
Q 24.75 34.625 20.71875 30.859375 
Q 16.703125 27.09375 16.703125 20.515625 
Q 16.703125 13.921875 20.71875 10.15625 
Q 24.75 6.390625 31.78125 6.390625 
Q 38.8125 6.390625 42.859375 10.171875 
Q 46.921875 13.96875 46.921875 20.515625 
Q 46.921875 27.09375 42.890625 30.859375 
Q 38.875 34.625 31.78125 34.625 
z
M 21.921875 38.8125 
Q 15.578125 40.375 12.03125 44.71875 
Q 8.5 49.078125 8.5 55.328125 
Q 8.5 64.0625 14.71875 69.140625 
Q 20.953125 74.21875 31.78125 74.21875 
Q 42.671875 74.21875 48.875 69.140625 
Q 55.078125 64.0625 55.078125 55.328125 
Q 55.078125 49.078125 51.53125 44.71875 
Q 48 40.375 41.703125 38.8125 
Q 48.828125 37.15625 52.796875 32.3125 
Q 56.78125 27.484375 56.78125 20.515625 
Q 56.78125 9.90625 50.3125 4.234375 
Q 43.84375 -1.421875 31.78125 -1.421875 
Q 19.734375 -1.421875 13.25 4.234375 
Q 6.78125 9.90625 6.78125 20.515625 
Q 6.78125 27.484375 10.78125 32.3125 
Q 14.796875 37.15625 21.921875 38.8125 
z
M 18.3125 54.390625 
Q 18.3125 48.734375 21.84375 45.5625 
Q 25.390625 42.390625 31.78125 42.390625 
Q 38.140625 42.390625 41.71875 45.5625 
Q 45.3125 48.734375 45.3125 54.390625 
Q 45.3125 60.0625 41.71875 63.234375 
Q 38.140625 66.40625 31.78125 66.40625 
Q 25.390625 66.40625 21.84375 63.234375 
Q 18.3125 60.0625 18.3125 54.390625 
z
" id="DejaVuSans-56"/>
      </defs>
      <g transform="translate(280.322418 263.098437)scale(0.1 -0.1)">
       <use xlink:href="#DejaVuSans-56"/>
       <use x="63.623047" xlink:href="#DejaVuSans-48"/>
      </g>
     </g>
    </g>
    <g id="xtick_6">
     <g id="line2d_6">
      <g>
       <use style="stroke:#000000;stroke-width:0.8;" x="340.170984" xlink:href="#mdc60fbdf0e" y="252"/>
      </g>
     </g>
     <g id="text_6">
      <!-- 90 -->
      <defs>
       <path d="M 10.984375 1.515625 
L 10.984375 10.5 
Q 14.703125 8.734375 18.5 7.8125 
Q 22.3125 6.890625 25.984375 6.890625 
Q 35.75 6.890625 40.890625 13.453125 
Q 46.046875 20.015625 46.78125 33.40625 
Q 43.953125 29.203125 39.59375 26.953125 
Q 35.25 24.703125 29.984375 24.703125 
Q 19.046875 24.703125 12.671875 31.3125 
Q 6.296875 37.9375 6.296875 49.421875 
Q 6.296875 60.640625 12.9375 67.421875 
Q 19.578125 74.21875 30.609375 74.21875 
Q 43.265625 74.21875 49.921875 64.515625 
Q 56.59375 54.828125 56.59375 36.375 
Q 56.59375 19.140625 48.40625 8.859375 
Q 40.234375 -1.421875 26.421875 -1.421875 
Q 22.703125 -1.421875 18.890625 -0.6875 
Q 15.09375 0.046875 10.984375 1.515625 
z
M 30.609375 32.421875 
Q 37.25 32.421875 41.125 36.953125 
Q 45.015625 41.5 45.015625 49.421875 
Q 45.015625 57.28125 41.125 61.84375 
Q 37.25 66.40625 30.609375 66.40625 
Q 23.96875 66.40625 20.09375 61.84375 
Q 16.21875 57.28125 16.21875 49.421875 
Q 16.21875 41.5 20.09375 36.953125 
Q 23.96875 32.421875 30.609375 32.421875 
z
" id="DejaVuSans-57"/>
      </defs>
      <g transform="translate(333.808484 263.098437)scale(0.1 -0.1)">
       <use xlink:href="#DejaVuSans-57"/>
       <use x="63.623047" xlink:href="#DejaVuSans-48"/>
      </g>
     </g>
    </g>
    <g id="text_7">
     <!-- Conversion (%) -->
     <defs>
      <path d="M 64.40625 67.28125 
L 64.40625 56.890625 
Q 59.421875 61.53125 53.78125 63.8125 
Q 48.140625 66.109375 41.796875 66.109375 
Q 29.296875 66.109375 22.65625 58.46875 
Q 16.015625 50.828125 16.015625 36.375 
Q 16.015625 21.96875 22.65625 14.328125 
Q 29.296875 6.6875 41.796875 6.6875 
Q 48.140625 6.6875 53.78125 8.984375 
Q 59.421875 11.28125 64.40625 15.921875 
L 64.40625 5.609375 
Q 59.234375 2.09375 53.4375 0.328125 
Q 47.65625 -1.421875 41.21875 -1.421875 
Q 24.65625 -1.421875 15.125 8.703125 
Q 5.609375 18.84375 5.609375 36.375 
Q 5.609375 53.953125 15.125 64.078125 
Q 24.65625 74.21875 41.21875 74.21875 
Q 47.75 74.21875 53.53125 72.484375 
Q 59.328125 70.75 64.40625 67.28125 
z
" id="DejaVuSans-67"/>
      <path d="M 30.609375 48.390625 
Q 23.390625 48.390625 19.1875 42.75 
Q 14.984375 37.109375 14.984375 27.296875 
Q 14.984375 17.484375 19.15625 11.84375 
Q 23.34375 6.203125 30.609375 6.203125 
Q 37.796875 6.203125 41.984375 11.859375 
Q 46.1875 17.53125 46.1875 27.296875 
Q 46.1875 37.015625 41.984375 42.703125 
Q 37.796875 48.390625 30.609375 48.390625 
z
M 30.609375 56 
Q 42.328125 56 49.015625 48.375 
Q 55.71875 40.765625 55.71875 27.296875 
Q 55.71875 13.875 49.015625 6.21875 
Q 42.328125 -1.421875 30.609375 -1.421875 
Q 18.84375 -1.421875 12.171875 6.21875 
Q 5.515625 13.875 5.515625 27.296875 
Q 5.515625 40.765625 12.171875 48.375 
Q 18.84375 56 30.609375 56 
z
" id="DejaVuSans-111"/>
      <path d="M 54.890625 33.015625 
L 54.890625 0 
L 45.90625 0 
L 45.90625 32.71875 
Q 45.90625 40.484375 42.875 44.328125 
Q 39.84375 48.1875 33.796875 48.1875 
Q 26.515625 48.1875 22.3125 43.546875 
Q 18.109375 38.921875 18.109375 30.90625 
L 18.109375 0 
L 9.078125 0 
L 9.078125 54.6875 
L 18.109375 54.6875 
L 18.109375 46.1875 
Q 21.34375 51.125 25.703125 53.5625 
Q 30.078125 56 35.796875 56 
Q 45.21875 56 50.046875 50.171875 
Q 54.890625 44.34375 54.890625 33.015625 
z
" id="DejaVuSans-110"/>
      <path d="M 2.984375 54.6875 
L 12.5 54.6875 
L 29.59375 8.796875 
L 46.6875 54.6875 
L 56.203125 54.6875 
L 35.6875 0 
L 23.484375 0 
z
" id="DejaVuSans-118"/>
      <path d="M 56.203125 29.59375 
L 56.203125 25.203125 
L 14.890625 25.203125 
Q 15.484375 15.921875 20.484375 11.0625 
Q 25.484375 6.203125 34.421875 6.203125 
Q 39.59375 6.203125 44.453125 7.46875 
Q 49.3125 8.734375 54.109375 11.28125 
L 54.109375 2.78125 
Q 49.265625 0.734375 44.1875 -0.34375 
Q 39.109375 -1.421875 33.890625 -1.421875 
Q 20.796875 -1.421875 13.15625 6.1875 
Q 5.515625 13.8125 5.515625 26.8125 
Q 5.515625 40.234375 12.765625 48.109375 
Q 20.015625 56 32.328125 56 
Q 43.359375 56 49.78125 48.890625 
Q 56.203125 41.796875 56.203125 29.59375 
z
M 47.21875 32.234375 
Q 47.125 39.59375 43.09375 43.984375 
Q 39.0625 48.390625 32.421875 48.390625 
Q 24.90625 48.390625 20.390625 44.140625 
Q 15.875 39.890625 15.1875 32.171875 
z
" id="DejaVuSans-101"/>
      <path d="M 41.109375 46.296875 
Q 39.59375 47.171875 37.8125 47.578125 
Q 36.03125 48 33.890625 48 
Q 26.265625 48 22.1875 43.046875 
Q 18.109375 38.09375 18.109375 28.8125 
L 18.109375 0 
L 9.078125 0 
L 9.078125 54.6875 
L 18.109375 54.6875 
L 18.109375 46.1875 
Q 20.953125 51.171875 25.484375 53.578125 
Q 30.03125 56 36.53125 56 
Q 37.453125 56 38.578125 55.875 
Q 39.703125 55.765625 41.0625 55.515625 
z
" id="DejaVuSans-114"/>
      <path d="M 44.28125 53.078125 
L 44.28125 44.578125 
Q 40.484375 46.53125 36.375 47.5 
Q 32.28125 48.484375 27.875 48.484375 
Q 21.1875 48.484375 17.84375 46.4375 
Q 14.5 44.390625 14.5 40.28125 
Q 14.5 37.15625 16.890625 35.375 
Q 19.28125 33.59375 26.515625 31.984375 
L 29.59375 31.296875 
Q 39.15625 29.25 43.1875 25.515625 
Q 47.21875 21.78125 47.21875 15.09375 
Q 47.21875 7.46875 41.1875 3.015625 
Q 35.15625 -1.421875 24.609375 -1.421875 
Q 20.21875 -1.421875 15.453125 -0.5625 
Q 10.6875 0.296875 5.421875 2 
L 5.421875 11.28125 
Q 10.40625 8.6875 15.234375 7.390625 
Q 20.0625 6.109375 24.8125 6.109375 
Q 31.15625 6.109375 34.5625 8.28125 
Q 37.984375 10.453125 37.984375 14.40625 
Q 37.984375 18.0625 35.515625 20.015625 
Q 33.0625 21.96875 24.703125 23.78125 
L 21.578125 24.515625 
Q 13.234375 26.265625 9.515625 29.90625 
Q 5.8125 33.546875 5.8125 39.890625 
Q 5.8125 47.609375 11.28125 51.796875 
Q 16.75 56 26.8125 56 
Q 31.78125 56 36.171875 55.265625 
Q 40.578125 54.546875 44.28125 53.078125 
z
" id="DejaVuSans-115"/>
      <path d="M 9.421875 54.6875 
L 18.40625 54.6875 
L 18.40625 0 
L 9.421875 0 
z
M 9.421875 75.984375 
L 18.40625 75.984375 
L 18.40625 64.59375 
L 9.421875 64.59375 
z
" id="DejaVuSans-105"/>
      <path id="DejaVuSans-32"/>
      <path d="M 31 75.875 
Q 24.46875 64.65625 21.28125 53.65625 
Q 18.109375 42.671875 18.109375 31.390625 
Q 18.109375 20.125 21.3125 9.0625 
Q 24.515625 -2 31 -13.1875 
L 23.1875 -13.1875 
Q 15.875 -1.703125 12.234375 9.375 
Q 8.59375 20.453125 8.59375 31.390625 
Q 8.59375 42.28125 12.203125 53.3125 
Q 15.828125 64.359375 23.1875 75.875 
z
" id="DejaVuSans-40"/>
      <path d="M 72.703125 32.078125 
Q 68.453125 32.078125 66.03125 28.46875 
Q 63.625 24.859375 63.625 18.40625 
Q 63.625 12.0625 66.03125 8.421875 
Q 68.453125 4.78125 72.703125 4.78125 
Q 76.859375 4.78125 79.265625 8.421875 
Q 81.6875 12.0625 81.6875 18.40625 
Q 81.6875 24.8125 79.265625 28.4375 
Q 76.859375 32.078125 72.703125 32.078125 
z
M 72.703125 38.28125 
Q 80.421875 38.28125 84.953125 32.90625 
Q 89.5 27.546875 89.5 18.40625 
Q 89.5 9.28125 84.9375 3.921875 
Q 80.375 -1.421875 72.703125 -1.421875 
Q 64.890625 -1.421875 60.34375 3.921875 
Q 55.8125 9.28125 55.8125 18.40625 
Q 55.8125 27.59375 60.375 32.9375 
Q 64.9375 38.28125 72.703125 38.28125 
z
M 22.3125 68.015625 
Q 18.109375 68.015625 15.6875 64.375 
Q 13.28125 60.75 13.28125 54.390625 
Q 13.28125 47.953125 15.671875 44.328125 
Q 18.0625 40.71875 22.3125 40.71875 
Q 26.5625 40.71875 28.96875 44.328125 
Q 31.390625 47.953125 31.390625 54.390625 
Q 31.390625 60.6875 28.953125 64.34375 
Q 26.515625 68.015625 22.3125 68.015625 
z
M 66.40625 74.21875 
L 74.21875 74.21875 
L 28.609375 -1.421875 
L 20.796875 -1.421875 
z
M 22.3125 74.21875 
Q 30.03125 74.21875 34.609375 68.875 
Q 39.203125 63.53125 39.203125 54.390625 
Q 39.203125 45.171875 34.640625 39.84375 
Q 30.078125 34.515625 22.3125 34.515625 
Q 14.546875 34.515625 10.03125 39.859375 
Q 5.515625 45.21875 5.515625 54.390625 
Q 5.515625 63.484375 10.046875 68.84375 
Q 14.59375 74.21875 22.3125 74.21875 
z
" id="DejaVuSans-37"/>
      <path d="M 8.015625 75.875 
L 15.828125 75.875 
Q 23.140625 64.359375 26.78125 53.3125 
Q 30.421875 42.28125 30.421875 31.390625 
Q 30.421875 20.453125 26.78125 9.375 
Q 23.140625 -1.703125 15.828125 -13.1875 
L 8.015625 -13.1875 
Q 14.5 -2 17.703125 9.0625 
Q 20.90625 20.125 20.90625 31.390625 
Q 20.90625 42.671875 17.703125 53.65625 
Q 14.5 64.65625 8.015625 75.875 
z
" id="DejaVuSans-41"/>
     </defs>
     <g transform="translate(183.125781 276.776563)scale(0.1 -0.1)">
      <use xlink:href="#DejaVuSans-67"/>
      <use x="69.824219" xlink:href="#DejaVuSans-111"/>
      <use x="131.005859" xlink:href="#DejaVuSans-110"/>
      <use x="194.384766" xlink:href="#DejaVuSans-118"/>
      <use x="253.564453" xlink:href="#DejaVuSans-101"/>
      <use x="315.087891" xlink:href="#DejaVuSans-114"/>
      <use x="356.201172" xlink:href="#DejaVuSans-115"/>
      <use x="408.300781" xlink:href="#DejaVuSans-105"/>
      <use x="436.083984" xlink:href="#DejaVuSans-111"/>
      <use x="497.265625" xlink:href="#DejaVuSans-110"/>
      <use x="560.644531" xlink:href="#DejaVuSans-32"/>
      <use x="592.431641" xlink:href="#DejaVuSans-40"/>
      <use x="631.445312" xlink:href="#DejaVuSans-37"/>
      <use x="726.464844" xlink:href="#DejaVuSans-41"/>
     </g>
    </g>
   </g>
   <g id="matplotlib.axis_2">
    <g id="ytick_1">
     <g id="line2d_7">
      <defs>
       <path d="M 0 0 
L 3.5 0 
" id="mb4a30265d6" style="stroke:#000000;stroke-width:0.8;"/>
      </defs>
      <g>
       <use style="stroke:#000000;stroke-width:0.8;" x="54" xlink:href="#mb4a30265d6" y="226.416817"/>
      </g>
     </g>
     <g id="text_8">
      <!-- 65 -->
      <g transform="translate(37.775 230.216036)scale(0.1 -0.1)">
       <use xlink:href="#DejaVuSans-54"/>
       <use x="63.623047" xlink:href="#DejaVuSans-53"/>
      </g>
     </g>
    </g>
    <g id="ytick_2">
     <g id="line2d_8">
      <g>
       <use style="stroke:#000000;stroke-width:0.8;" x="54" xlink:href="#mb4a30265d6" y="188.378969"/>
      </g>
     </g>
     <g id="text_9">
      <!-- 70 -->
      <g transform="translate(37.775 192.178188)scale(0.1 -0.1)">
       <use xlink:href="#DejaVuSans-55"/>
       <use x="63.623047" xlink:href="#DejaVuSans-48"/>
      </g>
     </g>
    </g>
    <g id="ytick_3">
     <g id="line2d_9">
      <g>
       <use style="stroke:#000000;stroke-width:0.8;" x="54" xlink:href="#mb4a30265d6" y="150.341122"/>
      </g>
     </g>
     <g id="text_10">
      <!-- 75 -->
      <g transform="translate(37.775 154.14034)scale(0.1 -0.1)">
       <use xlink:href="#DejaVuSans-55"/>
       <use x="63.623047" xlink:href="#DejaVuSans-53"/>
      </g>
     </g>
    </g>
    <g id="ytick_4">
     <g id="line2d_10">
      <g>
       <use style="stroke:#000000;stroke-width:0.8;" x="54" xlink:href="#mb4a30265d6" y="112.303274"/>
      </g>
     </g>
     <g id="text_11">
      <!-- 80 -->
      <g transform="translate(37.775 116.102493)scale(0.1 -0.1)">
       <use xlink:href="#DejaVuSans-56"/>
       <use x="63.623047" xlink:href="#DejaVuSans-48"/>
      </g>
     </g>
    </g>
    <g id="ytick_5">
     <g id="line2d_11">
      <g>
       <use style="stroke:#000000;stroke-width:0.8;" x="54" xlink:href="#mb4a30265d6" y="74.265426"/>
      </g>
     </g>
     <g id="text_12">
      <!-- 85 -->
      <g transform="translate(37.775 78.064645)scale(0.1 -0.1)">
       <use xlink:href="#DejaVuSans-56"/>
       <use x="63.623047" xlink:href="#DejaVuSans-53"/>
      </g>
     </g>
    </g>
    <g id="ytick_6">
     <g id="line2d_12">
      <g>
       <use style="stroke:#000000;stroke-width:0.8;" x="54" xlink:href="#mb4a30265d6" y="36.227578"/>
      </g>
     </g>
     <g id="text_13">
      <!-- 90 -->
      <g transform="translate(37.775 40.026797)scale(0.1 -0.1)">
       <use xlink:href="#DejaVuSans-57"/>
       <use x="63.623047" xlink:href="#DejaVuSans-48"/>
      </g>
     </g>
    </g>
    <g id="text_14">
     <!-- DE (%) -->
     <defs>
      <path d="M 19.671875 64.796875 
L 19.671875 8.109375 
L 31.59375 8.109375 
Q 46.6875 8.109375 53.6875 14.9375 
Q 60.6875 21.78125 60.6875 36.53125 
Q 60.6875 51.171875 53.6875 57.984375 
Q 46.6875 64.796875 31.59375 64.796875 
z
M 9.8125 72.90625 
L 30.078125 72.90625 
Q 51.265625 72.90625 61.171875 64.09375 
Q 71.09375 55.28125 71.09375 36.53125 
Q 71.09375 17.671875 61.125 8.828125 
Q 51.171875 0 30.078125 0 
L 9.8125 0 
z
" id="DejaVuSans-68"/>
      <path d="M 9.8125 72.90625 
L 55.90625 72.90625 
L 55.90625 64.59375 
L 19.671875 64.59375 
L 19.671875 43.015625 
L 54.390625 43.015625 
L 54.390625 34.71875 
L 19.671875 34.71875 
L 19.671875 8.296875 
L 56.78125 8.296875 
L 56.78125 0 
L 9.8125 0 
z
" id="DejaVuSans-69"/>
     </defs>
     <g transform="translate(31.695312 160.530781)rotate(-90)scale(0.1 -0.1)">
      <use xlink:href="#DejaVuSans-68"/>
      <use x="77.001953" xlink:href="#DejaVuSans-69"/>
      <use x="140.185547" xlink:href="#DejaVuSans-32"/>
      <use x="171.972656" xlink:href="#DejaVuSans-40"/>
      <use x="210.986328" xlink:href="#DejaVuSans-37"/>
      <use x="306.005859" xlink:href="#DejaVuSans-41"/>
     </g>
    </g>
   </g>
   <g id="patch_3">
    <path d="M 54 252 
L 54 34.56 
" style="fill:none;stroke:#000000;stroke-linecap:square;stroke-linejoin:miter;stroke-width:0.8;"/>
   </g>
   <g id="patch_4">
    <path d="M 388.8 252 
L 388.8 34.56 
" style="fill:none;stroke:#000000;stroke-linecap:square;stroke-linejoin:miter;stroke-width:0.8;"/>
   </g>
   <g id="patch_5">
    <path d="M 54 252 
L 388.8 252 
" style="fill:none;stroke:#000000;stroke-linecap:square;stroke-linejoin:miter;stroke-width:0.8;"/>
   </g>
   <g id="patch_6">
    <path d="M 54 34.56 
L 388.8 34.56 
" style="fill:none;stroke:#000000;stroke-linecap:square;stroke-linejoin:miter;stroke-width:0.8;"/>
   </g>
  </g>
 </g>
 <defs>
  <clipPath id="p42bda86736">
   <rect height="217.44" width="334.8" x="54" y="34.56"/>
  </clipPath>
 </defs>
</svg>
