<?xml version="1.0" encoding="utf-8" standalone="no"?>
<!DOCTYPE svg PUBLIC "-//W3C//DTD SVG 1.1//EN"
  "http://www.w3.org/Graphics/SVG/1.1/DTD/svg11.dtd">
<!-- Created with matplotlib (https://matplotlib.org/) -->
<svg height="360pt" version="1.1" viewBox="0 0 720 360" width="720pt" xmlns="http://www.w3.org/2000/svg" xmlns:xlink="http://www.w3.org/1999/xlink">
 <defs>
  <style type="text/css">
*{stroke-linecap:butt;stroke-linejoin:round;}
  </style>
 </defs>
 <g id="figure_1">
  <g id="patch_1">
   <path d="M 0 360 
L 720 360 
L 720 0 
L 0 0 
z
" style="fill:#ffffff;"/>
  </g>
  <g id="axes_1">
   <g id="patch_2">
    <path d="M 90 315 
L 338 315 
L 338 43.2 
L 90 43.2 
z
" style="fill:#ffffff;"/>
   </g>
   <g id="matplotlib.axis_1">
    <g id="xtick_1">
     <g id="line2d_1">
      <defs>
       <path d="M 0 0 
L 0 -3.5 
" id="me41e8701a7" style="stroke:#000000;stroke-width:0.8;"/>
      </defs>
      <g>
       <use style="stroke:#000000;stroke-width:0.8;" x="101.272727" xlink:href="#me41e8701a7" y="315"/>
      </g>
     </g>
     <g id="text_1">
      <!-- 0 -->
      <defs>
       <path d="M 31.78125 66.40625 
Q 24.171875 66.40625 20.328125 58.90625 
Q 16.5 51.421875 16.5 36.375 
Q 16.5 21.390625 20.328125 13.890625 
Q 24.171875 6.390625 31.78125 6.390625 
Q 39.453125 6.390625 43.28125 13.890625 
Q 47.125 21.390625 47.125 36.375 
Q 47.125 51.421875 43.28125 58.90625 
Q 39.453125 66.40625 31.78125 66.40625 
z
M 31.78125 74.21875 
Q 44.046875 74.21875 50.515625 64.515625 
Q 56.984375 54.828125 56.984375 36.375 
Q 56.984375 17.96875 50.515625 8.265625 
Q 44.046875 -1.421875 31.78125 -1.421875 
Q 19.53125 -1.421875 13.0625 8.265625 
Q 6.59375 17.96875 6.59375 36.375 
Q 6.59375 54.828125 13.0625 64.515625 
Q 19.53125 74.21875 31.78125 74.21875 
z
" id="DejaVuSans-48"/>
      </defs>
      <g transform="translate(98.091477 326.098437)scale(0.1 -0.1)">
       <use xlink:href="#DejaVuSans-48"/>
      </g>
     </g>
    </g>
    <g id="xtick_2">
     <g id="line2d_2">
      <g>
       <use style="stroke:#000000;stroke-width:0.8;" x="176.424242" xlink:href="#me41e8701a7" y="315"/>
      </g>
     </g>
     <g id="text_2">
      <!-- 1 -->
      <defs>
       <path d="M 12.40625 8.296875 
L 28.515625 8.296875 
L 28.515625 63.921875 
L 10.984375 60.40625 
L 10.984375 69.390625 
L 28.421875 72.90625 
L 38.28125 72.90625 
L 38.28125 8.296875 
L 54.390625 8.296875 
L 54.390625 0 
L 12.40625 0 
z
" id="DejaVuSans-49"/>
      </defs>
      <g transform="translate(173.242992 326.098437)scale(0.1 -0.1)">
       <use xlink:href="#DejaVuSans-49"/>
      </g>
     </g>
    </g>
    <g id="xtick_3">
     <g id="line2d_3">
      <g>
       <use style="stroke:#000000;stroke-width:0.8;" x="251.575758" xlink:href="#me41e8701a7" y="315"/>
      </g>
     </g>
     <g id="text_3">
      <!-- 2 -->
      <defs>
       <path d="M 19.1875 8.296875 
L 53.609375 8.296875 
L 53.609375 0 
L 7.328125 0 
L 7.328125 8.296875 
Q 12.9375 14.109375 22.625 23.890625 
Q 32.328125 33.6875 34.8125 36.53125 
Q 39.546875 41.84375 41.421875 45.53125 
Q 43.3125 49.21875 43.3125 52.78125 
Q 43.3125 58.59375 39.234375 62.25 
Q 35.15625 65.921875 28.609375 65.921875 
Q 23.96875 65.921875 18.8125 64.3125 
Q 13.671875 62.703125 7.8125 59.421875 
L 7.8125 69.390625 
Q 13.765625 71.78125 18.9375 73 
Q 24.125 74.21875 28.421875 74.21875 
Q 39.75 74.21875 46.484375 68.546875 
Q 53.21875 62.890625 53.21875 53.421875 
Q 53.21875 48.921875 51.53125 44.890625 
Q 49.859375 40.875 45.40625 35.40625 
Q 44.1875 33.984375 37.640625 27.21875 
Q 31.109375 20.453125 19.1875 8.296875 
z
" id="DejaVuSans-50"/>
      </defs>
      <g transform="translate(248.394508 326.098437)scale(0.1 -0.1)">
       <use xlink:href="#DejaVuSans-50"/>
      </g>
     </g>
    </g>
    <g id="xtick_4">
     <g id="line2d_4">
      <g>
       <use style="stroke:#000000;stroke-width:0.8;" x="326.727273" xlink:href="#me41e8701a7" y="315"/>
      </g>
     </g>
     <g id="text_4">
      <!-- 3 -->
      <defs>
       <path d="M 40.578125 39.3125 
Q 47.65625 37.796875 51.625 33 
Q 55.609375 28.21875 55.609375 21.1875 
Q 55.609375 10.40625 48.1875 4.484375 
Q 40.765625 -1.421875 27.09375 -1.421875 
Q 22.515625 -1.421875 17.65625 -0.515625 
Q 12.796875 0.390625 7.625 2.203125 
L 7.625 11.71875 
Q 11.71875 9.328125 16.59375 8.109375 
Q 21.484375 6.890625 26.8125 6.890625 
Q 36.078125 6.890625 40.9375 10.546875 
Q 45.796875 14.203125 45.796875 21.1875 
Q 45.796875 27.640625 41.28125 31.265625 
Q 36.765625 34.90625 28.71875 34.90625 
L 20.21875 34.90625 
L 20.21875 43.015625 
L 29.109375 43.015625 
Q 36.375 43.015625 40.234375 45.921875 
Q 44.09375 48.828125 44.09375 54.296875 
Q 44.09375 59.90625 40.109375 62.90625 
Q 36.140625 65.921875 28.71875 65.921875 
Q 24.65625 65.921875 20.015625 65.03125 
Q 15.375 64.15625 9.8125 62.3125 
L 9.8125 71.09375 
Q 15.4375 72.65625 20.34375 73.4375 
Q 25.25 74.21875 29.59375 74.21875 
Q 40.828125 74.21875 47.359375 69.109375 
Q 53.90625 64.015625 53.90625 55.328125 
Q 53.90625 49.265625 50.4375 45.09375 
Q 46.96875 40.921875 40.578125 39.3125 
z
" id="DejaVuSans-51"/>
      </defs>
      <g transform="translate(323.546023 326.098437)scale(0.1 -0.1)">
       <use xlink:href="#DejaVuSans-51"/>
      </g>
     </g>
    </g>
    <g id="text_5">
     <!-- Batch -->
     <defs>
      <path d="M 19.671875 34.8125 
L 19.671875 8.109375 
L 35.5 8.109375 
Q 43.453125 8.109375 47.28125 11.40625 
Q 51.125 14.703125 51.125 21.484375 
Q 51.125 28.328125 47.28125 31.5625 
Q 43.453125 34.8125 35.5 34.8125 
z
M 19.671875 64.796875 
L 19.671875 42.828125 
L 34.28125 42.828125 
Q 41.5 42.828125 45.03125 45.53125 
Q 48.578125 48.25 48.578125 53.8125 
Q 48.578125 59.328125 45.03125 62.0625 
Q 41.5 64.796875 34.28125 64.796875 
z
M 9.8125 72.90625 
L 35.015625 72.90625 
Q 46.296875 72.90625 52.390625 68.21875 
Q 58.5 63.53125 58.5 54.890625 
Q 58.5 48.1875 55.375 44.234375 
Q 52.25 40.28125 46.1875 39.3125 
Q 53.46875 37.75 57.5 32.78125 
Q 61.53125 27.828125 61.53125 20.40625 
Q 61.53125 10.640625 54.890625 5.3125 
Q 48.25 0 35.984375 0 
L 9.8125 0 
z
" id="DejaVuSans-66"/>
      <path d="M 34.28125 27.484375 
Q 23.390625 27.484375 19.1875 25 
Q 14.984375 22.515625 14.984375 16.5 
Q 14.984375 11.71875 18.140625 8.90625 
Q 21.296875 6.109375 26.703125 6.109375 
Q 34.1875 6.109375 38.703125 11.40625 
Q 43.21875 16.703125 43.21875 25.484375 
L 43.21875 27.484375 
z
M 52.203125 31.203125 
L 52.203125 0 
L 43.21875 0 
L 43.21875 8.296875 
Q 40.140625 3.328125 35.546875 0.953125 
Q 30.953125 -1.421875 24.3125 -1.421875 
Q 15.921875 -1.421875 10.953125 3.296875 
Q 6 8.015625 6 15.921875 
Q 6 25.140625 12.171875 29.828125 
Q 18.359375 34.515625 30.609375 34.515625 
L 43.21875 34.515625 
L 43.21875 35.40625 
Q 43.21875 41.609375 39.140625 45 
Q 35.0625 48.390625 27.6875 48.390625 
Q 23 48.390625 18.546875 47.265625 
Q 14.109375 46.140625 10.015625 43.890625 
L 10.015625 52.203125 
Q 14.9375 54.109375 19.578125 55.046875 
Q 24.21875 56 28.609375 56 
Q 40.484375 56 46.34375 49.84375 
Q 52.203125 43.703125 52.203125 31.203125 
z
" id="DejaVuSans-97"/>
      <path d="M 18.3125 70.21875 
L 18.3125 54.6875 
L 36.8125 54.6875 
L 36.8125 47.703125 
L 18.3125 47.703125 
L 18.3125 18.015625 
Q 18.3125 11.328125 20.140625 9.421875 
Q 21.96875 7.515625 27.59375 7.515625 
L 36.8125 7.515625 
L 36.8125 0 
L 27.59375 0 
Q 17.1875 0 13.234375 3.875 
Q 9.28125 7.765625 9.28125 18.015625 
L 9.28125 47.703125 
L 2.6875 47.703125 
L 2.6875 54.6875 
L 9.28125 54.6875 
L 9.28125 70.21875 
z
" id="DejaVuSans-116"/>
      <path d="M 48.78125 52.59375 
L 48.78125 44.1875 
Q 44.96875 46.296875 41.140625 47.34375 
Q 37.3125 48.390625 33.40625 48.390625 
Q 24.65625 48.390625 19.8125 42.84375 
Q 14.984375 37.3125 14.984375 27.296875 
Q 14.984375 17.28125 19.8125 11.734375 
Q 24.65625 6.203125 33.40625 6.203125 
Q 37.3125 6.203125 41.140625 7.25 
Q 44.96875 8.296875 48.78125 10.40625 
L 48.78125 2.09375 
Q 45.015625 0.34375 40.984375 -0.53125 
Q 36.96875 -1.421875 32.421875 -1.421875 
Q 20.0625 -1.421875 12.78125 6.34375 
Q 5.515625 14.109375 5.515625 27.296875 
Q 5.515625 40.671875 12.859375 48.328125 
Q 20.21875 56 33.015625 56 
Q 37.15625 56 41.109375 55.140625 
Q 45.0625 54.296875 48.78125 52.59375 
z
" id="DejaVuSans-99"/>
      <path d="M 54.890625 33.015625 
L 54.890625 0 
L 45.90625 0 
L 45.90625 32.71875 
Q 45.90625 40.484375 42.875 44.328125 
Q 39.84375 48.1875 33.796875 48.1875 
Q 26.515625 48.1875 22.3125 43.546875 
Q 18.109375 38.921875 18.109375 30.90625 
L 18.109375 0 
L 9.078125 0 
L 9.078125 75.984375 
L 18.109375 75.984375 
L 18.109375 46.1875 
Q 21.34375 51.125 25.703125 53.5625 
Q 30.078125 56 35.796875 56 
Q 45.21875 56 50.046875 50.171875 
Q 54.890625 44.34375 54.890625 33.015625 
z
" id="DejaVuSans-104"/>
     </defs>
     <g transform="translate(199.627344 339.776563)scale(0.1 -0.1)">
      <use xlink:href="#DejaVuSans-66"/>
      <use x="68.603516" xlink:href="#DejaVuSans-97"/>
      <use x="129.882812" xlink:href="#DejaVuSans-116"/>
      <use x="169.091797" xlink:href="#DejaVuSans-99"/>
      <use x="224.072266" xlink:href="#DejaVuSans-104"/>
     </g>
    </g>
   </g>
   <g id="matplotlib.axis_2">
    <g id="ytick_1">
     <g id="line2d_5">
      <defs>
       <path d="M 0 0 
L 3.5 0 
" id="mf621862363" style="stroke:#000000;stroke-width:0.8;"/>
      </defs>
      <g>
       <use style="stroke:#000000;stroke-width:0.8;" x="90" xlink:href="#mf621862363" y="278.412621"/>
      </g>
     </g>
     <g id="text_6">
      <!-- $\mathdefault{10^{1}}$ -->
      <g transform="translate(68.9 282.21184)scale(0.1 -0.1)">
       <use transform="translate(0 0.684375)" xlink:href="#DejaVuSans-49"/>
       <use transform="translate(63.623047 0.684375)" xlink:href="#DejaVuSans-48"/>
       <use transform="translate(128.203125 38.965625)scale(0.7)" xlink:href="#DejaVuSans-49"/>
      </g>
     </g>
    </g>
    <g id="ytick_2">
     <g id="line2d_6">
      <g>
       <use style="stroke:#000000;stroke-width:0.8;" x="90" xlink:href="#mf621862363" y="230.970711"/>
      </g>
     </g>
     <g id="text_7">
      <!-- $\mathdefault{10^{2}}$ -->
      <g transform="translate(68.9 234.76993)scale(0.1 -0.1)">
       <use transform="translate(0 0.765625)" xlink:href="#DejaVuSans-49"/>
       <use transform="translate(63.623047 0.765625)" xlink:href="#DejaVuSans-48"/>
       <use transform="translate(128.203125 39.046875)scale(0.7)" xlink:href="#DejaVuSans-50"/>
      </g>
     </g>
    </g>
    <g id="ytick_3">
     <g id="line2d_7">
      <g>
       <use style="stroke:#000000;stroke-width:0.8;" x="90" xlink:href="#mf621862363" y="183.528802"/>
      </g>
     </g>
     <g id="text_8">
      <!-- $\mathdefault{10^{3}}$ -->
      <g transform="translate(68.9 187.32802)scale(0.1 -0.1)">
       <use transform="translate(0 0.765625)" xlink:href="#DejaVuSans-49"/>
       <use transform="translate(63.623047 0.765625)" xlink:href="#DejaVuSans-48"/>
       <use transform="translate(128.203125 39.046875)scale(0.7)" xlink:href="#DejaVuSans-51"/>
      </g>
     </g>
    </g>
    <g id="ytick_4">
     <g id="line2d_8">
      <g>
       <use style="stroke:#000000;stroke-width:0.8;" x="90" xlink:href="#mf621862363" y="136.086892"/>
      </g>
     </g>
     <g id="text_9">
      <!-- $\mathdefault{10^{4}}$ -->
      <defs>
       <path d="M 37.796875 64.3125 
L 12.890625 25.390625 
L 37.796875 25.390625 
z
M 35.203125 72.90625 
L 47.609375 72.90625 
L 47.609375 25.390625 
L 58.015625 25.390625 
L 58.015625 17.1875 
L 47.609375 17.1875 
L 47.609375 0 
L 37.796875 0 
L 37.796875 17.1875 
L 4.890625 17.1875 
L 4.890625 26.703125 
z
" id="DejaVuSans-52"/>
      </defs>
      <g transform="translate(68.9 139.886111)scale(0.1 -0.1)">
       <use transform="translate(0 0.684375)" xlink:href="#DejaVuSans-49"/>
       <use transform="translate(63.623047 0.684375)" xlink:href="#DejaVuSans-48"/>
       <use transform="translate(128.203125 38.965625)scale(0.7)" xlink:href="#DejaVuSans-52"/>
      </g>
     </g>
    </g>
    <g id="ytick_5">
     <g id="line2d_9">
      <g>
       <use style="stroke:#000000;stroke-width:0.8;" x="90" xlink:href="#mf621862363" y="88.644982"/>
      </g>
     </g>
     <g id="text_10">
      <!-- $\mathdefault{10^{5}}$ -->
      <defs>
       <path d="M 10.796875 72.90625 
L 49.515625 72.90625 
L 49.515625 64.59375 
L 19.828125 64.59375 
L 19.828125 46.734375 
Q 21.96875 47.46875 24.109375 47.828125 
Q 26.265625 48.1875 28.421875 48.1875 
Q 40.625 48.1875 47.75 41.5 
Q 54.890625 34.8125 54.890625 23.390625 
Q 54.890625 11.625 47.5625 5.09375 
Q 40.234375 -1.421875 26.90625 -1.421875 
Q 22.3125 -1.421875 17.546875 -0.640625 
Q 12.796875 0.140625 7.71875 1.703125 
L 7.71875 11.625 
Q 12.109375 9.234375 16.796875 8.0625 
Q 21.484375 6.890625 26.703125 6.890625 
Q 35.15625 6.890625 40.078125 11.328125 
Q 45.015625 15.765625 45.015625 23.390625 
Q 45.015625 31 40.078125 35.4375 
Q 35.15625 39.890625 26.703125 39.890625 
Q 22.75 39.890625 18.8125 39.015625 
Q 14.890625 38.140625 10.796875 36.28125 
z
" id="DejaVuSans-53"/>
      </defs>
      <g transform="translate(68.9 92.444201)scale(0.1 -0.1)">
       <use transform="translate(0 0.684375)" xlink:href="#DejaVuSans-49"/>
       <use transform="translate(63.623047 0.684375)" xlink:href="#DejaVuSans-48"/>
       <use transform="translate(128.203125 38.965625)scale(0.7)" xlink:href="#DejaVuSans-53"/>
      </g>
     </g>
    </g>
    <g id="ytick_6">
     <g id="line2d_10">
      <defs>
       <path d="M 0 0 
L -2 0 
" id="me556ff0228" style="stroke:#000000;stroke-width:0.6;"/>
      </defs>
      <g>
       <use style="stroke:#000000;stroke-width:0.6;" x="90" xlink:href="#me556ff0228" y="311.573093"/>
      </g>
     </g>
    </g>
    <g id="ytick_7">
     <g id="line2d_11">
      <g>
       <use style="stroke:#000000;stroke-width:0.6;" x="90" xlink:href="#me556ff0228" y="303.218987"/>
      </g>
     </g>
    </g>
    <g id="ytick_8">
     <g id="line2d_12">
      <g>
       <use style="stroke:#000000;stroke-width:0.6;" x="90" xlink:href="#me556ff0228" y="297.291655"/>
      </g>
     </g>
    </g>
    <g id="ytick_9">
     <g id="line2d_13">
      <g>
       <use style="stroke:#000000;stroke-width:0.6;" x="90" xlink:href="#me556ff0228" y="292.694059"/>
      </g>
     </g>
    </g>
    <g id="ytick_10">
     <g id="line2d_14">
      <g>
       <use style="stroke:#000000;stroke-width:0.6;" x="90" xlink:href="#me556ff0228" y="288.937549"/>
      </g>
     </g>
    </g>
    <g id="ytick_11">
     <g id="line2d_15">
      <g>
       <use style="stroke:#000000;stroke-width:0.6;" x="90" xlink:href="#me556ff0228" y="285.761466"/>
      </g>
     </g>
    </g>
    <g id="ytick_12">
     <g id="line2d_16">
      <g>
       <use style="stroke:#000000;stroke-width:0.6;" x="90" xlink:href="#me556ff0228" y="283.010217"/>
      </g>
     </g>
    </g>
    <g id="ytick_13">
     <g id="line2d_17">
      <g>
       <use style="stroke:#000000;stroke-width:0.6;" x="90" xlink:href="#me556ff0228" y="280.583444"/>
      </g>
     </g>
    </g>
    <g id="ytick_14">
     <g id="line2d_18">
      <g>
       <use style="stroke:#000000;stroke-width:0.6;" x="90" xlink:href="#me556ff0228" y="264.131183"/>
      </g>
     </g>
    </g>
    <g id="ytick_15">
     <g id="line2d_19">
      <g>
       <use style="stroke:#000000;stroke-width:0.6;" x="90" xlink:href="#me556ff0228" y="255.777077"/>
      </g>
     </g>
    </g>
    <g id="ytick_16">
     <g id="line2d_20">
      <g>
       <use style="stroke:#000000;stroke-width:0.6;" x="90" xlink:href="#me556ff0228" y="249.849745"/>
      </g>
     </g>
    </g>
    <g id="ytick_17">
     <g id="line2d_21">
      <g>
       <use style="stroke:#000000;stroke-width:0.6;" x="90" xlink:href="#me556ff0228" y="245.252149"/>
      </g>
     </g>
    </g>
    <g id="ytick_18">
     <g id="line2d_22">
      <g>
       <use style="stroke:#000000;stroke-width:0.6;" x="90" xlink:href="#me556ff0228" y="241.49564"/>
      </g>
     </g>
    </g>
    <g id="ytick_19">
     <g id="line2d_23">
      <g>
       <use style="stroke:#000000;stroke-width:0.6;" x="90" xlink:href="#me556ff0228" y="238.319556"/>
      </g>
     </g>
    </g>
    <g id="ytick_20">
     <g id="line2d_24">
      <g>
       <use style="stroke:#000000;stroke-width:0.6;" x="90" xlink:href="#me556ff0228" y="235.568307"/>
      </g>
     </g>
    </g>
    <g id="ytick_21">
     <g id="line2d_25">
      <g>
       <use style="stroke:#000000;stroke-width:0.6;" x="90" xlink:href="#me556ff0228" y="233.141534"/>
      </g>
     </g>
    </g>
    <g id="ytick_22">
     <g id="line2d_26">
      <g>
       <use style="stroke:#000000;stroke-width:0.6;" x="90" xlink:href="#me556ff0228" y="216.689273"/>
      </g>
     </g>
    </g>
    <g id="ytick_23">
     <g id="line2d_27">
      <g>
       <use style="stroke:#000000;stroke-width:0.6;" x="90" xlink:href="#me556ff0228" y="208.335168"/>
      </g>
     </g>
    </g>
    <g id="ytick_24">
     <g id="line2d_28">
      <g>
       <use style="stroke:#000000;stroke-width:0.6;" x="90" xlink:href="#me556ff0228" y="202.407835"/>
      </g>
     </g>
    </g>
    <g id="ytick_25">
     <g id="line2d_29">
      <g>
       <use style="stroke:#000000;stroke-width:0.6;" x="90" xlink:href="#me556ff0228" y="197.810239"/>
      </g>
     </g>
    </g>
    <g id="ytick_26">
     <g id="line2d_30">
      <g>
       <use style="stroke:#000000;stroke-width:0.6;" x="90" xlink:href="#me556ff0228" y="194.05373"/>
      </g>
     </g>
    </g>
    <g id="ytick_27">
     <g id="line2d_31">
      <g>
       <use style="stroke:#000000;stroke-width:0.6;" x="90" xlink:href="#me556ff0228" y="190.877646"/>
      </g>
     </g>
    </g>
    <g id="ytick_28">
     <g id="line2d_32">
      <g>
       <use style="stroke:#000000;stroke-width:0.6;" x="90" xlink:href="#me556ff0228" y="188.126398"/>
      </g>
     </g>
    </g>
    <g id="ytick_29">
     <g id="line2d_33">
      <g>
       <use style="stroke:#000000;stroke-width:0.6;" x="90" xlink:href="#me556ff0228" y="185.699624"/>
      </g>
     </g>
    </g>
    <g id="ytick_30">
     <g id="line2d_34">
      <g>
       <use style="stroke:#000000;stroke-width:0.6;" x="90" xlink:href="#me556ff0228" y="169.247364"/>
      </g>
     </g>
    </g>
    <g id="ytick_31">
     <g id="line2d_35">
      <g>
       <use style="stroke:#000000;stroke-width:0.6;" x="90" xlink:href="#me556ff0228" y="160.893258"/>
      </g>
     </g>
    </g>
    <g id="ytick_32">
     <g id="line2d_36">
      <g>
       <use style="stroke:#000000;stroke-width:0.6;" x="90" xlink:href="#me556ff0228" y="154.965926"/>
      </g>
     </g>
    </g>
    <g id="ytick_33">
     <g id="line2d_37">
      <g>
       <use style="stroke:#000000;stroke-width:0.6;" x="90" xlink:href="#me556ff0228" y="150.36833"/>
      </g>
     </g>
    </g>
    <g id="ytick_34">
     <g id="line2d_38">
      <g>
       <use style="stroke:#000000;stroke-width:0.6;" x="90" xlink:href="#me556ff0228" y="146.61182"/>
      </g>
     </g>
    </g>
    <g id="ytick_35">
     <g id="line2d_39">
      <g>
       <use style="stroke:#000000;stroke-width:0.6;" x="90" xlink:href="#me556ff0228" y="143.435737"/>
      </g>
     </g>
    </g>
    <g id="ytick_36">
     <g id="line2d_40">
      <g>
       <use style="stroke:#000000;stroke-width:0.6;" x="90" xlink:href="#me556ff0228" y="140.684488"/>
      </g>
     </g>
    </g>
    <g id="ytick_37">
     <g id="line2d_41">
      <g>
       <use style="stroke:#000000;stroke-width:0.6;" x="90" xlink:href="#me556ff0228" y="138.257715"/>
      </g>
     </g>
    </g>
    <g id="ytick_38">
     <g id="line2d_42">
      <g>
       <use style="stroke:#000000;stroke-width:0.6;" x="90" xlink:href="#me556ff0228" y="121.805454"/>
      </g>
     </g>
    </g>
    <g id="ytick_39">
     <g id="line2d_43">
      <g>
       <use style="stroke:#000000;stroke-width:0.6;" x="90" xlink:href="#me556ff0228" y="113.451348"/>
      </g>
     </g>
    </g>
    <g id="ytick_40">
     <g id="line2d_44">
      <g>
       <use style="stroke:#000000;stroke-width:0.6;" x="90" xlink:href="#me556ff0228" y="107.524016"/>
      </g>
     </g>
    </g>
    <g id="ytick_41">
     <g id="line2d_45">
      <g>
       <use style="stroke:#000000;stroke-width:0.6;" x="90" xlink:href="#me556ff0228" y="102.92642"/>
      </g>
     </g>
    </g>
    <g id="ytick_42">
     <g id="line2d_46">
      <g>
       <use style="stroke:#000000;stroke-width:0.6;" x="90" xlink:href="#me556ff0228" y="99.169911"/>
      </g>
     </g>
    </g>
    <g id="ytick_43">
     <g id="line2d_47">
      <g>
       <use style="stroke:#000000;stroke-width:0.6;" x="90" xlink:href="#me556ff0228" y="95.993827"/>
      </g>
     </g>
    </g>
    <g id="ytick_44">
     <g id="line2d_48">
      <g>
       <use style="stroke:#000000;stroke-width:0.6;" x="90" xlink:href="#me556ff0228" y="93.242578"/>
      </g>
     </g>
    </g>
    <g id="ytick_45">
     <g id="line2d_49">
      <g>
       <use style="stroke:#000000;stroke-width:0.6;" x="90" xlink:href="#me556ff0228" y="90.815805"/>
      </g>
     </g>
    </g>
    <g id="ytick_46">
     <g id="line2d_50">
      <g>
       <use style="stroke:#000000;stroke-width:0.6;" x="90" xlink:href="#me556ff0228" y="74.363544"/>
      </g>
     </g>
    </g>
    <g id="ytick_47">
     <g id="line2d_51">
      <g>
       <use style="stroke:#000000;stroke-width:0.6;" x="90" xlink:href="#me556ff0228" y="66.009439"/>
      </g>
     </g>
    </g>
    <g id="ytick_48">
     <g id="line2d_52">
      <g>
       <use style="stroke:#000000;stroke-width:0.6;" x="90" xlink:href="#me556ff0228" y="60.082107"/>
      </g>
     </g>
    </g>
    <g id="ytick_49">
     <g id="line2d_53">
      <g>
       <use style="stroke:#000000;stroke-width:0.6;" x="90" xlink:href="#me556ff0228" y="55.484511"/>
      </g>
     </g>
    </g>
    <g id="ytick_50">
     <g id="line2d_54">
      <g>
       <use style="stroke:#000000;stroke-width:0.6;" x="90" xlink:href="#me556ff0228" y="51.728001"/>
      </g>
     </g>
    </g>
    <g id="ytick_51">
     <g id="line2d_55">
      <g>
       <use style="stroke:#000000;stroke-width:0.6;" x="90" xlink:href="#me556ff0228" y="48.551917"/>
      </g>
     </g>
    </g>
    <g id="ytick_52">
     <g id="line2d_56">
      <g>
       <use style="stroke:#000000;stroke-width:0.6;" x="90" xlink:href="#me556ff0228" y="45.800669"/>
      </g>
     </g>
    </g>
    <g id="ytick_53">
     <g id="line2d_57">
      <g>
       <use style="stroke:#000000;stroke-width:0.6;" x="90" xlink:href="#me556ff0228" y="43.373895"/>
      </g>
     </g>
    </g>
    <g id="text_11">
     <!-- Lengthscale -->
     <defs>
      <path d="M 9.8125 72.90625 
L 19.671875 72.90625 
L 19.671875 8.296875 
L 55.171875 8.296875 
L 55.171875 0 
L 9.8125 0 
z
" id="DejaVuSans-76"/>
      <path d="M 56.203125 29.59375 
L 56.203125 25.203125 
L 14.890625 25.203125 
Q 15.484375 15.921875 20.484375 11.0625 
Q 25.484375 6.203125 34.421875 6.203125 
Q 39.59375 6.203125 44.453125 7.46875 
Q 49.3125 8.734375 54.109375 11.28125 
L 54.109375 2.78125 
Q 49.265625 0.734375 44.1875 -0.34375 
Q 39.109375 -1.421875 33.890625 -1.421875 
Q 20.796875 -1.421875 13.15625 6.1875 
Q 5.515625 13.8125 5.515625 26.8125 
Q 5.515625 40.234375 12.765625 48.109375 
Q 20.015625 56 32.328125 56 
Q 43.359375 56 49.78125 48.890625 
Q 56.203125 41.796875 56.203125 29.59375 
z
M 47.21875 32.234375 
Q 47.125 39.59375 43.09375 43.984375 
Q 39.0625 48.390625 32.421875 48.390625 
Q 24.90625 48.390625 20.390625 44.140625 
Q 15.875 39.890625 15.1875 32.171875 
z
" id="DejaVuSans-101"/>
      <path d="M 54.890625 33.015625 
L 54.890625 0 
L 45.90625 0 
L 45.90625 32.71875 
Q 45.90625 40.484375 42.875 44.328125 
Q 39.84375 48.1875 33.796875 48.1875 
Q 26.515625 48.1875 22.3125 43.546875 
Q 18.109375 38.921875 18.109375 30.90625 
L 18.109375 0 
L 9.078125 0 
L 9.078125 54.6875 
L 18.109375 54.6875 
L 18.109375 46.1875 
Q 21.34375 51.125 25.703125 53.5625 
Q 30.078125 56 35.796875 56 
Q 45.21875 56 50.046875 50.171875 
Q 54.890625 44.34375 54.890625 33.015625 
z
" id="DejaVuSans-110"/>
      <path d="M 45.40625 27.984375 
Q 45.40625 37.75 41.375 43.109375 
Q 37.359375 48.484375 30.078125 48.484375 
Q 22.859375 48.484375 18.828125 43.109375 
Q 14.796875 37.75 14.796875 27.984375 
Q 14.796875 18.265625 18.828125 12.890625 
Q 22.859375 7.515625 30.078125 7.515625 
Q 37.359375 7.515625 41.375 12.890625 
Q 45.40625 18.265625 45.40625 27.984375 
z
M 54.390625 6.78125 
Q 54.390625 -7.171875 48.1875 -13.984375 
Q 42 -20.796875 29.203125 -20.796875 
Q 24.46875 -20.796875 20.265625 -20.09375 
Q 16.0625 -19.390625 12.109375 -17.921875 
L 12.109375 -9.1875 
Q 16.0625 -11.328125 19.921875 -12.34375 
Q 23.78125 -13.375 27.78125 -13.375 
Q 36.625 -13.375 41.015625 -8.765625 
Q 45.40625 -4.15625 45.40625 5.171875 
L 45.40625 9.625 
Q 42.625 4.78125 38.28125 2.390625 
Q 33.9375 0 27.875 0 
Q 17.828125 0 11.671875 7.65625 
Q 5.515625 15.328125 5.515625 27.984375 
Q 5.515625 40.671875 11.671875 48.328125 
Q 17.828125 56 27.875 56 
Q 33.9375 56 38.28125 53.609375 
Q 42.625 51.21875 45.40625 46.390625 
L 45.40625 54.6875 
L 54.390625 54.6875 
z
" id="DejaVuSans-103"/>
      <path d="M 44.28125 53.078125 
L 44.28125 44.578125 
Q 40.484375 46.53125 36.375 47.5 
Q 32.28125 48.484375 27.875 48.484375 
Q 21.1875 48.484375 17.84375 46.4375 
Q 14.5 44.390625 14.5 40.28125 
Q 14.5 37.15625 16.890625 35.375 
Q 19.28125 33.59375 26.515625 31.984375 
L 29.59375 31.296875 
Q 39.15625 29.25 43.1875 25.515625 
Q 47.21875 21.78125 47.21875 15.09375 
Q 47.21875 7.46875 41.1875 3.015625 
Q 35.15625 -1.421875 24.609375 -1.421875 
Q 20.21875 -1.421875 15.453125 -0.5625 
Q 10.6875 0.296875 5.421875 2 
L 5.421875 11.28125 
Q 10.40625 8.6875 15.234375 7.390625 
Q 20.0625 6.109375 24.8125 6.109375 
Q 31.15625 6.109375 34.5625 8.28125 
Q 37.984375 10.453125 37.984375 14.40625 
Q 37.984375 18.0625 35.515625 20.015625 
Q 33.0625 21.96875 24.703125 23.78125 
L 21.578125 24.515625 
Q 13.234375 26.265625 9.515625 29.90625 
Q 5.8125 33.546875 5.8125 39.890625 
Q 5.8125 47.609375 11.28125 51.796875 
Q 16.75 56 26.8125 56 
Q 31.78125 56 36.171875 55.265625 
Q 40.578125 54.546875 44.28125 53.078125 
z
" id="DejaVuSans-115"/>
      <path d="M 9.421875 75.984375 
L 18.40625 75.984375 
L 18.40625 0 
L 9.421875 0 
z
" id="DejaVuSans-108"/>
     </defs>
     <g transform="translate(62.820312 209.317187)rotate(-90)scale(0.1 -0.1)">
      <use xlink:href="#DejaVuSans-76"/>
      <use x="55.697266" xlink:href="#DejaVuSans-101"/>
      <use x="117.220703" xlink:href="#DejaVuSans-110"/>
      <use x="180.599609" xlink:href="#DejaVuSans-103"/>
      <use x="244.076172" xlink:href="#DejaVuSans-116"/>
      <use x="283.285156" xlink:href="#DejaVuSans-104"/>
      <use x="346.664062" xlink:href="#DejaVuSans-115"/>
      <use x="398.763672" xlink:href="#DejaVuSans-99"/>
      <use x="453.744141" xlink:href="#DejaVuSans-97"/>
      <use x="515.023438" xlink:href="#DejaVuSans-108"/>
      <use x="542.806641" xlink:href="#DejaVuSans-101"/>
     </g>
    </g>
   </g>
   <g id="line2d_58">
    <path clip-path="url(#pb7d8cfb0af)" d="M 101.272727 55.554545 
L 176.424242 55.554545 
L 251.575758 67.713298 
L 326.727273 72.845238 
" style="fill:none;stroke:#1f77b4;stroke-linecap:square;stroke-width:1.5;"/>
   </g>
   <g id="line2d_59">
    <path clip-path="url(#pb7d8cfb0af)" d="M 101.272727 279.188426 
L 176.424242 266.120796 
L 251.575758 270.795287 
L 326.727273 269.044423 
" style="fill:none;stroke:#ff7f0e;stroke-dasharray:5.55,2.4;stroke-dashoffset:0;stroke-width:1.5;"/>
   </g>
   <g id="line2d_60">
    <path clip-path="url(#pb7d8cfb0af)" d="M 101.272727 263.9687 
L 176.424242 302.645455 
L 251.575758 295.467462 
L 326.727273 294.307147 
" style="fill:none;stroke:#2ca02c;stroke-dasharray:1.5,2.475;stroke-dashoffset:0;stroke-width:1.5;"/>
   </g>
   <g id="patch_3">
    <path d="M 90 315 
L 90 43.2 
" style="fill:none;stroke:#000000;stroke-linecap:square;stroke-linejoin:miter;stroke-width:0.8;"/>
   </g>
   <g id="patch_4">
    <path d="M 338 315 
L 338 43.2 
" style="fill:none;stroke:#000000;stroke-linecap:square;stroke-linejoin:miter;stroke-width:0.8;"/>
   </g>
   <g id="patch_5">
    <path d="M 90 315 
L 338 315 
" style="fill:none;stroke:#000000;stroke-linecap:square;stroke-linejoin:miter;stroke-width:0.8;"/>
   </g>
   <g id="patch_6">
    <path d="M 90 43.2 
L 338 43.2 
" style="fill:none;stroke:#000000;stroke-linecap:square;stroke-linejoin:miter;stroke-width:0.8;"/>
   </g>
   <g id="text_12">
    <!-- conversion -->
    <defs>
     <path d="M 30.609375 48.390625 
Q 23.390625 48.390625 19.1875 42.75 
Q 14.984375 37.109375 14.984375 27.296875 
Q 14.984375 17.484375 19.15625 11.84375 
Q 23.34375 6.203125 30.609375 6.203125 
Q 37.796875 6.203125 41.984375 11.859375 
Q 46.1875 17.53125 46.1875 27.296875 
Q 46.1875 37.015625 41.984375 42.703125 
Q 37.796875 48.390625 30.609375 48.390625 
z
M 30.609375 56 
Q 42.328125 56 49.015625 48.375 
Q 55.71875 40.765625 55.71875 27.296875 
Q 55.71875 13.875 49.015625 6.21875 
Q 42.328125 -1.421875 30.609375 -1.421875 
Q 18.84375 -1.421875 12.171875 6.21875 
Q 5.515625 13.875 5.515625 27.296875 
Q 5.515625 40.765625 12.171875 48.375 
Q 18.84375 56 30.609375 56 
z
" id="DejaVuSans-111"/>
     <path d="M 2.984375 54.6875 
L 12.5 54.6875 
L 29.59375 8.796875 
L 46.6875 54.6875 
L 56.203125 54.6875 
L 35.6875 0 
L 23.484375 0 
z
" id="DejaVuSans-118"/>
     <path d="M 41.109375 46.296875 
Q 39.59375 47.171875 37.8125 47.578125 
Q 36.03125 48 33.890625 48 
Q 26.265625 48 22.1875 43.046875 
Q 18.109375 38.09375 18.109375 28.8125 
L 18.109375 0 
L 9.078125 0 
L 9.078125 54.6875 
L 18.109375 54.6875 
L 18.109375 46.1875 
Q 20.953125 51.171875 25.484375 53.578125 
Q 30.03125 56 36.53125 56 
Q 37.453125 56 38.578125 55.875 
Q 39.703125 55.765625 41.0625 55.515625 
z
" id="DejaVuSans-114"/>
     <path d="M 9.421875 54.6875 
L 18.40625 54.6875 
L 18.40625 0 
L 9.421875 0 
z
M 9.421875 75.984375 
L 18.40625 75.984375 
L 18.40625 64.59375 
L 9.421875 64.59375 
z
" id="DejaVuSans-105"/>
    </defs>
    <g transform="translate(181.25125 37.2)scale(0.12 -0.12)">
     <use xlink:href="#DejaVuSans-99"/>
     <use x="54.980469" xlink:href="#DejaVuSans-111"/>
     <use x="116.162109" xlink:href="#DejaVuSans-110"/>
     <use x="179.541016" xlink:href="#DejaVuSans-118"/>
     <use x="238.720703" xlink:href="#DejaVuSans-101"/>
     <use x="300.244141" xlink:href="#DejaVuSans-114"/>
     <use x="341.357422" xlink:href="#DejaVuSans-115"/>
     <use x="393.457031" xlink:href="#DejaVuSans-105"/>
     <use x="421.240234" xlink:href="#DejaVuSans-111"/>
     <use x="482.421875" xlink:href="#DejaVuSans-110"/>
    </g>
   </g>
  </g>
  <g id="axes_2">
   <g id="patch_7">
    <path d="M 400 315 
L 648 315 
L 648 43.2 
L 400 43.2 
z
" style="fill:#ffffff;"/>
   </g>
   <g id="matplotlib.axis_3">
    <g id="xtick_5">
     <g id="line2d_61">
      <g>
       <use style="stroke:#000000;stroke-width:0.8;" x="411.272727" xlink:href="#me41e8701a7" y="315"/>
      </g>
     </g>
     <g id="text_13">
      <!-- 0 -->
      <g transform="translate(408.091477 326.098437)scale(0.1 -0.1)">
       <use xlink:href="#DejaVuSans-48"/>
      </g>
     </g>
    </g>
    <g id="xtick_6">
     <g id="line2d_62">
      <g>
       <use style="stroke:#000000;stroke-width:0.8;" x="486.424242" xlink:href="#me41e8701a7" y="315"/>
      </g>
     </g>
     <g id="text_14">
      <!-- 1 -->
      <g transform="translate(483.242992 326.098437)scale(0.1 -0.1)">
       <use xlink:href="#DejaVuSans-49"/>
      </g>
     </g>
    </g>
    <g id="xtick_7">
     <g id="line2d_63">
      <g>
       <use style="stroke:#000000;stroke-width:0.8;" x="561.575758" xlink:href="#me41e8701a7" y="315"/>
      </g>
     </g>
     <g id="text_15">
      <!-- 2 -->
      <g transform="translate(558.394508 326.098437)scale(0.1 -0.1)">
       <use xlink:href="#DejaVuSans-50"/>
      </g>
     </g>
    </g>
    <g id="xtick_8">
     <g id="line2d_64">
      <g>
       <use style="stroke:#000000;stroke-width:0.8;" x="636.727273" xlink:href="#me41e8701a7" y="315"/>
      </g>
     </g>
     <g id="text_16">
      <!-- 3 -->
      <g transform="translate(633.546023 326.098437)scale(0.1 -0.1)">
       <use xlink:href="#DejaVuSans-51"/>
      </g>
     </g>
    </g>
    <g id="text_17">
     <!-- Batch -->
     <g transform="translate(509.627344 339.776563)scale(0.1 -0.1)">
      <use xlink:href="#DejaVuSans-66"/>
      <use x="68.603516" xlink:href="#DejaVuSans-97"/>
      <use x="129.882812" xlink:href="#DejaVuSans-116"/>
      <use x="169.091797" xlink:href="#DejaVuSans-99"/>
      <use x="224.072266" xlink:href="#DejaVuSans-104"/>
     </g>
    </g>
   </g>
   <g id="matplotlib.axis_4">
    <g id="ytick_54">
     <g id="line2d_65">
      <g>
       <use style="stroke:#000000;stroke-width:0.8;" x="400" xlink:href="#mf621862363" y="291.65787"/>
      </g>
     </g>
     <g id="text_18">
      <!-- $\mathdefault{10^{1}}$ -->
      <g transform="translate(378.9 295.457089)scale(0.1 -0.1)">
       <use transform="translate(0 0.684375)" xlink:href="#DejaVuSans-49"/>
       <use transform="translate(63.623047 0.684375)" xlink:href="#DejaVuSans-48"/>
       <use transform="translate(128.203125 38.965625)scale(0.7)" xlink:href="#DejaVuSans-49"/>
      </g>
     </g>
    </g>
    <g id="ytick_55">
     <g id="line2d_66">
      <g>
       <use style="stroke:#000000;stroke-width:0.8;" x="400" xlink:href="#mf621862363" y="241.023871"/>
      </g>
     </g>
     <g id="text_19">
      <!-- $\mathdefault{10^{2}}$ -->
      <g transform="translate(378.9 244.82309)scale(0.1 -0.1)">
       <use transform="translate(0 0.765625)" xlink:href="#DejaVuSans-49"/>
       <use transform="translate(63.623047 0.765625)" xlink:href="#DejaVuSans-48"/>
       <use transform="translate(128.203125 39.046875)scale(0.7)" xlink:href="#DejaVuSans-50"/>
      </g>
     </g>
    </g>
    <g id="ytick_56">
     <g id="line2d_67">
      <g>
       <use style="stroke:#000000;stroke-width:0.8;" x="400" xlink:href="#mf621862363" y="190.389872"/>
      </g>
     </g>
     <g id="text_20">
      <!-- $\mathdefault{10^{3}}$ -->
      <g transform="translate(378.9 194.189091)scale(0.1 -0.1)">
       <use transform="translate(0 0.765625)" xlink:href="#DejaVuSans-49"/>
       <use transform="translate(63.623047 0.765625)" xlink:href="#DejaVuSans-48"/>
       <use transform="translate(128.203125 39.046875)scale(0.7)" xlink:href="#DejaVuSans-51"/>
      </g>
     </g>
    </g>
    <g id="ytick_57">
     <g id="line2d_68">
      <g>
       <use style="stroke:#000000;stroke-width:0.8;" x="400" xlink:href="#mf621862363" y="139.755874"/>
      </g>
     </g>
     <g id="text_21">
      <!-- $\mathdefault{10^{4}}$ -->
      <g transform="translate(378.9 143.555092)scale(0.1 -0.1)">
       <use transform="translate(0 0.684375)" xlink:href="#DejaVuSans-49"/>
       <use transform="translate(63.623047 0.684375)" xlink:href="#DejaVuSans-48"/>
       <use transform="translate(128.203125 38.965625)scale(0.7)" xlink:href="#DejaVuSans-52"/>
      </g>
     </g>
    </g>
    <g id="ytick_58">
     <g id="line2d_69">
      <g>
       <use style="stroke:#000000;stroke-width:0.8;" x="400" xlink:href="#mf621862363" y="89.121875"/>
      </g>
     </g>
     <g id="text_22">
      <!-- $\mathdefault{10^{5}}$ -->
      <g transform="translate(378.9 92.921094)scale(0.1 -0.1)">
       <use transform="translate(0 0.684375)" xlink:href="#DejaVuSans-49"/>
       <use transform="translate(63.623047 0.684375)" xlink:href="#DejaVuSans-48"/>
       <use transform="translate(128.203125 38.965625)scale(0.7)" xlink:href="#DejaVuSans-53"/>
      </g>
     </g>
    </g>
    <g id="ytick_59">
     <g id="line2d_70">
      <g>
       <use style="stroke:#000000;stroke-width:0.6;" x="400" xlink:href="#me556ff0228" y="311.807164"/>
      </g>
     </g>
    </g>
    <g id="ytick_60">
     <g id="line2d_71">
      <g>
       <use style="stroke:#000000;stroke-width:0.6;" x="400" xlink:href="#me556ff0228" y="306.900223"/>
      </g>
     </g>
    </g>
    <g id="ytick_61">
     <g id="line2d_72">
      <g>
       <use style="stroke:#000000;stroke-width:0.6;" x="400" xlink:href="#me556ff0228" y="302.890959"/>
      </g>
     </g>
    </g>
    <g id="ytick_62">
     <g id="line2d_73">
      <g>
       <use style="stroke:#000000;stroke-width:0.6;" x="400" xlink:href="#me556ff0228" y="299.501176"/>
      </g>
     </g>
    </g>
    <g id="ytick_63">
     <g id="line2d_74">
      <g>
       <use style="stroke:#000000;stroke-width:0.6;" x="400" xlink:href="#me556ff0228" y="296.564812"/>
      </g>
     </g>
    </g>
    <g id="ytick_64">
     <g id="line2d_75">
      <g>
       <use style="stroke:#000000;stroke-width:0.6;" x="400" xlink:href="#me556ff0228" y="293.974755"/>
      </g>
     </g>
    </g>
    <g id="ytick_65">
     <g id="line2d_76">
      <g>
       <use style="stroke:#000000;stroke-width:0.6;" x="400" xlink:href="#me556ff0228" y="276.415518"/>
      </g>
     </g>
    </g>
    <g id="ytick_66">
     <g id="line2d_77">
      <g>
       <use style="stroke:#000000;stroke-width:0.6;" x="400" xlink:href="#me556ff0228" y="267.499313"/>
      </g>
     </g>
    </g>
    <g id="ytick_67">
     <g id="line2d_78">
      <g>
       <use style="stroke:#000000;stroke-width:0.6;" x="400" xlink:href="#me556ff0228" y="261.173165"/>
      </g>
     </g>
    </g>
    <g id="ytick_68">
     <g id="line2d_79">
      <g>
       <use style="stroke:#000000;stroke-width:0.6;" x="400" xlink:href="#me556ff0228" y="256.266224"/>
      </g>
     </g>
    </g>
    <g id="ytick_69">
     <g id="line2d_80">
      <g>
       <use style="stroke:#000000;stroke-width:0.6;" x="400" xlink:href="#me556ff0228" y="252.256961"/>
      </g>
     </g>
    </g>
    <g id="ytick_70">
     <g id="line2d_81">
      <g>
       <use style="stroke:#000000;stroke-width:0.6;" x="400" xlink:href="#me556ff0228" y="248.867177"/>
      </g>
     </g>
    </g>
    <g id="ytick_71">
     <g id="line2d_82">
      <g>
       <use style="stroke:#000000;stroke-width:0.6;" x="400" xlink:href="#me556ff0228" y="245.930813"/>
      </g>
     </g>
    </g>
    <g id="ytick_72">
     <g id="line2d_83">
      <g>
       <use style="stroke:#000000;stroke-width:0.6;" x="400" xlink:href="#me556ff0228" y="243.340756"/>
      </g>
     </g>
    </g>
    <g id="ytick_73">
     <g id="line2d_84">
      <g>
       <use style="stroke:#000000;stroke-width:0.6;" x="400" xlink:href="#me556ff0228" y="225.781519"/>
      </g>
     </g>
    </g>
    <g id="ytick_74">
     <g id="line2d_85">
      <g>
       <use style="stroke:#000000;stroke-width:0.6;" x="400" xlink:href="#me556ff0228" y="216.865314"/>
      </g>
     </g>
    </g>
    <g id="ytick_75">
     <g id="line2d_86">
      <g>
       <use style="stroke:#000000;stroke-width:0.6;" x="400" xlink:href="#me556ff0228" y="210.539166"/>
      </g>
     </g>
    </g>
    <g id="ytick_76">
     <g id="line2d_87">
      <g>
       <use style="stroke:#000000;stroke-width:0.6;" x="400" xlink:href="#me556ff0228" y="205.632225"/>
      </g>
     </g>
    </g>
    <g id="ytick_77">
     <g id="line2d_88">
      <g>
       <use style="stroke:#000000;stroke-width:0.6;" x="400" xlink:href="#me556ff0228" y="201.622962"/>
      </g>
     </g>
    </g>
    <g id="ytick_78">
     <g id="line2d_89">
      <g>
       <use style="stroke:#000000;stroke-width:0.6;" x="400" xlink:href="#me556ff0228" y="198.233178"/>
      </g>
     </g>
    </g>
    <g id="ytick_79">
     <g id="line2d_90">
      <g>
       <use style="stroke:#000000;stroke-width:0.6;" x="400" xlink:href="#me556ff0228" y="195.296814"/>
      </g>
     </g>
    </g>
    <g id="ytick_80">
     <g id="line2d_91">
      <g>
       <use style="stroke:#000000;stroke-width:0.6;" x="400" xlink:href="#me556ff0228" y="192.706757"/>
      </g>
     </g>
    </g>
    <g id="ytick_81">
     <g id="line2d_92">
      <g>
       <use style="stroke:#000000;stroke-width:0.6;" x="400" xlink:href="#me556ff0228" y="175.14752"/>
      </g>
     </g>
    </g>
    <g id="ytick_82">
     <g id="line2d_93">
      <g>
       <use style="stroke:#000000;stroke-width:0.6;" x="400" xlink:href="#me556ff0228" y="166.231315"/>
      </g>
     </g>
    </g>
    <g id="ytick_83">
     <g id="line2d_94">
      <g>
       <use style="stroke:#000000;stroke-width:0.6;" x="400" xlink:href="#me556ff0228" y="159.905168"/>
      </g>
     </g>
    </g>
    <g id="ytick_84">
     <g id="line2d_95">
      <g>
       <use style="stroke:#000000;stroke-width:0.6;" x="400" xlink:href="#me556ff0228" y="154.998226"/>
      </g>
     </g>
    </g>
    <g id="ytick_85">
     <g id="line2d_96">
      <g>
       <use style="stroke:#000000;stroke-width:0.6;" x="400" xlink:href="#me556ff0228" y="150.988963"/>
      </g>
     </g>
    </g>
    <g id="ytick_86">
     <g id="line2d_97">
      <g>
       <use style="stroke:#000000;stroke-width:0.6;" x="400" xlink:href="#me556ff0228" y="147.599179"/>
      </g>
     </g>
    </g>
    <g id="ytick_87">
     <g id="line2d_98">
      <g>
       <use style="stroke:#000000;stroke-width:0.6;" x="400" xlink:href="#me556ff0228" y="144.662815"/>
      </g>
     </g>
    </g>
    <g id="ytick_88">
     <g id="line2d_99">
      <g>
       <use style="stroke:#000000;stroke-width:0.6;" x="400" xlink:href="#me556ff0228" y="142.072758"/>
      </g>
     </g>
    </g>
    <g id="ytick_89">
     <g id="line2d_100">
      <g>
       <use style="stroke:#000000;stroke-width:0.6;" x="400" xlink:href="#me556ff0228" y="124.513521"/>
      </g>
     </g>
    </g>
    <g id="ytick_90">
     <g id="line2d_101">
      <g>
       <use style="stroke:#000000;stroke-width:0.6;" x="400" xlink:href="#me556ff0228" y="115.597317"/>
      </g>
     </g>
    </g>
    <g id="ytick_91">
     <g id="line2d_102">
      <g>
       <use style="stroke:#000000;stroke-width:0.6;" x="400" xlink:href="#me556ff0228" y="109.271169"/>
      </g>
     </g>
    </g>
    <g id="ytick_92">
     <g id="line2d_103">
      <g>
       <use style="stroke:#000000;stroke-width:0.6;" x="400" xlink:href="#me556ff0228" y="104.364227"/>
      </g>
     </g>
    </g>
    <g id="ytick_93">
     <g id="line2d_104">
      <g>
       <use style="stroke:#000000;stroke-width:0.6;" x="400" xlink:href="#me556ff0228" y="100.354964"/>
      </g>
     </g>
    </g>
    <g id="ytick_94">
     <g id="line2d_105">
      <g>
       <use style="stroke:#000000;stroke-width:0.6;" x="400" xlink:href="#me556ff0228" y="96.965181"/>
      </g>
     </g>
    </g>
    <g id="ytick_95">
     <g id="line2d_106">
      <g>
       <use style="stroke:#000000;stroke-width:0.6;" x="400" xlink:href="#me556ff0228" y="94.028816"/>
      </g>
     </g>
    </g>
    <g id="ytick_96">
     <g id="line2d_107">
      <g>
       <use style="stroke:#000000;stroke-width:0.6;" x="400" xlink:href="#me556ff0228" y="91.43876"/>
      </g>
     </g>
    </g>
    <g id="ytick_97">
     <g id="line2d_108">
      <g>
       <use style="stroke:#000000;stroke-width:0.6;" x="400" xlink:href="#me556ff0228" y="73.879522"/>
      </g>
     </g>
    </g>
    <g id="ytick_98">
     <g id="line2d_109">
      <g>
       <use style="stroke:#000000;stroke-width:0.6;" x="400" xlink:href="#me556ff0228" y="64.963318"/>
      </g>
     </g>
    </g>
    <g id="ytick_99">
     <g id="line2d_110">
      <g>
       <use style="stroke:#000000;stroke-width:0.6;" x="400" xlink:href="#me556ff0228" y="58.63717"/>
      </g>
     </g>
    </g>
    <g id="ytick_100">
     <g id="line2d_111">
      <g>
       <use style="stroke:#000000;stroke-width:0.6;" x="400" xlink:href="#me556ff0228" y="53.730229"/>
      </g>
     </g>
    </g>
    <g id="ytick_101">
     <g id="line2d_112">
      <g>
       <use style="stroke:#000000;stroke-width:0.6;" x="400" xlink:href="#me556ff0228" y="49.720965"/>
      </g>
     </g>
    </g>
    <g id="ytick_102">
     <g id="line2d_113">
      <g>
       <use style="stroke:#000000;stroke-width:0.6;" x="400" xlink:href="#me556ff0228" y="46.331182"/>
      </g>
     </g>
    </g>
    <g id="ytick_103">
     <g id="line2d_114">
      <g>
       <use style="stroke:#000000;stroke-width:0.6;" x="400" xlink:href="#me556ff0228" y="43.394818"/>
      </g>
     </g>
    </g>
    <g id="text_23">
     <!-- Lengthscale -->
     <g transform="translate(372.820312 209.317187)rotate(-90)scale(0.1 -0.1)">
      <use xlink:href="#DejaVuSans-76"/>
      <use x="55.697266" xlink:href="#DejaVuSans-101"/>
      <use x="117.220703" xlink:href="#DejaVuSans-110"/>
      <use x="180.599609" xlink:href="#DejaVuSans-103"/>
      <use x="244.076172" xlink:href="#DejaVuSans-116"/>
      <use x="283.285156" xlink:href="#DejaVuSans-104"/>
      <use x="346.664062" xlink:href="#DejaVuSans-115"/>
      <use x="398.763672" xlink:href="#DejaVuSans-99"/>
      <use x="453.744141" xlink:href="#DejaVuSans-97"/>
      <use x="515.023438" xlink:href="#DejaVuSans-108"/>
      <use x="542.806641" xlink:href="#DejaVuSans-101"/>
     </g>
    </g>
   </g>
   <g id="line2d_115">
    <path clip-path="url(#p5ac7ec293c)" d="M 411.272727 55.554545 
L 486.424242 239.764772 
L 561.575758 237.628901 
L 636.727273 215.757559 
" style="fill:none;stroke:#1f77b4;stroke-linecap:square;stroke-width:1.5;"/>
   </g>
   <g id="line2d_116">
    <path clip-path="url(#p5ac7ec293c)" d="M 411.272727 290.882828 
L 486.424242 229.006205 
L 561.575758 232.580556 
L 636.727273 274.312306 
" style="fill:none;stroke:#ff7f0e;stroke-dasharray:5.55,2.4;stroke-dashoffset:0;stroke-width:1.5;"/>
   </g>
   <g id="line2d_117">
    <path clip-path="url(#p5ac7ec293c)" d="M 411.272727 265.368712 
L 486.424242 237.552007 
L 561.575758 232.962208 
L 636.727273 302.645455 
" style="fill:none;stroke:#2ca02c;stroke-dasharray:1.5,2.475;stroke-dashoffset:0;stroke-width:1.5;"/>
   </g>
   <g id="patch_8">
    <path d="M 400 315 
L 400 43.2 
" style="fill:none;stroke:#000000;stroke-linecap:square;stroke-linejoin:miter;stroke-width:0.8;"/>
   </g>
   <g id="patch_9">
    <path d="M 648 315 
L 648 43.2 
" style="fill:none;stroke:#000000;stroke-linecap:square;stroke-linejoin:miter;stroke-width:0.8;"/>
   </g>
   <g id="patch_10">
    <path d="M 400 315 
L 648 315 
" style="fill:none;stroke:#000000;stroke-linecap:square;stroke-linejoin:miter;stroke-width:0.8;"/>
   </g>
   <g id="patch_11">
    <path d="M 400 43.2 
L 648 43.2 
" style="fill:none;stroke:#000000;stroke-linecap:square;stroke-linejoin:miter;stroke-width:0.8;"/>
   </g>
   <g id="text_24">
    <!-- de -->
    <defs>
     <path d="M 45.40625 46.390625 
L 45.40625 75.984375 
L 54.390625 75.984375 
L 54.390625 0 
L 45.40625 0 
L 45.40625 8.203125 
Q 42.578125 3.328125 38.25 0.953125 
Q 33.9375 -1.421875 27.875 -1.421875 
Q 17.96875 -1.421875 11.734375 6.484375 
Q 5.515625 14.40625 5.515625 27.296875 
Q 5.515625 40.1875 11.734375 48.09375 
Q 17.96875 56 27.875 56 
Q 33.9375 56 38.25 53.625 
Q 42.578125 51.265625 45.40625 46.390625 
z
M 14.796875 27.296875 
Q 14.796875 17.390625 18.875 11.75 
Q 22.953125 6.109375 30.078125 6.109375 
Q 37.203125 6.109375 41.296875 11.75 
Q 45.40625 17.390625 45.40625 27.296875 
Q 45.40625 37.203125 41.296875 42.84375 
Q 37.203125 48.484375 30.078125 48.484375 
Q 22.953125 48.484375 18.875 42.84375 
Q 14.796875 37.203125 14.796875 27.296875 
z
" id="DejaVuSans-100"/>
    </defs>
    <g transform="translate(516.499063 37.2)scale(0.12 -0.12)">
     <use xlink:href="#DejaVuSans-100"/>
     <use x="63.476562" xlink:href="#DejaVuSans-101"/>
    </g>
   </g>
   <g id="legend_1">
    <g id="patch_12">
     <path d="M 688.825 95.234375 
L 740.2 95.234375 
Q 742.2 95.234375 742.2 93.234375 
L 742.2 50.2 
Q 742.2 48.2 740.2 48.2 
L 688.825 48.2 
Q 686.825 48.2 686.825 50.2 
L 686.825 93.234375 
Q 686.825 95.234375 688.825 95.234375 
z
" style="fill:#ffffff;opacity:0.8;stroke:#cccccc;stroke-linejoin:miter;"/>
    </g>
    <g id="line2d_118">
     <path d="M 690.825 56.298437 
L 710.825 56.298437 
" style="fill:none;stroke:#1f77b4;stroke-linecap:square;stroke-width:1.5;"/>
    </g>
    <g id="line2d_119"/>
    <g id="text_25">
     <!-- PC0 -->
     <defs>
      <path d="M 19.671875 64.796875 
L 19.671875 37.40625 
L 32.078125 37.40625 
Q 38.96875 37.40625 42.71875 40.96875 
Q 46.484375 44.53125 46.484375 51.125 
Q 46.484375 57.671875 42.71875 61.234375 
Q 38.96875 64.796875 32.078125 64.796875 
z
M 9.8125 72.90625 
L 32.078125 72.90625 
Q 44.34375 72.90625 50.609375 67.359375 
Q 56.890625 61.8125 56.890625 51.125 
Q 56.890625 40.328125 50.609375 34.8125 
Q 44.34375 29.296875 32.078125 29.296875 
L 19.671875 29.296875 
L 19.671875 0 
L 9.8125 0 
z
" id="DejaVuSans-80"/>
      <path d="M 64.40625 67.28125 
L 64.40625 56.890625 
Q 59.421875 61.53125 53.78125 63.8125 
Q 48.140625 66.109375 41.796875 66.109375 
Q 29.296875 66.109375 22.65625 58.46875 
Q 16.015625 50.828125 16.015625 36.375 
Q 16.015625 21.96875 22.65625 14.328125 
Q 29.296875 6.6875 41.796875 6.6875 
Q 48.140625 6.6875 53.78125 8.984375 
Q 59.421875 11.28125 64.40625 15.921875 
L 64.40625 5.609375 
Q 59.234375 2.09375 53.4375 0.328125 
Q 47.65625 -1.421875 41.21875 -1.421875 
Q 24.65625 -1.421875 15.125 8.703125 
Q 5.609375 18.84375 5.609375 36.375 
Q 5.609375 53.953125 15.125 64.078125 
Q 24.65625 74.21875 41.21875 74.21875 
Q 47.75 74.21875 53.53125 72.484375 
Q 59.328125 70.75 64.40625 67.28125 
z
" id="DejaVuSans-67"/>
     </defs>
     <g transform="translate(718.825 59.798437)scale(0.1 -0.1)">
      <use xlink:href="#DejaVuSans-80"/>
      <use x="60.302734" xlink:href="#DejaVuSans-67"/>
      <use x="130.126953" xlink:href="#DejaVuSans-48"/>
     </g>
    </g>
    <g id="line2d_120">
     <path d="M 690.825 70.976562 
L 710.825 70.976562 
" style="fill:none;stroke:#ff7f0e;stroke-dasharray:5.55,2.4;stroke-dashoffset:0;stroke-width:1.5;"/>
    </g>
    <g id="line2d_121"/>
    <g id="text_26">
     <!-- PC1 -->
     <g transform="translate(718.825 74.476562)scale(0.1 -0.1)">
      <use xlink:href="#DejaVuSans-80"/>
      <use x="60.302734" xlink:href="#DejaVuSans-67"/>
      <use x="130.126953" xlink:href="#DejaVuSans-49"/>
     </g>
    </g>
    <g id="line2d_122">
     <path d="M 690.825 85.654687 
L 710.825 85.654687 
" style="fill:none;stroke:#2ca02c;stroke-dasharray:1.5,2.475;stroke-dashoffset:0;stroke-width:1.5;"/>
    </g>
    <g id="line2d_123"/>
    <g id="text_27">
     <!-- PC2 -->
     <g transform="translate(718.825 89.154687)scale(0.1 -0.1)">
      <use xlink:href="#DejaVuSans-80"/>
      <use x="60.302734" xlink:href="#DejaVuSans-67"/>
      <use x="130.126953" xlink:href="#DejaVuSans-50"/>
     </g>
    </g>
   </g>
  </g>
  <g id="text_28">
   <!-- Lengthscales Hyperparameters by Optmization Batch -->
   <defs>
    <path id="DejaVuSans-32"/>
    <path d="M 9.8125 72.90625 
L 19.671875 72.90625 
L 19.671875 43.015625 
L 55.515625 43.015625 
L 55.515625 72.90625 
L 65.375 72.90625 
L 65.375 0 
L 55.515625 0 
L 55.515625 34.71875 
L 19.671875 34.71875 
L 19.671875 0 
L 9.8125 0 
z
" id="DejaVuSans-72"/>
    <path d="M 32.171875 -5.078125 
Q 28.375 -14.84375 24.75 -17.8125 
Q 21.140625 -20.796875 15.09375 -20.796875 
L 7.90625 -20.796875 
L 7.90625 -13.28125 
L 13.1875 -13.28125 
Q 16.890625 -13.28125 18.9375 -11.515625 
Q 21 -9.765625 23.484375 -3.21875 
L 25.09375 0.875 
L 2.984375 54.6875 
L 12.5 54.6875 
L 29.59375 11.921875 
L 46.6875 54.6875 
L 56.203125 54.6875 
z
" id="DejaVuSans-121"/>
    <path d="M 18.109375 8.203125 
L 18.109375 -20.796875 
L 9.078125 -20.796875 
L 9.078125 54.6875 
L 18.109375 54.6875 
L 18.109375 46.390625 
Q 20.953125 51.265625 25.265625 53.625 
Q 29.59375 56 35.59375 56 
Q 45.5625 56 51.78125 48.09375 
Q 58.015625 40.1875 58.015625 27.296875 
Q 58.015625 14.40625 51.78125 6.484375 
Q 45.5625 -1.421875 35.59375 -1.421875 
Q 29.59375 -1.421875 25.265625 0.953125 
Q 20.953125 3.328125 18.109375 8.203125 
z
M 48.6875 27.296875 
Q 48.6875 37.203125 44.609375 42.84375 
Q 40.53125 48.484375 33.40625 48.484375 
Q 26.265625 48.484375 22.1875 42.84375 
Q 18.109375 37.203125 18.109375 27.296875 
Q 18.109375 17.390625 22.1875 11.75 
Q 26.265625 6.109375 33.40625 6.109375 
Q 40.53125 6.109375 44.609375 11.75 
Q 48.6875 17.390625 48.6875 27.296875 
z
" id="DejaVuSans-112"/>
    <path d="M 52 44.1875 
Q 55.375 50.25 60.0625 53.125 
Q 64.75 56 71.09375 56 
Q 79.640625 56 84.28125 50.015625 
Q 88.921875 44.046875 88.921875 33.015625 
L 88.921875 0 
L 79.890625 0 
L 79.890625 32.71875 
Q 79.890625 40.578125 77.09375 44.375 
Q 74.3125 48.1875 68.609375 48.1875 
Q 61.625 48.1875 57.5625 43.546875 
Q 53.515625 38.921875 53.515625 30.90625 
L 53.515625 0 
L 44.484375 0 
L 44.484375 32.71875 
Q 44.484375 40.625 41.703125 44.40625 
Q 38.921875 48.1875 33.109375 48.1875 
Q 26.21875 48.1875 22.15625 43.53125 
Q 18.109375 38.875 18.109375 30.90625 
L 18.109375 0 
L 9.078125 0 
L 9.078125 54.6875 
L 18.109375 54.6875 
L 18.109375 46.1875 
Q 21.1875 51.21875 25.484375 53.609375 
Q 29.78125 56 35.6875 56 
Q 41.65625 56 45.828125 52.96875 
Q 50 49.953125 52 44.1875 
z
" id="DejaVuSans-109"/>
    <path d="M 48.6875 27.296875 
Q 48.6875 37.203125 44.609375 42.84375 
Q 40.53125 48.484375 33.40625 48.484375 
Q 26.265625 48.484375 22.1875 42.84375 
Q 18.109375 37.203125 18.109375 27.296875 
Q 18.109375 17.390625 22.1875 11.75 
Q 26.265625 6.109375 33.40625 6.109375 
Q 40.53125 6.109375 44.609375 11.75 
Q 48.6875 17.390625 48.6875 27.296875 
z
M 18.109375 46.390625 
Q 20.953125 51.265625 25.265625 53.625 
Q 29.59375 56 35.59375 56 
Q 45.5625 56 51.78125 48.09375 
Q 58.015625 40.1875 58.015625 27.296875 
Q 58.015625 14.40625 51.78125 6.484375 
Q 45.5625 -1.421875 35.59375 -1.421875 
Q 29.59375 -1.421875 25.265625 0.953125 
Q 20.953125 3.328125 18.109375 8.203125 
L 18.109375 0 
L 9.078125 0 
L 9.078125 75.984375 
L 18.109375 75.984375 
z
" id="DejaVuSans-98"/>
    <path d="M 39.40625 66.21875 
Q 28.65625 66.21875 22.328125 58.203125 
Q 16.015625 50.203125 16.015625 36.375 
Q 16.015625 22.609375 22.328125 14.59375 
Q 28.65625 6.59375 39.40625 6.59375 
Q 50.140625 6.59375 56.421875 14.59375 
Q 62.703125 22.609375 62.703125 36.375 
Q 62.703125 50.203125 56.421875 58.203125 
Q 50.140625 66.21875 39.40625 66.21875 
z
M 39.40625 74.21875 
Q 54.734375 74.21875 63.90625 63.9375 
Q 73.09375 53.65625 73.09375 36.375 
Q 73.09375 19.140625 63.90625 8.859375 
Q 54.734375 -1.421875 39.40625 -1.421875 
Q 24.03125 -1.421875 14.8125 8.828125 
Q 5.609375 19.09375 5.609375 36.375 
Q 5.609375 53.65625 14.8125 63.9375 
Q 24.03125 74.21875 39.40625 74.21875 
z
" id="DejaVuSans-79"/>
    <path d="M 5.515625 54.6875 
L 48.1875 54.6875 
L 48.1875 46.484375 
L 14.40625 7.171875 
L 48.1875 7.171875 
L 48.1875 0 
L 4.296875 0 
L 4.296875 8.203125 
L 38.09375 47.515625 
L 5.515625 47.515625 
z
" id="DejaVuSans-122"/>
   </defs>
   <g transform="translate(198.831563 16.318125)scale(0.12 -0.12)">
    <use xlink:href="#DejaVuSans-76"/>
    <use x="55.697266" xlink:href="#DejaVuSans-101"/>
    <use x="117.220703" xlink:href="#DejaVuSans-110"/>
    <use x="180.599609" xlink:href="#DejaVuSans-103"/>
    <use x="244.076172" xlink:href="#DejaVuSans-116"/>
    <use x="283.285156" xlink:href="#DejaVuSans-104"/>
    <use x="346.664062" xlink:href="#DejaVuSans-115"/>
    <use x="398.763672" xlink:href="#DejaVuSans-99"/>
    <use x="453.744141" xlink:href="#DejaVuSans-97"/>
    <use x="515.023438" xlink:href="#DejaVuSans-108"/>
    <use x="542.806641" xlink:href="#DejaVuSans-101"/>
    <use x="604.330078" xlink:href="#DejaVuSans-115"/>
    <use x="656.429688" xlink:href="#DejaVuSans-32"/>
    <use x="688.216797" xlink:href="#DejaVuSans-72"/>
    <use x="763.412109" xlink:href="#DejaVuSans-121"/>
    <use x="822.591797" xlink:href="#DejaVuSans-112"/>
    <use x="886.068359" xlink:href="#DejaVuSans-101"/>
    <use x="947.591797" xlink:href="#DejaVuSans-114"/>
    <use x="988.705078" xlink:href="#DejaVuSans-112"/>
    <use x="1052.181641" xlink:href="#DejaVuSans-97"/>
    <use x="1113.460938" xlink:href="#DejaVuSans-114"/>
    <use x="1154.574219" xlink:href="#DejaVuSans-97"/>
    <use x="1215.853516" xlink:href="#DejaVuSans-109"/>
    <use x="1313.265625" xlink:href="#DejaVuSans-101"/>
    <use x="1374.789062" xlink:href="#DejaVuSans-116"/>
    <use x="1413.998047" xlink:href="#DejaVuSans-101"/>
    <use x="1475.521484" xlink:href="#DejaVuSans-114"/>
    <use x="1516.634766" xlink:href="#DejaVuSans-115"/>
    <use x="1568.734375" xlink:href="#DejaVuSans-32"/>
    <use x="1600.521484" xlink:href="#DejaVuSans-98"/>
    <use x="1663.998047" xlink:href="#DejaVuSans-121"/>
    <use x="1723.177734" xlink:href="#DejaVuSans-32"/>
    <use x="1754.964844" xlink:href="#DejaVuSans-79"/>
    <use x="1833.675781" xlink:href="#DejaVuSans-112"/>
    <use x="1897.152344" xlink:href="#DejaVuSans-116"/>
    <use x="1936.361328" xlink:href="#DejaVuSans-109"/>
    <use x="2033.773438" xlink:href="#DejaVuSans-105"/>
    <use x="2061.556641" xlink:href="#DejaVuSans-122"/>
    <use x="2114.046875" xlink:href="#DejaVuSans-97"/>
    <use x="2175.326172" xlink:href="#DejaVuSans-116"/>
    <use x="2214.535156" xlink:href="#DejaVuSans-105"/>
    <use x="2242.318359" xlink:href="#DejaVuSans-111"/>
    <use x="2303.5" xlink:href="#DejaVuSans-110"/>
    <use x="2366.878906" xlink:href="#DejaVuSans-32"/>
    <use x="2398.666016" xlink:href="#DejaVuSans-66"/>
    <use x="2467.269531" xlink:href="#DejaVuSans-97"/>
    <use x="2528.548828" xlink:href="#DejaVuSans-116"/>
    <use x="2567.757812" xlink:href="#DejaVuSans-99"/>
    <use x="2622.738281" xlink:href="#DejaVuSans-104"/>
   </g>
  </g>
 </g>
 <defs>
  <clipPath id="pb7d8cfb0af">
   <rect height="271.8" width="248" x="90" y="43.2"/>
  </clipPath>
  <clipPath id="p5ac7ec293c">
   <rect height="271.8" width="248" x="400" y="43.2"/>
  </clipPath>
 </defs>
</svg>
