<?xml version="1.0" encoding="utf-8" standalone="no"?>
<!DOCTYPE svg PUBLIC "-//W3C//DTD SVG 1.1//EN"
  "http://www.w3.org/Graphics/SVG/1.1/DTD/svg11.dtd">
<!-- Created with matplotlib (https://matplotlib.org/) -->
<svg height="576pt" version="1.1" viewBox="0 0 576 576" width="576pt" xmlns="http://www.w3.org/2000/svg" xmlns:xlink="http://www.w3.org/1999/xlink">
 <defs>
  <style type="text/css">
*{stroke-linecap:butt;stroke-linejoin:round;}
  </style>
 </defs>
 <g id="figure_1">
  <g id="patch_1">
   <path d="M 0 576 
L 576 576 
L 576 0 
L 0 0 
z
" style="fill:#ffffff;"/>
  </g>
  <g id="axes_1">
   <g id="patch_2">
    <path d="M 72 250.32 
L 270.4 250.32 
L 270.4 69.12 
L 72 69.12 
z
" style="fill:#ffffff;"/>
   </g>
   <g id="matplotlib.axis_1">
    <g id="xtick_1">
     <g id="line2d_1">
      <defs>
       <path d="M 0 0 
L 0 -3.5 
" id="ma5d7e4ba46" style="stroke:#000000;stroke-width:0.8;"/>
      </defs>
      <g>
       <use style="stroke:#000000;stroke-width:0.8;" x="81.018182" xlink:href="#ma5d7e4ba46" y="250.32"/>
      </g>
     </g>
     <g id="text_1">
      <!-- 1 -->
      <defs>
       <path d="M 12.40625 8.296875 
L 28.515625 8.296875 
L 28.515625 63.921875 
L 10.984375 60.40625 
L 10.984375 69.390625 
L 28.421875 72.90625 
L 38.28125 72.90625 
L 38.28125 8.296875 
L 54.390625 8.296875 
L 54.390625 0 
L 12.40625 0 
z
" id="DejaVuSans-49"/>
      </defs>
      <g transform="translate(77.836932 261.418437)scale(0.1 -0.1)">
       <use xlink:href="#DejaVuSans-49"/>
      </g>
     </g>
    </g>
    <g id="xtick_2">
     <g id="line2d_2">
      <g>
       <use style="stroke:#000000;stroke-width:0.8;" x="106.784416" xlink:href="#ma5d7e4ba46" y="250.32"/>
      </g>
     </g>
     <g id="text_2">
      <!-- 2 -->
      <defs>
       <path d="M 19.1875 8.296875 
L 53.609375 8.296875 
L 53.609375 0 
L 7.328125 0 
L 7.328125 8.296875 
Q 12.9375 14.109375 22.625 23.890625 
Q 32.328125 33.6875 34.8125 36.53125 
Q 39.546875 41.84375 41.421875 45.53125 
Q 43.3125 49.21875 43.3125 52.78125 
Q 43.3125 58.59375 39.234375 62.25 
Q 35.15625 65.921875 28.609375 65.921875 
Q 23.96875 65.921875 18.8125 64.3125 
Q 13.671875 62.703125 7.8125 59.421875 
L 7.8125 69.390625 
Q 13.765625 71.78125 18.9375 73 
Q 24.125 74.21875 28.421875 74.21875 
Q 39.75 74.21875 46.484375 68.546875 
Q 53.21875 62.890625 53.21875 53.421875 
Q 53.21875 48.921875 51.53125 44.890625 
Q 49.859375 40.875 45.40625 35.40625 
Q 44.1875 33.984375 37.640625 27.21875 
Q 31.109375 20.453125 19.1875 8.296875 
z
" id="DejaVuSans-50"/>
      </defs>
      <g transform="translate(103.603166 261.418437)scale(0.1 -0.1)">
       <use xlink:href="#DejaVuSans-50"/>
      </g>
     </g>
    </g>
    <g id="xtick_3">
     <g id="line2d_3">
      <g>
       <use style="stroke:#000000;stroke-width:0.8;" x="132.550649" xlink:href="#ma5d7e4ba46" y="250.32"/>
      </g>
     </g>
     <g id="text_3">
      <!-- 3 -->
      <defs>
       <path d="M 40.578125 39.3125 
Q 47.65625 37.796875 51.625 33 
Q 55.609375 28.21875 55.609375 21.1875 
Q 55.609375 10.40625 48.1875 4.484375 
Q 40.765625 -1.421875 27.09375 -1.421875 
Q 22.515625 -1.421875 17.65625 -0.515625 
Q 12.796875 0.390625 7.625 2.203125 
L 7.625 11.71875 
Q 11.71875 9.328125 16.59375 8.109375 
Q 21.484375 6.890625 26.8125 6.890625 
Q 36.078125 6.890625 40.9375 10.546875 
Q 45.796875 14.203125 45.796875 21.1875 
Q 45.796875 27.640625 41.28125 31.265625 
Q 36.765625 34.90625 28.71875 34.90625 
L 20.21875 34.90625 
L 20.21875 43.015625 
L 29.109375 43.015625 
Q 36.375 43.015625 40.234375 45.921875 
Q 44.09375 48.828125 44.09375 54.296875 
Q 44.09375 59.90625 40.109375 62.90625 
Q 36.140625 65.921875 28.71875 65.921875 
Q 24.65625 65.921875 20.015625 65.03125 
Q 15.375 64.15625 9.8125 62.3125 
L 9.8125 71.09375 
Q 15.4375 72.65625 20.34375 73.4375 
Q 25.25 74.21875 29.59375 74.21875 
Q 40.828125 74.21875 47.359375 69.109375 
Q 53.90625 64.015625 53.90625 55.328125 
Q 53.90625 49.265625 50.4375 45.09375 
Q 46.96875 40.921875 40.578125 39.3125 
z
" id="DejaVuSans-51"/>
      </defs>
      <g transform="translate(129.369399 261.418437)scale(0.1 -0.1)">
       <use xlink:href="#DejaVuSans-51"/>
      </g>
     </g>
    </g>
    <g id="xtick_4">
     <g id="line2d_4">
      <g>
       <use style="stroke:#000000;stroke-width:0.8;" x="158.316883" xlink:href="#ma5d7e4ba46" y="250.32"/>
      </g>
     </g>
     <g id="text_4">
      <!-- 4 -->
      <defs>
       <path d="M 37.796875 64.3125 
L 12.890625 25.390625 
L 37.796875 25.390625 
z
M 35.203125 72.90625 
L 47.609375 72.90625 
L 47.609375 25.390625 
L 58.015625 25.390625 
L 58.015625 17.1875 
L 47.609375 17.1875 
L 47.609375 0 
L 37.796875 0 
L 37.796875 17.1875 
L 4.890625 17.1875 
L 4.890625 26.703125 
z
" id="DejaVuSans-52"/>
      </defs>
      <g transform="translate(155.135633 261.418437)scale(0.1 -0.1)">
       <use xlink:href="#DejaVuSans-52"/>
      </g>
     </g>
    </g>
    <g id="xtick_5">
     <g id="line2d_5">
      <g>
       <use style="stroke:#000000;stroke-width:0.8;" x="184.083117" xlink:href="#ma5d7e4ba46" y="250.32"/>
      </g>
     </g>
     <g id="text_5">
      <!-- 5 -->
      <defs>
       <path d="M 10.796875 72.90625 
L 49.515625 72.90625 
L 49.515625 64.59375 
L 19.828125 64.59375 
L 19.828125 46.734375 
Q 21.96875 47.46875 24.109375 47.828125 
Q 26.265625 48.1875 28.421875 48.1875 
Q 40.625 48.1875 47.75 41.5 
Q 54.890625 34.8125 54.890625 23.390625 
Q 54.890625 11.625 47.5625 5.09375 
Q 40.234375 -1.421875 26.90625 -1.421875 
Q 22.3125 -1.421875 17.546875 -0.640625 
Q 12.796875 0.140625 7.71875 1.703125 
L 7.71875 11.625 
Q 12.109375 9.234375 16.796875 8.0625 
Q 21.484375 6.890625 26.703125 6.890625 
Q 35.15625 6.890625 40.078125 11.328125 
Q 45.015625 15.765625 45.015625 23.390625 
Q 45.015625 31 40.078125 35.4375 
Q 35.15625 39.890625 26.703125 39.890625 
Q 22.75 39.890625 18.8125 39.015625 
Q 14.890625 38.140625 10.796875 36.28125 
z
" id="DejaVuSans-53"/>
      </defs>
      <g transform="translate(180.901867 261.418437)scale(0.1 -0.1)">
       <use xlink:href="#DejaVuSans-53"/>
      </g>
     </g>
    </g>
    <g id="xtick_6">
     <g id="line2d_6">
      <g>
       <use style="stroke:#000000;stroke-width:0.8;" x="209.849351" xlink:href="#ma5d7e4ba46" y="250.32"/>
      </g>
     </g>
     <g id="text_6">
      <!-- 6 -->
      <defs>
       <path d="M 33.015625 40.375 
Q 26.375 40.375 22.484375 35.828125 
Q 18.609375 31.296875 18.609375 23.390625 
Q 18.609375 15.53125 22.484375 10.953125 
Q 26.375 6.390625 33.015625 6.390625 
Q 39.65625 6.390625 43.53125 10.953125 
Q 47.40625 15.53125 47.40625 23.390625 
Q 47.40625 31.296875 43.53125 35.828125 
Q 39.65625 40.375 33.015625 40.375 
z
M 52.59375 71.296875 
L 52.59375 62.3125 
Q 48.875 64.0625 45.09375 64.984375 
Q 41.3125 65.921875 37.59375 65.921875 
Q 27.828125 65.921875 22.671875 59.328125 
Q 17.53125 52.734375 16.796875 39.40625 
Q 19.671875 43.65625 24.015625 45.921875 
Q 28.375 48.1875 33.59375 48.1875 
Q 44.578125 48.1875 50.953125 41.515625 
Q 57.328125 34.859375 57.328125 23.390625 
Q 57.328125 12.15625 50.6875 5.359375 
Q 44.046875 -1.421875 33.015625 -1.421875 
Q 20.359375 -1.421875 13.671875 8.265625 
Q 6.984375 17.96875 6.984375 36.375 
Q 6.984375 53.65625 15.1875 63.9375 
Q 23.390625 74.21875 37.203125 74.21875 
Q 40.921875 74.21875 44.703125 73.484375 
Q 48.484375 72.75 52.59375 71.296875 
z
" id="DejaVuSans-54"/>
      </defs>
      <g transform="translate(206.668101 261.418437)scale(0.1 -0.1)">
       <use xlink:href="#DejaVuSans-54"/>
      </g>
     </g>
    </g>
    <g id="xtick_7">
     <g id="line2d_7">
      <g>
       <use style="stroke:#000000;stroke-width:0.8;" x="235.615584" xlink:href="#ma5d7e4ba46" y="250.32"/>
      </g>
     </g>
     <g id="text_7">
      <!-- 7 -->
      <defs>
       <path d="M 8.203125 72.90625 
L 55.078125 72.90625 
L 55.078125 68.703125 
L 28.609375 0 
L 18.3125 0 
L 43.21875 64.59375 
L 8.203125 64.59375 
z
" id="DejaVuSans-55"/>
      </defs>
      <g transform="translate(232.434334 261.418437)scale(0.1 -0.1)">
       <use xlink:href="#DejaVuSans-55"/>
      </g>
     </g>
    </g>
    <g id="xtick_8">
     <g id="line2d_8">
      <g>
       <use style="stroke:#000000;stroke-width:0.8;" x="261.381818" xlink:href="#ma5d7e4ba46" y="250.32"/>
      </g>
     </g>
     <g id="text_8">
      <!-- 8 -->
      <defs>
       <path d="M 31.78125 34.625 
Q 24.75 34.625 20.71875 30.859375 
Q 16.703125 27.09375 16.703125 20.515625 
Q 16.703125 13.921875 20.71875 10.15625 
Q 24.75 6.390625 31.78125 6.390625 
Q 38.8125 6.390625 42.859375 10.171875 
Q 46.921875 13.96875 46.921875 20.515625 
Q 46.921875 27.09375 42.890625 30.859375 
Q 38.875 34.625 31.78125 34.625 
z
M 21.921875 38.8125 
Q 15.578125 40.375 12.03125 44.71875 
Q 8.5 49.078125 8.5 55.328125 
Q 8.5 64.0625 14.71875 69.140625 
Q 20.953125 74.21875 31.78125 74.21875 
Q 42.671875 74.21875 48.875 69.140625 
Q 55.078125 64.0625 55.078125 55.328125 
Q 55.078125 49.078125 51.53125 44.71875 
Q 48 40.375 41.703125 38.8125 
Q 48.828125 37.15625 52.796875 32.3125 
Q 56.78125 27.484375 56.78125 20.515625 
Q 56.78125 9.90625 50.3125 4.234375 
Q 43.84375 -1.421875 31.78125 -1.421875 
Q 19.734375 -1.421875 13.25 4.234375 
Q 6.78125 9.90625 6.78125 20.515625 
Q 6.78125 27.484375 10.78125 32.3125 
Q 14.796875 37.15625 21.921875 38.8125 
z
M 18.3125 54.390625 
Q 18.3125 48.734375 21.84375 45.5625 
Q 25.390625 42.390625 31.78125 42.390625 
Q 38.140625 42.390625 41.71875 45.5625 
Q 45.3125 48.734375 45.3125 54.390625 
Q 45.3125 60.0625 41.71875 63.234375 
Q 38.140625 66.40625 31.78125 66.40625 
Q 25.390625 66.40625 21.84375 63.234375 
Q 18.3125 60.0625 18.3125 54.390625 
z
" id="DejaVuSans-56"/>
      </defs>
      <g transform="translate(258.200568 261.418437)scale(0.1 -0.1)">
       <use xlink:href="#DejaVuSans-56"/>
      </g>
     </g>
    </g>
   </g>
   <g id="matplotlib.axis_2">
    <g id="ytick_1">
     <g id="line2d_9">
      <defs>
       <path d="M 0 0 
L 3.5 0 
" id="m5afc9b2180" style="stroke:#000000;stroke-width:0.8;"/>
      </defs>
      <g>
       <use style="stroke:#000000;stroke-width:0.8;" x="72" xlink:href="#m5afc9b2180" y="239.054998"/>
      </g>
     </g>
     <g id="text_9">
      <!-- 2 -->
      <g transform="translate(62.1375 242.854216)scale(0.1 -0.1)">
       <use xlink:href="#DejaVuSans-50"/>
      </g>
     </g>
    </g>
    <g id="ytick_2">
     <g id="line2d_10">
      <g>
       <use style="stroke:#000000;stroke-width:0.8;" x="72" xlink:href="#m5afc9b2180" y="212.47727"/>
      </g>
     </g>
     <g id="text_10">
      <!-- 4 -->
      <g transform="translate(62.1375 216.276489)scale(0.1 -0.1)">
       <use xlink:href="#DejaVuSans-52"/>
      </g>
     </g>
    </g>
    <g id="ytick_3">
     <g id="line2d_11">
      <g>
       <use style="stroke:#000000;stroke-width:0.8;" x="72" xlink:href="#m5afc9b2180" y="185.899543"/>
      </g>
     </g>
     <g id="text_11">
      <!-- 6 -->
      <g transform="translate(62.1375 189.698761)scale(0.1 -0.1)">
       <use xlink:href="#DejaVuSans-54"/>
      </g>
     </g>
    </g>
    <g id="ytick_4">
     <g id="line2d_12">
      <g>
       <use style="stroke:#000000;stroke-width:0.8;" x="72" xlink:href="#m5afc9b2180" y="159.321815"/>
      </g>
     </g>
     <g id="text_12">
      <!-- 8 -->
      <g transform="translate(62.1375 163.121034)scale(0.1 -0.1)">
       <use xlink:href="#DejaVuSans-56"/>
      </g>
     </g>
    </g>
    <g id="ytick_5">
     <g id="line2d_13">
      <g>
       <use style="stroke:#000000;stroke-width:0.8;" x="72" xlink:href="#m5afc9b2180" y="132.744088"/>
      </g>
     </g>
     <g id="text_13">
      <!-- 10 -->
      <defs>
       <path d="M 31.78125 66.40625 
Q 24.171875 66.40625 20.328125 58.90625 
Q 16.5 51.421875 16.5 36.375 
Q 16.5 21.390625 20.328125 13.890625 
Q 24.171875 6.390625 31.78125 6.390625 
Q 39.453125 6.390625 43.28125 13.890625 
Q 47.125 21.390625 47.125 36.375 
Q 47.125 51.421875 43.28125 58.90625 
Q 39.453125 66.40625 31.78125 66.40625 
z
M 31.78125 74.21875 
Q 44.046875 74.21875 50.515625 64.515625 
Q 56.984375 54.828125 56.984375 36.375 
Q 56.984375 17.96875 50.515625 8.265625 
Q 44.046875 -1.421875 31.78125 -1.421875 
Q 19.53125 -1.421875 13.0625 8.265625 
Q 6.59375 17.96875 6.59375 36.375 
Q 6.59375 54.828125 13.0625 64.515625 
Q 19.53125 74.21875 31.78125 74.21875 
z
" id="DejaVuSans-48"/>
      </defs>
      <g transform="translate(55.775 136.543306)scale(0.1 -0.1)">
       <use xlink:href="#DejaVuSans-49"/>
       <use x="63.623047" xlink:href="#DejaVuSans-48"/>
      </g>
     </g>
    </g>
    <g id="ytick_6">
     <g id="line2d_14">
      <g>
       <use style="stroke:#000000;stroke-width:0.8;" x="72" xlink:href="#m5afc9b2180" y="106.16636"/>
      </g>
     </g>
     <g id="text_14">
      <!-- 12 -->
      <g transform="translate(55.775 109.965579)scale(0.1 -0.1)">
       <use xlink:href="#DejaVuSans-49"/>
       <use x="63.623047" xlink:href="#DejaVuSans-50"/>
      </g>
     </g>
    </g>
    <g id="ytick_7">
     <g id="line2d_15">
      <g>
       <use style="stroke:#000000;stroke-width:0.8;" x="72" xlink:href="#m5afc9b2180" y="79.588632"/>
      </g>
     </g>
     <g id="text_15">
      <!-- 14 -->
      <g transform="translate(55.775 83.387851)scale(0.1 -0.1)">
       <use xlink:href="#DejaVuSans-49"/>
       <use x="63.623047" xlink:href="#DejaVuSans-52"/>
      </g>
     </g>
    </g>
    <g id="text_16">
     <!-- Log Lengthscale -->
     <defs>
      <path d="M 9.8125 72.90625 
L 19.671875 72.90625 
L 19.671875 8.296875 
L 55.171875 8.296875 
L 55.171875 0 
L 9.8125 0 
z
" id="DejaVuSans-76"/>
      <path d="M 30.609375 48.390625 
Q 23.390625 48.390625 19.1875 42.75 
Q 14.984375 37.109375 14.984375 27.296875 
Q 14.984375 17.484375 19.15625 11.84375 
Q 23.34375 6.203125 30.609375 6.203125 
Q 37.796875 6.203125 41.984375 11.859375 
Q 46.1875 17.53125 46.1875 27.296875 
Q 46.1875 37.015625 41.984375 42.703125 
Q 37.796875 48.390625 30.609375 48.390625 
z
M 30.609375 56 
Q 42.328125 56 49.015625 48.375 
Q 55.71875 40.765625 55.71875 27.296875 
Q 55.71875 13.875 49.015625 6.21875 
Q 42.328125 -1.421875 30.609375 -1.421875 
Q 18.84375 -1.421875 12.171875 6.21875 
Q 5.515625 13.875 5.515625 27.296875 
Q 5.515625 40.765625 12.171875 48.375 
Q 18.84375 56 30.609375 56 
z
" id="DejaVuSans-111"/>
      <path d="M 45.40625 27.984375 
Q 45.40625 37.75 41.375 43.109375 
Q 37.359375 48.484375 30.078125 48.484375 
Q 22.859375 48.484375 18.828125 43.109375 
Q 14.796875 37.75 14.796875 27.984375 
Q 14.796875 18.265625 18.828125 12.890625 
Q 22.859375 7.515625 30.078125 7.515625 
Q 37.359375 7.515625 41.375 12.890625 
Q 45.40625 18.265625 45.40625 27.984375 
z
M 54.390625 6.78125 
Q 54.390625 -7.171875 48.1875 -13.984375 
Q 42 -20.796875 29.203125 -20.796875 
Q 24.46875 -20.796875 20.265625 -20.09375 
Q 16.0625 -19.390625 12.109375 -17.921875 
L 12.109375 -9.1875 
Q 16.0625 -11.328125 19.921875 -12.34375 
Q 23.78125 -13.375 27.78125 -13.375 
Q 36.625 -13.375 41.015625 -8.765625 
Q 45.40625 -4.15625 45.40625 5.171875 
L 45.40625 9.625 
Q 42.625 4.78125 38.28125 2.390625 
Q 33.9375 0 27.875 0 
Q 17.828125 0 11.671875 7.65625 
Q 5.515625 15.328125 5.515625 27.984375 
Q 5.515625 40.671875 11.671875 48.328125 
Q 17.828125 56 27.875 56 
Q 33.9375 56 38.28125 53.609375 
Q 42.625 51.21875 45.40625 46.390625 
L 45.40625 54.6875 
L 54.390625 54.6875 
z
" id="DejaVuSans-103"/>
      <path id="DejaVuSans-32"/>
      <path d="M 56.203125 29.59375 
L 56.203125 25.203125 
L 14.890625 25.203125 
Q 15.484375 15.921875 20.484375 11.0625 
Q 25.484375 6.203125 34.421875 6.203125 
Q 39.59375 6.203125 44.453125 7.46875 
Q 49.3125 8.734375 54.109375 11.28125 
L 54.109375 2.78125 
Q 49.265625 0.734375 44.1875 -0.34375 
Q 39.109375 -1.421875 33.890625 -1.421875 
Q 20.796875 -1.421875 13.15625 6.1875 
Q 5.515625 13.8125 5.515625 26.8125 
Q 5.515625 40.234375 12.765625 48.109375 
Q 20.015625 56 32.328125 56 
Q 43.359375 56 49.78125 48.890625 
Q 56.203125 41.796875 56.203125 29.59375 
z
M 47.21875 32.234375 
Q 47.125 39.59375 43.09375 43.984375 
Q 39.0625 48.390625 32.421875 48.390625 
Q 24.90625 48.390625 20.390625 44.140625 
Q 15.875 39.890625 15.1875 32.171875 
z
" id="DejaVuSans-101"/>
      <path d="M 54.890625 33.015625 
L 54.890625 0 
L 45.90625 0 
L 45.90625 32.71875 
Q 45.90625 40.484375 42.875 44.328125 
Q 39.84375 48.1875 33.796875 48.1875 
Q 26.515625 48.1875 22.3125 43.546875 
Q 18.109375 38.921875 18.109375 30.90625 
L 18.109375 0 
L 9.078125 0 
L 9.078125 54.6875 
L 18.109375 54.6875 
L 18.109375 46.1875 
Q 21.34375 51.125 25.703125 53.5625 
Q 30.078125 56 35.796875 56 
Q 45.21875 56 50.046875 50.171875 
Q 54.890625 44.34375 54.890625 33.015625 
z
" id="DejaVuSans-110"/>
      <path d="M 18.3125 70.21875 
L 18.3125 54.6875 
L 36.8125 54.6875 
L 36.8125 47.703125 
L 18.3125 47.703125 
L 18.3125 18.015625 
Q 18.3125 11.328125 20.140625 9.421875 
Q 21.96875 7.515625 27.59375 7.515625 
L 36.8125 7.515625 
L 36.8125 0 
L 27.59375 0 
Q 17.1875 0 13.234375 3.875 
Q 9.28125 7.765625 9.28125 18.015625 
L 9.28125 47.703125 
L 2.6875 47.703125 
L 2.6875 54.6875 
L 9.28125 54.6875 
L 9.28125 70.21875 
z
" id="DejaVuSans-116"/>
      <path d="M 54.890625 33.015625 
L 54.890625 0 
L 45.90625 0 
L 45.90625 32.71875 
Q 45.90625 40.484375 42.875 44.328125 
Q 39.84375 48.1875 33.796875 48.1875 
Q 26.515625 48.1875 22.3125 43.546875 
Q 18.109375 38.921875 18.109375 30.90625 
L 18.109375 0 
L 9.078125 0 
L 9.078125 75.984375 
L 18.109375 75.984375 
L 18.109375 46.1875 
Q 21.34375 51.125 25.703125 53.5625 
Q 30.078125 56 35.796875 56 
Q 45.21875 56 50.046875 50.171875 
Q 54.890625 44.34375 54.890625 33.015625 
z
" id="DejaVuSans-104"/>
      <path d="M 44.28125 53.078125 
L 44.28125 44.578125 
Q 40.484375 46.53125 36.375 47.5 
Q 32.28125 48.484375 27.875 48.484375 
Q 21.1875 48.484375 17.84375 46.4375 
Q 14.5 44.390625 14.5 40.28125 
Q 14.5 37.15625 16.890625 35.375 
Q 19.28125 33.59375 26.515625 31.984375 
L 29.59375 31.296875 
Q 39.15625 29.25 43.1875 25.515625 
Q 47.21875 21.78125 47.21875 15.09375 
Q 47.21875 7.46875 41.1875 3.015625 
Q 35.15625 -1.421875 24.609375 -1.421875 
Q 20.21875 -1.421875 15.453125 -0.5625 
Q 10.6875 0.296875 5.421875 2 
L 5.421875 11.28125 
Q 10.40625 8.6875 15.234375 7.390625 
Q 20.0625 6.109375 24.8125 6.109375 
Q 31.15625 6.109375 34.5625 8.28125 
Q 37.984375 10.453125 37.984375 14.40625 
Q 37.984375 18.0625 35.515625 20.015625 
Q 33.0625 21.96875 24.703125 23.78125 
L 21.578125 24.515625 
Q 13.234375 26.265625 9.515625 29.90625 
Q 5.8125 33.546875 5.8125 39.890625 
Q 5.8125 47.609375 11.28125 51.796875 
Q 16.75 56 26.8125 56 
Q 31.78125 56 36.171875 55.265625 
Q 40.578125 54.546875 44.28125 53.078125 
z
" id="DejaVuSans-115"/>
      <path d="M 48.78125 52.59375 
L 48.78125 44.1875 
Q 44.96875 46.296875 41.140625 47.34375 
Q 37.3125 48.390625 33.40625 48.390625 
Q 24.65625 48.390625 19.8125 42.84375 
Q 14.984375 37.3125 14.984375 27.296875 
Q 14.984375 17.28125 19.8125 11.734375 
Q 24.65625 6.203125 33.40625 6.203125 
Q 37.3125 6.203125 41.140625 7.25 
Q 44.96875 8.296875 48.78125 10.40625 
L 48.78125 2.09375 
Q 45.015625 0.34375 40.984375 -0.53125 
Q 36.96875 -1.421875 32.421875 -1.421875 
Q 20.0625 -1.421875 12.78125 6.34375 
Q 5.515625 14.109375 5.515625 27.296875 
Q 5.515625 40.671875 12.859375 48.328125 
Q 20.21875 56 33.015625 56 
Q 37.15625 56 41.109375 55.140625 
Q 45.0625 54.296875 48.78125 52.59375 
z
" id="DejaVuSans-99"/>
      <path d="M 34.28125 27.484375 
Q 23.390625 27.484375 19.1875 25 
Q 14.984375 22.515625 14.984375 16.5 
Q 14.984375 11.71875 18.140625 8.90625 
Q 21.296875 6.109375 26.703125 6.109375 
Q 34.1875 6.109375 38.703125 11.40625 
Q 43.21875 16.703125 43.21875 25.484375 
L 43.21875 27.484375 
z
M 52.203125 31.203125 
L 52.203125 0 
L 43.21875 0 
L 43.21875 8.296875 
Q 40.140625 3.328125 35.546875 0.953125 
Q 30.953125 -1.421875 24.3125 -1.421875 
Q 15.921875 -1.421875 10.953125 3.296875 
Q 6 8.015625 6 15.921875 
Q 6 25.140625 12.171875 29.828125 
Q 18.359375 34.515625 30.609375 34.515625 
L 43.21875 34.515625 
L 43.21875 35.40625 
Q 43.21875 41.609375 39.140625 45 
Q 35.0625 48.390625 27.6875 48.390625 
Q 23 48.390625 18.546875 47.265625 
Q 14.109375 46.140625 10.015625 43.890625 
L 10.015625 52.203125 
Q 14.9375 54.109375 19.578125 55.046875 
Q 24.21875 56 28.609375 56 
Q 40.484375 56 46.34375 49.84375 
Q 52.203125 43.703125 52.203125 31.203125 
z
" id="DejaVuSans-97"/>
      <path d="M 9.421875 75.984375 
L 18.40625 75.984375 
L 18.40625 0 
L 9.421875 0 
z
" id="DejaVuSans-108"/>
     </defs>
     <g transform="translate(49.695312 200.545)rotate(-90)scale(0.1 -0.1)">
      <use xlink:href="#DejaVuSans-76"/>
      <use x="55.697266" xlink:href="#DejaVuSans-111"/>
      <use x="116.878906" xlink:href="#DejaVuSans-103"/>
      <use x="180.355469" xlink:href="#DejaVuSans-32"/>
      <use x="212.142578" xlink:href="#DejaVuSans-76"/>
      <use x="267.839844" xlink:href="#DejaVuSans-101"/>
      <use x="329.363281" xlink:href="#DejaVuSans-110"/>
      <use x="392.742188" xlink:href="#DejaVuSans-103"/>
      <use x="456.21875" xlink:href="#DejaVuSans-116"/>
      <use x="495.427734" xlink:href="#DejaVuSans-104"/>
      <use x="558.806641" xlink:href="#DejaVuSans-115"/>
      <use x="610.90625" xlink:href="#DejaVuSans-99"/>
      <use x="665.886719" xlink:href="#DejaVuSans-97"/>
      <use x="727.166016" xlink:href="#DejaVuSans-108"/>
      <use x="754.949219" xlink:href="#DejaVuSans-101"/>
     </g>
    </g>
   </g>
   <g id="LineCollection_1">
    <path clip-path="url(#p74fc9e2e89)" d="M 81.018182 227.281052 
L 81.018182 165.818383 
" style="fill:none;stroke:#1f77b4;stroke-width:1.5;"/>
    <path clip-path="url(#p74fc9e2e89)" d="M 106.784416 229.45824 
L 106.784416 152.820754 
" style="fill:none;stroke:#1f77b4;stroke-width:1.5;"/>
    <path clip-path="url(#p74fc9e2e89)" d="M 132.550649 215.214674 
L 132.550649 122.475655 
" style="fill:none;stroke:#1f77b4;stroke-width:1.5;"/>
    <path clip-path="url(#p74fc9e2e89)" d="M 158.316883 198.484348 
L 158.316883 106.296879 
" style="fill:none;stroke:#1f77b4;stroke-width:1.5;"/>
    <path clip-path="url(#p74fc9e2e89)" d="M 184.083117 190.22753 
L 184.083117 90.240158 
" style="fill:none;stroke:#1f77b4;stroke-width:1.5;"/>
    <path clip-path="url(#p74fc9e2e89)" d="M 209.849351 184.596103 
L 209.849351 87.164482 
" style="fill:none;stroke:#1f77b4;stroke-width:1.5;"/>
    <path clip-path="url(#p74fc9e2e89)" d="M 235.615584 183.644948 
L 235.615584 82.721037 
" style="fill:none;stroke:#1f77b4;stroke-width:1.5;"/>
    <path clip-path="url(#p74fc9e2e89)" d="M 261.381818 182.874256 
L 261.381818 77.356364 
" style="fill:none;stroke:#1f77b4;stroke-width:1.5;"/>
   </g>
   <g id="LineCollection_2">
    <path clip-path="url(#p74fc9e2e89)" d="M 81.018182 214.666691 
L 81.018182 154.973197 
" style="fill:none;stroke:#ff7f0e;stroke-width:1.5;"/>
    <path clip-path="url(#p74fc9e2e89)" d="M 106.784416 207.240159 
L 106.784416 127.917784 
" style="fill:none;stroke:#ff7f0e;stroke-width:1.5;"/>
    <path clip-path="url(#p74fc9e2e89)" d="M 132.550649 193.769778 
L 132.550649 115.359411 
" style="fill:none;stroke:#ff7f0e;stroke-width:1.5;"/>
    <path clip-path="url(#p74fc9e2e89)" d="M 158.316883 171.065759 
L 158.316883 106.917175 
" style="fill:none;stroke:#ff7f0e;stroke-width:1.5;"/>
    <path clip-path="url(#p74fc9e2e89)" d="M 184.083117 164.100082 
L 184.083117 103.185732 
" style="fill:none;stroke:#ff7f0e;stroke-width:1.5;"/>
    <path clip-path="url(#p74fc9e2e89)" d="M 209.849351 161.841782 
L 209.849351 100.881321 
" style="fill:none;stroke:#ff7f0e;stroke-width:1.5;"/>
    <path clip-path="url(#p74fc9e2e89)" d="M 235.615584 161.101552 
L 235.615584 96.044496 
" style="fill:none;stroke:#ff7f0e;stroke-width:1.5;"/>
    <path clip-path="url(#p74fc9e2e89)" d="M 261.381818 161.306702 
L 261.381818 96.715587 
" style="fill:none;stroke:#ff7f0e;stroke-width:1.5;"/>
   </g>
   <g id="LineCollection_3">
    <path clip-path="url(#p74fc9e2e89)" d="M 81.018182 242.083636 
L 81.018182 218.005544 
" style="fill:none;stroke:#2ca02c;stroke-width:1.5;"/>
    <path clip-path="url(#p74fc9e2e89)" d="M 106.784416 235.322912 
L 106.784416 228.053013 
" style="fill:none;stroke:#2ca02c;stroke-width:1.5;"/>
    <path clip-path="url(#p74fc9e2e89)" d="M 132.550649 233.955178 
L 132.550649 227.991702 
" style="fill:none;stroke:#2ca02c;stroke-width:1.5;"/>
    <path clip-path="url(#p74fc9e2e89)" d="M 158.316883 232.409373 
L 158.316883 227.871517 
" style="fill:none;stroke:#2ca02c;stroke-width:1.5;"/>
    <path clip-path="url(#p74fc9e2e89)" d="M 184.083117 233.00991 
L 184.083117 228.11048 
" style="fill:none;stroke:#2ca02c;stroke-width:1.5;"/>
    <path clip-path="url(#p74fc9e2e89)" d="M 209.849351 232.97854 
L 209.849351 228.332153 
" style="fill:none;stroke:#2ca02c;stroke-width:1.5;"/>
    <path clip-path="url(#p74fc9e2e89)" d="M 235.615584 232.192897 
L 235.615584 228.31224 
" style="fill:none;stroke:#2ca02c;stroke-width:1.5;"/>
    <path clip-path="url(#p74fc9e2e89)" d="M 261.381818 231.898869 
L 261.381818 227.964841 
" style="fill:none;stroke:#2ca02c;stroke-width:1.5;"/>
   </g>
   <g id="line2d_16">
    <path clip-path="url(#p74fc9e2e89)" d="M 81.018182 196.549718 
L 106.784416 191.139497 
L 132.550649 168.845164 
L 158.316883 152.390613 
L 184.083117 140.233844 
L 209.849351 135.880292 
L 235.615584 133.182992 
L 261.381818 130.11531 
" style="fill:none;stroke:#1f77b4;stroke-linecap:square;stroke-width:1.5;"/>
   </g>
   <g id="line2d_17">
    <path clip-path="url(#p74fc9e2e89)" d="M 81.018182 184.819944 
L 106.784416 167.578972 
L 132.550649 154.564594 
L 158.316883 138.991467 
L 184.083117 133.642907 
L 209.849351 131.361551 
L 235.615584 128.573024 
L 261.381818 129.011144 
" style="fill:none;stroke:#ff7f0e;stroke-dasharray:5.55,2.4;stroke-dashoffset:0;stroke-width:1.5;"/>
   </g>
   <g id="line2d_18">
    <path clip-path="url(#p74fc9e2e89)" d="M 81.018182 230.04459 
L 106.784416 231.687962 
L 132.550649 230.97344 
L 158.316883 230.140445 
L 184.083117 230.560195 
L 209.849351 230.655347 
L 235.615584 230.252569 
L 261.381818 229.931855 
" style="fill:none;stroke:#2ca02c;stroke-dasharray:1.5,2.475;stroke-dashoffset:0;stroke-width:1.5;"/>
   </g>
   <g id="patch_3">
    <path d="M 72 250.32 
L 72 69.12 
" style="fill:none;stroke:#000000;stroke-linecap:square;stroke-linejoin:miter;stroke-width:0.8;"/>
   </g>
   <g id="patch_4">
    <path d="M 270.4 250.32 
L 270.4 69.12 
" style="fill:none;stroke:#000000;stroke-linecap:square;stroke-linejoin:miter;stroke-width:0.8;"/>
   </g>
   <g id="patch_5">
    <path d="M 72 250.32 
L 270.4 250.32 
" style="fill:none;stroke:#000000;stroke-linecap:square;stroke-linejoin:miter;stroke-width:0.8;"/>
   </g>
   <g id="patch_6">
    <path d="M 72 69.12 
L 270.4 69.12 
" style="fill:none;stroke:#000000;stroke-linecap:square;stroke-linejoin:miter;stroke-width:0.8;"/>
   </g>
   <g id="text_17">
    <!-- conversion, random rate:0.0 -->
    <defs>
     <path d="M 2.984375 54.6875 
L 12.5 54.6875 
L 29.59375 8.796875 
L 46.6875 54.6875 
L 56.203125 54.6875 
L 35.6875 0 
L 23.484375 0 
z
" id="DejaVuSans-118"/>
     <path d="M 41.109375 46.296875 
Q 39.59375 47.171875 37.8125 47.578125 
Q 36.03125 48 33.890625 48 
Q 26.265625 48 22.1875 43.046875 
Q 18.109375 38.09375 18.109375 28.8125 
L 18.109375 0 
L 9.078125 0 
L 9.078125 54.6875 
L 18.109375 54.6875 
L 18.109375 46.1875 
Q 20.953125 51.171875 25.484375 53.578125 
Q 30.03125 56 36.53125 56 
Q 37.453125 56 38.578125 55.875 
Q 39.703125 55.765625 41.0625 55.515625 
z
" id="DejaVuSans-114"/>
     <path d="M 9.421875 54.6875 
L 18.40625 54.6875 
L 18.40625 0 
L 9.421875 0 
z
M 9.421875 75.984375 
L 18.40625 75.984375 
L 18.40625 64.59375 
L 9.421875 64.59375 
z
" id="DejaVuSans-105"/>
     <path d="M 11.71875 12.40625 
L 22.015625 12.40625 
L 22.015625 4 
L 14.015625 -11.625 
L 7.71875 -11.625 
L 11.71875 4 
z
" id="DejaVuSans-44"/>
     <path d="M 45.40625 46.390625 
L 45.40625 75.984375 
L 54.390625 75.984375 
L 54.390625 0 
L 45.40625 0 
L 45.40625 8.203125 
Q 42.578125 3.328125 38.25 0.953125 
Q 33.9375 -1.421875 27.875 -1.421875 
Q 17.96875 -1.421875 11.734375 6.484375 
Q 5.515625 14.40625 5.515625 27.296875 
Q 5.515625 40.1875 11.734375 48.09375 
Q 17.96875 56 27.875 56 
Q 33.9375 56 38.25 53.625 
Q 42.578125 51.265625 45.40625 46.390625 
z
M 14.796875 27.296875 
Q 14.796875 17.390625 18.875 11.75 
Q 22.953125 6.109375 30.078125 6.109375 
Q 37.203125 6.109375 41.296875 11.75 
Q 45.40625 17.390625 45.40625 27.296875 
Q 45.40625 37.203125 41.296875 42.84375 
Q 37.203125 48.484375 30.078125 48.484375 
Q 22.953125 48.484375 18.875 42.84375 
Q 14.796875 37.203125 14.796875 27.296875 
z
" id="DejaVuSans-100"/>
     <path d="M 52 44.1875 
Q 55.375 50.25 60.0625 53.125 
Q 64.75 56 71.09375 56 
Q 79.640625 56 84.28125 50.015625 
Q 88.921875 44.046875 88.921875 33.015625 
L 88.921875 0 
L 79.890625 0 
L 79.890625 32.71875 
Q 79.890625 40.578125 77.09375 44.375 
Q 74.3125 48.1875 68.609375 48.1875 
Q 61.625 48.1875 57.5625 43.546875 
Q 53.515625 38.921875 53.515625 30.90625 
L 53.515625 0 
L 44.484375 0 
L 44.484375 32.71875 
Q 44.484375 40.625 41.703125 44.40625 
Q 38.921875 48.1875 33.109375 48.1875 
Q 26.21875 48.1875 22.15625 43.53125 
Q 18.109375 38.875 18.109375 30.90625 
L 18.109375 0 
L 9.078125 0 
L 9.078125 54.6875 
L 18.109375 54.6875 
L 18.109375 46.1875 
Q 21.1875 51.21875 25.484375 53.609375 
Q 29.78125 56 35.6875 56 
Q 41.65625 56 45.828125 52.96875 
Q 50 49.953125 52 44.1875 
z
" id="DejaVuSans-109"/>
     <path d="M 11.71875 12.40625 
L 22.015625 12.40625 
L 22.015625 0 
L 11.71875 0 
z
M 11.71875 51.703125 
L 22.015625 51.703125 
L 22.015625 39.3125 
L 11.71875 39.3125 
z
" id="DejaVuSans-58"/>
     <path d="M 10.6875 12.40625 
L 21 12.40625 
L 21 0 
L 10.6875 0 
z
" id="DejaVuSans-46"/>
    </defs>
    <g transform="translate(85.709375 63.12)scale(0.12 -0.12)">
     <use xlink:href="#DejaVuSans-99"/>
     <use x="54.980469" xlink:href="#DejaVuSans-111"/>
     <use x="116.162109" xlink:href="#DejaVuSans-110"/>
     <use x="179.541016" xlink:href="#DejaVuSans-118"/>
     <use x="238.720703" xlink:href="#DejaVuSans-101"/>
     <use x="300.244141" xlink:href="#DejaVuSans-114"/>
     <use x="341.357422" xlink:href="#DejaVuSans-115"/>
     <use x="393.457031" xlink:href="#DejaVuSans-105"/>
     <use x="421.240234" xlink:href="#DejaVuSans-111"/>
     <use x="482.421875" xlink:href="#DejaVuSans-110"/>
     <use x="545.800781" xlink:href="#DejaVuSans-44"/>
     <use x="577.587891" xlink:href="#DejaVuSans-32"/>
     <use x="609.375" xlink:href="#DejaVuSans-114"/>
     <use x="650.488281" xlink:href="#DejaVuSans-97"/>
     <use x="711.767578" xlink:href="#DejaVuSans-110"/>
     <use x="775.146484" xlink:href="#DejaVuSans-100"/>
     <use x="838.623047" xlink:href="#DejaVuSans-111"/>
     <use x="899.804688" xlink:href="#DejaVuSans-109"/>
     <use x="997.216797" xlink:href="#DejaVuSans-32"/>
     <use x="1029.003906" xlink:href="#DejaVuSans-114"/>
     <use x="1070.117188" xlink:href="#DejaVuSans-97"/>
     <use x="1131.396484" xlink:href="#DejaVuSans-116"/>
     <use x="1170.605469" xlink:href="#DejaVuSans-101"/>
     <use x="1232.128906" xlink:href="#DejaVuSans-58"/>
     <use x="1265.820312" xlink:href="#DejaVuSans-48"/>
     <use x="1329.443359" xlink:href="#DejaVuSans-46"/>
     <use x="1361.230469" xlink:href="#DejaVuSans-48"/>
    </g>
   </g>
  </g>
  <g id="axes_2">
   <g id="patch_7">
    <path d="M 320 250.32 
L 518.4 250.32 
L 518.4 69.12 
L 320 69.12 
z
" style="fill:#ffffff;"/>
   </g>
   <g id="matplotlib.axis_3">
    <g id="xtick_9">
     <g id="line2d_19">
      <g>
       <use style="stroke:#000000;stroke-width:0.8;" x="329.018182" xlink:href="#ma5d7e4ba46" y="250.32"/>
      </g>
     </g>
     <g id="text_18">
      <!-- 1 -->
      <g transform="translate(325.836932 261.418437)scale(0.1 -0.1)">
       <use xlink:href="#DejaVuSans-49"/>
      </g>
     </g>
    </g>
    <g id="xtick_10">
     <g id="line2d_20">
      <g>
       <use style="stroke:#000000;stroke-width:0.8;" x="354.784416" xlink:href="#ma5d7e4ba46" y="250.32"/>
      </g>
     </g>
     <g id="text_19">
      <!-- 2 -->
      <g transform="translate(351.603166 261.418437)scale(0.1 -0.1)">
       <use xlink:href="#DejaVuSans-50"/>
      </g>
     </g>
    </g>
    <g id="xtick_11">
     <g id="line2d_21">
      <g>
       <use style="stroke:#000000;stroke-width:0.8;" x="380.550649" xlink:href="#ma5d7e4ba46" y="250.32"/>
      </g>
     </g>
     <g id="text_20">
      <!-- 3 -->
      <g transform="translate(377.369399 261.418437)scale(0.1 -0.1)">
       <use xlink:href="#DejaVuSans-51"/>
      </g>
     </g>
    </g>
    <g id="xtick_12">
     <g id="line2d_22">
      <g>
       <use style="stroke:#000000;stroke-width:0.8;" x="406.316883" xlink:href="#ma5d7e4ba46" y="250.32"/>
      </g>
     </g>
     <g id="text_21">
      <!-- 4 -->
      <g transform="translate(403.135633 261.418437)scale(0.1 -0.1)">
       <use xlink:href="#DejaVuSans-52"/>
      </g>
     </g>
    </g>
    <g id="xtick_13">
     <g id="line2d_23">
      <g>
       <use style="stroke:#000000;stroke-width:0.8;" x="432.083117" xlink:href="#ma5d7e4ba46" y="250.32"/>
      </g>
     </g>
     <g id="text_22">
      <!-- 5 -->
      <g transform="translate(428.901867 261.418437)scale(0.1 -0.1)">
       <use xlink:href="#DejaVuSans-53"/>
      </g>
     </g>
    </g>
    <g id="xtick_14">
     <g id="line2d_24">
      <g>
       <use style="stroke:#000000;stroke-width:0.8;" x="457.849351" xlink:href="#ma5d7e4ba46" y="250.32"/>
      </g>
     </g>
     <g id="text_23">
      <!-- 6 -->
      <g transform="translate(454.668101 261.418437)scale(0.1 -0.1)">
       <use xlink:href="#DejaVuSans-54"/>
      </g>
     </g>
    </g>
    <g id="xtick_15">
     <g id="line2d_25">
      <g>
       <use style="stroke:#000000;stroke-width:0.8;" x="483.615584" xlink:href="#ma5d7e4ba46" y="250.32"/>
      </g>
     </g>
     <g id="text_24">
      <!-- 7 -->
      <g transform="translate(480.434334 261.418437)scale(0.1 -0.1)">
       <use xlink:href="#DejaVuSans-55"/>
      </g>
     </g>
    </g>
    <g id="xtick_16">
     <g id="line2d_26">
      <g>
       <use style="stroke:#000000;stroke-width:0.8;" x="509.381818" xlink:href="#ma5d7e4ba46" y="250.32"/>
      </g>
     </g>
     <g id="text_25">
      <!-- 8 -->
      <g transform="translate(506.200568 261.418437)scale(0.1 -0.1)">
       <use xlink:href="#DejaVuSans-56"/>
      </g>
     </g>
    </g>
   </g>
   <g id="matplotlib.axis_4">
    <g id="ytick_8">
     <g id="line2d_27">
      <g>
       <use style="stroke:#000000;stroke-width:0.8;" x="320" xlink:href="#m5afc9b2180" y="234.988928"/>
      </g>
     </g>
     <g id="text_26">
      <!-- 2 -->
      <g transform="translate(310.1375 238.788147)scale(0.1 -0.1)">
       <use xlink:href="#DejaVuSans-50"/>
      </g>
     </g>
    </g>
    <g id="ytick_9">
     <g id="line2d_28">
      <g>
       <use style="stroke:#000000;stroke-width:0.8;" x="320" xlink:href="#m5afc9b2180" y="214.671434"/>
      </g>
     </g>
     <g id="text_27">
      <!-- 3 -->
      <g transform="translate(310.1375 218.470653)scale(0.1 -0.1)">
       <use xlink:href="#DejaVuSans-51"/>
      </g>
     </g>
    </g>
    <g id="ytick_10">
     <g id="line2d_29">
      <g>
       <use style="stroke:#000000;stroke-width:0.8;" x="320" xlink:href="#m5afc9b2180" y="194.35394"/>
      </g>
     </g>
     <g id="text_28">
      <!-- 4 -->
      <g transform="translate(310.1375 198.153159)scale(0.1 -0.1)">
       <use xlink:href="#DejaVuSans-52"/>
      </g>
     </g>
    </g>
    <g id="ytick_11">
     <g id="line2d_30">
      <g>
       <use style="stroke:#000000;stroke-width:0.8;" x="320" xlink:href="#m5afc9b2180" y="174.036446"/>
      </g>
     </g>
     <g id="text_29">
      <!-- 5 -->
      <g transform="translate(310.1375 177.835665)scale(0.1 -0.1)">
       <use xlink:href="#DejaVuSans-53"/>
      </g>
     </g>
    </g>
    <g id="ytick_12">
     <g id="line2d_31">
      <g>
       <use style="stroke:#000000;stroke-width:0.8;" x="320" xlink:href="#m5afc9b2180" y="153.718952"/>
      </g>
     </g>
     <g id="text_30">
      <!-- 6 -->
      <g transform="translate(310.1375 157.518171)scale(0.1 -0.1)">
       <use xlink:href="#DejaVuSans-54"/>
      </g>
     </g>
    </g>
    <g id="ytick_13">
     <g id="line2d_32">
      <g>
       <use style="stroke:#000000;stroke-width:0.8;" x="320" xlink:href="#m5afc9b2180" y="133.401458"/>
      </g>
     </g>
     <g id="text_31">
      <!-- 7 -->
      <g transform="translate(310.1375 137.200677)scale(0.1 -0.1)">
       <use xlink:href="#DejaVuSans-55"/>
      </g>
     </g>
    </g>
    <g id="ytick_14">
     <g id="line2d_33">
      <g>
       <use style="stroke:#000000;stroke-width:0.8;" x="320" xlink:href="#m5afc9b2180" y="113.083964"/>
      </g>
     </g>
     <g id="text_32">
      <!-- 8 -->
      <g transform="translate(310.1375 116.883183)scale(0.1 -0.1)">
       <use xlink:href="#DejaVuSans-56"/>
      </g>
     </g>
    </g>
    <g id="ytick_15">
     <g id="line2d_34">
      <g>
       <use style="stroke:#000000;stroke-width:0.8;" x="320" xlink:href="#m5afc9b2180" y="92.76647"/>
      </g>
     </g>
     <g id="text_33">
      <!-- 9 -->
      <defs>
       <path d="M 10.984375 1.515625 
L 10.984375 10.5 
Q 14.703125 8.734375 18.5 7.8125 
Q 22.3125 6.890625 25.984375 6.890625 
Q 35.75 6.890625 40.890625 13.453125 
Q 46.046875 20.015625 46.78125 33.40625 
Q 43.953125 29.203125 39.59375 26.953125 
Q 35.25 24.703125 29.984375 24.703125 
Q 19.046875 24.703125 12.671875 31.3125 
Q 6.296875 37.9375 6.296875 49.421875 
Q 6.296875 60.640625 12.9375 67.421875 
Q 19.578125 74.21875 30.609375 74.21875 
Q 43.265625 74.21875 49.921875 64.515625 
Q 56.59375 54.828125 56.59375 36.375 
Q 56.59375 19.140625 48.40625 8.859375 
Q 40.234375 -1.421875 26.421875 -1.421875 
Q 22.703125 -1.421875 18.890625 -0.6875 
Q 15.09375 0.046875 10.984375 1.515625 
z
M 30.609375 32.421875 
Q 37.25 32.421875 41.125 36.953125 
Q 45.015625 41.5 45.015625 49.421875 
Q 45.015625 57.28125 41.125 61.84375 
Q 37.25 66.40625 30.609375 66.40625 
Q 23.96875 66.40625 20.09375 61.84375 
Q 16.21875 57.28125 16.21875 49.421875 
Q 16.21875 41.5 20.09375 36.953125 
Q 23.96875 32.421875 30.609375 32.421875 
z
" id="DejaVuSans-57"/>
      </defs>
      <g transform="translate(310.1375 96.565689)scale(0.1 -0.1)">
       <use xlink:href="#DejaVuSans-57"/>
      </g>
     </g>
    </g>
    <g id="ytick_16">
     <g id="line2d_35">
      <g>
       <use style="stroke:#000000;stroke-width:0.8;" x="320" xlink:href="#m5afc9b2180" y="72.448976"/>
      </g>
     </g>
     <g id="text_34">
      <!-- 10 -->
      <g transform="translate(303.775 76.248195)scale(0.1 -0.1)">
       <use xlink:href="#DejaVuSans-49"/>
       <use x="63.623047" xlink:href="#DejaVuSans-48"/>
      </g>
     </g>
    </g>
    <g id="text_35">
     <!-- Log Lengthscale -->
     <g transform="translate(297.695312 200.545)rotate(-90)scale(0.1 -0.1)">
      <use xlink:href="#DejaVuSans-76"/>
      <use x="55.697266" xlink:href="#DejaVuSans-111"/>
      <use x="116.878906" xlink:href="#DejaVuSans-103"/>
      <use x="180.355469" xlink:href="#DejaVuSans-32"/>
      <use x="212.142578" xlink:href="#DejaVuSans-76"/>
      <use x="267.839844" xlink:href="#DejaVuSans-101"/>
      <use x="329.363281" xlink:href="#DejaVuSans-110"/>
      <use x="392.742188" xlink:href="#DejaVuSans-103"/>
      <use x="456.21875" xlink:href="#DejaVuSans-116"/>
      <use x="495.427734" xlink:href="#DejaVuSans-104"/>
      <use x="558.806641" xlink:href="#DejaVuSans-115"/>
      <use x="610.90625" xlink:href="#DejaVuSans-99"/>
      <use x="665.886719" xlink:href="#DejaVuSans-97"/>
      <use x="727.166016" xlink:href="#DejaVuSans-108"/>
      <use x="754.949219" xlink:href="#DejaVuSans-101"/>
     </g>
    </g>
   </g>
   <g id="LineCollection_4">
    <path clip-path="url(#p33f9f216da)" d="M 329.018182 228.37098 
L 329.018182 121.355557 
" style="fill:none;stroke:#1f77b4;stroke-width:1.5;"/>
    <path clip-path="url(#p33f9f216da)" d="M 354.784416 228.754882 
L 354.784416 151.667261 
" style="fill:none;stroke:#1f77b4;stroke-width:1.5;"/>
    <path clip-path="url(#p33f9f216da)" d="M 380.550649 226.561007 
L 380.550649 174.613907 
" style="fill:none;stroke:#1f77b4;stroke-width:1.5;"/>
    <path clip-path="url(#p33f9f216da)" d="M 406.316883 219.15661 
L 406.316883 192.185447 
" style="fill:none;stroke:#1f77b4;stroke-width:1.5;"/>
    <path clip-path="url(#p33f9f216da)" d="M 432.083117 218.8179 
L 432.083117 196.359514 
" style="fill:none;stroke:#1f77b4;stroke-width:1.5;"/>
    <path clip-path="url(#p33f9f216da)" d="M 457.849351 223.38324 
L 457.849351 196.707102 
" style="fill:none;stroke:#1f77b4;stroke-width:1.5;"/>
    <path clip-path="url(#p33f9f216da)" d="M 483.615584 233.030693 
L 483.615584 202.643543 
" style="fill:none;stroke:#1f77b4;stroke-width:1.5;"/>
    <path clip-path="url(#p33f9f216da)" d="M 509.381818 235.216393 
L 509.381818 209.329344 
" style="fill:none;stroke:#1f77b4;stroke-width:1.5;"/>
   </g>
   <g id="LineCollection_5">
    <path clip-path="url(#p33f9f216da)" d="M 329.018182 189.967457 
L 329.018182 77.356364 
" style="fill:none;stroke:#ff7f0e;stroke-width:1.5;"/>
    <path clip-path="url(#p33f9f216da)" d="M 354.784416 201.153798 
L 354.784416 139.057521 
" style="fill:none;stroke:#ff7f0e;stroke-width:1.5;"/>
    <path clip-path="url(#p33f9f216da)" d="M 380.550649 205.302054 
L 380.550649 167.754427 
" style="fill:none;stroke:#ff7f0e;stroke-width:1.5;"/>
    <path clip-path="url(#p33f9f216da)" d="M 406.316883 209.976355 
L 406.316883 181.575761 
" style="fill:none;stroke:#ff7f0e;stroke-width:1.5;"/>
    <path clip-path="url(#p33f9f216da)" d="M 432.083117 211.845026 
L 432.083117 194.165352 
" style="fill:none;stroke:#ff7f0e;stroke-width:1.5;"/>
    <path clip-path="url(#p33f9f216da)" d="M 457.849351 216.147479 
L 457.849351 197.386251 
" style="fill:none;stroke:#ff7f0e;stroke-width:1.5;"/>
    <path clip-path="url(#p33f9f216da)" d="M 483.615584 221.919144 
L 483.615584 202.73625 
" style="fill:none;stroke:#ff7f0e;stroke-width:1.5;"/>
    <path clip-path="url(#p33f9f216da)" d="M 509.381818 225.615341 
L 509.381818 208.034989 
" style="fill:none;stroke:#ff7f0e;stroke-width:1.5;"/>
   </g>
   <g id="LineCollection_6">
    <path clip-path="url(#p33f9f216da)" d="M 329.018182 239.266566 
L 329.018182 201.125214 
" style="fill:none;stroke:#2ca02c;stroke-width:1.5;"/>
    <path clip-path="url(#p33f9f216da)" d="M 354.784416 242.083636 
L 354.784416 210.651178 
" style="fill:none;stroke:#2ca02c;stroke-width:1.5;"/>
    <path clip-path="url(#p33f9f216da)" d="M 380.550649 234.038408 
L 380.550649 225.411538 
" style="fill:none;stroke:#2ca02c;stroke-width:1.5;"/>
    <path clip-path="url(#p33f9f216da)" d="M 406.316883 235.607624 
L 406.316883 229.042274 
" style="fill:none;stroke:#2ca02c;stroke-width:1.5;"/>
    <path clip-path="url(#p33f9f216da)" d="M 432.083117 235.070392 
L 432.083117 229.798175 
" style="fill:none;stroke:#2ca02c;stroke-width:1.5;"/>
    <path clip-path="url(#p33f9f216da)" d="M 457.849351 234.916071 
L 457.849351 229.873702 
" style="fill:none;stroke:#2ca02c;stroke-width:1.5;"/>
    <path clip-path="url(#p33f9f216da)" d="M 483.615584 234.91846 
L 483.615584 228.687115 
" style="fill:none;stroke:#2ca02c;stroke-width:1.5;"/>
    <path clip-path="url(#p33f9f216da)" d="M 509.381818 234.670524 
L 509.381818 227.450984 
" style="fill:none;stroke:#2ca02c;stroke-width:1.5;"/>
   </g>
   <g id="line2d_36">
    <path clip-path="url(#p33f9f216da)" d="M 329.018182 174.863268 
L 354.784416 190.211071 
L 380.550649 200.587457 
L 406.316883 205.671029 
L 432.083117 207.588707 
L 457.849351 210.045171 
L 483.615584 217.837118 
L 509.381818 222.272868 
" style="fill:none;stroke:#1f77b4;stroke-linecap:square;stroke-width:1.5;"/>
   </g>
   <g id="line2d_37">
    <path clip-path="url(#p33f9f216da)" d="M 329.018182 133.66191 
L 354.784416 170.105659 
L 380.550649 186.528241 
L 406.316883 195.776058 
L 432.083117 203.005189 
L 457.849351 206.766865 
L 483.615584 212.327697 
L 509.381818 216.825165 
" style="fill:none;stroke:#ff7f0e;stroke-dasharray:5.55,2.4;stroke-dashoffset:0;stroke-width:1.5;"/>
   </g>
   <g id="line2d_38">
    <path clip-path="url(#p33f9f216da)" d="M 329.018182 220.19589 
L 354.784416 226.367407 
L 380.550649 229.724973 
L 406.316883 232.324949 
L 432.083117 232.434284 
L 457.849351 232.394887 
L 483.615584 231.802788 
L 509.381818 231.060754 
" style="fill:none;stroke:#2ca02c;stroke-dasharray:1.5,2.475;stroke-dashoffset:0;stroke-width:1.5;"/>
   </g>
   <g id="patch_8">
    <path d="M 320 250.32 
L 320 69.12 
" style="fill:none;stroke:#000000;stroke-linecap:square;stroke-linejoin:miter;stroke-width:0.8;"/>
   </g>
   <g id="patch_9">
    <path d="M 518.4 250.32 
L 518.4 69.12 
" style="fill:none;stroke:#000000;stroke-linecap:square;stroke-linejoin:miter;stroke-width:0.8;"/>
   </g>
   <g id="patch_10">
    <path d="M 320 250.32 
L 518.4 250.32 
" style="fill:none;stroke:#000000;stroke-linecap:square;stroke-linejoin:miter;stroke-width:0.8;"/>
   </g>
   <g id="patch_11">
    <path d="M 320 69.12 
L 518.4 69.12 
" style="fill:none;stroke:#000000;stroke-linecap:square;stroke-linejoin:miter;stroke-width:0.8;"/>
   </g>
   <g id="text_36">
    <!-- de, random rate:0.0 -->
    <g transform="translate(358.957187 63.12)scale(0.12 -0.12)">
     <use xlink:href="#DejaVuSans-100"/>
     <use x="63.476562" xlink:href="#DejaVuSans-101"/>
     <use x="125" xlink:href="#DejaVuSans-44"/>
     <use x="156.787109" xlink:href="#DejaVuSans-32"/>
     <use x="188.574219" xlink:href="#DejaVuSans-114"/>
     <use x="229.6875" xlink:href="#DejaVuSans-97"/>
     <use x="290.966797" xlink:href="#DejaVuSans-110"/>
     <use x="354.345703" xlink:href="#DejaVuSans-100"/>
     <use x="417.822266" xlink:href="#DejaVuSans-111"/>
     <use x="479.003906" xlink:href="#DejaVuSans-109"/>
     <use x="576.416016" xlink:href="#DejaVuSans-32"/>
     <use x="608.203125" xlink:href="#DejaVuSans-114"/>
     <use x="649.316406" xlink:href="#DejaVuSans-97"/>
     <use x="710.595703" xlink:href="#DejaVuSans-116"/>
     <use x="749.804688" xlink:href="#DejaVuSans-101"/>
     <use x="811.328125" xlink:href="#DejaVuSans-58"/>
     <use x="845.019531" xlink:href="#DejaVuSans-48"/>
     <use x="908.642578" xlink:href="#DejaVuSans-46"/>
     <use x="940.429688" xlink:href="#DejaVuSans-48"/>
    </g>
   </g>
  </g>
  <g id="axes_3">
   <g id="patch_12">
    <path d="M 72 504 
L 270.4 504 
L 270.4 322.8 
L 72 322.8 
z
" style="fill:#ffffff;"/>
   </g>
   <g id="matplotlib.axis_5">
    <g id="xtick_17">
     <g id="line2d_39">
      <g>
       <use style="stroke:#000000;stroke-width:0.8;" x="81.018182" xlink:href="#ma5d7e4ba46" y="504"/>
      </g>
     </g>
     <g id="text_37">
      <!-- 1 -->
      <g transform="translate(77.836932 515.098438)scale(0.1 -0.1)">
       <use xlink:href="#DejaVuSans-49"/>
      </g>
     </g>
    </g>
    <g id="xtick_18">
     <g id="line2d_40">
      <g>
       <use style="stroke:#000000;stroke-width:0.8;" x="106.784416" xlink:href="#ma5d7e4ba46" y="504"/>
      </g>
     </g>
     <g id="text_38">
      <!-- 2 -->
      <g transform="translate(103.603166 515.098438)scale(0.1 -0.1)">
       <use xlink:href="#DejaVuSans-50"/>
      </g>
     </g>
    </g>
    <g id="xtick_19">
     <g id="line2d_41">
      <g>
       <use style="stroke:#000000;stroke-width:0.8;" x="132.550649" xlink:href="#ma5d7e4ba46" y="504"/>
      </g>
     </g>
     <g id="text_39">
      <!-- 3 -->
      <g transform="translate(129.369399 515.098438)scale(0.1 -0.1)">
       <use xlink:href="#DejaVuSans-51"/>
      </g>
     </g>
    </g>
    <g id="xtick_20">
     <g id="line2d_42">
      <g>
       <use style="stroke:#000000;stroke-width:0.8;" x="158.316883" xlink:href="#ma5d7e4ba46" y="504"/>
      </g>
     </g>
     <g id="text_40">
      <!-- 4 -->
      <g transform="translate(155.135633 515.098438)scale(0.1 -0.1)">
       <use xlink:href="#DejaVuSans-52"/>
      </g>
     </g>
    </g>
    <g id="xtick_21">
     <g id="line2d_43">
      <g>
       <use style="stroke:#000000;stroke-width:0.8;" x="184.083117" xlink:href="#ma5d7e4ba46" y="504"/>
      </g>
     </g>
     <g id="text_41">
      <!-- 5 -->
      <g transform="translate(180.901867 515.098438)scale(0.1 -0.1)">
       <use xlink:href="#DejaVuSans-53"/>
      </g>
     </g>
    </g>
    <g id="xtick_22">
     <g id="line2d_44">
      <g>
       <use style="stroke:#000000;stroke-width:0.8;" x="209.849351" xlink:href="#ma5d7e4ba46" y="504"/>
      </g>
     </g>
     <g id="text_42">
      <!-- 6 -->
      <g transform="translate(206.668101 515.098438)scale(0.1 -0.1)">
       <use xlink:href="#DejaVuSans-54"/>
      </g>
     </g>
    </g>
    <g id="xtick_23">
     <g id="line2d_45">
      <g>
       <use style="stroke:#000000;stroke-width:0.8;" x="235.615584" xlink:href="#ma5d7e4ba46" y="504"/>
      </g>
     </g>
     <g id="text_43">
      <!-- 7 -->
      <g transform="translate(232.434334 515.098438)scale(0.1 -0.1)">
       <use xlink:href="#DejaVuSans-55"/>
      </g>
     </g>
    </g>
    <g id="xtick_24">
     <g id="line2d_46">
      <g>
       <use style="stroke:#000000;stroke-width:0.8;" x="261.381818" xlink:href="#ma5d7e4ba46" y="504"/>
      </g>
     </g>
     <g id="text_44">
      <!-- 8 -->
      <g transform="translate(258.200568 515.098438)scale(0.1 -0.1)">
       <use xlink:href="#DejaVuSans-56"/>
      </g>
     </g>
    </g>
   </g>
   <g id="matplotlib.axis_6">
    <g id="ytick_17">
     <g id="line2d_47">
      <g>
       <use style="stroke:#000000;stroke-width:0.8;" x="72" xlink:href="#m5afc9b2180" y="488.535633"/>
      </g>
     </g>
     <g id="text_45">
      <!-- 2 -->
      <g transform="translate(62.1375 492.334852)scale(0.1 -0.1)">
       <use xlink:href="#DejaVuSans-50"/>
      </g>
     </g>
    </g>
    <g id="ytick_18">
     <g id="line2d_48">
      <g>
       <use style="stroke:#000000;stroke-width:0.8;" x="72" xlink:href="#m5afc9b2180" y="457.264149"/>
      </g>
     </g>
     <g id="text_46">
      <!-- 4 -->
      <g transform="translate(62.1375 461.063368)scale(0.1 -0.1)">
       <use xlink:href="#DejaVuSans-52"/>
      </g>
     </g>
    </g>
    <g id="ytick_19">
     <g id="line2d_49">
      <g>
       <use style="stroke:#000000;stroke-width:0.8;" x="72" xlink:href="#m5afc9b2180" y="425.992665"/>
      </g>
     </g>
     <g id="text_47">
      <!-- 6 -->
      <g transform="translate(62.1375 429.791883)scale(0.1 -0.1)">
       <use xlink:href="#DejaVuSans-54"/>
      </g>
     </g>
    </g>
    <g id="ytick_20">
     <g id="line2d_50">
      <g>
       <use style="stroke:#000000;stroke-width:0.8;" x="72" xlink:href="#m5afc9b2180" y="394.721181"/>
      </g>
     </g>
     <g id="text_48">
      <!-- 8 -->
      <g transform="translate(62.1375 398.520399)scale(0.1 -0.1)">
       <use xlink:href="#DejaVuSans-56"/>
      </g>
     </g>
    </g>
    <g id="ytick_21">
     <g id="line2d_51">
      <g>
       <use style="stroke:#000000;stroke-width:0.8;" x="72" xlink:href="#m5afc9b2180" y="363.449696"/>
      </g>
     </g>
     <g id="text_49">
      <!-- 10 -->
      <g transform="translate(55.775 367.248915)scale(0.1 -0.1)">
       <use xlink:href="#DejaVuSans-49"/>
       <use x="63.623047" xlink:href="#DejaVuSans-48"/>
      </g>
     </g>
    </g>
    <g id="ytick_22">
     <g id="line2d_52">
      <g>
       <use style="stroke:#000000;stroke-width:0.8;" x="72" xlink:href="#m5afc9b2180" y="332.178212"/>
      </g>
     </g>
     <g id="text_50">
      <!-- 12 -->
      <g transform="translate(55.775 335.977431)scale(0.1 -0.1)">
       <use xlink:href="#DejaVuSans-49"/>
       <use x="63.623047" xlink:href="#DejaVuSans-50"/>
      </g>
     </g>
    </g>
    <g id="text_51">
     <!-- Log Lengthscale -->
     <g transform="translate(49.695312 454.225)rotate(-90)scale(0.1 -0.1)">
      <use xlink:href="#DejaVuSans-76"/>
      <use x="55.697266" xlink:href="#DejaVuSans-111"/>
      <use x="116.878906" xlink:href="#DejaVuSans-103"/>
      <use x="180.355469" xlink:href="#DejaVuSans-32"/>
      <use x="212.142578" xlink:href="#DejaVuSans-76"/>
      <use x="267.839844" xlink:href="#DejaVuSans-101"/>
      <use x="329.363281" xlink:href="#DejaVuSans-110"/>
      <use x="392.742188" xlink:href="#DejaVuSans-103"/>
      <use x="456.21875" xlink:href="#DejaVuSans-116"/>
      <use x="495.427734" xlink:href="#DejaVuSans-104"/>
      <use x="558.806641" xlink:href="#DejaVuSans-115"/>
      <use x="610.90625" xlink:href="#DejaVuSans-99"/>
      <use x="665.886719" xlink:href="#DejaVuSans-97"/>
      <use x="727.166016" xlink:href="#DejaVuSans-108"/>
      <use x="754.949219" xlink:href="#DejaVuSans-101"/>
     </g>
    </g>
   </g>
   <g id="LineCollection_7">
    <path clip-path="url(#p63d56ca977)" d="M 81.018182 475.56241 
L 81.018182 404.193827 
" style="fill:none;stroke:#1f77b4;stroke-width:1.5;"/>
    <path clip-path="url(#p63d56ca977)" d="M 106.784416 481.447703 
L 106.784416 405.318503 
" style="fill:none;stroke:#1f77b4;stroke-width:1.5;"/>
    <path clip-path="url(#p63d56ca977)" d="M 132.550649 484.37873 
L 132.550649 388.279482 
" style="fill:none;stroke:#1f77b4;stroke-width:1.5;"/>
    <path clip-path="url(#p63d56ca977)" d="M 158.316883 486.529973 
L 158.316883 364.740272 
" style="fill:none;stroke:#1f77b4;stroke-width:1.5;"/>
    <path clip-path="url(#p63d56ca977)" d="M 184.083117 478.895791 
L 184.083117 339.643957 
" style="fill:none;stroke:#1f77b4;stroke-width:1.5;"/>
    <path clip-path="url(#p63d56ca977)" d="M 209.849351 477.957465 
L 209.849351 333.369141 
" style="fill:none;stroke:#1f77b4;stroke-width:1.5;"/>
    <path clip-path="url(#p63d56ca977)" d="M 235.615584 491.221707 
L 235.615584 344.499165 
" style="fill:none;stroke:#1f77b4;stroke-width:1.5;"/>
    <path clip-path="url(#p63d56ca977)" d="M 261.381818 495.763636 
L 261.381818 351.930463 
" style="fill:none;stroke:#1f77b4;stroke-width:1.5;"/>
   </g>
   <g id="LineCollection_8">
    <path clip-path="url(#p63d56ca977)" d="M 81.018182 461.525198 
L 81.018182 386.859334 
" style="fill:none;stroke:#ff7f0e;stroke-width:1.5;"/>
    <path clip-path="url(#p63d56ca977)" d="M 106.784416 452.637665 
L 106.784416 356.754602 
" style="fill:none;stroke:#ff7f0e;stroke-width:1.5;"/>
    <path clip-path="url(#p63d56ca977)" d="M 132.550649 449.982776 
L 132.550649 361.934169 
" style="fill:none;stroke:#ff7f0e;stroke-width:1.5;"/>
    <path clip-path="url(#p63d56ca977)" d="M 158.316883 416.670881 
L 158.316883 338.645695 
" style="fill:none;stroke:#ff7f0e;stroke-width:1.5;"/>
    <path clip-path="url(#p63d56ca977)" d="M 184.083117 401.032843 
L 184.083117 337.031266 
" style="fill:none;stroke:#ff7f0e;stroke-width:1.5;"/>
    <path clip-path="url(#p63d56ca977)" d="M 209.849351 380.396509 
L 209.849351 336.142256 
" style="fill:none;stroke:#ff7f0e;stroke-width:1.5;"/>
    <path clip-path="url(#p63d56ca977)" d="M 235.615584 390.62412 
L 235.615584 333.513474 
" style="fill:none;stroke:#ff7f0e;stroke-width:1.5;"/>
    <path clip-path="url(#p63d56ca977)" d="M 261.381818 388.294723 
L 261.381818 331.036364 
" style="fill:none;stroke:#ff7f0e;stroke-width:1.5;"/>
   </g>
   <g id="LineCollection_9">
    <path clip-path="url(#p63d56ca977)" d="M 81.018182 495.427417 
L 81.018182 461.75383 
" style="fill:none;stroke:#2ca02c;stroke-width:1.5;"/>
    <path clip-path="url(#p63d56ca977)" d="M 106.784416 483.267339 
L 106.784416 475.537906 
" style="fill:none;stroke:#2ca02c;stroke-width:1.5;"/>
    <path clip-path="url(#p63d56ca977)" d="M 132.550649 481.822635 
L 132.550649 475.891274 
" style="fill:none;stroke:#2ca02c;stroke-width:1.5;"/>
    <path clip-path="url(#p63d56ca977)" d="M 158.316883 485.583424 
L 158.316883 473.881826 
" style="fill:none;stroke:#2ca02c;stroke-width:1.5;"/>
    <path clip-path="url(#p63d56ca977)" d="M 184.083117 481.439329 
L 184.083117 475.726781 
" style="fill:none;stroke:#2ca02c;stroke-width:1.5;"/>
    <path clip-path="url(#p63d56ca977)" d="M 209.849351 481.843487 
L 209.849351 475.859605 
" style="fill:none;stroke:#2ca02c;stroke-width:1.5;"/>
    <path clip-path="url(#p63d56ca977)" d="M 235.615584 482.528744 
L 235.615584 476.117961 
" style="fill:none;stroke:#2ca02c;stroke-width:1.5;"/>
    <path clip-path="url(#p63d56ca977)" d="M 261.381818 482.778417 
L 261.381818 476.224884 
" style="fill:none;stroke:#2ca02c;stroke-width:1.5;"/>
   </g>
   <g id="line2d_53">
    <path clip-path="url(#p63d56ca977)" d="M 81.018182 439.878119 
L 106.784416 443.383103 
L 132.550649 436.329106 
L 158.316883 425.635122 
L 184.083117 409.269874 
L 209.849351 405.663303 
L 235.615584 417.860436 
L 261.381818 423.84705 
" style="fill:none;stroke:#1f77b4;stroke-linecap:square;stroke-width:1.5;"/>
   </g>
   <g id="line2d_54">
    <path clip-path="url(#p63d56ca977)" d="M 81.018182 424.192266 
L 106.784416 404.696133 
L 132.550649 405.958473 
L 158.316883 377.658288 
L 184.083117 369.032054 
L 209.849351 358.269383 
L 235.615584 362.068797 
L 261.381818 359.665543 
" style="fill:none;stroke:#ff7f0e;stroke-dasharray:5.55,2.4;stroke-dashoffset:0;stroke-width:1.5;"/>
   </g>
   <g id="line2d_55">
    <path clip-path="url(#p63d56ca977)" d="M 81.018182 478.590623 
L 106.784416 479.402622 
L 132.550649 478.856954 
L 158.316883 479.732625 
L 184.083117 478.583055 
L 209.849351 478.851546 
L 235.615584 479.323352 
L 261.381818 479.50165 
" style="fill:none;stroke:#2ca02c;stroke-dasharray:1.5,2.475;stroke-dashoffset:0;stroke-width:1.5;"/>
   </g>
   <g id="patch_13">
    <path d="M 72 504 
L 72 322.8 
" style="fill:none;stroke:#000000;stroke-linecap:square;stroke-linejoin:miter;stroke-width:0.8;"/>
   </g>
   <g id="patch_14">
    <path d="M 270.4 504 
L 270.4 322.8 
" style="fill:none;stroke:#000000;stroke-linecap:square;stroke-linejoin:miter;stroke-width:0.8;"/>
   </g>
   <g id="patch_15">
    <path d="M 72 504 
L 270.4 504 
" style="fill:none;stroke:#000000;stroke-linecap:square;stroke-linejoin:miter;stroke-width:0.8;"/>
   </g>
   <g id="patch_16">
    <path d="M 72 322.8 
L 270.4 322.8 
" style="fill:none;stroke:#000000;stroke-linecap:square;stroke-linejoin:miter;stroke-width:0.8;"/>
   </g>
   <g id="text_52">
    <!-- conversion, random rate:0.5 -->
    <g transform="translate(85.709375 316.8)scale(0.12 -0.12)">
     <use xlink:href="#DejaVuSans-99"/>
     <use x="54.980469" xlink:href="#DejaVuSans-111"/>
     <use x="116.162109" xlink:href="#DejaVuSans-110"/>
     <use x="179.541016" xlink:href="#DejaVuSans-118"/>
     <use x="238.720703" xlink:href="#DejaVuSans-101"/>
     <use x="300.244141" xlink:href="#DejaVuSans-114"/>
     <use x="341.357422" xlink:href="#DejaVuSans-115"/>
     <use x="393.457031" xlink:href="#DejaVuSans-105"/>
     <use x="421.240234" xlink:href="#DejaVuSans-111"/>
     <use x="482.421875" xlink:href="#DejaVuSans-110"/>
     <use x="545.800781" xlink:href="#DejaVuSans-44"/>
     <use x="577.587891" xlink:href="#DejaVuSans-32"/>
     <use x="609.375" xlink:href="#DejaVuSans-114"/>
     <use x="650.488281" xlink:href="#DejaVuSans-97"/>
     <use x="711.767578" xlink:href="#DejaVuSans-110"/>
     <use x="775.146484" xlink:href="#DejaVuSans-100"/>
     <use x="838.623047" xlink:href="#DejaVuSans-111"/>
     <use x="899.804688" xlink:href="#DejaVuSans-109"/>
     <use x="997.216797" xlink:href="#DejaVuSans-32"/>
     <use x="1029.003906" xlink:href="#DejaVuSans-114"/>
     <use x="1070.117188" xlink:href="#DejaVuSans-97"/>
     <use x="1131.396484" xlink:href="#DejaVuSans-116"/>
     <use x="1170.605469" xlink:href="#DejaVuSans-101"/>
     <use x="1232.128906" xlink:href="#DejaVuSans-58"/>
     <use x="1265.820312" xlink:href="#DejaVuSans-48"/>
     <use x="1329.443359" xlink:href="#DejaVuSans-46"/>
     <use x="1361.230469" xlink:href="#DejaVuSans-53"/>
    </g>
   </g>
  </g>
  <g id="axes_4">
   <g id="patch_17">
    <path d="M 320 504 
L 518.4 504 
L 518.4 322.8 
L 320 322.8 
z
" style="fill:#ffffff;"/>
   </g>
   <g id="matplotlib.axis_7">
    <g id="xtick_25">
     <g id="line2d_56">
      <g>
       <use style="stroke:#000000;stroke-width:0.8;" x="329.018182" xlink:href="#ma5d7e4ba46" y="504"/>
      </g>
     </g>
     <g id="text_53">
      <!-- 1 -->
      <g transform="translate(325.836932 515.098438)scale(0.1 -0.1)">
       <use xlink:href="#DejaVuSans-49"/>
      </g>
     </g>
    </g>
    <g id="xtick_26">
     <g id="line2d_57">
      <g>
       <use style="stroke:#000000;stroke-width:0.8;" x="354.784416" xlink:href="#ma5d7e4ba46" y="504"/>
      </g>
     </g>
     <g id="text_54">
      <!-- 2 -->
      <g transform="translate(351.603166 515.098438)scale(0.1 -0.1)">
       <use xlink:href="#DejaVuSans-50"/>
      </g>
     </g>
    </g>
    <g id="xtick_27">
     <g id="line2d_58">
      <g>
       <use style="stroke:#000000;stroke-width:0.8;" x="380.550649" xlink:href="#ma5d7e4ba46" y="504"/>
      </g>
     </g>
     <g id="text_55">
      <!-- 3 -->
      <g transform="translate(377.369399 515.098438)scale(0.1 -0.1)">
       <use xlink:href="#DejaVuSans-51"/>
      </g>
     </g>
    </g>
    <g id="xtick_28">
     <g id="line2d_59">
      <g>
       <use style="stroke:#000000;stroke-width:0.8;" x="406.316883" xlink:href="#ma5d7e4ba46" y="504"/>
      </g>
     </g>
     <g id="text_56">
      <!-- 4 -->
      <g transform="translate(403.135633 515.098438)scale(0.1 -0.1)">
       <use xlink:href="#DejaVuSans-52"/>
      </g>
     </g>
    </g>
    <g id="xtick_29">
     <g id="line2d_60">
      <g>
       <use style="stroke:#000000;stroke-width:0.8;" x="432.083117" xlink:href="#ma5d7e4ba46" y="504"/>
      </g>
     </g>
     <g id="text_57">
      <!-- 5 -->
      <g transform="translate(428.901867 515.098438)scale(0.1 -0.1)">
       <use xlink:href="#DejaVuSans-53"/>
      </g>
     </g>
    </g>
    <g id="xtick_30">
     <g id="line2d_61">
      <g>
       <use style="stroke:#000000;stroke-width:0.8;" x="457.849351" xlink:href="#ma5d7e4ba46" y="504"/>
      </g>
     </g>
     <g id="text_58">
      <!-- 6 -->
      <g transform="translate(454.668101 515.098438)scale(0.1 -0.1)">
       <use xlink:href="#DejaVuSans-54"/>
      </g>
     </g>
    </g>
    <g id="xtick_31">
     <g id="line2d_62">
      <g>
       <use style="stroke:#000000;stroke-width:0.8;" x="483.615584" xlink:href="#ma5d7e4ba46" y="504"/>
      </g>
     </g>
     <g id="text_59">
      <!-- 7 -->
      <g transform="translate(480.434334 515.098438)scale(0.1 -0.1)">
       <use xlink:href="#DejaVuSans-55"/>
      </g>
     </g>
    </g>
    <g id="xtick_32">
     <g id="line2d_63">
      <g>
       <use style="stroke:#000000;stroke-width:0.8;" x="509.381818" xlink:href="#ma5d7e4ba46" y="504"/>
      </g>
     </g>
     <g id="text_60">
      <!-- 8 -->
      <g transform="translate(506.200568 515.098438)scale(0.1 -0.1)">
       <use xlink:href="#DejaVuSans-56"/>
      </g>
     </g>
    </g>
   </g>
   <g id="matplotlib.axis_8">
    <g id="ytick_23">
     <g id="line2d_64">
      <g>
       <use style="stroke:#000000;stroke-width:0.8;" x="320" xlink:href="#m5afc9b2180" y="491.068821"/>
      </g>
     </g>
     <g id="text_61">
      <!-- 2 -->
      <g transform="translate(310.1375 494.86804)scale(0.1 -0.1)">
       <use xlink:href="#DejaVuSans-50"/>
      </g>
     </g>
    </g>
    <g id="ytick_24">
     <g id="line2d_65">
      <g>
       <use style="stroke:#000000;stroke-width:0.8;" x="320" xlink:href="#m5afc9b2180" y="469.623896"/>
      </g>
     </g>
     <g id="text_62">
      <!-- 3 -->
      <g transform="translate(310.1375 473.423114)scale(0.1 -0.1)">
       <use xlink:href="#DejaVuSans-51"/>
      </g>
     </g>
    </g>
    <g id="ytick_25">
     <g id="line2d_66">
      <g>
       <use style="stroke:#000000;stroke-width:0.8;" x="320" xlink:href="#m5afc9b2180" y="448.17897"/>
      </g>
     </g>
     <g id="text_63">
      <!-- 4 -->
      <g transform="translate(310.1375 451.978189)scale(0.1 -0.1)">
       <use xlink:href="#DejaVuSans-52"/>
      </g>
     </g>
    </g>
    <g id="ytick_26">
     <g id="line2d_67">
      <g>
       <use style="stroke:#000000;stroke-width:0.8;" x="320" xlink:href="#m5afc9b2180" y="426.734044"/>
      </g>
     </g>
     <g id="text_64">
      <!-- 5 -->
      <g transform="translate(310.1375 430.533263)scale(0.1 -0.1)">
       <use xlink:href="#DejaVuSans-53"/>
      </g>
     </g>
    </g>
    <g id="ytick_27">
     <g id="line2d_68">
      <g>
       <use style="stroke:#000000;stroke-width:0.8;" x="320" xlink:href="#m5afc9b2180" y="405.289118"/>
      </g>
     </g>
     <g id="text_65">
      <!-- 6 -->
      <g transform="translate(310.1375 409.088337)scale(0.1 -0.1)">
       <use xlink:href="#DejaVuSans-54"/>
      </g>
     </g>
    </g>
    <g id="ytick_28">
     <g id="line2d_69">
      <g>
       <use style="stroke:#000000;stroke-width:0.8;" x="320" xlink:href="#m5afc9b2180" y="383.844193"/>
      </g>
     </g>
     <g id="text_66">
      <!-- 7 -->
      <g transform="translate(310.1375 387.643411)scale(0.1 -0.1)">
       <use xlink:href="#DejaVuSans-55"/>
      </g>
     </g>
    </g>
    <g id="ytick_29">
     <g id="line2d_70">
      <g>
       <use style="stroke:#000000;stroke-width:0.8;" x="320" xlink:href="#m5afc9b2180" y="362.399267"/>
      </g>
     </g>
     <g id="text_67">
      <!-- 8 -->
      <g transform="translate(310.1375 366.198486)scale(0.1 -0.1)">
       <use xlink:href="#DejaVuSans-56"/>
      </g>
     </g>
    </g>
    <g id="ytick_30">
     <g id="line2d_71">
      <g>
       <use style="stroke:#000000;stroke-width:0.8;" x="320" xlink:href="#m5afc9b2180" y="340.954341"/>
      </g>
     </g>
     <g id="text_68">
      <!-- 9 -->
      <g transform="translate(310.1375 344.75356)scale(0.1 -0.1)">
       <use xlink:href="#DejaVuSans-57"/>
      </g>
     </g>
    </g>
    <g id="text_69">
     <!-- Log Lengthscale -->
     <g transform="translate(304.057813 454.225)rotate(-90)scale(0.1 -0.1)">
      <use xlink:href="#DejaVuSans-76"/>
      <use x="55.697266" xlink:href="#DejaVuSans-111"/>
      <use x="116.878906" xlink:href="#DejaVuSans-103"/>
      <use x="180.355469" xlink:href="#DejaVuSans-32"/>
      <use x="212.142578" xlink:href="#DejaVuSans-76"/>
      <use x="267.839844" xlink:href="#DejaVuSans-101"/>
      <use x="329.363281" xlink:href="#DejaVuSans-110"/>
      <use x="392.742188" xlink:href="#DejaVuSans-103"/>
      <use x="456.21875" xlink:href="#DejaVuSans-116"/>
      <use x="495.427734" xlink:href="#DejaVuSans-104"/>
      <use x="558.806641" xlink:href="#DejaVuSans-115"/>
      <use x="610.90625" xlink:href="#DejaVuSans-99"/>
      <use x="665.886719" xlink:href="#DejaVuSans-97"/>
      <use x="727.166016" xlink:href="#DejaVuSans-108"/>
      <use x="754.949219" xlink:href="#DejaVuSans-101"/>
     </g>
    </g>
   </g>
   <g id="LineCollection_10">
    <path clip-path="url(#p27a2ec5389)" d="M 329.018182 480.49686 
L 329.018182 366.673024 
" style="fill:none;stroke:#1f77b4;stroke-width:1.5;"/>
    <path clip-path="url(#p27a2ec5389)" d="M 354.784416 482.554754 
L 354.784416 386.112832 
" style="fill:none;stroke:#1f77b4;stroke-width:1.5;"/>
    <path clip-path="url(#p27a2ec5389)" d="M 380.550649 483.112164 
L 380.550649 434.703727 
" style="fill:none;stroke:#1f77b4;stroke-width:1.5;"/>
    <path clip-path="url(#p27a2ec5389)" d="M 406.316883 484.593682 
L 406.316883 449.047173 
" style="fill:none;stroke:#1f77b4;stroke-width:1.5;"/>
    <path clip-path="url(#p27a2ec5389)" d="M 432.083117 485.748244 
L 432.083117 453.930744 
" style="fill:none;stroke:#1f77b4;stroke-width:1.5;"/>
    <path clip-path="url(#p27a2ec5389)" d="M 457.849351 489.214302 
L 457.849351 457.303694 
" style="fill:none;stroke:#1f77b4;stroke-width:1.5;"/>
    <path clip-path="url(#p27a2ec5389)" d="M 483.615584 492.89638 
L 483.615584 458.830699 
" style="fill:none;stroke:#1f77b4;stroke-width:1.5;"/>
    <path clip-path="url(#p27a2ec5389)" d="M 509.381818 495.763636 
L 509.381818 462.465133 
" style="fill:none;stroke:#1f77b4;stroke-width:1.5;"/>
   </g>
   <g id="LineCollection_11">
    <path clip-path="url(#p27a2ec5389)" d="M 329.018182 442.945446 
L 329.018182 331.036364 
" style="fill:none;stroke:#ff7f0e;stroke-width:1.5;"/>
    <path clip-path="url(#p27a2ec5389)" d="M 354.784416 453.193627 
L 354.784416 383.138128 
" style="fill:none;stroke:#ff7f0e;stroke-width:1.5;"/>
    <path clip-path="url(#p27a2ec5389)" d="M 380.550649 466.613842 
L 380.550649 400.831236 
" style="fill:none;stroke:#ff7f0e;stroke-width:1.5;"/>
    <path clip-path="url(#p27a2ec5389)" d="M 406.316883 468.838246 
L 406.316883 412.244335 
" style="fill:none;stroke:#ff7f0e;stroke-width:1.5;"/>
    <path clip-path="url(#p27a2ec5389)" d="M 432.083117 470.361317 
L 432.083117 420.981151 
" style="fill:none;stroke:#ff7f0e;stroke-width:1.5;"/>
    <path clip-path="url(#p27a2ec5389)" d="M 457.849351 473.019959 
L 457.849351 440.260907 
" style="fill:none;stroke:#ff7f0e;stroke-width:1.5;"/>
    <path clip-path="url(#p27a2ec5389)" d="M 483.615584 476.183504 
L 483.615584 441.031014 
" style="fill:none;stroke:#ff7f0e;stroke-width:1.5;"/>
    <path clip-path="url(#p27a2ec5389)" d="M 509.381818 487.162457 
L 509.381818 427.9635 
" style="fill:none;stroke:#ff7f0e;stroke-width:1.5;"/>
   </g>
   <g id="LineCollection_12">
    <path clip-path="url(#p27a2ec5389)" d="M 329.018182 491.428343 
L 329.018182 459.332826 
" style="fill:none;stroke:#2ca02c;stroke-width:1.5;"/>
    <path clip-path="url(#p27a2ec5389)" d="M 354.784416 490.887651 
L 354.784416 475.254231 
" style="fill:none;stroke:#2ca02c;stroke-width:1.5;"/>
    <path clip-path="url(#p27a2ec5389)" d="M 380.550649 495.721583 
L 380.550649 477.014628 
" style="fill:none;stroke:#2ca02c;stroke-width:1.5;"/>
    <path clip-path="url(#p27a2ec5389)" d="M 406.316883 494.426755 
L 406.316883 478.904628 
" style="fill:none;stroke:#2ca02c;stroke-width:1.5;"/>
    <path clip-path="url(#p27a2ec5389)" d="M 432.083117 494.821597 
L 432.083117 481.178329 
" style="fill:none;stroke:#2ca02c;stroke-width:1.5;"/>
    <path clip-path="url(#p27a2ec5389)" d="M 457.849351 494.955894 
L 457.849351 482.034835 
" style="fill:none;stroke:#2ca02c;stroke-width:1.5;"/>
    <path clip-path="url(#p27a2ec5389)" d="M 483.615584 490.605745 
L 483.615584 481.78075 
" style="fill:none;stroke:#2ca02c;stroke-width:1.5;"/>
    <path clip-path="url(#p27a2ec5389)" d="M 509.381818 490.452363 
L 509.381818 481.400358 
" style="fill:none;stroke:#2ca02c;stroke-width:1.5;"/>
   </g>
   <g id="line2d_72">
    <path clip-path="url(#p27a2ec5389)" d="M 329.018182 423.584942 
L 354.784416 434.333793 
L 380.550649 458.907945 
L 406.316883 466.820427 
L 432.083117 469.839494 
L 457.849351 473.258998 
L 483.615584 475.863539 
L 509.381818 479.114385 
" style="fill:none;stroke:#1f77b4;stroke-linecap:square;stroke-width:1.5;"/>
   </g>
   <g id="line2d_73">
    <path clip-path="url(#p27a2ec5389)" d="M 329.018182 386.990905 
L 354.784416 418.165877 
L 380.550649 433.722539 
L 406.316883 440.541291 
L 432.083117 445.671234 
L 457.849351 456.640433 
L 483.615584 458.607259 
L 509.381818 457.562979 
" style="fill:none;stroke:#ff7f0e;stroke-dasharray:5.55,2.4;stroke-dashoffset:0;stroke-width:1.5;"/>
   </g>
   <g id="line2d_74">
    <path clip-path="url(#p27a2ec5389)" d="M 329.018182 475.380585 
L 354.784416 483.070941 
L 380.550649 486.368105 
L 406.316883 486.665692 
L 432.083117 487.999963 
L 457.849351 488.495364 
L 483.615584 486.193248 
L 509.381818 485.92636 
" style="fill:none;stroke:#2ca02c;stroke-dasharray:1.5,2.475;stroke-dashoffset:0;stroke-width:1.5;"/>
   </g>
   <g id="patch_18">
    <path d="M 320 504 
L 320 322.8 
" style="fill:none;stroke:#000000;stroke-linecap:square;stroke-linejoin:miter;stroke-width:0.8;"/>
   </g>
   <g id="patch_19">
    <path d="M 518.4 504 
L 518.4 322.8 
" style="fill:none;stroke:#000000;stroke-linecap:square;stroke-linejoin:miter;stroke-width:0.8;"/>
   </g>
   <g id="patch_20">
    <path d="M 320 504 
L 518.4 504 
" style="fill:none;stroke:#000000;stroke-linecap:square;stroke-linejoin:miter;stroke-width:0.8;"/>
   </g>
   <g id="patch_21">
    <path d="M 320 322.8 
L 518.4 322.8 
" style="fill:none;stroke:#000000;stroke-linecap:square;stroke-linejoin:miter;stroke-width:0.8;"/>
   </g>
   <g id="text_70">
    <!-- de, random rate:0.5 -->
    <g transform="translate(358.957187 316.8)scale(0.12 -0.12)">
     <use xlink:href="#DejaVuSans-100"/>
     <use x="63.476562" xlink:href="#DejaVuSans-101"/>
     <use x="125" xlink:href="#DejaVuSans-44"/>
     <use x="156.787109" xlink:href="#DejaVuSans-32"/>
     <use x="188.574219" xlink:href="#DejaVuSans-114"/>
     <use x="229.6875" xlink:href="#DejaVuSans-97"/>
     <use x="290.966797" xlink:href="#DejaVuSans-110"/>
     <use x="354.345703" xlink:href="#DejaVuSans-100"/>
     <use x="417.822266" xlink:href="#DejaVuSans-111"/>
     <use x="479.003906" xlink:href="#DejaVuSans-109"/>
     <use x="576.416016" xlink:href="#DejaVuSans-32"/>
     <use x="608.203125" xlink:href="#DejaVuSans-114"/>
     <use x="649.316406" xlink:href="#DejaVuSans-97"/>
     <use x="710.595703" xlink:href="#DejaVuSans-116"/>
     <use x="749.804688" xlink:href="#DejaVuSans-101"/>
     <use x="811.328125" xlink:href="#DejaVuSans-58"/>
     <use x="845.019531" xlink:href="#DejaVuSans-48"/>
     <use x="908.642578" xlink:href="#DejaVuSans-46"/>
     <use x="940.429688" xlink:href="#DejaVuSans-53"/>
    </g>
   </g>
  </g>
 </g>
 <defs>
  <clipPath id="p74fc9e2e89">
   <rect height="181.2" width="198.4" x="72" y="69.12"/>
  </clipPath>
  <clipPath id="p33f9f216da">
   <rect height="181.2" width="198.4" x="320" y="69.12"/>
  </clipPath>
  <clipPath id="p63d56ca977">
   <rect height="181.2" width="198.4" x="72" y="322.8"/>
  </clipPath>
  <clipPath id="p27a2ec5389">
   <rect height="181.2" width="198.4" x="320" y="322.8"/>
  </clipPath>
 </defs>
</svg>
