<?xml version="1.0" encoding="utf-8" standalone="no"?>
<!DOCTYPE svg PUBLIC "-//W3C//DTD SVG 1.1//EN"
  "http://www.w3.org/Graphics/SVG/1.1/DTD/svg11.dtd">
<!-- Created with matplotlib (https://matplotlib.org/) -->
<svg height="288pt" version="1.1" viewBox="0 0 432 288" width="432pt" xmlns="http://www.w3.org/2000/svg" xmlns:xlink="http://www.w3.org/1999/xlink">
 <defs>
  <style type="text/css">
*{stroke-linecap:butt;stroke-linejoin:round;}
  </style>
 </defs>
 <g id="figure_1">
  <g id="patch_1">
   <path d="M 0 288 
L 432 288 
L 432 0 
L 0 0 
z
" style="fill:#ffffff;"/>
  </g>
  <g id="axes_1">
   <g id="patch_2">
    <path d="M 54 252 
L 388.8 252 
L 388.8 34.56 
L 54 34.56 
z
" style="fill:#ffffff;"/>
   </g>
   <g id="PathCollection_1">
    <defs>
     <path d="M 0 3 
C 0.795609 3 1.55874 2.683901 2.12132 2.12132 
C 2.683901 1.55874 3 0.795609 3 0 
C 3 -0.795609 2.683901 -1.55874 2.12132 -2.12132 
C 1.55874 -2.683901 0.795609 -3 0 -3 
C -0.795609 -3 -1.55874 -2.683901 -2.12132 -2.12132 
C -2.683901 -1.55874 -3 -0.795609 -3 0 
C -3 0.795609 -2.683901 1.55874 -2.12132 2.12132 
C -1.55874 2.683901 -0.795609 3 0 3 
z
" id="m2ed808d281" style="stroke:#1f77b4;"/>
    </defs>
    <g clip-path="url(#p59f0070a55)">
     <use style="fill:#1f77b4;stroke:#1f77b4;" x="207.054936" xlink:href="#m2ed808d281" y="241.958101"/>
     <use style="fill:#1f77b4;stroke:#1f77b4;" x="135.453571" xlink:href="#m2ed808d281" y="210.370576"/>
     <use style="fill:#1f77b4;stroke:#1f77b4;" x="98.170887" xlink:href="#m2ed808d281" y="216.39679"/>
     <use style="fill:#1f77b4;stroke:#1f77b4;" x="171.094421" xlink:href="#m2ed808d281" y="195.390965"/>
     <use style="fill:#1f77b4;stroke:#1f77b4;" x="143.731014" xlink:href="#m2ed808d281" y="170.31941"/>
     <use style="fill:#1f77b4;stroke:#1f77b4;" x="99.859808" xlink:href="#m2ed808d281" y="192.046749"/>
     <use style="fill:#1f77b4;stroke:#1f77b4;" x="124.825375" xlink:href="#m2ed808d281" y="220.95581"/>
     <use style="fill:#1f77b4;stroke:#1f77b4;" x="151.056242" xlink:href="#m2ed808d281" y="202.36477"/>
     <use style="fill:#1f77b4;stroke:#1f77b4;" x="108.419891" xlink:href="#m2ed808d281" y="211.006966"/>
     <use style="fill:#1f77b4;stroke:#1f77b4;" x="115.99979" xlink:href="#m2ed808d281" y="222.546415"/>
     <use style="fill:#1f77b4;stroke:#1f77b4;" x="112.140553" xlink:href="#m2ed808d281" y="207.645811"/>
     <use style="fill:#1f77b4;stroke:#1f77b4;" x="142.636567" xlink:href="#m2ed808d281" y="213.210663"/>
     <use style="fill:#1f77b4;stroke:#1f77b4;" x="135.771254" xlink:href="#m2ed808d281" y="212.526384"/>
     <use style="fill:#1f77b4;stroke:#1f77b4;" x="113.657176" xlink:href="#m2ed808d281" y="213.041698"/>
     <use style="fill:#1f77b4;stroke:#1f77b4;" x="112.550238" xlink:href="#m2ed808d281" y="220.373493"/>
     <use style="fill:#1f77b4;stroke:#1f77b4;" x="123.365603" xlink:href="#m2ed808d281" y="211.763864"/>
     <use style="fill:#1f77b4;stroke:#1f77b4;" x="95.832189" xlink:href="#m2ed808d281" y="203.056351"/>
     <use style="fill:#1f77b4;stroke:#1f77b4;" x="142.305685" xlink:href="#m2ed808d281" y="219.039441"/>
     <use style="fill:#1f77b4;stroke:#1f77b4;" x="194.468879" xlink:href="#m2ed808d281" y="198.361711"/>
     <use style="fill:#1f77b4;stroke:#1f77b4;" x="136.477271" xlink:href="#m2ed808d281" y="213.928687"/>
     <use style="fill:#1f77b4;stroke:#1f77b4;" x="156.455335" xlink:href="#m2ed808d281" y="228.188142"/>
     <use style="fill:#1f77b4;stroke:#1f77b4;" x="147.413001" xlink:href="#m2ed808d281" y="211.889957"/>
     <use style="fill:#1f77b4;stroke:#1f77b4;" x="163.737095" xlink:href="#m2ed808d281" y="219.775098"/>
     <use style="fill:#1f77b4;stroke:#1f77b4;" x="173.293666" xlink:href="#m2ed808d281" y="210.532814"/>
     <use style="fill:#1f77b4;stroke:#1f77b4;" x="97.126135" xlink:href="#m2ed808d281" y="210.004155"/>
     <use style="fill:#1f77b4;stroke:#1f77b4;" x="130.867604" xlink:href="#m2ed808d281" y="218.036979"/>
     <use style="fill:#1f77b4;stroke:#1f77b4;" x="153.556364" xlink:href="#m2ed808d281" y="165.944414"/>
     <use style="fill:#1f77b4;stroke:#1f77b4;" x="110.966357" xlink:href="#m2ed808d281" y="209.351083"/>
     <use style="fill:#1f77b4;stroke:#1f77b4;" x="190.226642" xlink:href="#m2ed808d281" y="181.189592"/>
     <use style="fill:#1f77b4;stroke:#1f77b4;" x="111.233385" xlink:href="#m2ed808d281" y="216.341528"/>
     <use style="fill:#1f77b4;stroke:#1f77b4;" x="91.782374" xlink:href="#m2ed808d281" y="218.167582"/>
     <use style="fill:#1f77b4;stroke:#1f77b4;" x="87.617168" xlink:href="#m2ed808d281" y="219.700855"/>
     <use style="fill:#1f77b4;stroke:#1f77b4;" x="155.150571" xlink:href="#m2ed808d281" y="205.281996"/>
     <use style="fill:#1f77b4;stroke:#1f77b4;" x="224.187868" xlink:href="#m2ed808d281" y="228.144618"/>
     <use style="fill:#1f77b4;stroke:#1f77b4;" x="178.906828" xlink:href="#m2ed808d281" y="216.348056"/>
     <use style="fill:#1f77b4;stroke:#1f77b4;" x="220.502556" xlink:href="#m2ed808d281" y="97.807958"/>
     <use style="fill:#1f77b4;stroke:#1f77b4;" x="373.386682" xlink:href="#m2ed808d281" y="228.211147"/>
     <use style="fill:#1f77b4;stroke:#1f77b4;" x="80.802254" xlink:href="#m2ed808d281" y="222.966347"/>
     <use style="fill:#1f77b4;stroke:#1f77b4;" x="71.528725" xlink:href="#m2ed808d281" y="230.412489"/>
     <use style="fill:#1f77b4;stroke:#1f77b4;" x="179.307772" xlink:href="#m2ed808d281" y="227.083978"/>
     <use style="fill:#1f77b4;stroke:#1f77b4;" x="105.873864" xlink:href="#m2ed808d281" y="201.921656"/>
     <use style="fill:#1f77b4;stroke:#1f77b4;" x="139.711859" xlink:href="#m2ed808d281" y="231.521788"/>
     <use style="fill:#1f77b4;stroke:#1f77b4;" x="125.543464" xlink:href="#m2ed808d281" y="210.169417"/>
     <use style="fill:#1f77b4;stroke:#1f77b4;" x="151.849225" xlink:href="#m2ed808d281" y="209.173327"/>
     <use style="fill:#1f77b4;stroke:#1f77b4;" x="122.350715" xlink:href="#m2ed808d281" y="215.438072"/>
     <use style="fill:#1f77b4;stroke:#1f77b4;" x="104.174079" xlink:href="#m2ed808d281" y="214.996769"/>
     <use style="fill:#1f77b4;stroke:#1f77b4;" x="113.030118" xlink:href="#m2ed808d281" y="206.997291"/>
     <use style="fill:#1f77b4;stroke:#1f77b4;" x="87.192946" xlink:href="#m2ed808d281" y="201.919142"/>
     <use style="fill:#1f77b4;stroke:#1f77b4;" x="118.366086" xlink:href="#m2ed808d281" y="196.829965"/>
     <use style="fill:#1f77b4;stroke:#1f77b4;" x="162.829977" xlink:href="#m2ed808d281" y="221.821069"/>
     <use style="fill:#1f77b4;stroke:#1f77b4;" x="173.225309" xlink:href="#m2ed808d281" y="222.527739"/>
     <use style="fill:#1f77b4;stroke:#1f77b4;" x="135.503541" xlink:href="#m2ed808d281" y="206.884724"/>
     <use style="fill:#1f77b4;stroke:#1f77b4;" x="140.28235" xlink:href="#m2ed808d281" y="206.881011"/>
     <use style="fill:#1f77b4;stroke:#1f77b4;" x="128.955135" xlink:href="#m2ed808d281" y="215.653048"/>
     <use style="fill:#1f77b4;stroke:#1f77b4;" x="105.43964" xlink:href="#m2ed808d281" y="213.618363"/>
     <use style="fill:#1f77b4;stroke:#1f77b4;" x="69.413318" xlink:href="#m2ed808d281" y="225.845283"/>
     <use style="fill:#1f77b4;stroke:#1f77b4;" x="112.412727" xlink:href="#m2ed808d281" y="205.013767"/>
     <use style="fill:#1f77b4;stroke:#1f77b4;" x="82.574144" xlink:href="#m2ed808d281" y="221.040147"/>
     <use style="fill:#1f77b4;stroke:#1f77b4;" x="146.267853" xlink:href="#m2ed808d281" y="219.929328"/>
     <use style="fill:#1f77b4;stroke:#1f77b4;" x="73.607035" xlink:href="#m2ed808d281" y="217.681614"/>
     <use style="fill:#1f77b4;stroke:#1f77b4;" x="112.479457" xlink:href="#m2ed808d281" y="208.738711"/>
     <use style="fill:#1f77b4;stroke:#1f77b4;" x="238.602773" xlink:href="#m2ed808d281" y="44.601899"/>
     <use style="fill:#1f77b4;stroke:#1f77b4;" x="101.034468" xlink:href="#m2ed808d281" y="221.3621"/>
     <use style="fill:#1f77b4;stroke:#1f77b4;" x="112.591756" xlink:href="#m2ed808d281" y="187.812842"/>
     <use style="fill:#1f77b4;stroke:#1f77b4;" x="110.289009" xlink:href="#m2ed808d281" y="226.815647"/>
     <use style="fill:#1f77b4;stroke:#1f77b4;" x="83.331902" xlink:href="#m2ed808d281" y="206.786716"/>
     <use style="fill:#1f77b4;stroke:#1f77b4;" x="152.574707" xlink:href="#m2ed808d281" y="223.067843"/>
     <use style="fill:#1f77b4;stroke:#1f77b4;" x="124.706858" xlink:href="#m2ed808d281" y="209.254349"/>
     <use style="fill:#1f77b4;stroke:#1f77b4;" x="113.484002" xlink:href="#m2ed808d281" y="202.223211"/>
     <use style="fill:#1f77b4;stroke:#1f77b4;" x="121.113479" xlink:href="#m2ed808d281" y="164.573698"/>
     <use style="fill:#1f77b4;stroke:#1f77b4;" x="195.934148" xlink:href="#m2ed808d281" y="219.786021"/>
     <use style="fill:#1f77b4;stroke:#1f77b4;" x="98.87421" xlink:href="#m2ed808d281" y="211.138012"/>
     <use style="fill:#1f77b4;stroke:#1f77b4;" x="144.945486" xlink:href="#m2ed808d281" y="223.307835"/>
     <use style="fill:#1f77b4;stroke:#1f77b4;" x="140.327357" xlink:href="#m2ed808d281" y="208.329921"/>
     <use style="fill:#1f77b4;stroke:#1f77b4;" x="228.698635" xlink:href="#m2ed808d281" y="227.884051"/>
     <use style="fill:#1f77b4;stroke:#1f77b4;" x="133.669072" xlink:href="#m2ed808d281" y="214.996979"/>
     <use style="fill:#1f77b4;stroke:#1f77b4;" x="110.9974" xlink:href="#m2ed808d281" y="210.782023"/>
     <use style="fill:#1f77b4;stroke:#1f77b4;" x="98.157496" xlink:href="#m2ed808d281" y="198.400029"/>
     <use style="fill:#1f77b4;stroke:#1f77b4;" x="133.037214" xlink:href="#m2ed808d281" y="220.468542"/>
     <use style="fill:#1f77b4;stroke:#1f77b4;" x="121.229687" xlink:href="#m2ed808d281" y="215.193383"/>
    </g>
   </g>
   <g id="matplotlib.axis_1">
    <g id="xtick_1">
     <g id="line2d_1">
      <defs>
       <path d="M 0 0 
L 0 3.5 
" id="m0f1fc43ca5" style="stroke:#000000;stroke-width:0.8;"/>
      </defs>
      <g>
       <use style="stroke:#000000;stroke-width:0.8;" x="78.527952" xlink:href="#m0f1fc43ca5" y="252"/>
      </g>
     </g>
     <g id="text_1">
      <!-- −6 -->
      <defs>
       <path d="M 10.59375 35.5 
L 73.1875 35.5 
L 73.1875 27.203125 
L 10.59375 27.203125 
z
" id="DejaVuSans-8722"/>
       <path d="M 33.015625 40.375 
Q 26.375 40.375 22.484375 35.828125 
Q 18.609375 31.296875 18.609375 23.390625 
Q 18.609375 15.53125 22.484375 10.953125 
Q 26.375 6.390625 33.015625 6.390625 
Q 39.65625 6.390625 43.53125 10.953125 
Q 47.40625 15.53125 47.40625 23.390625 
Q 47.40625 31.296875 43.53125 35.828125 
Q 39.65625 40.375 33.015625 40.375 
z
M 52.59375 71.296875 
L 52.59375 62.3125 
Q 48.875 64.0625 45.09375 64.984375 
Q 41.3125 65.921875 37.59375 65.921875 
Q 27.828125 65.921875 22.671875 59.328125 
Q 17.53125 52.734375 16.796875 39.40625 
Q 19.671875 43.65625 24.015625 45.921875 
Q 28.375 48.1875 33.59375 48.1875 
Q 44.578125 48.1875 50.953125 41.515625 
Q 57.328125 34.859375 57.328125 23.390625 
Q 57.328125 12.15625 50.6875 5.359375 
Q 44.046875 -1.421875 33.015625 -1.421875 
Q 20.359375 -1.421875 13.671875 8.265625 
Q 6.984375 17.96875 6.984375 36.375 
Q 6.984375 53.65625 15.1875 63.9375 
Q 23.390625 74.21875 37.203125 74.21875 
Q 40.921875 74.21875 44.703125 73.484375 
Q 48.484375 72.75 52.59375 71.296875 
z
" id="DejaVuSans-54"/>
      </defs>
      <g transform="translate(71.156858 266.598437)scale(0.1 -0.1)">
       <use xlink:href="#DejaVuSans-8722"/>
       <use x="83.789062" xlink:href="#DejaVuSans-54"/>
      </g>
     </g>
    </g>
    <g id="xtick_2">
     <g id="line2d_2">
      <g>
       <use style="stroke:#000000;stroke-width:0.8;" x="122.082288" xlink:href="#m0f1fc43ca5" y="252"/>
      </g>
     </g>
     <g id="text_2">
      <!-- −4 -->
      <defs>
       <path d="M 37.796875 64.3125 
L 12.890625 25.390625 
L 37.796875 25.390625 
z
M 35.203125 72.90625 
L 47.609375 72.90625 
L 47.609375 25.390625 
L 58.015625 25.390625 
L 58.015625 17.1875 
L 47.609375 17.1875 
L 47.609375 0 
L 37.796875 0 
L 37.796875 17.1875 
L 4.890625 17.1875 
L 4.890625 26.703125 
z
" id="DejaVuSans-52"/>
      </defs>
      <g transform="translate(114.711194 266.598437)scale(0.1 -0.1)">
       <use xlink:href="#DejaVuSans-8722"/>
       <use x="83.789062" xlink:href="#DejaVuSans-52"/>
      </g>
     </g>
    </g>
    <g id="xtick_3">
     <g id="line2d_3">
      <g>
       <use style="stroke:#000000;stroke-width:0.8;" x="165.636623" xlink:href="#m0f1fc43ca5" y="252"/>
      </g>
     </g>
     <g id="text_3">
      <!-- −2 -->
      <defs>
       <path d="M 19.1875 8.296875 
L 53.609375 8.296875 
L 53.609375 0 
L 7.328125 0 
L 7.328125 8.296875 
Q 12.9375 14.109375 22.625 23.890625 
Q 32.328125 33.6875 34.8125 36.53125 
Q 39.546875 41.84375 41.421875 45.53125 
Q 43.3125 49.21875 43.3125 52.78125 
Q 43.3125 58.59375 39.234375 62.25 
Q 35.15625 65.921875 28.609375 65.921875 
Q 23.96875 65.921875 18.8125 64.3125 
Q 13.671875 62.703125 7.8125 59.421875 
L 7.8125 69.390625 
Q 13.765625 71.78125 18.9375 73 
Q 24.125 74.21875 28.421875 74.21875 
Q 39.75 74.21875 46.484375 68.546875 
Q 53.21875 62.890625 53.21875 53.421875 
Q 53.21875 48.921875 51.53125 44.890625 
Q 49.859375 40.875 45.40625 35.40625 
Q 44.1875 33.984375 37.640625 27.21875 
Q 31.109375 20.453125 19.1875 8.296875 
z
" id="DejaVuSans-50"/>
      </defs>
      <g transform="translate(158.26553 266.598437)scale(0.1 -0.1)">
       <use xlink:href="#DejaVuSans-8722"/>
       <use x="83.789062" xlink:href="#DejaVuSans-50"/>
      </g>
     </g>
    </g>
    <g id="xtick_4">
     <g id="line2d_4">
      <g>
       <use style="stroke:#000000;stroke-width:0.8;" x="209.190959" xlink:href="#m0f1fc43ca5" y="252"/>
      </g>
     </g>
     <g id="text_4">
      <!-- 0 -->
      <defs>
       <path d="M 31.78125 66.40625 
Q 24.171875 66.40625 20.328125 58.90625 
Q 16.5 51.421875 16.5 36.375 
Q 16.5 21.390625 20.328125 13.890625 
Q 24.171875 6.390625 31.78125 6.390625 
Q 39.453125 6.390625 43.28125 13.890625 
Q 47.125 21.390625 47.125 36.375 
Q 47.125 51.421875 43.28125 58.90625 
Q 39.453125 66.40625 31.78125 66.40625 
z
M 31.78125 74.21875 
Q 44.046875 74.21875 50.515625 64.515625 
Q 56.984375 54.828125 56.984375 36.375 
Q 56.984375 17.96875 50.515625 8.265625 
Q 44.046875 -1.421875 31.78125 -1.421875 
Q 19.53125 -1.421875 13.0625 8.265625 
Q 6.59375 17.96875 6.59375 36.375 
Q 6.59375 54.828125 13.0625 64.515625 
Q 19.53125 74.21875 31.78125 74.21875 
z
" id="DejaVuSans-48"/>
      </defs>
      <g transform="translate(206.009709 266.598437)scale(0.1 -0.1)">
       <use xlink:href="#DejaVuSans-48"/>
      </g>
     </g>
    </g>
    <g id="xtick_5">
     <g id="line2d_5">
      <g>
       <use style="stroke:#000000;stroke-width:0.8;" x="252.745295" xlink:href="#m0f1fc43ca5" y="252"/>
      </g>
     </g>
     <g id="text_5">
      <!-- 2 -->
      <g transform="translate(249.564045 266.598437)scale(0.1 -0.1)">
       <use xlink:href="#DejaVuSans-50"/>
      </g>
     </g>
    </g>
    <g id="xtick_6">
     <g id="line2d_6">
      <g>
       <use style="stroke:#000000;stroke-width:0.8;" x="296.299631" xlink:href="#m0f1fc43ca5" y="252"/>
      </g>
     </g>
     <g id="text_6">
      <!-- 4 -->
      <g transform="translate(293.118381 266.598437)scale(0.1 -0.1)">
       <use xlink:href="#DejaVuSans-52"/>
      </g>
     </g>
    </g>
    <g id="xtick_7">
     <g id="line2d_7">
      <g>
       <use style="stroke:#000000;stroke-width:0.8;" x="339.853967" xlink:href="#m0f1fc43ca5" y="252"/>
      </g>
     </g>
     <g id="text_7">
      <!-- 6 -->
      <g transform="translate(336.672717 266.598437)scale(0.1 -0.1)">
       <use xlink:href="#DejaVuSans-54"/>
      </g>
     </g>
    </g>
    <g id="xtick_8">
     <g id="line2d_8">
      <g>
       <use style="stroke:#000000;stroke-width:0.8;" x="383.408302" xlink:href="#m0f1fc43ca5" y="252"/>
      </g>
     </g>
     <g id="text_8">
      <!-- 8 -->
      <defs>
       <path d="M 31.78125 34.625 
Q 24.75 34.625 20.71875 30.859375 
Q 16.703125 27.09375 16.703125 20.515625 
Q 16.703125 13.921875 20.71875 10.15625 
Q 24.75 6.390625 31.78125 6.390625 
Q 38.8125 6.390625 42.859375 10.171875 
Q 46.921875 13.96875 46.921875 20.515625 
Q 46.921875 27.09375 42.890625 30.859375 
Q 38.875 34.625 31.78125 34.625 
z
M 21.921875 38.8125 
Q 15.578125 40.375 12.03125 44.71875 
Q 8.5 49.078125 8.5 55.328125 
Q 8.5 64.0625 14.71875 69.140625 
Q 20.953125 74.21875 31.78125 74.21875 
Q 42.671875 74.21875 48.875 69.140625 
Q 55.078125 64.0625 55.078125 55.328125 
Q 55.078125 49.078125 51.53125 44.71875 
Q 48 40.375 41.703125 38.8125 
Q 48.828125 37.15625 52.796875 32.3125 
Q 56.78125 27.484375 56.78125 20.515625 
Q 56.78125 9.90625 50.3125 4.234375 
Q 43.84375 -1.421875 31.78125 -1.421875 
Q 19.734375 -1.421875 13.25 4.234375 
Q 6.78125 9.90625 6.78125 20.515625 
Q 6.78125 27.484375 10.78125 32.3125 
Q 14.796875 37.15625 21.921875 38.8125 
z
M 18.3125 54.390625 
Q 18.3125 48.734375 21.84375 45.5625 
Q 25.390625 42.390625 31.78125 42.390625 
Q 38.140625 42.390625 41.71875 45.5625 
Q 45.3125 48.734375 45.3125 54.390625 
Q 45.3125 60.0625 41.71875 63.234375 
Q 38.140625 66.40625 31.78125 66.40625 
Q 25.390625 66.40625 21.84375 63.234375 
Q 18.3125 60.0625 18.3125 54.390625 
z
" id="DejaVuSans-56"/>
      </defs>
      <g transform="translate(380.227052 266.598437)scale(0.1 -0.1)">
       <use xlink:href="#DejaVuSans-56"/>
      </g>
     </g>
    </g>
    <g id="text_9">
     <!-- es1 -->
     <defs>
      <path d="M 56.203125 29.59375 
L 56.203125 25.203125 
L 14.890625 25.203125 
Q 15.484375 15.921875 20.484375 11.0625 
Q 25.484375 6.203125 34.421875 6.203125 
Q 39.59375 6.203125 44.453125 7.46875 
Q 49.3125 8.734375 54.109375 11.28125 
L 54.109375 2.78125 
Q 49.265625 0.734375 44.1875 -0.34375 
Q 39.109375 -1.421875 33.890625 -1.421875 
Q 20.796875 -1.421875 13.15625 6.1875 
Q 5.515625 13.8125 5.515625 26.8125 
Q 5.515625 40.234375 12.765625 48.109375 
Q 20.015625 56 32.328125 56 
Q 43.359375 56 49.78125 48.890625 
Q 56.203125 41.796875 56.203125 29.59375 
z
M 47.21875 32.234375 
Q 47.125 39.59375 43.09375 43.984375 
Q 39.0625 48.390625 32.421875 48.390625 
Q 24.90625 48.390625 20.390625 44.140625 
Q 15.875 39.890625 15.1875 32.171875 
z
" id="DejaVuSans-101"/>
      <path d="M 44.28125 53.078125 
L 44.28125 44.578125 
Q 40.484375 46.53125 36.375 47.5 
Q 32.28125 48.484375 27.875 48.484375 
Q 21.1875 48.484375 17.84375 46.4375 
Q 14.5 44.390625 14.5 40.28125 
Q 14.5 37.15625 16.890625 35.375 
Q 19.28125 33.59375 26.515625 31.984375 
L 29.59375 31.296875 
Q 39.15625 29.25 43.1875 25.515625 
Q 47.21875 21.78125 47.21875 15.09375 
Q 47.21875 7.46875 41.1875 3.015625 
Q 35.15625 -1.421875 24.609375 -1.421875 
Q 20.21875 -1.421875 15.453125 -0.5625 
Q 10.6875 0.296875 5.421875 2 
L 5.421875 11.28125 
Q 10.40625 8.6875 15.234375 7.390625 
Q 20.0625 6.109375 24.8125 6.109375 
Q 31.15625 6.109375 34.5625 8.28125 
Q 37.984375 10.453125 37.984375 14.40625 
Q 37.984375 18.0625 35.515625 20.015625 
Q 33.0625 21.96875 24.703125 23.78125 
L 21.578125 24.515625 
Q 13.234375 26.265625 9.515625 29.90625 
Q 5.8125 33.546875 5.8125 39.890625 
Q 5.8125 47.609375 11.28125 51.796875 
Q 16.75 56 26.8125 56 
Q 31.78125 56 36.171875 55.265625 
Q 40.578125 54.546875 44.28125 53.078125 
z
" id="DejaVuSans-115"/>
      <path d="M 12.40625 8.296875 
L 28.515625 8.296875 
L 28.515625 63.921875 
L 10.984375 60.40625 
L 10.984375 69.390625 
L 28.421875 72.90625 
L 38.28125 72.90625 
L 38.28125 8.296875 
L 54.390625 8.296875 
L 54.390625 0 
L 12.40625 0 
z
" id="DejaVuSans-49"/>
     </defs>
     <g transform="translate(212.5375 280.276563)scale(0.1 -0.1)">
      <use xlink:href="#DejaVuSans-101"/>
      <use x="61.523438" xlink:href="#DejaVuSans-115"/>
      <use x="113.623047" xlink:href="#DejaVuSans-49"/>
     </g>
    </g>
   </g>
   <g id="matplotlib.axis_2">
    <g id="ytick_1">
     <g id="line2d_9">
      <defs>
       <path d="M 0 0 
L -3.5 0 
" id="mb3f7ea1279" style="stroke:#000000;stroke-width:0.8;"/>
      </defs>
      <g>
       <use style="stroke:#000000;stroke-width:0.8;" x="54" xlink:href="#mb3f7ea1279" y="232.417616"/>
      </g>
     </g>
     <g id="text_10">
      <!-- −5.0 -->
      <defs>
       <path d="M 10.796875 72.90625 
L 49.515625 72.90625 
L 49.515625 64.59375 
L 19.828125 64.59375 
L 19.828125 46.734375 
Q 21.96875 47.46875 24.109375 47.828125 
Q 26.265625 48.1875 28.421875 48.1875 
Q 40.625 48.1875 47.75 41.5 
Q 54.890625 34.8125 54.890625 23.390625 
Q 54.890625 11.625 47.5625 5.09375 
Q 40.234375 -1.421875 26.90625 -1.421875 
Q 22.3125 -1.421875 17.546875 -0.640625 
Q 12.796875 0.140625 7.71875 1.703125 
L 7.71875 11.625 
Q 12.109375 9.234375 16.796875 8.0625 
Q 21.484375 6.890625 26.703125 6.890625 
Q 35.15625 6.890625 40.078125 11.328125 
Q 45.015625 15.765625 45.015625 23.390625 
Q 45.015625 31 40.078125 35.4375 
Q 35.15625 39.890625 26.703125 39.890625 
Q 22.75 39.890625 18.8125 39.015625 
Q 14.890625 38.140625 10.796875 36.28125 
z
" id="DejaVuSans-53"/>
       <path d="M 10.6875 12.40625 
L 21 12.40625 
L 21 0 
L 10.6875 0 
z
" id="DejaVuSans-46"/>
      </defs>
      <g transform="translate(22.717187 236.216835)scale(0.1 -0.1)">
       <use xlink:href="#DejaVuSans-8722"/>
       <use x="83.789062" xlink:href="#DejaVuSans-53"/>
       <use x="147.412109" xlink:href="#DejaVuSans-46"/>
       <use x="179.199219" xlink:href="#DejaVuSans-48"/>
      </g>
     </g>
    </g>
    <g id="ytick_2">
     <g id="line2d_10">
      <g>
       <use style="stroke:#000000;stroke-width:0.8;" x="54" xlink:href="#mb3f7ea1279" y="203.740391"/>
      </g>
     </g>
     <g id="text_11">
      <!-- −2.5 -->
      <g transform="translate(22.717187 207.539609)scale(0.1 -0.1)">
       <use xlink:href="#DejaVuSans-8722"/>
       <use x="83.789062" xlink:href="#DejaVuSans-50"/>
       <use x="147.412109" xlink:href="#DejaVuSans-46"/>
       <use x="179.199219" xlink:href="#DejaVuSans-53"/>
      </g>
     </g>
    </g>
    <g id="ytick_3">
     <g id="line2d_11">
      <g>
       <use style="stroke:#000000;stroke-width:0.8;" x="54" xlink:href="#mb3f7ea1279" y="175.063165"/>
      </g>
     </g>
     <g id="text_12">
      <!-- 0.0 -->
      <g transform="translate(31.096875 178.862384)scale(0.1 -0.1)">
       <use xlink:href="#DejaVuSans-48"/>
       <use x="63.623047" xlink:href="#DejaVuSans-46"/>
       <use x="95.410156" xlink:href="#DejaVuSans-48"/>
      </g>
     </g>
    </g>
    <g id="ytick_4">
     <g id="line2d_12">
      <g>
       <use style="stroke:#000000;stroke-width:0.8;" x="54" xlink:href="#mb3f7ea1279" y="146.385939"/>
      </g>
     </g>
     <g id="text_13">
      <!-- 2.5 -->
      <g transform="translate(31.096875 150.185158)scale(0.1 -0.1)">
       <use xlink:href="#DejaVuSans-50"/>
       <use x="63.623047" xlink:href="#DejaVuSans-46"/>
       <use x="95.410156" xlink:href="#DejaVuSans-53"/>
      </g>
     </g>
    </g>
    <g id="ytick_5">
     <g id="line2d_13">
      <g>
       <use style="stroke:#000000;stroke-width:0.8;" x="54" xlink:href="#mb3f7ea1279" y="117.708714"/>
      </g>
     </g>
     <g id="text_14">
      <!-- 5.0 -->
      <g transform="translate(31.096875 121.507933)scale(0.1 -0.1)">
       <use xlink:href="#DejaVuSans-53"/>
       <use x="63.623047" xlink:href="#DejaVuSans-46"/>
       <use x="95.410156" xlink:href="#DejaVuSans-48"/>
      </g>
     </g>
    </g>
    <g id="ytick_6">
     <g id="line2d_14">
      <g>
       <use style="stroke:#000000;stroke-width:0.8;" x="54" xlink:href="#mb3f7ea1279" y="89.031488"/>
      </g>
     </g>
     <g id="text_15">
      <!-- 7.5 -->
      <defs>
       <path d="M 8.203125 72.90625 
L 55.078125 72.90625 
L 55.078125 68.703125 
L 28.609375 0 
L 18.3125 0 
L 43.21875 64.59375 
L 8.203125 64.59375 
z
" id="DejaVuSans-55"/>
      </defs>
      <g transform="translate(31.096875 92.830707)scale(0.1 -0.1)">
       <use xlink:href="#DejaVuSans-55"/>
       <use x="63.623047" xlink:href="#DejaVuSans-46"/>
       <use x="95.410156" xlink:href="#DejaVuSans-53"/>
      </g>
     </g>
    </g>
    <g id="ytick_7">
     <g id="line2d_15">
      <g>
       <use style="stroke:#000000;stroke-width:0.8;" x="54" xlink:href="#mb3f7ea1279" y="60.354263"/>
      </g>
     </g>
     <g id="text_16">
      <!-- 10.0 -->
      <g transform="translate(24.734375 64.153481)scale(0.1 -0.1)">
       <use xlink:href="#DejaVuSans-49"/>
       <use x="63.623047" xlink:href="#DejaVuSans-48"/>
       <use x="127.246094" xlink:href="#DejaVuSans-46"/>
       <use x="159.033203" xlink:href="#DejaVuSans-48"/>
      </g>
     </g>
    </g>
    <g id="text_17">
     <!-- es2 -->
     <g transform="translate(16.6375 152.1425)rotate(-90)scale(0.1 -0.1)">
      <use xlink:href="#DejaVuSans-101"/>
      <use x="61.523438" xlink:href="#DejaVuSans-115"/>
      <use x="113.623047" xlink:href="#DejaVuSans-50"/>
     </g>
    </g>
   </g>
   <g id="patch_3">
    <path d="M 54 252 
L 54 34.56 
" style="fill:none;stroke:#000000;stroke-linecap:square;stroke-linejoin:miter;stroke-width:0.8;"/>
   </g>
   <g id="patch_4">
    <path d="M 388.8 252 
L 388.8 34.56 
" style="fill:none;stroke:#000000;stroke-linecap:square;stroke-linejoin:miter;stroke-width:0.8;"/>
   </g>
   <g id="patch_5">
    <path d="M 54 252 
L 388.8 252 
" style="fill:none;stroke:#000000;stroke-linecap:square;stroke-linejoin:miter;stroke-width:0.8;"/>
   </g>
   <g id="patch_6">
    <path d="M 54 34.56 
L 388.8 34.56 
" style="fill:none;stroke:#000000;stroke-linecap:square;stroke-linejoin:miter;stroke-width:0.8;"/>
   </g>
  </g>
 </g>
 <defs>
  <clipPath id="p59f0070a55">
   <rect height="217.44" width="334.8" x="54" y="34.56"/>
  </clipPath>
 </defs>
</svg>
